<svg width="70" height="70" viewBox="0 0 70 70" fill="none" xmlns="http://www.w3.org/2000/svg">
<path d="M35.0026 58.3327H10.2109C9.05062 58.3327 7.93782 57.8717 7.11735 57.0513C6.29687 56.2308 5.83594 55.118 5.83594 53.9577V16.041C5.83594 14.8807 6.29687 13.7679 7.11735 12.9474C7.93782 12.127 9.05062 11.666 10.2109 11.666H59.7943C60.9546 11.666 62.0674 12.127 62.8879 12.9474C63.7083 13.7679 64.1693 14.8807 64.1693 16.041V33.6271" stroke="black" stroke-width="4" stroke-linecap="round" stroke-linejoin="round"/>
<path d="M5.83594 16.041C5.83594 14.8807 6.29687 13.7679 7.11735 12.9474C7.93782 12.127 9.05062 11.666 10.2109 11.666H59.7943C60.9546 11.666 62.0674 12.127 62.8879 12.9474C63.7083 13.7679 64.1693 14.8807 64.1693 16.041V29.166H5.83594V16.041Z" stroke="black" stroke-width="4"/>
<path d="M11.6667 20.4154C11.6667 18.8045 12.9725 17.4987 14.5833 17.4987C16.1942 17.4987 17.5 18.8045 17.5 20.4154C17.5 22.0262 16.1942 23.332 14.5833 23.332C12.9725 23.332 11.6667 22.0262 11.6667 20.4154Z" fill="black"/>
<path d="M20.4167 20.4154C20.4167 18.8045 21.7225 17.4987 23.3333 17.4987C24.9442 17.4987 26.25 18.8045 26.25 20.4154C26.25 22.0262 24.9442 23.332 23.3333 23.332C21.7225 23.332 20.4167 22.0262 20.4167 20.4154Z" fill="black"/>
<path d="M53.9609 53.957C56.3772 53.957 58.3359 51.9983 58.3359 49.582C58.3359 47.1658 56.3772 45.207 53.9609 45.207C51.5447 45.207 49.5859 47.1658 49.5859 49.582C49.5859 51.9983 51.5447 53.957 53.9609 53.957Z" stroke="black" stroke-width="4"/>
<path d="M53.9576 59.7917V53.9583M53.9576 45.2083V39.375M45.1172 54.6875L50.1689 51.7708M57.7464 47.3958L62.798 44.4792M45.1172 44.4792L50.1689 47.3958M57.7464 51.7708L62.798 54.6875" stroke="black" stroke-width="4" stroke-linecap="round" stroke-linejoin="round"/>
</svg>
