<svg id="egJ5RoS2UE71" xmlns="http://www.w3.org/2000/svg" xmlns:xlink="http://www.w3.org/1999/xlink" viewBox="0 0 1646 512" shape-rendering="geometricPrecision" text-rendering="geometricPrecision" style="background-color:transparent"><style><![CDATA[#egJ5RoS2UE72 {animation: egJ5RoS2UE72_c_o 3500ms linear infinite normal forwards}@keyframes egJ5RoS2UE72_c_o { 0% {opacity: 1} 28.571429% {opacity: 0} 57.142857% {opacity: 1} 85.714286% {opacity: 0} 100% {opacity: 1}} #egJ5RoS2UE78 {animation: egJ5RoS2UE78_c_o 3500ms linear infinite normal forwards}@keyframes egJ5RoS2UE78_c_o { 0% {opacity: 1} 28.571429% {opacity: 0} 57.142857% {opacity: 1} 85.714286% {opacity: 0} 100% {opacity: 1}} #egJ5RoS2UE710 {animation: egJ5RoS2UE710_c_o 3500ms linear infinite normal forwards}@keyframes egJ5RoS2UE710_c_o { 0% {opacity: 1} 28.571429% {opacity: 0} 57.142857% {opacity: 1} 85.714286% {opacity: 0} 100% {opacity: 1}} #egJ5RoS2UE712 {animation: egJ5RoS2UE712_c_o 3500ms linear infinite normal forwards}@keyframes egJ5RoS2UE712_c_o { 0% {opacity: 1} 28.571429% {opacity: 0} 57.142857% {opacity: 1} 85.714286% {opacity: 0} 100% {opacity: 1}} #egJ5RoS2UE714 {animation: egJ5RoS2UE714_c_o 3500ms linear infinite normal forwards}@keyframes egJ5RoS2UE714_c_o { 0% {opacity: 1} 28.571429% {opacity: 0} 57.142857% {opacity: 1} 85.714286% {opacity: 0} 100% {opacity: 1}} #egJ5RoS2UE756_to {animation: egJ5RoS2UE756_to__to 3500ms linear infinite normal forwards}@keyframes egJ5RoS2UE756_to__to { 0% {transform: translate(197.542016px,153.67598px)} 14.285714% {transform: translate(395.531616px,249.59339px)} 28.571429% {transform: translate(573.852989px,249.189535px)} 42.857143% {transform: translate(760.56134px,150.62898px)} 57.142857% {transform: translate(889.713216px,150.60898px)} 71.428571% {transform: translate(1090.590873px,249.189535px)} 85.714286% {transform: translate(1260.389533px,251.904257px)} 100% {transform: translate(1456.995117px,153.67598px)}} #egJ5RoS2UE756 {animation: egJ5RoS2UE756_c_o 3500ms linear infinite normal forwards}@keyframes egJ5RoS2UE756_c_o { 0% {opacity: 1} 14% {opacity: 1} 14.285714% {opacity: 0} 28.571429% {opacity: 0} 28.857143% {opacity: 1} 42.857143% {opacity: 1} 43.142857% {opacity: 0} 57.142857% {opacity: 0} 57.428571% {opacity: 1} 71.428571% {opacity: 1} 71.714286% {opacity: 0} 85.714286% {opacity: 0} 86% {opacity: 1} 100% {opacity: 1}}]]></style><defs><filter id="egJ5RoS2UE72-filter" x="-150%" width="400%" y="-150%" height="400%"><feGaussianBlur id="egJ5RoS2UE72-filter-blur-0" stdDeviation="20,20" result="result"/></filter><filter id="egJ5RoS2UE78-filter" x="-150%" width="400%" y="-150%" height="400%"><feGaussianBlur id="egJ5RoS2UE78-filter-blur-0" stdDeviation="20,20" result="result"/></filter><filter id="egJ5RoS2UE710-filter" x="-150%" width="400%" y="-150%" height="400%"><feGaussianBlur id="egJ5RoS2UE710-filter-blur-0" stdDeviation="20,20" result="result"/></filter><filter id="egJ5RoS2UE712-filter" x="-150%" width="400%" y="-150%" height="400%"><feGaussianBlur id="egJ5RoS2UE712-filter-blur-0" stdDeviation="20,20" result="result"/></filter><filter id="egJ5RoS2UE714-filter" x="-150%" width="400%" y="-150%" height="400%"><feGaussianBlur id="egJ5RoS2UE714-filter-blur-0" stdDeviation="20,20" result="result"/></filter><radialGradient id="egJ5RoS2UE756-fill" cx="0" cy="0" r="0.5" spreadMethod="pad" gradientUnits="objectBoundingBox" gradientTransform="translate(0.5 0.5)"><stop id="egJ5RoS2UE756-fill-0" offset="0%" stop-color="#f6f85c"/><stop id="egJ5RoS2UE756-fill-1" offset="100%" stop-color="rgba(255,255,255,0)"/></radialGradient></defs><g id="egJ5RoS2UE72" transform="translate(0-2.493047)" filter="url(#egJ5RoS2UE72-filter)"><path d="M191.425,217.935c10.969,6.328,11.029,16.602.118,22.944l-51.166,29.73c-10.895,6.342-28.636,6.342-39.605,0l-51.506-29.73c-10.9694-6.342-11.0285-16.616-.133-22.944l51.181-29.744c10.895-6.328,28.621-6.328,39.605,0l51.506,29.744Z" fill="#1bc0ab" fill-opacity="0.2"/></g><path d="M125.949,118.671L484.944,293.547L823.881,118.671L1179.47,293.547l342-172.878" fill="none" stroke="#f5f5f5" stroke-width="12"/><path d="M382.032,492.624c0,5.016,3.672,8.52,8.352,8.52c3.624,0,6.504-1.8,7.752-5.016h-2.616c-.912,1.992-2.688,3.12-5.136,3.12-3.504,0-6.12-2.544-6.12-6.624c0-4.104,2.616-6.648,6.12-6.648c2.448,0,4.224,1.128,5.136,3.144h2.616c-1.248-3.24-4.128-5.064-7.752-5.064-4.68,0-8.352,3.552-8.352,8.568Zm35.339,0c0-5.016-3.672-8.544-8.4-8.544-4.704,0-8.4,3.528-8.4,8.544s3.696,8.544,8.4,8.544c4.728,0,8.4-3.528,8.4-8.544Zm-14.568,0c0-4.104,2.64-6.648,6.168-6.648s6.168,2.544,6.168,6.648c0,4.08-2.64,6.648-6.168,6.648s-6.168-2.568-6.168-6.648ZM420.254,501h2.184v-12.408L427.982,501h1.536l5.52-12.384v12.384h2.184v-16.608h-2.328L428.75,498.12l-6.144-13.728h-2.352v16.608Zm20.672,0h2.184v-12.408L448.654,501h1.536l5.52-12.384v12.384h2.184v-16.608h-2.328l-6.144,13.728-6.144-13.728h-2.352v16.608Zm20.624-6.168c0,4.344,2.832,6.336,6.288,6.336s6.312-1.992,6.312-6.336v-10.56h-2.184v10.584c0,3.072-1.632,4.392-4.104,4.392s-4.128-1.32-4.128-4.392v-10.584h-2.184v10.56Zm27.211-10.584v13.296l-8.784-13.296h-2.184v16.752h2.184v-13.32L488.761,501h2.184v-16.752h-2.184ZM494.668,501h2.184v-16.728h-2.184v16.728Zm5.091-8.376c0,5.016,3.672,8.52,8.352,8.52c3.624,0,6.504-1.8,7.752-5.016h-2.616c-.912,1.992-2.688,3.12-5.136,3.12-3.504,0-6.12-2.544-6.12-6.624c0-4.104,2.616-6.648,6.12-6.648c2.448,0,4.224,1.128,5.136,3.144h2.616c-1.248-3.24-4.128-5.064-7.752-5.064-4.68,0-8.352,3.552-8.352,8.568ZM530.346,501h2.304l-6.024-16.632h-2.52L518.058,501h2.304l1.344-3.72h7.296l1.344,3.72Zm-1.968-5.496h-6.048l3.024-8.448l3.024,8.448Zm5.876-9.456h4.584v14.952h2.184v-14.952h4.56v-1.776h-11.328v1.776ZM548.27,501h2.184v-16.728h-2.184v16.728Zm21.89-8.376c0-5.016-3.672-8.544-8.4-8.544-4.704,0-8.4,3.528-8.4,8.544s3.696,8.544,8.4,8.544c4.728,0,8.4-3.528,8.4-8.544Zm-14.568,0c0-4.104,2.64-6.648,6.168-6.648s6.168,2.544,6.168,6.648c0,4.08-2.64,6.648-6.168,6.648s-6.168-2.568-6.168-6.648Zm28.419-8.376v13.296l-8.784-13.296h-2.184v16.752h2.184v-13.32L584.011,501h2.184v-16.752h-2.184Z" fill="#44bd8f"/><path d="M581.829,291.126l-69.842,40.602c-14.892,8.637-39.088,8.637-54.061,0L387.62,291.126c-7.547-4.338-11.3-10.089-11.28-15.76v8.072c0,5.711,3.753,11.422,11.301,15.781L457.946,339.8c14.974,8.657,39.169,8.657,54.061,0l69.842-40.581c7.386-4.299,11.099-9.929,11.099-15.559v-8.072c-.02,5.63-3.733,11.24-11.119,15.539v-.001Z" fill="#44bd8f"/><path d="M581.646,259.827c14.993,8.637,15.054,22.662.182,31.299l-69.842,40.601c-14.893,8.637-39.088,8.637-54.061,0l-70.306-40.601c-14.973-8.637-15.054-22.662-.182-31.299l69.842-40.601c14.893-8.637,39.088-8.637,54.061,0l70.306,40.601Z" fill="#eafff7"/><g id="egJ5RoS2UE78" filter="url(#egJ5RoS2UE78-filter)"><path d="M556.547,392.297c10.984,6.327,11.028,16.602.133,22.929L505.514,444.97c-10.91,6.328-28.636,6.328-39.605,0l-51.506-29.744c-10.97-6.327-11.029-16.602-.133-22.929l51.166-29.745c10.91-6.327,28.636-6.327,39.605,0l51.506,29.745Z" fill="#44bd8f" fill-opacity="0.2"/></g><g id="egJ5RoS2UE710" filter="url(#egJ5RoS2UE710-filter)"><path d="M1240.96,392.297c10.98,6.327,11.03,16.602.13,22.929l-51.17,29.744c-10.91,6.328-28.63,6.328-39.6,0l-51.51-29.744c-10.97-6.327-11.03-16.602-.13-22.929l51.17-29.745c10.91-6.327,28.63-6.327,39.6,0l51.51,29.745Z" fill="#f0b41c" fill-opacity="0.2"/></g><g id="egJ5RoS2UE712" transform="translate(0-1.080658)" filter="url(#egJ5RoS2UE712-filter)"><path d="M897.543,219.047c10.984,6.327,11.029,16.602.133,22.929L846.51,271.72c-10.91,6.328-28.636,6.328-39.605,0l-51.506-29.744c-10.97-6.327-11.029-16.602-.133-22.929l51.166-29.745c10.91-6.327,28.636-6.327,39.605,0l51.506,29.745Z" fill="#b7dd62" fill-opacity="0.2"/></g><g id="egJ5RoS2UE714" filter="url(#egJ5RoS2UE714-filter)"><path d="M1596.46,219.047c10.98,6.327,11.03,16.602.13,22.929l-51.17,29.744c-10.91,6.328-28.63,6.328-39.6,0l-51.51-29.744c-10.97-6.327-11.03-16.602-.13-22.929l51.17-29.745c10.91-6.327,28.63-6.327,39.6,0l51.51,29.745Z" fill="#ff445b" fill-opacity="0.168627"/></g><path d="M388.907,196.545c1.342,2.659,1.974,5.62,1.837,8.596.009,3.633-.591,7.241-1.776,10.675-1.165,3.415-2.853,6.628-5.005,9.525-1.93,2.646-4.373,4.877-7.184,6.558-2.127,1.416-4.684,2.037-7.224,1.756-2.166-.391-4.025-1.772-5.025-3.733-1.351-2.65-1.991-5.605-1.856-8.577-.003-3.64.604-7.255,1.796-10.695c1.166-3.416,2.847-6.635,4.984-9.545c1.925-2.669,4.377-4.914,7.204-6.599c2.129-1.41,4.687-2.024,7.225-1.735c2.158.436,4.004,1.823,5.024,3.774v0Zm-6.355,19.009c.589-2.005.874-4.086.848-6.175.069-1.795-.219-3.585-.848-5.267-.374-1.157-1.248-2.083-2.381-2.523-1.196-.317-2.472-.096-3.491.606-1.428.862-2.636,2.043-3.532,3.45-1.055,1.613-1.846,3.384-2.341,5.247-.574,2.028-.86,4.128-.847,6.236-.056,1.788.238,3.571.868,5.246.409,1.126,1.273,2.027,2.381,2.482c1.215.311,2.505.075,3.531-.645c1.406-.845,2.59-2.015,3.451-3.411c1.053-1.616,1.85-3.386,2.361-5.246" clip-rule="evenodd" fill="#44bd8f" fill-rule="evenodd"/><path d="M409.355,175.638c1.905-1.228,4.065-2.008,6.316-2.281c1.501-.2,3.006.342,4.036,1.453c1.03,1.387,1.525,3.1,1.392,4.823.014,1.481-.218,2.954-.686,4.359-.466,1.4-1.068,2.752-1.796,4.036-.709,1.273-1.497,2.499-2.361,3.673-.848,1.17-1.675,2.24-2.462,3.228-1.13,1.312-2.139,2.543-3.027,3.612-.888,1.07-1.715,2.14-2.401,3.108-.686.969-1.292,1.897-1.816,2.785-.53.919-.989,1.877-1.373,2.865l16.588-9.585v7.567l-26.233,15.135c-.008-1.789.113-3.576.363-5.347.275-1.715.722-3.399,1.332-5.025.704-1.813,1.575-3.556,2.603-5.207c1.271-2.02,2.673-3.955,4.197-5.791c1.493-1.796,2.785-3.37,3.915-4.702s2.018-2.543,2.845-3.592c.685-.876,1.274-1.823,1.756-2.825.387-.764.594-1.606.605-2.462.05-.724-.165-1.441-.605-2.018-.415-.501-1.046-.772-1.695-.726-.972.056-1.912.37-2.724.908-.865.509-1.676,1.104-2.422,1.776-.738.691-1.414,1.448-2.018,2.26-.625.807-1.211,1.675-1.755,2.542-.545.868-1.03,1.756-1.474,2.624l-4.762-3.411c.504-.867,1.191-1.897,2.018-3.087.973-1.313,2.024-2.567,3.148-3.754c1.226-1.331,2.533-2.584,3.915-3.753c1.424-1.203,2.958-2.271,4.581-3.188v0Z" fill="#44bd8f"/><path d="M498.264,279.967c1.816,1.05,1.856,2.765.101,3.814-2.039,1.049-4.459,1.049-6.498,0-1.816-1.049-1.857-2.744-.101-3.814c2.039-1.049,4.459-1.049,6.498,0v0Zm-5.003,2.967c1.142.606,2.51.606,3.652,0c.989-.585.969-1.534,0-2.139-1.142-.576-2.49-.576-3.632,0-.989.585-.969,1.534,0,2.018" clip-rule="evenodd" fill="#44bd8f" fill-rule="evenodd"/><path d="M489.584,274.962c1.816,1.05,1.877,2.765.101,3.814-2.039,1.049-4.459,1.049-6.498,0-1.816-1.049-1.876-2.764-.101-3.814c2.039-1.048,4.459-1.048,6.498,0Zm-4.983,2.967c1.135.606,2.498.606,3.633,0c.988-.585.948-1.534,0-2.139-1.143-.576-2.49-.576-3.633,0-.989.605-.968,1.554,0,2.139Z" clip-rule="evenodd" fill="#44bd8f" fill-rule="evenodd"/><path d="M480.908,269.958c1.817,1.05,1.857,2.745.101,3.794-2.034,1.069-4.463,1.069-6.497,0-1.817-1.029-1.857-2.744-.101-3.794c2.039-1.048,4.458-1.048,6.497,0v0Zm-5.003,2.967c1.148.583,2.505.583,3.653,0c.988-.585.948-1.533,0-2.139-1.143-.575-2.49-.575-3.633,0-.457.156-.765.586-.765,1.07c0,.483.308.913.765,1.069" clip-rule="evenodd" fill="#44bd8f" fill-rule="evenodd"/><path d="M514.386,275.911c4.298,2.482,4.399,6.498.242,8.98l-13.097,7.789c-4.796,2.481-10.499,2.481-15.296,0l-13.702-7.89-17.616-.888c-.22-.012-.434-.074-.626-.182-.094-.058-.176-.133-.242-.222-.141-.202,0-.444.222-.625l7.365-4.379-2.522-1.473c-4.298-2.462-4.399-6.498-.242-8.96l13.096-7.81c4.797-2.481,10.5-2.481,15.297,0l27.121,15.66Zm-14.308,15.921l13.096-7.789c1.436-.665,2.384-2.072,2.462-3.653-.178-1.598-1.193-2.981-2.664-3.632l-27.121-15.659c-1.929-1.031-4.089-1.552-6.276-1.514-2.153-.05-4.282.465-6.175,1.494l-13.137,7.809c-1.425.681-2.374,2.077-2.482,3.653.188,1.605,1.208,2.994,2.684,3.652l3.269,1.877c.166.081.28.24.303.424-.028.17-.132.319-.283.403l-6.578,3.915l15.821.807c.225.015.445.077.645.182l13.945,8.072c1.922,1.028,4.075,1.549,6.255,1.513c2.165.052,4.305-.477,6.195-1.533" clip-rule="evenodd" fill="#44bd8f" fill-rule="evenodd"/><path d="M1115.06,484.272h-5.21v16.728h5.21c5.49,0,8.88-3.144,8.88-8.328s-3.39-8.4-8.88-8.4Zm-3.03,14.928v-13.152h3.03c4.36,0,6.64,2.544,6.64,6.624s-2.28,6.528-6.64,6.528h-3.03Zm23.79-14.952h-9v16.752h9v-1.8h-6.82v-5.76h6.1v-1.8h-6.1v-5.592h6.82v-1.8Zm9.57,14.448l-5.26-14.424h-2.33L1144.11,501h2.52l6.32-16.728h-2.31l-5.25,14.424Zm18.95-14.448h-9v16.752h9v-1.8h-6.82v-5.76h6.1v-1.8h-6.1v-5.592h6.82v-1.8Zm3.3.024v16.728h8.04v-1.776h-5.85v-14.952h-2.19Zm26.35,8.352c0-5.016-3.67-8.544-8.4-8.544-4.71,0-8.4,3.528-8.4,8.544s3.69,8.544,8.4,8.544c4.73,0,8.4-3.528,8.4-8.544Zm-14.57,0c0-4.104,2.64-6.648,6.17-6.648s6.17,2.544,6.17,6.648c0,4.08-2.64,6.648-6.17,6.648s-6.17-2.568-6.17-6.648Zm19.64-.408v-6.144h3.21c2.5,0,3.55,1.152,3.55,3.096c0,1.872-1.05,3.048-3.55,3.048h-3.21Zm9-3.048c0-2.736-1.85-4.896-5.79-4.896h-5.4v16.728h2.19v-6.984h3.21c4.15,0,5.79-2.304,5.79-4.848ZM1210.77,501h2.18v-12.408L1218.5,501h1.53l5.52-12.384v12.384h2.19v-16.608h-2.33l-6.14,13.728-6.15-13.728h-2.35v16.608Zm29.67-16.752h-9v16.752h9v-1.8h-6.81v-5.76h6.09v-1.8h-6.09v-5.592h6.81v-1.8Zm14.27,0v13.296l-8.78-13.296h-2.18v16.752h2.18v-13.32l8.78,13.32h2.19v-16.752h-2.19Zm4.88,1.8h4.58v14.952h2.19v-14.952h4.56v-1.776h-11.33v1.776Z" fill="#f0b41c"/><path d="M1274.63,291.126l-69.74,40.602c-14.87,8.637-39.09,8.637-54.06,0l-70.31-40.602c-7.52-4.338-11.3-10.089-11.28-15.76v8.072c0,5.711,3.76,11.422,11.28,15.781l70.31,40.581c14.97,8.657,39.19,8.657,54.06,0l69.84-40.581c7.41-4.299,11.1-9.929,11.12-15.559v-8.072c-.12,5.63-3.81,11.24-11.22,15.538v0Z" fill="#f0b41c"/><path d="M1274.47,259.827c14.97,8.637,15.06,22.662.16,31.299l-69.74,40.601c-14.87,8.637-39.09,8.637-54.06,0l-70.3-40.601c-14.98-8.637-15.06-22.662-.19-31.299l69.87-40.601c14.87-8.637,39.08-8.637,54.06,0l70.2,40.601Z" fill="#fffbf0"/><path d="M1081.8,197.593c1.34,2.658,1.98,5.619,1.85,8.597c0,3.64-.6,7.255-1.79,10.695-1.16,3.41-2.84,6.618-4.99,9.505-1.92,2.678-4.36,4.937-7.18,6.639-2.12,1.427-4.69,2.049-7.23,1.755-2.12-.439-3.92-1.831-4.88-3.773-1.35-2.658-1.99-5.619-1.86-8.597c0-3.64.61-7.255,1.8-10.695c1.16-3.42,2.84-6.64,4.98-9.545c1.92-2.674,4.37-4.927,7.19-6.619c2.12-1.415,4.67-2.023,7.2-1.715c2.12.449,3.92,1.828,4.91,3.753v0Zm-6.34,19.03c.57-2.016.85-4.101.85-6.195.06-1.794-.23-3.582-.85-5.267-.31-1.212-1.21-2.188-2.39-2.594-1.18-.407-2.49-.19-3.48.576-1.43.863-2.64,2.044-3.53,3.451-1.06,1.616-1.85,3.386-2.36,5.246-.57,2.037-.85,4.142-.83,6.256-.07,1.783.23,3.56.87,5.227.38,1.133,1.26,2.035,2.38,2.462c1.21.327,2.5.098,3.53-.626c1.4-.843,2.58-2.004,3.45-3.39c1.04-1.625,1.83-3.392,2.36-5.247" clip-rule="evenodd" fill="#f0b41c" fill-rule="evenodd"/><path d="M1110.65,199.793l4.81-2.765v7.507l-4.79,2.765v9.303l-7.24,4.318v-9.323l-15.88,9.182v-7.447l18.16-37.392l4.94-2.866v26.718Zm-6.45,3.733v-14.126l-9.39,19.554l9.43-5.428" clip-rule="evenodd" fill="#f0b41c" fill-rule="evenodd"/><path d="M1185.81,270.381c5.1,2.947,5.24,7.749.3,10.696-5.73,2.955-12.54,2.955-18.26,0-5.11-2.947-5.25-7.729-.27-10.696c5.72-2.944,12.51-2.944,18.23,0v0Zm-8.8,11.725c2.67.062,5.3-.578,7.65-1.856c1.78-.82,2.95-2.563,3.04-4.521-.23-1.98-1.48-3.691-3.31-4.5-2.38-1.28-5.04-1.926-7.75-1.876-2.66-.053-5.28.587-7.62,1.856-1.78.828-2.96,2.564-3.07,4.52.24,1.974,1.5,3.679,3.31,4.5c2.38,1.276,5.05,1.922,7.75,1.877Z" clip-rule="evenodd" fill="#f0b41c" fill-rule="evenodd"/><path d="M1201.91,285.112c.28.242.24.545,0,.767l-6.06,3.612c-.4.181-.86.181-1.27,0l-4.62-1.756c-1.84.657-3.73,1.15-5.65,1.473l-.95,3.048c-.2.342-.59.532-.99.484h-8.74c-.24-.012-.48-.074-.7-.182-.13-.063-.23-.17-.28-.302l-1.03-2.826c-2.16-.309-4.29-.802-6.36-1.473l-4.04,1.554c-.41.182-.88.182-1.29,0l-6.25-3.612c-.37-.202-.43-.525-.16-.747l2.6-2.361c-1.13-1.082-2.04-2.378-2.66-3.814l-4.77-.443c-.19-.018-.39-.073-.56-.162-.16-.076-.27-.229-.28-.403l-.17-5.126c0-.303.37-.545.85-.585l5.07-.485c.64-1.347,1.54-2.56,2.64-3.571l-3.21-2.543c-.15-.07-.24-.219-.24-.383c0-.165.09-.314.24-.384l6.06-3.632c.41-.183.89-.183,1.31,0l4.8,2.018c1.8-.55,3.64-.961,5.51-1.231l.85-3.511c.19-.355.58-.555.98-.505h8.74c.26-.007.51.056.73.182.13.063.23.17.28.302l1.13,3.754c1.69.279,3.35.69,4.97,1.231l5.22-2.24c.42-.181.9-.181,1.31,0l6.26,3.632c.36.202.42.525.14.767l-3.75,3.087c.83.809,1.55,1.733,2.12,2.745l6.49.746c.19.027.36.081.53.162s.28.24.3.424l.14,5.125c0,.283-.34.525-.8.586l-6.06.706c-.44,1.083-1.06,2.086-1.83,2.966l3.45,2.906Zm-7.11,3.208l4.95-2.946-3.31-2.825c-.09-.08-.14-.194-.14-.313s.05-.232.14-.313l.2-.222c.77-.867,1.38-1.864,1.79-2.946v-.161c.13-.245.38-.411.65-.444l6.05-.706-.12-4.157-5.81-.687h-.26c-.25.005-.51-.057-.73-.181-.11-.05-.2-.145-.24-.263l-.1-.201c-.53-.991-1.21-1.896-2.02-2.684l-.24-.242c-.12-.074-.19-.204-.19-.343c0-.14.07-.27.19-.343l3.63-3.027-5.06-2.906-5.07,2.179c-.36.131-.76.131-1.13,0l-.42-.161c-1.52-.511-3.08-.896-4.66-1.151h-.55c-.16-.016-.32-.071-.46-.161-.14-.058-.25-.177-.28-.323l-1.09-3.592h-7.03l-.82,3.411c0,.242-.37.443-.79.504h-.47c-1.75.24-3.49.625-5.18,1.15l-.53.182c-.35.121-.73.121-1.09,0l-4.6-2.018-4.9,2.886l3.13,2.482c.11.075.17.2.17.333s-.06.257-.17.333l-.27.222c-1.05.949-1.9,2.093-2.52,3.37l-.14.322c-.17.272-.47.439-.79.444l-4.88.465.12,4.035l4.58.424c.21.018.4.072.59.162.12.064.21.172.26.302l.1.283c.58,1.346,1.42,2.561,2.48,3.572l.35.343c.08.076.13.187.13.302c0,.116-.05.227-.13.303l-2.51,2.24l5.11,2.946l3.81-1.493c.33-.101.67-.101.99,0l.59.202c1.91.618,3.88,1.077,5.87,1.372h.5c.19.017.38.072.55.161.13.063.23.171.28.303l1.01,2.745h7.08l.93-2.926c.13-.271.41-.444.71-.444h.52c1.81-.323,3.58-.795,5.31-1.413l.34-.161c.37-.142.78-.142,1.15,0l4.48,1.735" clip-rule="evenodd" fill="#f0b41c" fill-rule="evenodd"/><path d="M788.056,313.272h-5.208v16.728h5.208c5.496,0,8.88-3.144,8.88-8.328s-3.384-8.4-8.88-8.4ZM785.032,328.2v-13.152h3.024c4.368,0,6.648,2.544,6.648,6.624s-2.28,6.528-6.648,6.528h-3.024Zm23.785-14.952h-9v16.752h9v-1.8h-6.816v-5.76h6.096v-1.8h-6.096v-5.592h6.816v-1.8Zm14.176,12.192c0-6.192-9.024-3.504-9.024-7.824c0-1.8,1.416-2.736,3.216-2.688c2.04.024,3.096,1.296,3.24,2.424h2.4c-.264-2.544-2.352-4.296-5.544-4.296-3.312,0-5.544,1.872-5.544,4.632c0,6.216,9.048,3.336,9.048,7.848c0,1.584-1.248,2.784-3.36,2.784-2.328,0-3.312-1.392-3.456-2.784h-2.328c.048,2.76,2.424,4.632,5.784,4.632c3.624,0,5.568-2.352,5.568-4.728Zm3.214,4.56h2.184v-16.728h-2.184v16.728Zm13.491-16.92c-4.704,0-8.4,3.528-8.4,8.544s3.696,8.52,8.4,8.52c4.536,0,7.824-3.336,8.208-7.488v-1.68h-9v1.776h6.672c-.336,3.312-2.592,5.424-5.88,5.424-3.528,0-6.168-2.544-6.168-6.552c0-4.032,2.64-6.576,6.168-6.576c2.352,0,4.176,1.128,5.088,3.072h2.616c-1.248-3.216-4.176-5.04-7.704-5.04Zm22.063.168v13.296l-8.784-13.296h-2.184v16.752h2.184v-13.32L861.761,330h2.184v-16.752h-2.184Z" fill="#b7dd62"/><path d="M920.54,120.185l-69.861,40.581c-14.873,8.657-39.068,8.657-54.041,0l-70.306-40.581c-7.547-4.359-11.301-10.09-11.301-15.781v8.072c0,5.691,3.754,11.402,11.281,15.76l70.305,40.582c14.994,8.657,39.189,8.657,54.062,0l69.861-40.582c7.386-4.298,11.079-9.928,11.099-15.558v-8.072c0,5.65-3.713,11.381-11.099,15.579v0Z" fill="#b7dd62"/><path d="M920.36,88.8661c14.974,8.6369,15.054,22.6619.182,31.3189L850.68,160.766c-14.872,8.657-39.068,8.657-54.041,0l-70.306-40.581c-14.993-8.657-15.074-22.682-.181-31.3189l69.841-40.6013c14.893-8.6369,39.088-8.6369,54.062,0L920.36,88.8661Z" fill="#fbfff2"/><path d="M727.584,26.5506c1.37,2.6429,2.011,5.6033,1.856,8.5763.013,3.6411-.595,7.2578-1.796,10.6952-1.159,3.4562-2.862,6.7055-5.045,9.6256-1.926,2.6496-4.37,4.8807-7.184,6.5584-2.123,1.4237-4.684,2.0459-7.224,1.7556-2.162-.3995-4.018-1.7781-5.025-3.7332-1.348-2.6507-1.988-5.6052-1.856-8.5763-.006-3.6423.608-7.259,1.816-10.6952c1.147-3.421,2.822-6.6415,4.964-9.5449c1.927-2.6744,4.387-4.9211,7.224-6.5988c2.118-1.4181,4.675-2.0269,7.205-1.7153c2.161.3703,4.031,1.7184,5.065,3.6525v.0001Zm-6.337,19.0295c.578-2.0209.87-4.1131.867-6.2153.048-1.7948-.246-3.5823-.867-5.2669-.379-1.1487-1.253-2.0671-2.382-2.5022-1.189-.3171-2.458-.0957-3.47.6054-1.43.8675-2.644,2.0472-3.552,3.4507-1.05,1.6181-1.847,3.3875-2.361,5.2467-.56,2.0304-.832,4.1294-.807,6.2354-.072,1.788.216,3.5722.847,5.2467.396,1.1338,1.265,2.0396,2.381,2.4821c1.225.3107,2.523.0671,3.552-.6659c1.396-.8408,2.577-1.9945,3.451-3.37c1.035-1.6238,1.823-3.3919,2.341-5.2467" clip-rule="evenodd" fill="#b7dd62" fill-rule="evenodd"/><path d="M747.236,6.10907c1.969-1.24573,4.187-2.04477,6.498-2.34084c1.603-.24334,3.228.27105,4.399,1.3924c1.161,1.38988,1.733,3.17856,1.594,4.98437.004,1.7669-.268,3.5236-.807,5.2063-.564,1.8034-1.372,3.5211-2.402,5.1055-.975,1.5337-2.195,2.8971-3.612,4.0359c1.265-.583,2.698-.6905,4.036-.3027c1.179.4279,2.133,1.3166,2.644,2.4619.699,1.5013,1.031,3.1476.968,4.8028-.016,2.7142-.6,5.3951-1.715,7.87-1.217,2.7211-2.874,5.2233-4.904,7.4059-2.179,2.3411-4.704,4.3351-7.486,5.9126-2.246,1.4555-4.779,2.412-7.426,2.805-1.891.2687-3.81-.2329-5.328-1.3924l4.036-8.3342c.957.7943,2.167,1.2171,3.41,1.1906c1.744-.1193,3.427-.6895,4.884-1.6547c2-1.1005,3.724-2.6388,5.045-4.5c1.142-1.6988,1.74-3.7046,1.715-5.7512c0-2.24-.686-3.5718-2.018-4.036s-3.39.1413-6.054,1.7153l-1.533.8677v-6.3566l1.695-.9888c2.093-1.1563,3.873-2.8046,5.186-4.8027c1.158-1.6325,1.81-3.5692,1.877-5.5696.08-.8894-.179-1.7763-.727-2.4821-.524-.5358-1.283-.771-2.018-.6255-1.017.161-1.991.5247-2.865,1.0695-1.705,1.0175-3.209,2.3373-4.44,3.8946-1.332,1.6964-2.394,3.5888-3.148,5.61l-4.601-3.2288c.827-1.8435,1.878-3.5785,3.128-5.1659c1.365-1.7542,2.892-3.3758,4.561-4.8431c1.66-1.50244,3.473-2.82797,5.408-3.95525v.00002Z" fill="#b7dd62"/><path d="M1484.8,318.192c0,1.872-1.08,3.216-3.55,3.216h-3.22v-6.336h3.22c2.49,0,3.55,1.224,3.55,3.12Zm-8.95-4.92v16.728h2.18v-6.84h2.64l3.99,6.84h2.61l-4.2-7.008c2.81-.624,3.99-2.664,3.99-4.8c0-2.736-1.88-4.92-5.81-4.92h-5.4Zm23.6-.024h-9v16.752h9v-1.8h-6.82v-5.76h6.1v-1.8h-6.1v-5.592h6.82v-1.8Zm14.18,12.192c0-6.192-9.03-3.504-9.03-7.824c0-1.8,1.42-2.736,3.22-2.688c2.04.024,3.09,1.296,3.24,2.424h2.4c-.27-2.544-2.35-4.296-5.55-4.296-3.31,0-5.54,1.872-5.54,4.632c0,6.216,9.05,3.336,9.05,7.848c0,1.584-1.25,2.784-3.36,2.784-2.33,0-3.31-1.392-3.46-2.784h-2.33c.05,2.76,2.43,4.632,5.79,4.632c3.62,0,5.57-2.352,5.57-4.728Zm3.16-1.608c0,4.344,2.83,6.336,6.29,6.336s6.31-1.992,6.31-6.336v-10.56h-2.18v10.584c0,3.072-1.63,4.392-4.11,4.392-2.47,0-4.12-1.32-4.12-4.392v-10.584h-2.19v10.56Zm16.25-10.56v16.728h8.04v-1.776h-5.86v-14.952h-2.18Zm9.32,1.776h4.59v14.952h2.18v-14.952h4.56v-1.776h-11.33v1.776Zm24.89,10.392c0-6.192-9.02-3.504-9.02-7.824c0-1.8,1.41-2.736,3.21-2.688c2.04.024,3.1,1.296,3.24,2.424h2.4c-.26-2.544-2.35-4.296-5.54-4.296-3.31,0-5.54,1.872-5.54,4.632c0,6.216,9.04,3.336,9.04,7.848c0,1.584-1.24,2.784-3.36,2.784-2.32,0-3.31-1.392-3.45-2.784h-2.33c.05,2.76,2.42,4.632,5.78,4.632c3.63,0,5.57-2.352,5.57-4.728Z" fill="#ff445b"/><path d="M1616.88,120.185l-69.84,40.581c-14.89,8.657-39.09,8.657-54.06,0l-70.31-40.581c-7.55-4.359-11.3-10.09-11.28-15.781v8.072c0,5.691,3.73,11.402,11.28,15.76l70.31,40.582c14.97,8.657,39.17,8.657,54.06,0l69.84-40.582c7.39-4.298,11.1-9.928,11.12-15.558v-8.072c-.02,5.65-3.73,11.381-11.12,15.579Z" fill="#ff445b"/><path d="M1616.7,88.8661c14.99,8.6369,15.07,22.6619.18,31.3189l-69.84,40.581c-14.9,8.657-39.09,8.657-54.06,0l-70.31-40.581c-14.97-8.657-15.05-22.682-.18-31.3189l69.86-40.6013c14.87-8.6369,39.07-8.6369,54.04,0l70.31,40.6013Z" fill="#fff5f5"/><path d="M1423.98,26.6114c1.34,2.6598,1.98,5.6207,1.84,8.5965.01,3.6326-.59,7.241-1.78,10.675-1.15,3.4308-2.84,6.6585-5,9.5651-1.92,2.6564-4.37,4.8889-7.19,6.5584-2.12,1.4253-4.68,2.0477-7.22,1.7556-2.16-.3995-4.02-1.7781-5.03-3.7332-1.34-2.6526-1.97-5.607-1.83-8.5763-.01-3.6394.59-7.2548,1.77-10.6953c1.18-3.4121,2.86-6.6244,5.01-9.5247c1.91-2.6668,4.36-4.907,7.18-6.5786c2.12-1.4298,4.69-2.0461,7.23-1.7354c2.14.4075,3.99,1.7652,5.02,3.6929v0Zm-6.35,19.0296c.59-2.0111.87-4.0993.84-6.1951.07-1.8009-.22-3.5975-.84-5.2871-.39-1.141-1.26-2.0512-2.38-2.482-1.2-.3264-2.47-.1124-3.5.5852-1.42.8639-2.62,2.0449-3.51,3.4507-1.05,1.6084-1.85,3.3719-2.36,5.2265-.57,2.0359-.85,4.1413-.85,6.2556-.05,1.789.24,3.5718.87,5.2468.41,1.1253,1.28,2.0263,2.38,2.482c1.22.3102,2.51.0744,3.53-.6457c1.41-.8429,2.59-2.0045,3.46-3.3902c1.05-1.6185,1.84-3.3878,2.36-5.2467" clip-rule="evenodd" fill="#c53546" fill-rule="evenodd"/><path d="M1454.49,0.962891v7.627889l-13.78,7.95072-1.53,10.8365c.57-.8802,1.25-1.6867,2.01-2.4014.93-.9077,1.98-1.688,3.11-2.3206c1.94-1.2873,4.21-1.9879,6.54-2.018c1.81.0767,3.48,1.0141,4.48,2.5224c1.2,1.9321,1.78,4.1863,1.66,6.4575-.01,3.064-.63,6.0955-1.82,8.9194-1.24,2.9922-2.95,5.7655-5.07,8.2131-2.06,2.4183-4.53,4.4657-7.28,6.0539-2.25,1.458-4.87,2.2551-7.55,2.3005-2.05.0325-3.98-.9779-5.12-2.6839l4.15-7.4059c1.01,1.0323,2.38,1.633,3.82,1.6749c1.67.0389,3.32-.4174,4.74-1.3117c1.32-.7522,2.49-1.7445,3.45-2.926c1-1.2076,1.8-2.5709,2.36-4.036.56-1.3932.85-2.8781.87-4.3789.07-1.1745-.22-2.3423-.83-3.3499-.51-.7443-1.34-1.2072-2.24-1.2511-1.14.0107-2.26.3466-3.23.9686-1.26.7472-2.38,1.7024-3.33,2.8252-1.03,1.204-1.86,2.5668-2.46,4.0359l-6.35,3.6727l4.37-29.0183l19.03-10.957509Z" fill="#c53546"/><path d="M1549.8,108.783c.18.082.3.25.32.444c0,.323-.5.585-1.05.565l-35.43-.888c-.23-.004-.46-.067-.67-.181-.18,0-.3-.243-.28-.404l-.22-7.245c0-.322.46-.585,1.01-.585.25-.009.49.054.7.182.17.074.29.225.33.403l.16,6.66l34.3.867c.29-.018.58.045.83.182v0Z" fill="#932b27"/><path d="M1547.2,99.8438c1.9.7572,2.99,2.7562,2.6,4.7622c0,.323-.62.545-1.17.485-.18-.033-.36-.094-.52-.182-.22-.076-.34-.303-.28-.525.38-1.291-.31-2.704-2.02-3.693l-21.13-12.1074c-3.12-1.5952-6.81-1.5952-9.93,0l-20.48,12.1074c-2.71,1.615-2.64,4.218.16,5.832l21.13,12.108c3.11,1.615,6.81,1.615,9.93,0l7.95-4.661c.44-.241.97-.241,1.41,0c.4.222.42.605,0,.827l-7.95,4.762c-4.02,2.042-8.77,2.042-12.79,0l-21.13-12.107c-3.57-2.018-3.68-5.429-.2-7.4871l20.48-12.2087c4.01-2.0786,8.78-2.0786,12.79,0l21.15,12.0876Z" fill="#932b27"/><path d="M65.032,321.624c0,5.016,3.672,8.52,8.352,8.52c3.624,0,6.504-1.8,7.752-5.016h-2.616c-.912,1.992-2.688,3.12-5.136,3.12-3.504,0-6.12-2.544-6.12-6.624c0-4.104,2.616-6.648,6.12-6.648c2.448,0,4.224,1.128,5.136,3.144h2.616c-1.248-3.24-4.128-5.064-7.752-5.064-4.68,0-8.352,3.552-8.352,8.568Zm35.339,0c0-5.016-3.6719-8.544-8.3999-8.544-4.704,0-8.4,3.528-8.4,8.544s3.696,8.544,8.4,8.544c4.728,0,8.3999-3.528,8.3999-8.544Zm-14.5679,0c0-4.104,2.64-6.648,6.168-6.648s6.168,2.544,6.168,6.648c0,4.08-2.64,6.648-6.168,6.648s-6.168-2.568-6.168-6.648Zm28.4189-8.376v13.296l-8.784-13.296h-2.184v16.752h2.184v-13.32L114.222,330h2.184v-16.752h-2.184Zm5.091,8.376c0,5.016,3.672,8.52,8.352,8.52c3.624,0,6.504-1.8,7.752-5.016h-2.616c-.912,1.992-2.688,3.12-5.136,3.12-3.504,0-6.12-2.544-6.12-6.624c0-4.104,2.616-6.648,6.12-6.648c2.448,0,4.224,1.128,5.136,3.144h2.616c-1.248-3.24-4.128-5.064-7.752-5.064-4.68,0-8.352,3.552-8.352,8.568Zm28.355-8.376h-9v16.752h9v-1.8h-6.816v-5.76h6.096v-1.8h-6.096v-5.592h6.816v-1.8Zm5.489,7.968v-6.144h3.216c2.496,0,3.552,1.152,3.552,3.096c0,1.872-1.056,3.048-3.552,3.048h-3.216Zm9-3.048c0-2.736-1.848-4.896-5.784-4.896h-5.4v16.728h2.184v-6.984h3.216c4.152,0,5.784-2.304,5.784-4.848Zm1.682-3.12h4.584v14.952h2.184v-14.952h4.56v-1.776h-11.328v1.776Z" fill="#1bc0ab"/><path d="M227.716,120.185l-69.842,40.581c-14.872,8.657-39.088,8.657-54.061,0L33.507,120.185c-7.527-4.359-11.3005-10.09-11.2804-15.781v8.072c0,5.691,3.7535,11.402,11.2804,15.76l70.286,40.602c14.973,8.657,39.188,8.657,54.061,0l69.841-40.581c7.406-4.299,11.099-9.929,11.119-15.559v-8.072c0,5.63-3.693,11.361-11.098,15.559v0Z" fill="#1bc0ab"/><path d="M227.553,88.8661c14.973,8.6369,15.054,22.6619.161,31.3189l-69.841,40.581c-14.873,8.657-39.088,8.657-54.061,0L33.5058,120.185c-14.9733-8.657-15.054-22.682-.1816-31.3189L103.186,48.2648c14.872-8.6369,39.068-8.6369,54.061,0l70.306,40.6013Z" fill="#eefffd"/><path d="M34.2326,24.7952c1.3609,2.6463,2.0012,5.6042,1.8566,8.5764.0125,3.6411-.5948,7.2578-1.796,10.6952-1.1582,3.4138-2.8397,6.6271-4.9844,9.5247-1.9323,2.6516-4.3832,4.8829-7.2041,6.5584-2.1183,1.4196-4.6687,2.0483-7.2041,1.7758-2.164-.4097-4.018-1.7946-5.02474-3.7534-1.3582-2.6472-1.99834-5.6044-1.85652-8.5763-.01253-3.6412.5948-7.2579,1.79599-10.6952c1.16227-3.4184,2.84337-6.6377,4.98437-9.545c1.9198-2.6681,4.373-4.9083,7.2041-6.5785c2.1373-1.3863,4.6985-1.9658,7.2243-1.6346c2.1356.3959,3.9763,1.7393,5.0045,3.6525v0ZM27.8957,43.8243c.5819-2.0198.8674-4.1135.8475-6.2153.0703-1.7963-.2249-3.5881-.8677-5.2669-.3296-1.1942-1.2391-2.1418-2.4188-2.5201s-2.4706-.1364-3.4333.6434c-1.4311.8491-2.6412,2.0246-3.5314,3.4305-1.0503,1.6181-1.8466,3.3875-2.361,5.2467-.555,2.025-.8333,4.1157-.8274,6.2153-.0562,1.7888.2386,3.5713.8677,5.2467.3959,1.1338,1.2649,2.0396,2.3812,2.4821c1.2151.3074,2.5038.0718,3.5315-.6457c1.4009-.8429,2.5831-2.0045,3.4507-3.3902c1.0414-1.6229,1.837-3.391,2.361-5.2467" clip-rule="evenodd" fill="#1bc0ab" fill-rule="evenodd"/><path d="M57.3611,3.4248v28.1304l6.9216-4.0359v7.5673L42.0852,47.8401v-7.527l7.7287-4.4597v-18.9486c-.4263.8535-.933,1.6643-1.5134,2.4215-.6861.9081-1.4731,1.8566-2.3409,2.805s-1.7354,1.8363-2.6031,2.6435c-.7136.681-1.4984,1.2831-2.3409,1.796v-7.8297c.8795-.5562,1.6746-1.2358,2.361-2.0179.9766-1.063,1.8993-2.1743,2.7646-3.3297.9283-1.1906,1.7355-2.3004,2.4014-3.3498.4934-.71204.919-1.46871,1.2713-2.2601l7.5472-4.3588Z" fill="#1bc0ab"/><path d="M161.344,119.902h.444l10.049.061-.02,1.15-9.182-.04.02-.767h-1.311v-.404Z" fill="#277193"/><path d="M160.637,120.306h.706h1.312l-.02.766-.081,5.328-2.038-.02.121-5.489v-.585Z" fill="#1bc0ab"/><path d="M157.43,119.014l.02-1.009l1.13.02l3.208,1.877h-.443v.403h-.707v.586l-3.208-1.877Z" fill="#1bc0ab"/><path d="M155.453,117.238h.706h1.312l-.02.767-.02,1.009-.081,4.319-2.018-.021.121-5.489v-.585Z" fill="#1bc0ab"/><path d="M156.16,116.834h.424l10.07.04-.021,1.171-8.051-.02-1.13-.021.02-.766h-1.312v-.404Z" fill="#1bc0ab"/><path d="M108.171,89.0674c12.552-7.1234,32.752-7.0427,45.021.2219c12.269,7.2647,12.108,18.5047.202,25.6687l-1.413-.848c11.079-6.699,11.038-17.3542-.222-24.0135s-30.411-6.8812-42.195-.2018h-.162c-11.6032,6.6997-11.7445,17.5763-.323,24.3363c11.422,6.761,29.684,6.882,41.469.606l1.413.827c-12.612,6.74-32.287,6.498-44.395-.605-12.108-7.104-12.108-18.848.343-25.9916h.262Z" fill="#1bc0ab"/><path d="M129.703,102.628l1.433-.807l5.469,3.229l1.432.827l5.267,3.108l1.433.848l7.244,4.298l1.413.827l3.188,1.877h-.423v.403h-.707v.586l-3.491-2.059-1.412-.827-7.265-4.278-1.413-.848-5.287-3.107-1.412-.848-5.469-3.229Z" fill="#1bc0ab"/><path d="M123.486,98.1286c4.436-2.2639,9.689-2.2639,14.125,0c3.572,2.0184,3.734,5.4484.525,7.6884l-1.412-.827c2.421-1.796,2.24-4.379-.565-6.0542-3.493-1.8094-7.647-1.8094-11.14,0-3.107,1.7962-3.148,4.6612-.121,6.4372c3.186,1.655,6.934,1.846,10.272.525l1.412.847c-4.292,1.827-9.176,1.642-13.318-.504-3.794-2.24-3.754-5.852,0-8.072l.222-.0404Z" fill="#1bc0ab"/><path d="M116.727,94.2329c8.672-4.3455,18.897-4.293,27.525.1413c3.632,2.139,5.589,4.9844,5.529,8.0718-.314,3.186-2.21,6-5.045,7.487l-1.433-.848c2.531-1.336,4.238-3.836,4.561-6.679c0-2.7044-1.716-5.247-4.965-7.1641-7.726-3.9844-16.893-4.0294-24.659-.1211h-.101c-6.78,3.8947-6.861,10.2712-.182,14.1262c3.761,2.046,7.989,3.082,12.27,3.006c4.024.092,8.012-.765,11.643-2.502l1.413.848c-4.076,1.956-8.556,2.924-13.077,2.825-4.78.087-9.501-1.068-13.701-3.35-7.366-4.359-7.366-11.4419.222-15.8411v0Z" fill="#1bc0ab"/><path d="M831.107,87.1045L815.559,102.652c-6.505,6.521-11.431,14.445-14.402,23.164-.289.842-.071,1.775.561,2.402l.008.008c.435.438,1.027.685,1.644.685.258,0,.513-.043.757-.126c8.72-2.97,16.644-7.897,23.165-14.402l15.547-15.5447c3.24-3.2399,3.241-8.493.001-11.7332s-8.493-3.2405-11.733-.0006v0Zm-5.93,25.1655c-5.876,5.861-12.953,10.377-20.743,13.238c2.86-7.79,7.376-14.868,13.237-20.744l9.261-9.2601l7.506,7.5061-9.261,9.26Zm15.548-15.5453l-4.172,4.1723-7.506-7.5062l4.172-4.172c2.073-2.073,5.433-2.073,7.506-.0002s2.073,5.4335,0,7.5063v-.0002Z" clip-rule="evenodd" fill="#b7dd62" fill-rule="evenodd"/><g id="egJ5RoS2UE756_to" transform="translate(197.542016,153.67598)"><ellipse id="egJ5RoS2UE756" rx="16.029638" ry="12.532573" transform="scale(2.176407,2.176407) translate(0,0)" fill="url(#egJ5RoS2UE756-fill)" stroke-width="0"/></g></svg>