<svg width="81" height="80" viewBox="0 0 81 80" fill="none" xmlns="http://www.w3.org/2000/svg">
<path d="M70.3077 32.3084C70.8061 31.0628 71.0622 29.7335 71.0622 28.3919C71.0788 26.4721 70.5797 24.583 69.6169 22.922C68.6541 21.2609 67.263 19.8889 65.5888 18.949C63.9147 18.0092 62.0189 17.5361 60.0995 17.5791C58.1801 17.6222 56.3074 18.1798 54.6771 19.1937C53.6289 14.788 50.9985 10.9211 47.2858 8.32781C43.5732 5.73456 39.0371 4.59582 34.5399 5.12802C30.0426 5.66022 25.8977 7.82626 22.8929 11.2144C19.8881 14.6026 18.2329 18.9767 18.2419 23.5054C18.2242 24.094 18.2603 24.6831 18.3497 25.2652C14.296 24.8541 10.2406 26.029 7.03445 28.5434C3.82827 31.0578 1.72052 34.7162 1.15344 38.751C0.586354 42.7859 1.60402 46.8836 3.9929 50.1843C6.38178 53.485 9.95621 55.7323 13.9662 56.4545C14.108 57.5473 14.487 58.596 15.0766 59.5269C15.6662 60.4579 16.4523 61.2488 17.3796 61.8441C16.3191 62.5085 15.4436 63.43 14.8344 64.5231C14.2251 65.6161 13.9017 66.8454 13.8943 68.0968C13.8939 69.083 14.0877 70.0596 14.4648 70.9709C14.8419 71.8821 15.3949 72.7101 16.0922 73.4076C16.7894 74.1051 17.6173 74.6583 18.5284 75.0357C19.4396 75.4131 20.4162 75.6072 21.4024 75.607H58.4483C60.4348 75.6006 62.3375 74.8062 63.7388 73.3983C65.1402 71.9904 65.9256 70.0839 65.9226 68.0975C65.9232 66.8445 65.6034 65.6122 64.9935 64.5177C64.3836 63.4232 63.5039 62.5028 62.4381 61.8441C63.3333 61.2762 64.0974 60.5244 64.6797 59.6385C65.2621 58.7526 65.6492 57.753 65.8156 56.706H66.4983C69.4793 56.7076 72.3627 55.6433 74.6278 53.7054C76.893 51.7675 78.3907 49.0835 78.8504 46.1382C79.3102 43.1928 78.7019 40.1801 77.1351 37.644C75.5684 35.1079 73.1466 33.2154 70.3069 32.3084H70.3077ZM63.5527 68.0968C63.5541 69.4538 63.018 70.7562 62.0617 71.719C61.1055 72.6819 59.8068 73.2269 58.4498 73.2348H21.4024C20.7248 73.243 20.0524 73.1165 19.4241 72.8628C18.7958 72.6092 18.2241 72.2333 17.7421 71.7571C17.2601 71.2808 16.8774 70.7136 16.6163 70.0884C16.3551 69.4632 16.2206 68.7923 16.2206 68.1147C16.2206 67.4371 16.3551 66.7663 16.6163 66.1411C16.8774 65.5158 17.2601 64.9487 17.7421 64.4724C18.2241 63.9962 18.7958 63.6203 19.4241 63.3666C20.0524 63.1129 20.7248 62.9865 21.4024 62.9946H58.4483C59.8002 62.9994 61.0953 63.5385 62.0513 64.4942C63.0073 65.45 63.5467 66.7449 63.552 68.0968H63.5527ZM58.4498 60.6225H21.4024C20.0443 60.6225 18.7419 60.083 17.7816 59.1227C16.8214 58.1624 16.2819 56.86 16.2819 55.502C16.2819 54.1439 16.8214 52.8415 17.7816 51.8812C18.7419 50.921 20.0443 50.3815 21.4024 50.3815H58.4483C59.8064 50.3815 61.1088 50.921 62.0691 51.8812C63.0294 52.8415 63.5688 54.1439 63.5688 55.502C63.5688 56.86 63.0294 58.1624 62.0691 59.1227C61.1088 60.083 59.8064 60.6225 58.4483 60.6225H58.4498ZM16.2658 42.9086C16.2662 42.2357 16.3997 41.5695 16.6585 40.9483C16.9173 40.3271 17.2964 39.7632 17.7739 39.2889C18.2513 38.8147 18.8179 38.4396 19.4408 38.185C20.0638 37.9305 20.7309 37.8016 21.4038 37.8058H58.4498C59.1201 37.8053 59.7838 37.9369 60.4032 38.1932C61.0225 38.4495 61.5852 38.8253 62.0592 39.2993C62.5331 39.7732 62.909 40.336 63.1652 40.9553C63.4215 41.5746 63.5532 42.2384 63.5527 42.9086C63.5489 44.2641 63.0112 45.5635 62.056 46.5252C61.1008 47.487 59.8052 48.0336 58.4498 48.0467H21.4024C20.0418 48.0404 18.7387 47.4969 17.7768 46.5347C16.8148 45.5725 16.2717 44.2693 16.2658 42.9086ZM66.499 54.3705H65.8163C65.6641 53.319 65.2826 52.3137 64.699 51.4259C64.1154 50.538 63.3438 49.7892 62.4388 49.2324C63.8092 48.3642 64.8611 47.075 65.4367 45.5583C66.0123 44.0415 66.0805 42.379 65.6311 40.8202C65.1817 39.2614 64.2389 37.8904 62.9442 36.9128C61.6496 35.9352 60.0728 35.4039 58.4505 35.3984H21.4024C19.7774 35.3967 18.1958 35.9228 16.8956 36.8976C15.5955 37.8725 14.6472 39.2432 14.1934 40.8036C13.7397 42.364 13.805 44.0295 14.3796 45.5495C14.9543 47.0695 16.0071 48.3618 17.3796 49.2317C16.524 49.7729 15.7868 50.4817 15.2125 51.3155C14.6382 52.1493 14.2387 53.0907 14.0381 54.0831C10.7942 53.4083 7.91537 51.5556 5.95743 48.8827C3.99949 46.2098 3.1013 42.9063 3.43629 39.61C3.77127 36.3137 5.31567 33.2584 7.77128 31.034C10.2269 28.8096 13.4196 27.5739 16.7329 27.5655C17.6512 27.5544 18.5677 27.6509 19.4636 27.853C19.6533 27.8893 19.8488 27.8823 20.0354 27.8325C20.2221 27.7827 20.3951 27.6915 20.5415 27.5655C20.6844 27.4285 20.7919 27.2588 20.8545 27.071C20.9171 26.8832 20.933 26.6829 20.9008 26.4876C20.7019 25.5062 20.6056 24.5067 20.6134 23.5054C20.6159 19.4122 22.1764 15.4735 24.9779 12.4893C27.7794 9.50516 31.6118 7.69928 35.6966 7.43856C39.7814 7.17783 43.8123 8.4818 46.9705 11.0856C50.1287 13.6894 52.1773 17.3977 52.7002 21.4573C52.7294 21.6668 52.8151 21.8644 52.948 22.0289C53.0809 22.1935 53.2561 22.3188 53.4547 22.3915C53.6558 22.467 53.8742 22.4834 54.0843 22.4389C54.2944 22.3943 54.4873 22.2906 54.6404 22.14C55.8459 21.0407 57.3457 20.3165 58.9562 20.056C60.5668 19.7955 62.2183 20.0101 63.7089 20.6733C65.1995 21.3366 66.4644 22.4199 67.3491 23.7907C68.2337 25.1616 68.6997 26.7605 68.69 28.3919C68.6996 29.8289 68.3276 31.2426 67.6121 32.4888C67.5183 32.6517 67.4659 32.8353 67.4596 33.0232C67.4534 33.2112 67.4934 33.3978 67.5762 33.5667C67.6544 33.7415 67.7736 33.8948 67.9237 34.0137C68.0738 34.1325 68.2505 34.2134 68.4385 34.2494C70.9122 34.7364 73.1162 36.1261 74.6221 38.1482C76.128 40.1702 76.828 42.68 76.586 45.1895C76.344 47.699 75.1773 50.0288 73.3129 51.7258C71.4484 53.4228 69.0194 54.3658 66.4983 54.3713L66.499 54.3705Z" fill="white"/>
<path d="M28.8449 41.7214H21.4074C21.093 41.7234 20.792 41.849 20.5695 42.0712C20.3471 42.2934 20.2211 42.5942 20.2188 42.9086C20.2208 43.0621 20.2531 43.2136 20.3139 43.3544C20.3747 43.4953 20.4628 43.6229 20.5729 43.7297C20.6831 43.8365 20.8132 43.9205 20.9559 43.9769C21.0986 44.0333 21.2509 44.061 21.4044 44.0584H28.8449C29.0011 44.0649 29.1569 44.0401 29.3034 43.9855C29.4498 43.9309 29.5839 43.8476 29.6977 43.7405C29.8115 43.6334 29.9028 43.5047 29.9662 43.3618C30.0295 43.2189 30.0637 43.0649 30.0667 42.9086C30.0645 42.7504 30.0311 42.5942 29.9685 42.4489C29.9059 42.3037 29.8153 42.1721 29.7019 42.0619C29.5884 41.9516 29.4544 41.8648 29.3073 41.8064C29.1603 41.748 29.0031 41.7191 28.8449 41.7214Z" fill="white"/>
<path d="M28.8451 54.3705H21.4074C21.253 54.3644 21.0988 54.3896 20.9544 54.4447C20.81 54.4999 20.6782 54.5837 20.5671 54.6912C20.456 54.7986 20.3679 54.9275 20.308 55.07C20.2481 55.2126 20.2178 55.3657 20.2188 55.5203C20.2215 55.834 20.3472 56.134 20.569 56.3558C20.7908 56.5776 21.0908 56.7034 21.4045 56.706H28.8451C29.1643 56.7107 29.4723 56.5885 29.7014 56.3661C29.9305 56.1438 30.0619 55.8395 30.0667 55.5203C30.0665 55.3633 30.0342 55.2079 29.9718 55.0637C29.9094 54.9196 29.8182 54.7897 29.7038 54.682C29.5894 54.5744 29.4542 54.4912 29.3066 54.4377C29.1589 54.3841 29.0019 54.3613 28.8451 54.3705Z" fill="white"/>
<path d="M20.2189 68.0968C20.2142 68.416 20.3364 68.724 20.5588 68.9531C20.7811 69.1822 21.0854 69.3136 21.4046 69.3185H28.8452C29.006 69.3198 29.1654 69.2892 29.3143 69.2283C29.4631 69.1673 29.5983 69.0774 29.7121 68.9637C29.8258 68.85 29.9157 68.7148 29.9766 68.5659C30.0375 68.4171 30.0682 68.2576 30.0668 68.0968C30.055 67.7829 29.9203 67.4862 29.6918 67.2706C29.4633 67.055 29.1593 66.9377 28.8452 66.9441H21.4075C21.0985 66.9441 20.8015 67.0645 20.5797 67.2797C20.3578 67.4948 20.2284 67.7879 20.2189 68.0968Z" fill="white"/>
<path d="M44.3991 42.0822C44.2811 42.1842 44.1875 42.3114 44.1254 42.4545C44.0632 42.5975 44.0339 42.7527 44.0398 42.9086C44.0418 43.062 44.0741 43.2136 44.1348 43.3545C44.1956 43.4955 44.2836 43.623 44.3937 43.7299C44.5039 43.8367 44.6341 43.9207 44.7769 43.9771C44.9196 44.0335 45.0721 44.0611 45.2255 44.0584C45.5322 44.0603 45.8279 43.9445 46.0519 43.735C46.2713 43.5145 46.3995 43.2194 46.4112 42.9086C46.4088 42.754 46.3757 42.6013 46.3141 42.4595C46.2524 42.3177 46.1633 42.1895 46.0519 42.0822C45.9447 41.9714 45.8163 41.8832 45.6743 41.823C45.5323 41.7628 45.3797 41.7318 45.2255 41.7318C45.0713 41.7318 44.9187 41.7628 44.7767 41.823C44.6347 41.8832 44.5063 41.9714 44.3991 42.0822Z" fill="white"/>
<path d="M51.2248 41.7214C50.9111 41.7241 50.6111 41.8499 50.3893 42.0717C50.1675 42.2935 50.0417 42.5935 50.0391 42.9071C50.0499 43.2144 50.1795 43.5055 50.4007 43.719C50.6219 43.9325 50.9173 44.0519 51.2248 44.0519C51.5322 44.0519 51.8277 43.9325 52.0488 43.719C52.27 43.5055 52.3997 43.2144 52.4105 42.9071C52.4078 42.5935 52.282 42.2935 52.0602 42.0717C51.8384 41.8499 51.5384 41.7241 51.2248 41.7214Z" fill="white"/>
<path d="M56.4023 42.0822C56.2909 42.1895 56.2018 42.3177 56.1401 42.4595C56.0785 42.6013 56.0454 42.754 56.043 42.9086C56.0546 43.2194 56.1829 43.5145 56.4023 43.735C56.6366 43.951 56.946 44.0671 57.2646 44.0584C57.5544 44.0625 57.8356 43.9602 58.0551 43.7709C58.284 43.5422 58.4131 43.2322 58.4144 42.9086C58.4203 42.7527 58.391 42.5975 58.3288 42.4545C58.2666 42.3114 58.1731 42.1842 58.0551 42.0822C57.9479 41.9714 57.8195 41.8832 57.6775 41.823C57.5355 41.7628 57.3829 41.7318 57.2287 41.7318C57.0745 41.7318 56.9218 41.7628 56.7799 41.823C56.6379 41.8832 56.5095 41.9714 56.4023 42.0822Z" fill="white"/>
<path d="M44.3991 54.658C44.2831 54.7693 44.1914 54.9034 44.1296 55.0517C44.0677 55.2001 44.0372 55.3596 44.0398 55.5204C44.0339 55.6762 44.0632 55.8314 44.1254 55.9745C44.1875 56.1175 44.2811 56.2448 44.3991 56.3468C44.5083 56.453 44.6377 56.5362 44.7797 56.5915C44.9216 56.6468 45.0732 56.6731 45.2255 56.6687C45.5322 56.6705 45.8279 56.5548 46.0519 56.3453C46.1633 56.238 46.2524 56.1098 46.3141 55.968C46.3757 55.8261 46.4088 55.6735 46.4112 55.5189C46.4 55.1974 46.2723 54.8909 46.0519 54.6566C45.819 54.4651 45.5268 54.3606 45.2252 54.3608C44.9237 54.3611 44.6317 54.4662 44.3991 54.658Z" fill="white"/>
<path d="M51.2285 54.3345C50.999 54.338 50.7756 54.409 50.5863 54.5387C50.3969 54.6684 50.2499 54.851 50.1637 55.0637C50.0775 55.2764 50.0558 55.5098 50.1014 55.7348C50.1471 55.9597 50.258 56.1662 50.4203 56.3285C50.5826 56.4908 50.7891 56.6017 51.014 56.6473C51.2389 56.6929 51.4723 56.6713 51.6851 56.5851C51.8978 56.4989 52.0804 56.3519 52.21 56.1625C52.3397 55.9731 52.4107 55.7497 52.4142 55.5203C52.4159 55.3641 52.3864 55.2091 52.3274 55.0645C52.2684 54.9199 52.1811 54.7886 52.0706 54.6781C51.9602 54.5677 51.8288 54.4804 51.6842 54.4214C51.5396 54.3624 51.3847 54.3329 51.2285 54.3345Z" fill="white"/>
<path d="M56.4023 54.658C56.1819 54.8924 56.0542 55.1989 56.043 55.5204C56.0454 55.675 56.0785 55.8276 56.1401 55.9694C56.2018 56.1113 56.2909 56.2395 56.4023 56.3468C56.6368 56.5623 56.9462 56.6777 57.2646 56.6687C57.4116 56.6728 57.5579 56.6462 57.694 56.5905C57.8301 56.5348 57.9531 56.4513 58.0551 56.3453C58.1731 56.2433 58.2666 56.1161 58.3288 55.973C58.391 55.83 58.4203 55.6748 58.4144 55.5189C58.4171 55.3582 58.3865 55.1986 58.3247 55.0502C58.2629 54.9019 58.1711 54.7678 58.0551 54.6566C57.8222 54.4651 57.5299 54.3606 57.2284 54.3608C56.9269 54.3611 56.6349 54.4662 56.4023 54.658Z" fill="white"/>
<path d="M45.2266 69.3184C45.382 69.3208 45.5361 69.2899 45.6786 69.228C45.8211 69.166 45.9487 69.0744 46.053 68.9591C46.1679 68.847 46.259 68.7129 46.3208 68.5647C46.3825 68.4165 46.4136 68.2573 46.4123 68.0968C46.3869 67.7893 46.2606 67.4987 46.053 67.2704C45.828 67.0626 45.5329 66.9471 45.2266 66.9471C44.9203 66.9471 44.6252 67.0626 44.4002 67.2704C44.2877 67.3768 44.1978 67.5049 44.1361 67.6469C44.0744 67.7889 44.042 67.9419 44.0409 68.0968C44.0314 68.2584 44.0588 68.42 44.1211 68.5694C44.1833 68.7188 44.2788 68.8521 44.4002 68.9591C44.5022 69.0771 44.6295 69.1706 44.7725 69.2328C44.9156 69.295 45.0707 69.3243 45.2266 69.3184Z" fill="white"/>
<path d="M51.2249 69.3184C51.5441 69.3136 51.8484 69.1822 52.0707 68.9531C52.2931 68.724 52.4153 68.416 52.4106 68.0968C52.3998 67.7895 52.2702 67.4984 52.049 67.2849C51.8278 67.0714 51.5323 66.952 51.2249 66.952C50.9175 66.952 50.622 67.0714 50.4008 67.2849C50.1797 67.4984 50.05 67.7895 50.0392 68.0968C50.0345 68.416 50.1568 68.724 50.3791 68.9531C50.6015 69.1822 50.9057 69.3136 51.2249 69.3184Z" fill="white"/>
<path d="M57.2646 69.3184C57.4147 69.3204 57.5634 69.2893 57.7 69.2271C57.8367 69.165 57.9579 69.0735 58.0551 68.9591C58.1765 68.8521 58.272 68.7188 58.3342 68.5694C58.3965 68.42 58.4239 68.2583 58.4144 68.0968C58.4098 67.8657 58.3378 67.6411 58.2072 67.4504C58.0766 67.2597 57.8932 67.1114 57.6794 67.0236C57.4656 66.9358 57.2309 66.9124 57.004 66.9562C56.7771 67.0001 56.5679 67.1092 56.4023 67.2704C56.1947 67.4987 56.0684 67.7892 56.043 68.0968C56.0473 68.4197 56.176 68.7286 56.4023 68.9591C56.5115 69.0778 56.6451 69.1714 56.794 69.2335C56.9429 69.2955 57.1034 69.3245 57.2646 69.3184Z" fill="white"/>
</svg>
