<svg width="81" height="80" viewBox="0 0 81 80" fill="none" xmlns="http://www.w3.org/2000/svg">
<path d="M66.1353 8.96984H51.7643C51.4546 8.96984 51.1575 9.0929 50.9384 9.31194C50.7194 9.53098 50.5963 9.82806 50.5963 10.1378C50.5963 10.4476 50.7194 10.7447 50.9384 10.9637C51.1575 11.1828 51.4546 11.3058 51.7643 11.3058H64.9509V51.508H17.0579V11.305H26.869C27.1788 11.305 27.4759 11.182 27.6949 10.9629C27.914 10.7439 28.037 10.4468 28.037 10.1371C28.037 9.82728 27.914 9.5302 27.6949 9.31116C27.4759 9.09212 27.1788 8.96906 26.869 8.96906H15.9086C15.7524 8.96739 15.5975 8.99693 15.4528 9.05594C15.3082 9.11494 15.1768 9.20223 15.0664 9.31269C14.9559 9.42314 14.8686 9.55454 14.8096 9.69917C14.7506 9.84381 14.7211 9.99876 14.7227 10.155V52.6931C14.7256 53.0067 14.8515 53.3066 15.0733 53.5283C15.2951 53.7499 15.5951 53.8756 15.9086 53.8783H66.1322C66.4456 53.8754 66.7454 53.7496 66.967 53.528C67.1887 53.3064 67.3144 53.0066 67.3173 52.6931V10.1557C67.3189 9.99987 67.2895 9.84524 67.2308 9.70087C67.172 9.55649 67.085 9.42527 66.975 9.31487C66.865 9.20447 66.734 9.1171 66.5899 9.05786C66.4457 8.99862 66.2911 8.96869 66.1353 8.96984Z" fill="white"/>
<path d="M79.9991 70.3694L79.9275 70.0105L79.8916 69.903L79.8558 69.7948L73.9995 59.2681V6.99432C73.9964 5.67069 73.4693 4.40216 72.5333 3.46621C71.5974 2.53026 70.3288 2.00308 69.0052 2H13.0297C11.7025 2.002 10.4297 2.52772 9.48799 3.46291C8.54625 4.3981 8.01163 5.66717 8.00035 6.99432V59.2688L2.14406 69.7955L2.10824 69.9038L2.07242 70.0112L2 70.3702V73.9271C1.99949 74.5501 2.12183 75.167 2.36 75.7426C2.59818 76.3182 2.94752 76.8412 3.38805 77.2817C3.82857 77.7221 4.35162 78.0714 4.92728 78.3094C5.50293 78.5475 6.11988 78.6698 6.74282 78.6691H75.2929C75.9139 78.6691 76.5288 78.5461 77.1022 78.3073C77.6755 78.0686 78.1959 77.7187 78.6335 77.2779C79.071 76.8371 79.417 76.3141 79.6515 75.7391C79.886 75.164 80.0044 74.5482 79.9999 73.9271V70.3694H79.9991ZM10.3714 6.99432C10.378 6.29447 10.6614 5.62571 11.1597 5.13426C11.658 4.64281 12.3306 4.36868 13.0305 4.37179H69.006C69.7057 4.36888 70.3782 4.64311 70.8763 5.13453C71.3744 5.62596 71.6578 6.29461 71.6643 6.99432V58.4069H10.3714V6.99432ZM9.90417 60.7421H72.1308L76.837 69.2209H5.20029L9.90417 60.7421ZM77.6639 73.9279C77.6642 74.2393 77.6031 74.5478 77.484 74.8356C77.365 75.1234 77.1904 75.3849 76.9701 75.6051C76.7499 75.8254 76.4884 76 76.2006 76.119C75.9128 76.2381 75.6043 76.2992 75.2929 76.2989H6.74282C6.43053 76.3022 6.12071 76.2432 5.83154 76.1252C5.54237 76.0072 5.27966 75.8327 5.05883 75.6119C4.83799 75.391 4.66346 75.1283 4.54549 74.8392C4.42752 74.55 4.36847 74.2402 4.3718 73.9279V71.5919H77.6639V73.9279Z" fill="white"/>
<path d="M20.25 26.1081C20.2525 28.413 21.1694 30.6228 22.7994 32.2525C24.4295 33.8821 26.6396 34.7984 28.9445 34.8002H36.809V46.333C36.8116 46.6467 36.9374 46.9468 37.1592 47.1686C37.3811 47.3904 37.6812 47.5162 37.9949 47.5189H43.887C44.2044 47.5174 44.509 47.3931 44.7368 47.172C44.9645 46.9509 45.0978 46.6502 45.1087 46.333V34.8002H54.6294C56.2506 34.801 57.8217 34.2388 59.0744 33.2097C60.3271 32.1806 61.1835 30.7484 61.4974 29.1579C61.8113 27.5674 61.5631 25.9172 60.7953 24.4893C60.0275 23.0615 58.7877 21.9446 57.2877 21.3294C57.4564 20.7827 57.5412 20.2135 57.5392 19.6413C57.5395 18.8344 57.3808 18.0354 57.0722 17.2899C56.7636 16.5444 56.311 15.867 55.7405 15.2964C55.1699 14.7259 54.4925 14.2733 53.747 13.9647C53.0015 13.6561 52.2025 13.4974 51.3956 13.4977C50.5304 13.5137 49.6764 13.6967 48.8805 14.0365C48.1402 11.7479 46.6078 9.79841 44.5588 8.53848C42.5098 7.27855 40.0786 6.79081 37.7022 7.16296C35.3258 7.5351 33.16 8.7427 31.5943 10.5687C30.0285 12.3947 29.1655 14.7193 29.1602 17.1247V17.412C28.003 17.3938 26.8537 17.6047 25.7784 18.0326C24.7032 18.4605 23.7232 19.097 22.8949 19.9053C22.0667 20.7136 21.4066 21.6778 20.9527 22.7424C20.4987 23.807 20.2599 24.9508 20.25 26.1081ZM42.7408 27.6887V45.1852H39.1481V27.6887C39.1458 27.3846 39.024 27.0936 38.809 26.8785C38.5939 26.6635 38.3029 26.5417 37.9988 26.5394H35.5912L41.0161 21.1145L46.441 26.5394H43.8901C43.586 26.5417 43.295 26.6635 43.0799 26.8785C42.8648 27.0936 42.743 27.3846 42.7408 27.6887ZM31.3155 19.6405C31.4617 19.4991 31.5683 19.322 31.625 19.1267C31.6817 18.9314 31.6864 18.7247 31.6387 18.527C31.5673 18.0633 31.5313 17.5947 31.5312 17.1255C31.5304 15.1644 32.2759 13.2765 33.6162 11.845C34.9566 10.4135 36.7914 9.54561 38.7483 9.41758C40.7052 9.28955 42.6375 9.91094 44.153 11.1556C45.6684 12.4003 46.6535 14.175 46.9082 16.1194C46.9355 16.3349 47.0247 16.5378 47.165 16.7037C47.3052 16.8695 47.4906 16.9911 47.6985 17.0538C47.8941 17.1326 48.1072 17.1575 48.3157 17.1259C48.5241 17.0942 48.7203 17.0072 48.8836 16.8739C49.5659 16.2346 50.4638 15.8755 51.3987 15.8679C51.8942 15.8678 52.3848 15.9653 52.8425 16.1549C53.3003 16.3444 53.7162 16.6223 54.0666 16.9727C54.4169 17.323 54.6948 17.7389 54.8844 18.1967C55.0739 18.6544 55.1714 19.1451 55.1713 19.6405C55.1615 20.2911 55.0017 20.9306 54.7041 21.5093C54.6114 21.6676 54.5585 21.846 54.55 22.0292C54.5416 22.2124 54.5778 22.395 54.6556 22.5611C54.7333 22.7272 54.8503 22.872 54.9965 22.9828C55.1426 23.0937 55.3135 23.1673 55.4945 23.1974C56.5524 23.4074 57.5055 23.9761 58.1927 24.8074C58.8799 25.6388 59.2591 26.6818 59.2663 27.7604C59.2717 28.3723 59.1559 28.9792 58.9254 29.546C58.6948 30.1129 58.3543 30.6284 57.9233 31.0629C57.4923 31.4973 56.9796 31.842 56.4146 32.0771C55.8496 32.3121 55.2436 32.4329 54.6317 32.4323H45.1118V28.9097H49.2792C49.5142 28.9083 49.7433 28.8354 49.9358 28.7006C50.1283 28.5658 50.2752 28.3755 50.3569 28.1552C50.4604 27.9473 50.4918 27.711 50.4463 27.4834C50.4008 27.2557 50.2808 27.0497 50.1054 26.8976L41.8422 18.5987C41.6173 18.3908 41.3223 18.2753 41.0161 18.2753C40.7098 18.2753 40.4148 18.3908 40.1899 18.5987L31.8925 26.8984C31.7302 27.0666 31.6212 27.2789 31.579 27.5087C31.5368 27.7386 31.5634 27.9758 31.6554 28.1906C31.7475 28.4055 31.9008 28.5883 32.0963 28.7164C32.2919 28.8444 32.5208 28.9119 32.7545 28.9105H36.8144V32.4316H28.95C27.2851 32.4131 25.6947 31.7388 24.524 30.555C23.3533 29.3712 22.6966 27.7734 22.6966 26.1085C22.6966 24.4435 23.3533 22.8458 24.524 21.6619C25.6947 20.4781 27.2851 19.8038 28.95 19.7854C29.396 19.7997 29.8404 19.8478 30.2791 19.9294C30.4623 19.9709 30.6529 19.9662 30.8338 19.9157C31.0147 19.8653 31.1802 19.7707 31.3155 19.6405Z" fill="white"/>
</svg>
