<svg width="81" height="81" viewBox="0 0 81 81" fill="none" xmlns="http://www.w3.org/2000/svg">
<path d="M40.1546 53.5544L34.3861 52.6527L34.1703 52.1843L37.6312 47.4601C37.7722 47.2528 37.8475 47.0078 37.8475 46.7571C37.8475 46.5064 37.7722 46.2615 37.6312 46.0542C36.3461 44.2824 34.7887 42.725 33.0169 41.4399C32.8163 41.2828 32.5688 41.1975 32.314 41.1975C32.0592 41.1975 31.8117 41.2828 31.611 41.4399L26.8868 44.9008L26.4184 44.685L25.5167 38.9165C25.4692 38.6664 25.3476 38.4364 25.1676 38.2565C24.9876 38.0765 24.7576 37.9548 24.5075 37.9073C22.3446 37.5828 20.1453 37.5828 17.9824 37.9073C17.7357 37.9553 17.5098 38.0778 17.335 38.2582C17.1602 38.4387 17.045 38.6685 17.0049 38.9165L16.0723 44.6858L15.6039 44.8658L10.8797 41.4448C10.6757 41.2955 10.4295 41.215 10.1767 41.215C9.92397 41.215 9.67776 41.2955 9.4738 41.4448C7.70196 42.7299 6.14461 44.2873 4.8595 46.0591C4.71855 46.2664 4.64318 46.5113 4.64318 46.762C4.64318 47.0127 4.71855 47.2576 4.8595 47.465L8.32043 52.1892L8.10458 52.6576L2.33609 53.5593C2.09206 53.5994 1.86667 53.7148 1.69143 53.8894C1.51619 54.0639 1.39984 54.2888 1.35866 54.5326C1.17484 55.6168 1.07841 56.7139 1.07031 57.8135C1.07368 58.9134 1.17014 60.0109 1.35866 61.0945C1.39324 61.3415 1.50735 61.5705 1.68371 61.7468C1.86007 61.9232 2.08909 62.0373 2.33609 62.0719L8.10458 63.0094L8.32043 63.4778L4.8595 68.1646C4.71855 68.3719 4.64318 68.6168 4.64318 68.8675C4.64318 69.1182 4.71855 69.3631 4.8595 69.5704C6.1349 71.3505 7.6937 72.9093 9.4738 74.1847C9.68112 74.3257 9.92604 74.4011 10.1767 74.4011C10.4274 74.4011 10.6723 74.3257 10.8797 74.1847L15.6039 70.7955L16.0723 70.9397L17.0098 76.744C17.0503 76.9885 17.1664 77.2143 17.3417 77.3896C17.517 77.5649 17.7427 77.6809 17.9872 77.7214C20.1493 78.0579 22.3504 78.0579 24.5124 77.7214C24.7604 77.6813 24.9901 77.566 25.1706 77.3912C25.351 77.2165 25.4736 76.9906 25.5216 76.744L26.4233 70.9397L26.8917 70.7955L31.6159 74.1847C31.8233 74.3257 32.0682 74.4011 32.3189 74.4011C32.5696 74.4011 32.8145 74.3257 33.0218 74.1847C34.8019 72.9094 36.3607 71.3505 37.6361 69.5704C37.7771 69.3631 37.8524 69.1182 37.8524 68.8675C37.8524 68.6168 37.7771 68.3719 37.6361 68.1646L34.2151 63.4778L34.3951 63.0094L40.1546 62.0613C40.4016 62.0267 40.6306 61.9126 40.807 61.7362C40.9834 61.5599 41.0975 61.3309 41.1321 61.0839C41.3337 60.0021 41.4303 58.9033 41.4204 57.803C41.4272 56.7027 41.3306 55.6042 41.1321 54.522C41.0898 54.2792 40.973 54.0556 40.7978 53.8822C40.6227 53.7088 40.3979 53.5942 40.1546 53.5544ZM38.9328 59.8629L33.3126 60.7279C33.1004 60.7695 32.9039 60.869 32.7448 61.0154C32.5857 61.1617 32.4701 61.3492 32.4109 61.5571C32.2306 62.0257 32.0134 62.5305 31.7593 63.0713C31.6709 63.2671 31.6345 63.4824 31.6534 63.6964C31.6724 63.9104 31.7462 64.1159 31.8676 64.2931L35.1844 68.8716C34.3437 69.9466 33.3751 70.9151 32.3001 71.7558L27.7217 68.4032C27.5451 68.2782 27.3371 68.2051 27.1211 68.1923C26.9052 68.1795 26.69 68.2274 26.4999 68.3307C25.9949 68.5474 25.4907 68.7632 24.9857 68.9433C24.7828 69.0162 24.6027 69.1412 24.4634 69.3057C24.3242 69.4703 24.2307 69.6686 24.1923 69.8808L23.2906 75.4684C21.9369 75.6126 20.5717 75.6126 19.218 75.4684L18.3163 69.8808C18.278 69.6686 18.1845 69.4703 18.0452 69.3057C17.906 69.1412 17.7258 69.0162 17.523 68.9433C17.0164 68.774 16.5224 68.5693 16.0446 68.3307C15.8477 68.2267 15.626 68.1784 15.4036 68.1912C15.1813 68.204 14.9666 68.2773 14.7829 68.4032L10.2044 71.7558C9.13789 70.9056 8.17039 69.9381 7.32019 68.8716L10.6369 64.2931C10.7573 64.1091 10.8296 63.8979 10.8471 63.6787C10.8646 63.4595 10.8268 63.2395 10.7371 63.0387C10.4873 62.5664 10.2822 62.0717 10.1246 61.5612C10.0576 61.3513 9.93513 61.1634 9.77009 61.0174C9.60504 60.8715 9.4036 60.7728 9.18709 60.732L3.56684 59.867C3.49479 59.1843 3.45863 58.4984 3.45851 57.8119C3.45862 57.1374 3.49478 56.4634 3.56684 55.7927L9.18709 54.891C9.39883 54.8517 9.59667 54.7578 9.76107 54.6187C9.92548 54.4796 10.0508 54.3 10.1246 54.0977C10.2755 53.573 10.4808 53.0655 10.7371 52.5835C10.8262 52.3878 10.863 52.1724 10.8441 51.9583C10.8251 51.7441 10.7509 51.5386 10.6288 51.3617L7.31204 46.7832C8.14309 45.6997 9.11279 44.73 10.1963 43.899L14.7747 47.2157C14.9517 47.3378 15.1572 47.412 15.3714 47.431C15.5855 47.45 15.8009 47.4131 15.9965 47.3241C16.48 47.0708 16.9872 46.8657 17.5107 46.7115C17.7192 46.6359 17.9032 46.505 18.043 46.3329C18.1828 46.1607 18.273 45.9537 18.3041 45.7341L19.2058 40.1464C20.5595 40.0023 21.9247 40.0023 23.2784 40.1464L24.1801 45.7341C24.2112 45.9537 24.3014 46.1607 24.4412 46.3329C24.581 46.505 24.765 46.6359 24.9735 46.7115C25.4992 46.8594 26.007 47.0648 26.4877 47.3241C26.6833 47.413 26.8987 47.4498 27.1128 47.4308C27.3269 47.4119 27.5325 47.3377 27.7095 47.2157L32.2879 43.899C33.3714 44.7301 34.3411 45.6998 35.1722 46.7832L31.8554 51.3617C31.7333 51.5386 31.6591 51.7441 31.6402 51.9583C31.6212 52.1724 31.658 52.3878 31.7471 52.5835C31.9946 53.0746 32.2122 53.5803 32.3987 54.0977C32.465 54.2981 32.5835 54.4772 32.7419 54.6166C32.9004 54.7561 33.0932 54.8508 33.3004 54.891L38.9206 55.7927C39.0648 57.1464 39.0648 58.5116 38.9206 59.8653L38.9328 59.8629Z" fill="white"/>
<path d="M21.2278 50.706C19.8247 50.7127 18.455 51.135 17.2916 51.9194C16.1282 52.7039 15.2233 53.8154 14.691 55.1137C14.1587 56.412 14.0229 57.8388 14.3008 59.2142C14.5787 60.5896 15.2578 61.8518 16.2523 62.8416C17.2469 63.8314 18.5124 64.5044 19.8891 64.7756C21.2657 65.0469 22.6919 64.9043 23.9876 64.3658C25.2833 63.8273 26.3905 62.917 27.1694 61.7498C27.9482 60.5827 28.3639 59.211 28.3639 57.8078C28.3621 56.8728 28.176 55.9474 27.8163 55.0843C27.4566 54.2213 26.9304 53.4376 26.2677 52.778C25.6049 52.1184 24.8187 51.596 23.9539 51.2404C23.0892 50.8849 22.1628 50.7033 21.2278 50.706ZM21.2278 62.5671C20.2867 62.5671 19.3667 62.288 18.5842 61.7652C17.8016 61.2423 17.1917 60.4991 16.8316 59.6296C16.4714 58.7601 16.3772 57.8034 16.5608 56.8803C16.7444 55.9573 17.1976 55.1094 17.8631 54.4439C18.5286 53.7784 19.3764 53.3252 20.2995 53.1416C21.2225 52.958 22.1793 53.0522 23.0488 53.4124C23.9183 53.7725 24.6615 54.3825 25.1843 55.165C25.7072 55.9475 25.9863 56.8675 25.9863 57.8086C25.9833 59.0697 25.481 60.2783 24.5892 61.1701C23.6975 62.0618 22.4889 62.5641 21.2278 62.5671Z" fill="white"/>
<path d="M66.5433 64.7655L63.5874 64.2605L65.3541 61.8454C65.4949 61.6381 65.5702 61.3932 65.5702 61.1425C65.5702 60.8918 65.4949 60.6469 65.3541 60.4396C64.562 59.3228 63.5872 58.3477 62.4707 57.5553C62.27 57.4145 62.0308 57.3389 61.7856 57.3389C61.5405 57.3389 61.3013 57.4145 61.1006 57.5553L58.6489 59.322L58.1439 56.3661C58.1096 56.1196 57.9962 55.891 57.8206 55.7147C57.645 55.5384 57.4168 55.4239 57.1705 55.3887C55.8247 55.1364 54.4437 55.1364 53.0979 55.3887C52.8558 55.435 52.6333 55.5529 52.459 55.7272C52.2847 55.9015 52.1668 56.124 52.1205 56.3661L51.6521 59.322L49.2004 57.5553C48.9997 57.4145 48.7605 57.3389 48.5154 57.3389C48.2702 57.3389 48.031 57.4145 47.8303 57.5553C46.7217 58.3573 45.7481 59.3309 44.9461 60.4396C44.8051 60.6469 44.7298 60.8918 44.7298 61.1425C44.7298 61.3932 44.8051 61.6381 44.9461 61.8454L46.7128 64.2605L43.7569 64.7655C43.5134 64.7921 43.2854 64.8984 43.1086 65.068C42.9319 65.2375 42.8161 65.4608 42.7794 65.703C42.6465 66.3918 42.5862 67.0926 42.5994 67.7939C42.5878 68.4593 42.6482 69.1241 42.7794 69.7765C42.8077 70.0292 42.919 70.2653 43.0959 70.448C43.2727 70.6306 43.5052 70.7494 43.7569 70.7857L46.7144 71.2207L44.9477 73.7082C44.8069 73.9089 44.7313 74.1481 44.7313 74.3932C44.7313 74.6384 44.8069 74.8776 44.9477 75.0783C45.7498 76.1868 46.7234 77.1604 47.832 77.9625C48.0256 78.1199 48.2675 78.2059 48.517 78.2059C48.7665 78.2059 49.0084 78.1199 49.202 77.9625L51.6537 76.1958L52.1221 79.1517C52.1624 79.3964 52.2783 79.6222 52.4537 79.7976C52.629 79.9729 52.8549 80.0888 53.0995 80.1291C53.7788 80.2427 54.4659 80.3029 55.1546 80.3092C55.8314 80.3044 56.5068 80.2442 57.1738 80.1291C57.4225 80.0999 57.654 79.9874 57.8307 79.8099C58.0074 79.6325 58.1189 79.4005 58.1471 79.1517L58.6522 76.1958L61.1039 77.9625C61.2975 78.1199 61.5394 78.2059 61.7889 78.2059C62.0384 78.2059 62.2803 78.1199 62.4739 77.9625C63.5824 77.1604 64.5561 76.1868 65.3582 75.0783C65.499 74.8776 65.5746 74.6384 65.5746 74.3932C65.5746 74.1481 65.499 73.9089 65.3582 73.7082L63.5866 71.2207L66.5425 70.7881C66.7953 70.7469 67.0287 70.6273 67.2098 70.4462C67.3909 70.2651 67.5105 70.0317 67.5517 69.7789C67.6522 69.1229 67.7004 68.46 67.6959 67.7964C67.7017 67.0967 67.6535 66.3977 67.5517 65.7055C67.5022 65.4634 67.3784 65.2428 67.1977 65.0743C67.017 64.9059 66.7882 64.7979 66.5433 64.7655ZM65.3215 68.5514L62.3289 69.0565C62.1127 69.0839 61.909 69.1734 61.7427 69.3142C61.5763 69.4551 61.4543 69.6411 61.3914 69.8498L60.9947 70.679C60.9057 70.8746 60.8688 71.09 60.8878 71.3042C60.9068 71.5183 60.981 71.7239 61.1031 71.9008L62.9056 74.3525C62.5673 74.7699 62.1801 75.1451 61.7523 75.47L59.294 73.7457C59.1207 73.6154 58.9145 73.5362 58.6986 73.5171C58.4827 73.4979 58.2657 73.5396 58.0722 73.6374C57.8117 73.7828 57.5328 73.8924 57.243 73.9632C57.0282 74.028 56.8377 74.1558 56.6963 74.3301C56.5549 74.5043 56.4689 74.717 56.4497 74.9406L55.9447 77.9332C55.4044 77.9693 54.8624 77.9693 54.3221 77.9332L53.8538 74.9406C53.8278 74.7192 53.7395 74.5098 53.599 74.3367C53.4585 74.1637 53.2717 74.0341 53.0604 73.9632C52.7706 73.8924 52.4917 73.7828 52.2312 73.6374C52.0372 73.5389 51.8195 73.4968 51.6028 73.516C51.3861 73.5351 51.1791 73.6147 51.0054 73.7457L48.5536 75.4766C48.1261 75.1503 47.7394 74.7737 47.4019 74.355L49.1686 71.9032C49.3062 71.7335 49.39 71.5265 49.4093 71.3089C49.4286 71.0912 49.3825 70.8727 49.2769 70.6814L48.9161 69.8522C48.8558 69.6485 48.7391 69.466 48.5796 69.3256C48.4201 69.1852 48.2242 69.0928 48.0144 69.0589L45.0218 68.5539L44.986 67.7964L45.0218 66.9314L48.0144 66.463C48.2266 66.4356 48.4258 66.3454 48.5865 66.2041C48.7471 66.0627 48.8619 65.8766 48.9161 65.6696L49.2769 64.8405C49.3833 64.6494 49.4298 64.4307 49.4105 64.2129C49.3912 63.9951 49.3069 63.7881 49.1686 63.6187L47.4019 61.1604C47.7588 60.7494 48.1443 60.364 48.5553 60.007L51.007 61.8096C51.1912 61.9157 51.3962 61.9804 51.608 61.9991C51.8197 62.0178 52.0329 61.9901 52.2329 61.9179C52.4993 61.776 52.7766 61.6554 53.0621 61.5571C53.2666 61.4753 53.4469 61.3425 53.5858 61.1715C53.7246 61.0004 53.8174 60.7967 53.8554 60.5797L54.3238 57.5871C54.864 57.551 55.4061 57.551 55.9463 57.5871L56.4513 60.5797C56.476 60.8015 56.5639 61.0115 56.7046 61.1848C56.8452 61.3581 57.0327 61.4873 57.2447 61.5571L58.0722 61.9171C58.2716 61.9887 58.4841 62.0161 58.695 61.9974C58.906 61.9786 59.1104 61.9143 59.294 61.8088L61.7457 60.0062C62.1567 60.3632 62.5421 60.7486 62.8991 61.1596L61.0966 63.6113C60.9827 63.7917 60.9135 63.9967 60.8947 64.2091C60.8758 64.4216 60.9079 64.6355 60.9882 64.8331L61.3849 65.6623C61.4417 65.8743 61.5619 66.064 61.7295 66.2058C61.897 66.3475 62.1039 66.4347 62.3224 66.4557L65.315 66.924V68.5466L65.3215 68.5514Z" fill="white"/>
<path d="M55.1541 63.5762C54.3321 63.5727 53.5275 63.8126 52.8416 64.2657C52.1557 64.7187 51.6193 65.3646 51.2999 66.122C50.9805 66.8794 50.8924 67.7144 51.0467 68.5218C51.201 69.3292 51.5909 70.0728 52.1671 70.659C52.7433 71.2452 53.4802 71.6477 54.2848 71.8159C55.0894 71.984 55.9258 71.9102 56.6885 71.6038C57.4513 71.2975 58.1063 70.7722 58.571 70.0942C59.0358 69.4162 59.2894 68.6158 59.3 67.7938C59.3074 67.244 59.2057 66.6981 59.0008 66.1878C58.7959 65.6774 58.4919 65.2128 58.1064 64.8206C57.7209 64.4284 57.2615 64.1165 56.7548 63.903C56.2481 63.6894 55.704 63.5783 55.1541 63.5762ZM55.1541 69.5605C54.7996 69.5644 54.4519 69.4626 54.1555 69.2681C53.8591 69.0735 53.6273 68.7951 53.4898 68.4683C53.3522 68.1415 53.3151 67.7812 53.3832 67.4332C53.4513 67.0853 53.6215 66.7655 53.8721 66.5147C54.1227 66.2639 54.4423 66.0934 54.7902 66.0249C55.1381 65.9565 55.4985 65.9933 55.8254 66.1305C56.1523 66.2677 56.431 66.4993 56.6258 66.7955C56.8206 67.0917 56.9227 67.4393 56.9192 67.7938C56.9127 68.2601 56.7247 68.7054 56.3951 69.0353C56.0655 69.3652 55.6203 69.5536 55.1541 69.5605Z" fill="white"/>
<path d="M7.81595 15.4833H23.7147C24.6063 15.4931 25.4909 15.326 26.3174 14.9916C27.1439 14.6572 27.8959 14.1622 28.5298 13.5352C29.1637 12.9082 29.6669 12.1617 30.0104 11.3389C30.3538 10.5162 30.5307 9.63344 30.5307 8.74185C30.5307 7.85026 30.3538 6.96753 30.0104 6.14475C29.6669 5.32197 29.1637 4.57548 28.5298 3.94851C27.8959 3.32154 27.1439 2.82653 26.3174 2.49213C25.4909 2.15774 24.6063 1.99061 23.7147 2.00041H7.81595C6.92442 1.99061 6.0398 2.15774 5.21329 2.49213C4.38679 2.82653 3.63482 3.32154 3.00091 3.94851C2.36701 4.57548 1.86376 5.32197 1.52031 6.14475C1.17685 6.96753 1 7.85026 1 8.74185C1 9.63344 1.17685 10.5162 1.52031 11.3389C1.86376 12.1617 2.36701 12.9082 3.00091 13.5352C3.63482 14.1622 4.38679 14.6572 5.21329 14.9916C6.0398 15.326 6.92442 15.4931 7.81595 15.4833ZM28.0765 8.77809C28.0609 9.9247 27.5944 11.019 26.778 11.8243C25.9616 12.6296 24.861 13.0811 23.7143 13.0811C22.5676 13.0811 21.467 12.6296 20.6506 11.8243C19.8343 11.019 19.3678 9.9247 19.3521 8.77809C19.3442 8.20023 19.4512 7.62655 19.6669 7.09038C19.8826 6.55421 20.2026 6.06624 20.6085 5.6548C21.0143 5.24336 21.4979 4.91667 22.0311 4.69368C22.5642 4.4707 23.1364 4.35587 23.7143 4.35587C24.2922 4.35587 24.8644 4.4707 25.3976 4.69368C25.9307 4.91667 26.4143 5.24336 26.8202 5.6548C27.226 6.06624 27.5461 6.55421 27.7617 7.09038C27.9774 7.62655 28.0844 8.20023 28.0765 8.77809ZM7.81595 4.41548H18.5954C17.5406 5.62311 16.9635 7.17467 16.9729 8.77809C16.9765 10.379 17.5519 11.9259 18.5954 13.1399H7.81595C6.86617 13.1289 5.94548 12.8107 5.19155 12.233C4.43762 11.6552 3.89097 10.849 3.63335 9.93472H13.2594C13.5686 9.93405 13.8654 9.81345 14.0873 9.59831C14.3093 9.38318 14.4391 9.0903 14.4495 8.78135C14.4512 8.62459 14.4216 8.46906 14.3624 8.32389C14.3033 8.17872 14.2157 8.04684 14.1048 7.93599C13.994 7.82513 13.8621 7.73754 13.7169 7.67836C13.5717 7.61917 13.4162 7.58958 13.2594 7.59133H3.63335C3.89204 6.68012 4.43985 5.87766 5.19424 5.30485C5.94863 4.73204 6.86874 4.41991 7.81595 4.41548Z" fill="white"/>
<path d="M7.81527 33.3654H23.714C25.5071 33.3654 27.2266 32.6531 28.4945 31.3853C29.7624 30.1174 30.4746 28.3978 30.4746 26.6048C30.4746 24.8118 29.7624 23.0922 28.4945 21.8244C27.2266 20.5565 25.5071 19.8442 23.714 19.8442H7.81527C6.02225 19.8442 4.30267 20.5565 3.03482 21.8244C1.76696 23.0922 1.05469 24.8118 1.05469 26.6048C1.05469 28.3978 1.76696 30.1174 3.03482 31.3853C4.30267 32.6531 6.02225 33.3654 7.81527 33.3654ZM28.0758 26.6236C28.0718 27.7791 27.6109 28.8862 26.7938 29.7033C25.9767 30.5204 24.8696 30.9813 23.714 30.9854H12.9704C13.9883 29.759 14.5489 28.2173 14.5563 26.6236C14.5552 25.0287 13.9939 23.4849 12.9704 22.2618H23.714C24.2871 22.2608 24.8547 22.373 25.3844 22.5918C25.914 22.8107 26.3952 23.1319 26.8005 23.5371C27.2057 23.9424 27.5269 24.4236 27.7458 24.9532C27.9646 25.4829 28.0768 26.0505 28.0758 26.6236ZM7.81527 22.2618C8.67792 22.2619 9.52115 22.5179 10.2383 22.9972C10.9555 23.4766 11.5145 24.1579 11.8445 24.9549C12.1745 25.752 12.2607 26.6289 12.0923 27.475C11.924 28.321 11.5085 29.0982 10.8984 29.7081C10.2884 30.318 9.51118 30.7334 8.6651 30.9016C7.81902 31.0698 6.94205 30.9834 6.14508 30.6532C5.34811 30.3231 4.66694 29.764 4.1877 29.0468C3.70845 28.3295 3.45266 27.4862 3.45266 26.6236C3.45865 25.4684 3.92023 24.3624 4.73711 23.5456C5.55399 22.7289 6.66015 22.2675 7.81527 22.2618Z" fill="white"/>
<path d="M74.8364 12.9241H73.6472V3.22628C73.6514 3.06744 73.6237 2.90937 73.5657 2.76141C73.5078 2.61344 73.4209 2.47857 73.31 2.36476C73.1991 2.25094 73.0666 2.16048 72.9202 2.09872C72.7738 2.03695 72.6165 2.00513 72.4576 2.00513C72.2987 2.00513 72.1414 2.03695 71.995 2.09872C71.8486 2.16048 71.716 2.25094 71.6052 2.36476C71.4943 2.47857 71.4073 2.61344 71.3494 2.76141C71.2915 2.90937 71.2638 3.06744 71.268 3.22628V12.9241H70.0779C68.9736 12.9241 67.9145 13.3627 67.1336 14.1436C66.3528 14.9245 65.9141 15.9836 65.9141 17.0879C65.9141 18.1923 66.3528 19.2513 67.1336 20.0322C67.9145 20.8131 68.9736 21.2518 70.0779 21.2518H71.268V40.7915C71.2761 41.1016 71.405 41.3963 71.6272 41.6128C71.8494 41.8293 72.1474 41.9504 72.4576 41.9504C72.7678 41.9504 73.0658 41.8293 73.288 41.6128C73.5102 41.3963 73.6391 41.1016 73.6472 40.7915V21.2518H74.8372C75.9415 21.2518 77.0006 20.8131 77.7815 20.0322C78.5624 19.2513 79.0011 18.1923 79.0011 17.0879C79.0011 15.9836 78.5624 14.9245 77.7815 14.1436C77.0006 13.3627 75.9415 12.9241 74.8372 12.9241H74.8364ZM74.8364 18.8701H70.0779C69.8459 18.8701 69.6162 18.8244 69.4018 18.7356C69.1875 18.6468 68.9927 18.5167 68.8287 18.3527C68.6646 18.1886 68.5345 17.9938 68.4457 17.7795C68.3569 17.5651 68.3112 17.3354 68.3112 17.1034C68.3112 16.8714 68.3569 16.6417 68.4457 16.4273C68.5345 16.213 68.6646 16.0182 68.8287 15.8541C68.9927 15.6901 69.1875 15.56 69.4018 15.4712C69.6162 15.3824 69.8459 15.3367 70.0779 15.3367H74.8364C75.0684 15.3367 75.2981 15.3824 75.5125 15.4712C75.7268 15.56 75.9216 15.6901 76.0857 15.8541C76.2497 16.0182 76.3798 16.213 76.4686 16.4273C76.5574 16.6417 76.6031 16.8714 76.6031 17.1034C76.6031 17.3354 76.5574 17.5651 76.4686 17.7795C76.3798 17.9938 76.2497 18.1886 76.0857 18.3527C75.9216 18.5167 75.7268 18.6468 75.5125 18.7356C75.2981 18.8244 75.0684 18.8701 74.8364 18.8701Z" fill="white"/>
<path d="M55.839 35.4563H57.029V40.7923C57.0371 41.1024 57.166 41.3971 57.3882 41.6136C57.6104 41.8301 57.9084 41.9512 58.2186 41.9512C58.5288 41.9512 58.8268 41.8301 59.049 41.6136C59.2712 41.3971 59.4001 41.1024 59.4082 40.7923V35.4563H60.5983C61.6931 35.4563 62.7431 35.0214 63.5172 34.2473C64.2914 33.4731 64.7263 32.4231 64.7263 31.3283C64.7263 30.2335 64.2914 29.1835 63.5172 28.4094C62.7431 27.6352 61.6931 27.2003 60.5983 27.2003H59.4082V3.22628C59.4124 3.06744 59.3847 2.90937 59.3268 2.76141C59.2689 2.61344 59.1819 2.47857 59.071 2.36476C58.9601 2.25094 58.8276 2.16048 58.6812 2.09872C58.5348 2.03695 58.3775 2.00513 58.2186 2.00513C58.0597 2.00513 57.9024 2.03695 57.756 2.09872C57.6096 2.16048 57.4771 2.25094 57.3662 2.36476C57.2553 2.47857 57.1684 2.61344 57.1104 2.76141C57.0525 2.90937 57.0248 3.06744 57.029 3.22628V27.2027H55.839C54.7441 27.2027 53.6942 27.6376 52.92 28.4118C52.1459 29.186 51.7109 30.2359 51.7109 31.3308C51.7109 32.4256 52.1459 33.4756 52.92 34.2497C53.6942 35.0239 54.7441 35.4588 55.839 35.4588V35.4563ZM55.839 29.5445H60.5974C61.0708 29.5445 61.5247 29.7325 61.8594 30.0672C62.194 30.4019 62.3821 30.8558 62.3821 31.3291C62.3821 31.8024 62.194 32.2564 61.8594 32.591C61.5247 32.9257 61.0708 33.1138 60.5974 33.1138H55.839C55.3657 33.1138 54.9117 32.9257 54.577 32.591C54.2424 32.2564 54.0543 31.8024 54.0543 31.3291C54.0543 30.8558 54.2424 30.4019 54.577 30.0672C54.9117 29.7325 55.3657 29.5445 55.839 29.5445Z" fill="white"/>
<path d="M42.7867 40.7915C42.7948 41.1016 42.9237 41.3963 43.1459 41.6128C43.3681 41.8293 43.666 41.9504 43.9763 41.9504C44.2865 41.9504 44.5845 41.8293 44.8067 41.6128C45.0289 41.3963 45.1578 41.1016 45.1659 40.7915V14.1133H46.3567C47.4563 14.1133 48.5108 13.6765 49.2884 12.8989C50.0659 12.1214 50.5027 11.0669 50.5027 9.96732C50.5027 8.86774 50.0659 7.8132 49.2884 7.03569C48.5108 6.25817 47.4563 5.82137 46.3567 5.82137H45.1675V3.22628C45.1717 3.06744 45.144 2.90937 45.0861 2.76141C45.0282 2.61344 44.9412 2.47857 44.8303 2.36476C44.7194 2.25094 44.5869 2.16048 44.4405 2.09872C44.2941 2.03695 44.1368 2.00513 43.9779 2.00513C43.819 2.00513 43.6617 2.03695 43.5153 2.09872C43.3689 2.16048 43.2364 2.25094 43.1255 2.36476C43.0146 2.47857 42.9277 2.61344 42.8697 2.76141C42.8118 2.90937 42.7841 3.06744 42.7883 3.22628V5.82218H41.5991C40.4995 5.82218 39.445 6.25899 38.6674 7.03651C37.8899 7.81402 37.4531 8.86856 37.4531 9.96813C37.4531 11.0677 37.8899 12.1222 38.6674 12.8998C39.445 13.6773 40.4995 14.1141 41.5991 14.1141H42.7883L42.7867 40.7915ZM39.8307 9.96813C39.8314 9.49977 40.0177 9.05078 40.3489 8.71959C40.6801 8.38841 41.1291 8.20207 41.5974 8.20142H46.3567C46.83 8.20142 47.284 8.38944 47.6187 8.72413C47.9533 9.05881 48.1414 9.51274 48.1414 9.98605C48.1414 10.4594 47.9533 10.9133 47.6187 11.248C47.284 11.5827 46.83 11.7707 46.3567 11.7707H41.5974C41.3628 11.7693 41.1307 11.7215 40.9147 11.63C40.6986 11.5384 40.5028 11.4051 40.3386 11.2375C40.1743 11.0699 40.0449 10.8714 39.9577 10.6536C39.8706 10.4357 39.8274 10.2028 39.8307 9.96813Z" fill="white"/>
<path d="M72.4578 45.9108C72.143 45.9133 71.8418 46.0395 71.6191 46.2621C71.3965 46.4848 71.2703 46.786 71.2678 47.1008V57.0885H67.8834C67.578 57.0966 67.2878 57.2236 67.0746 57.4424C66.8615 57.6613 66.7422 57.9547 66.7422 58.2602C66.7422 58.5657 66.8615 58.8592 67.0746 59.078C67.2878 59.2969 67.578 59.4239 67.8834 59.4319H72.4619C72.6157 59.4345 72.7686 59.4067 72.9117 59.3501C73.0548 59.2935 73.1854 59.2092 73.2958 59.1021C73.4063 58.9949 73.4946 58.867 73.5555 58.7257C73.6165 58.5844 73.6489 58.4324 73.6511 58.2786V47.1008C73.6485 46.7854 73.5219 46.4837 73.2985 46.261C73.0752 46.0383 72.7732 45.9125 72.4578 45.9108Z" fill="white"/>
<path d="M58.1085 45.9108C57.7937 45.9135 57.4927 46.0398 57.2701 46.2624C57.0475 46.4849 56.9212 46.786 56.9185 47.1008V49.4442H43.9764C43.82 49.4401 43.6643 49.4673 43.5185 49.5243C43.3727 49.5814 43.2399 49.667 43.1277 49.7762C43.0156 49.8854 42.9265 50.016 42.8656 50.1602C42.8048 50.3044 42.7734 50.4594 42.7734 50.6159C42.7734 50.7724 42.8048 50.9273 42.8656 51.0716C42.9265 51.2158 43.0156 51.3463 43.1277 51.4555C43.2399 51.5648 43.3727 51.6504 43.5185 51.7074C43.6643 51.7645 43.82 51.7917 43.9764 51.7876H58.1085C58.2653 51.7893 58.4208 51.7597 58.566 51.7006C58.7111 51.6414 58.843 51.5538 58.9539 51.4429C59.0647 51.3321 59.1523 51.2002 59.2115 51.055C59.2707 50.9099 59.3003 50.7543 59.2985 50.5976V47.1008C59.2958 46.786 59.1695 46.4849 58.9469 46.2624C58.7243 46.0398 58.4233 45.9135 58.1085 45.9108Z" fill="white"/>
</svg>
