<svg width="70" height="70" viewBox="0 0 70 70" fill="none" xmlns="http://www.w3.org/2000/svg">
<path d="M24.3154 15.8337L23.6654 11.5681C23.6164 11.2452 23.4524 10.9509 23.2035 10.7394C22.9547 10.5278 22.6378 10.4134 22.3112 10.4171H18.2487C17.8896 10.4171 17.5451 10.5597 17.2912 10.8137C17.0372 11.0677 16.8945 11.4121 16.8945 11.7712C16.8945 12.1304 17.0372 12.4748 17.2912 12.7288C17.5451 12.9827 17.8896 13.1254 18.2487 13.1254H21.1466C21.5799 15.9285 21.607 16.1452 23.6112 29.1181C23.0172 29.6742 22.6039 30.3959 22.4248 31.1896C22.2457 31.9834 22.3091 32.8126 22.6068 33.5699C22.9044 34.3272 23.4226 34.9777 24.0943 35.437C24.7659 35.8964 25.56 36.1434 26.3737 36.1462H41.2695C41.6287 36.1462 41.9731 36.0036 42.2271 35.7496C42.481 35.4957 42.6237 35.1512 42.6237 34.7921C42.6237 34.4329 42.481 34.0885 42.2271 33.8345C41.9731 33.5806 41.6287 33.4379 41.2695 33.4379H26.3737C26.0146 33.4379 25.6701 33.2952 25.4162 33.0413C25.1622 32.7873 25.0195 32.4429 25.0195 32.0837C25.0195 31.7246 25.1622 31.3802 25.4162 31.1262C25.6701 30.8722 26.0146 30.7296 26.3737 30.7296H45.332C45.6451 30.7372 45.9511 30.6362 46.198 30.4436C46.4449 30.251 46.6174 29.9788 46.6862 29.6733C49.5706 16.7004 49.706 17.066 49.1237 16.3348C48.5414 15.6035 49.8008 15.8337 24.3154 15.8337ZM44.2487 28.0212H26.3737C26.1029 28.0212 26.3737 29.064 24.7352 18.5421H46.4018L44.2487 28.0212Z" fill="#212121"/>
<path d="M29.0846 37.5C28.7255 37.5 28.381 37.6427 28.1271 37.8966C27.8731 38.1506 27.7305 38.495 27.7305 38.8542C27.7305 39.2133 27.8731 39.5578 28.1271 39.8117C28.381 40.0657 28.7255 40.2083 29.0846 40.2083C29.4438 40.2083 29.7882 40.0657 30.0422 39.8117C30.2961 39.5578 30.4388 39.2133 30.4388 38.8542C30.4388 38.495 30.2961 38.1506 30.0422 37.8966C29.7882 37.6427 29.4438 37.5 29.0846 37.5Z" fill="#212121"/>
<path d="M37.2096 37.5C36.8505 37.5 36.506 37.6427 36.2521 37.8966C35.9981 38.1506 35.8555 38.495 35.8555 38.8542C35.8555 39.2133 35.9981 39.5578 36.2521 39.8117C36.506 40.0657 36.8505 40.2083 37.2096 40.2083C37.5688 40.2083 37.9132 40.0657 38.1672 39.8117C38.4211 39.5578 38.5638 39.2133 38.5638 38.8542C38.5638 38.495 38.4211 38.1506 38.1672 37.8966C37.9132 37.6427 37.5688 37.5 37.2096 37.5Z" fill="#212121"/>
<path d="M60.2292 5H8.77083C6.9751 5 5.25291 5.71335 3.98313 6.98313C2.71335 8.25291 2 9.9751 2 11.7708L2 46.9792C2 48.7749 2.71335 50.4971 3.98313 51.7669C5.25291 53.0366 6.9751 53.75 8.77083 53.75H25.9958L23.9646 61.875H19.6042C19.245 61.875 18.9006 62.0177 18.6466 62.2716C18.3927 62.5256 18.25 62.87 18.25 63.2292C18.25 63.5883 18.3927 63.9328 18.6466 64.1867C18.9006 64.4407 19.245 64.5833 19.6042 64.5833H49.3958C49.755 64.5833 50.0994 64.4407 50.3534 64.1867C50.6073 63.9328 50.75 63.5883 50.75 63.2292C50.75 62.87 50.6073 62.5256 50.3534 62.2716C50.0994 62.0177 49.755 61.875 49.3958 61.875H45.0354L43.0042 53.75H60.2292C61.1183 53.75 61.9988 53.5749 62.8203 53.2346C63.6417 52.8943 64.3881 52.3956 65.0169 51.7669C65.6456 51.1381 66.1443 50.3917 66.4846 49.5703C66.8249 48.7488 67 47.8683 67 46.9792V11.7708C67 10.8817 66.8249 10.0012 66.4846 9.17975C66.1443 8.35827 65.6456 7.61186 65.0169 6.98313C64.3881 6.3544 63.6417 5.85567 62.8203 5.5154C61.9988 5.17513 61.1183 5 60.2292 5ZM4.70833 11.7708C4.70833 10.6934 5.13635 9.66008 5.89821 8.89821C6.66008 8.13635 7.69339 7.70833 8.77083 7.70833H60.2292C61.3066 7.70833 62.3399 8.13635 63.1018 8.89821C63.8637 9.66008 64.2917 10.6934 64.2917 11.7708V42.9167H4.70833V11.7708ZM42.2458 61.875H26.7542L28.7854 53.75H40.2146L42.2458 61.875ZM64.2917 46.9792C64.2917 48.0566 63.8637 49.0899 63.1018 49.8518C62.3399 50.6137 61.3066 51.0417 60.2292 51.0417H8.77083C7.69339 51.0417 6.66008 50.6137 5.89821 49.8518C5.13635 49.0899 4.70833 48.0566 4.70833 46.9792V45.625H64.2917V46.9792Z" fill="#212121"/>
<path d="M54.8091 29.375H50.7466C50.4722 29.3769 50.2049 29.462 49.98 29.6192C49.7551 29.7764 49.5833 29.9982 49.4872 30.2552C49.3518 30.6208 49.3924 30.4042 49.3924 34.7917C49.3924 35.1508 49.5351 35.4953 49.7891 35.7492C50.043 36.0032 50.3875 36.1458 50.7466 36.1458C51.1057 36.1458 51.4502 36.0032 51.7041 35.7492C51.9581 35.4953 52.1008 35.1508 52.1008 34.7917V33.9927L53.8476 35.7531C54.1026 36.0081 54.4485 36.1514 54.8091 36.1514C55.1697 36.1514 55.5156 36.0081 55.7706 35.7531C56.0256 35.4981 56.1688 35.1523 56.1688 34.7917C56.1688 34.431 56.0256 34.0852 55.7706 33.8302L54.0101 32.0833H54.8091C55.1682 32.0833 55.5127 31.9407 55.7666 31.6867C56.0206 31.4328 56.1633 31.0883 56.1633 30.7292C56.1633 30.37 56.0206 30.0256 55.7666 29.7716C55.5127 29.5177 55.1682 29.375 54.8091 29.375Z" fill="#212121"/>
</svg>
