<svg width="70" height="70" viewBox="0 0 70 70" fill="none" xmlns="http://www.w3.org/2000/svg">
<path d="M34.9987 5.83301C18.9162 5.83301 5.83203 18.9172 5.83203 34.9997V47.0834C5.83203 50.0701 8.44828 52.4997 11.6654 52.4997H14.582C15.3556 52.4997 16.0974 52.1924 16.6444 51.6454C17.1914 51.0984 17.4987 50.3566 17.4987 49.583V34.5826C17.4987 33.809 17.1914 33.0672 16.6444 32.5202C16.0974 31.9732 15.3556 31.6659 14.582 31.6659H11.9337C13.5554 20.3784 23.2679 11.6663 34.9987 11.6663C46.7295 11.6663 56.442 20.3784 58.0637 31.6659H55.4154C54.6418 31.6659 53.8999 31.9732 53.353 32.5202C52.806 33.0672 52.4987 33.809 52.4987 34.5826V52.4997C52.4987 55.7168 49.8824 58.333 46.6654 58.333H40.832V55.4163H29.1654V64.1663H46.6654C53.0995 64.1663 58.332 58.9338 58.332 52.4997C61.5491 52.4997 64.1654 50.0701 64.1654 47.0834V34.9997C64.1654 18.9172 51.0812 5.83301 34.9987 5.83301Z" fill="black"/>
</svg>
