<svg width="80" height="80" viewBox="0 0 80 80" fill="none" xmlns="http://www.w3.org/2000/svg">
<g clip-path="url(#clip0_7942_30517)">
<path d="M79.5 70.3744H1.5L11.2491 60.625H69.7491L79.5 70.3744Z" stroke="white" stroke-width="2" stroke-miterlimit="10" stroke-linecap="round" stroke-linejoin="round"/>
<path d="M71.5772 67.328L67.921 63.6719H13.0781L9.42188 67.328H71.5772Z" stroke="white" stroke-width="2" stroke-miterlimit="10" stroke-linecap="round" stroke-linejoin="round"/>
<path d="M1.5 70.3747C1.5 73.0669 3.68316 75.2504 6.37552 75.2504L74.623 75.2487C77.3168 75.2487 79.5 73.0654 79.5 70.373L1.5 70.3747Z" stroke="white" stroke-width="2" stroke-miterlimit="10" stroke-linecap="round" stroke-linejoin="round"/>
<path d="M52.6865 70.374H28.3125V75.2497H52.6865V70.374Z" stroke="white" stroke-width="2" stroke-miterlimit="10" stroke-linecap="round" stroke-linejoin="round"/>
<path d="M37.4517 26.1965C37.4517 22.6612 34.5875 19.7979 31.0547 19.7979C34.5874 19.7979 37.4517 22.6612 37.4517 26.1965Z" stroke="white" stroke-width="2" stroke-miterlimit="10" stroke-linecap="round" stroke-linejoin="round"/>
<path d="M69.8996 22.998C69.8996 21.8744 69.698 20.7979 69.3438 19.7979C69.698 20.7979 69.8996 21.8744 69.8996 22.998Z" stroke="white" stroke-width="2" stroke-miterlimit="10" stroke-linecap="round" stroke-linejoin="round"/>
<path d="M54.9229 13.4004C49.6225 13.4004 45.3281 17.6972 45.3281 22.9943C45.328 17.6972 49.6224 13.4004 54.9229 13.4004Z" stroke="white" stroke-width="2" stroke-miterlimit="10" stroke-linecap="round" stroke-linejoin="round"/>
<path d="M73.1003 32.5941C76.6355 32.5941 79.499 29.7298 79.499 26.1962C79.499 22.6619 76.6355 19.7975 73.1003 19.7975H69.3417C68.0216 16.0708 64.4813 13.3988 60.3045 13.3988H54.9217C52.7099 9.57637 48.5886 7 43.8541 7C36.7836 7 31.0566 12.7303 31.0541 19.7975H27.3995C23.8668 19.7975 21 22.6619 21 26.1962C21 29.7299 23.8668 32.5941 27.3995 32.5941H73.1003V32.5941Z" stroke="white" stroke-width="2" stroke-miterlimit="10" stroke-linecap="round" stroke-linejoin="round"/>
<path d="M27.3999 32.5937C23.8672 32.5937 21.0003 29.7293 21.0003 26.1958C21.0003 24.4029 21.7418 22.7873 22.9299 21.626H11.25V60.6246H69.7499V32.5937H27.3999Z" stroke="white" stroke-width="2" stroke-miterlimit="10" stroke-linecap="round" stroke-linejoin="round"/>
<path d="M27.3996 32.5948C23.8669 32.5948 21.0001 29.7304 21.0001 26.1969C21.0001 25.8838 21.0488 25.5838 21.0924 25.2832H14.9062V56.9714H66.0952V32.5948H27.3996Z" stroke="white" stroke-width="2" stroke-miterlimit="10" stroke-linecap="round" stroke-linejoin="round"/>
</g>
<defs>
<clipPath id="clip0_7942_30517">
<rect width="80" height="80" fill="white"/>
</clipPath>
</defs>
</svg>
