<svg width="70" height="70" viewBox="0 0 70 70" fill="none" xmlns="http://www.w3.org/2000/svg">
<path d="M35 39.375C36.1603 39.375 37.2731 38.9141 38.0936 38.0936C38.9141 37.2731 39.375 36.1603 39.375 35C39.375 33.8397 38.9141 32.7269 38.0936 31.9064C37.2731 31.0859 36.1603 30.625 35 30.625C33.8397 30.625 32.7269 31.0859 31.9064 31.9064C31.0859 32.7269 30.625 33.8397 30.625 35C30.625 36.1603 31.0859 37.2731 31.9064 38.0936C32.7269 38.9141 33.8397 39.375 35 39.375Z" fill="black"/>
<path d="M52.5 35C52.5 39.6413 50.6563 44.0925 47.3744 47.3744C44.0925 50.6563 39.6413 52.5 35 52.5C30.3587 52.5 25.9075 50.6563 22.6256 47.3744C19.3437 44.0925 17.5 39.6413 17.5 35C17.5 30.3587 19.3437 25.9075 22.6256 22.6256C25.9075 19.3437 30.3587 17.5 35 17.5C39.6413 17.5 44.0925 19.3437 47.3744 22.6256C50.6563 25.9075 52.5 30.3587 52.5 35V35ZM35 48.125C38.481 48.125 41.8194 46.7422 44.2808 44.2808C46.7422 41.8194 48.125 38.481 48.125 35C48.125 31.519 46.7422 28.1806 44.2808 25.7192C41.8194 23.2578 38.481 21.875 35 21.875C31.519 21.875 28.1806 23.2578 25.7192 25.7192C23.2578 28.1806 21.875 31.519 21.875 35C21.875 38.481 23.2578 41.8194 25.7192 44.2808C28.1806 46.7422 31.519 48.125 35 48.125V48.125Z" fill="black"/>
<path d="M65.625 35C65.625 43.1223 62.3984 50.9118 56.6551 56.6551C50.9118 62.3984 43.1223 65.625 35 65.625C26.8777 65.625 19.0882 62.3984 13.3449 56.6551C7.60155 50.9118 4.375 43.1223 4.375 35C4.375 26.8777 7.60155 19.0882 13.3449 13.3449C19.0882 7.60155 26.8777 4.375 35 4.375C43.1223 4.375 50.9118 7.60155 56.6551 13.3449C62.3984 19.0882 65.625 26.8777 65.625 35V35ZM35 61.25C38.4472 61.25 41.8606 60.571 45.0454 59.2518C48.2302 57.9326 51.124 55.9991 53.5616 53.5616C55.9991 51.124 57.9327 48.2302 59.2518 45.0454C60.571 41.8606 61.25 38.4472 61.25 35C61.25 31.5528 60.571 28.1394 59.2518 24.9546C57.9327 21.7698 55.9991 18.876 53.5616 16.4384C51.124 14.0009 48.2302 12.0673 45.0454 10.7482C41.8606 9.42898 38.4472 8.75 35 8.75C28.0381 8.75 21.3613 11.5156 16.4384 16.4384C11.5156 21.3613 8.75 28.0381 8.75 35C8.75 41.9619 11.5156 48.6387 16.4384 53.5616C21.3613 58.4844 28.0381 61.25 35 61.25V61.25Z" fill="black"/>
</svg>
