<svg width="64" height="64" viewBox="0 0 64 64" fill="none" xmlns="http://www.w3.org/2000/svg">
<rect width="64" height="64" rx="12" fill="#A2AAB8"/>
<path d="M52.5605 36.9395L48.0605 32.4395C47.7792 32.1583 47.3977 32.0003 47 32.0003C46.6023 32.0003 46.2208 32.1583 45.9395 32.4395L32 46.379V53H38.621L52.5605 39.0605C52.8417 38.7792 52.9997 38.3977 52.9997 38C52.9997 37.6023 52.8417 37.2208 52.5605 36.9395ZM37.379 50H35V47.621L42.5 40.121L44.879 42.5L37.379 50ZM47 40.379L44.621 38L47 35.621L49.379 38L47 40.379ZM35 35V29H38V35H35ZM29 35V26H32V35H29ZM23 35V20H26V35H23Z" fill="white"/>
<path d="M26 53H17C16.2046 52.9992 15.442 52.6829 14.8796 52.1204C14.3171 51.558 14.0008 50.7954 14 50V14C14.0008 13.2046 14.3171 12.442 14.8796 11.8796C15.442 11.3171 16.2046 11.0008 17 11H41C41.7954 11.0008 42.558 11.3171 43.1204 11.8796C43.6829 12.442 43.9992 13.2046 44 14V29H41V14H17V50H26V53Z" fill="white"/>
</svg>
