<svg width="64" height="64" viewBox="0 0 64 64" fill="none" xmlns="http://www.w3.org/2000/svg">
<rect width="64" height="64" rx="12" fill="#A2AAB8"/>
<path d="M40.6121 42.226L42.4301 38.372C42.4792 38.2619 42.5591 38.1683 42.6603 38.1026C42.7615 38.0369 42.8795 38.002 43.0001 38.002C43.1207 38.002 43.2387 38.0369 43.3399 38.1026C43.4411 38.1683 43.521 38.2619 43.5701 38.372L45.3901 42.226L49.4541 42.848C49.9761 42.928 50.1841 43.6 49.8081 43.984L46.8661 46.984L47.5601 51.22C47.6481 51.764 47.1021 52.18 46.6361 51.922L43.0001 49.922L39.3641 51.922C38.8961 52.18 38.3521 51.764 38.4401 51.22L39.1341 46.984L36.1941 43.984C35.8141 43.6 36.0241 42.928 36.5461 42.848L40.6121 42.228V42.226Z" stroke="white" stroke-width="3" stroke-linecap="round" stroke-linejoin="round"/>
<path d="M46.5 32V33.5H49.5V32H46.5ZM48 19.498L46.5 19.4968V19.498H48ZM47.648 18.648L46.5873 19.7087L46.588 19.7093L47.648 18.648ZM41.352 12.352L40.2907 13.412L40.2913 13.4127L41.352 12.352ZM40.504 12L40.5053 10.5H40.504V12ZM16 50.8H17.5H16ZM17.2 52V53.5V52ZM30 53.5H31.5V50.5H30V53.5ZM49.5 32V19.498H46.5V32H49.5ZM49.5 19.4992C49.5003 19.144 49.4305 18.7922 49.2946 18.464L46.5228 19.6118C46.5077 19.5754 46.5 19.5363 46.5 19.4968L49.5 19.4992ZM49.2946 18.464C49.1586 18.1358 48.9593 17.8377 48.708 17.5867L46.588 19.7093C46.5601 19.6814 46.5379 19.6483 46.5228 19.6118L49.2946 18.464ZM48.7087 17.5873L42.4127 11.2913L40.2913 13.4127L46.5873 19.7087L48.7087 17.5873ZM42.4133 11.292C41.9075 10.7855 41.2212 10.5006 40.5053 10.5L40.5027 13.5C40.4231 13.4999 40.3469 13.4683 40.2907 13.412L42.4133 11.292ZM40.504 10.5H17.2V13.5H40.504V10.5ZM17.2 10.5C16.4839 10.5 15.7972 10.7845 15.2908 11.2908L17.4121 13.4121C17.3559 13.4684 17.2796 13.5 17.2 13.5V10.5ZM15.2908 11.2908C14.7845 11.7972 14.5 12.4839 14.5 13.2H17.5C17.5 13.2796 17.4684 13.3559 17.4121 13.4121L15.2908 11.2908ZM14.5 13.2V50.8H17.5V13.2H14.5ZM14.5 50.8C14.5 51.5161 14.7845 52.2028 15.2908 52.7092L17.4121 50.5879C17.4684 50.6441 17.5 50.7204 17.5 50.8L14.5 50.8ZM15.2908 52.7092C15.7972 53.2155 16.4839 53.5 17.2 53.5L17.2 50.5C17.2796 50.5 17.3559 50.5316 17.4121 50.5879L15.2908 52.7092ZM17.2 53.5H30V50.5H17.2V53.5Z" fill="white"/>
<path d="M40 18.7997V12.7077C40.0002 12.5679 40.0419 12.4312 40.1197 12.315C40.1975 12.1988 40.308 12.1083 40.4372 12.0548C40.5664 12.0013 40.7086 11.9873 40.8458 12.0145C40.9829 12.0417 41.109 12.109 41.208 12.2077L47.792 18.7917C47.8917 18.8903 47.9598 19.0165 47.9876 19.154C48.0154 19.2915 48.0016 19.4341 47.9479 19.5637C47.8943 19.6933 47.8032 19.804 47.6864 19.8817C47.5696 19.9593 47.4323 20.0004 47.292 19.9997H41.2C40.8817 19.9997 40.5765 19.8733 40.3515 19.6482C40.1264 19.4232 40 19.118 40 18.7997V18.7997Z" fill="white" stroke="white" stroke-width="3" stroke-linecap="round" stroke-linejoin="round"/>
<line x1="23.5" y1="23.5" x2="34.5" y2="23.5" stroke="white" stroke-width="3" stroke-linecap="square"/>
<line x1="23.5" y1="30.5" x2="39.5" y2="30.5" stroke="white" stroke-width="3" stroke-linecap="square"/>
<line x1="23.5" y1="37.5" x2="39.5" y2="37.5" stroke="white" stroke-width="3" stroke-linecap="square"/>
</svg>
