<svg width="74" height="74" viewBox="0 0 74 74" fill="none" xmlns="http://www.w3.org/2000/svg">
<path d="M47.3396 33.1498C47.3396 31.254 46.7774 29.4008 45.7242 27.8245C44.6709 26.2482 43.1739 25.0196 41.4224 24.2941C39.6709 23.5686 37.7436 23.3788 35.8843 23.7486C34.0249 24.1185 32.317 25.0314 30.9764 26.3719C29.6359 27.7125 28.723 29.4204 28.3531 31.2798C27.9833 33.1391 28.1731 35.0664 28.8986 36.8179C29.6241 38.5694 30.8527 40.0664 32.4289 41.1197C34.0052 42.1729 35.8585 42.7351 37.7543 42.7351C40.2956 42.7324 42.7321 41.7217 44.5291 39.9247C46.3262 38.1276 47.3369 35.6911 47.3396 33.1498ZM37.7543 40.4313C36.3141 40.4313 34.9063 40.0042 33.7089 39.2041C32.5115 38.404 31.5782 37.2668 31.027 35.9363C30.4759 34.6058 30.3317 33.1417 30.6127 31.7292C30.8936 30.3168 31.5871 29.0193 32.6055 28.001C33.6238 26.9827 34.9212 26.2892 36.3337 26.0082C37.7462 25.7272 39.2103 25.8714 40.5408 26.4226C41.8713 26.9737 43.0085 27.907 43.8086 29.1044C44.6087 30.3018 45.0357 31.7096 45.0357 33.1498C45.0331 35.0801 44.2651 36.9306 42.9001 38.2956C41.5351 39.6606 39.6846 40.4286 37.7543 40.4313V40.4313Z" fill="black"/>
<path d="M29.3004 20.3888C30.4856 20.3891 31.6443 20.0379 32.6299 19.3797C33.6155 18.7214 34.3838 17.7856 34.8376 16.6907C35.2913 15.5958 35.4102 14.3909 35.1791 13.2284C34.9481 12.0659 34.3775 10.9981 33.5395 10.1599C32.7015 9.32173 31.6338 8.75088 30.4714 8.51955C29.309 8.28821 28.1041 8.4068 27.009 8.8603C25.914 9.31379 24.9781 10.0818 24.3195 11.0673C23.661 12.0527 23.3096 13.2113 23.3096 14.3966C23.3115 15.985 23.9432 17.5078 25.0663 18.6311C26.1893 19.7544 27.712 20.3865 29.3004 20.3888V20.3888ZM29.3004 10.7052C30.03 10.705 30.7433 10.9211 31.3501 11.3262C31.9569 11.7314 32.4299 12.3075 32.7092 12.9815C32.9886 13.6555 33.0617 14.3973 32.9195 15.1129C32.7772 15.8285 32.4259 16.4859 31.91 17.0018C31.394 17.5177 30.7367 17.869 30.0211 18.0113C29.3054 18.1536 28.5637 18.0804 27.8897 17.8011C27.2156 17.5217 26.6396 17.0487 26.2344 16.442C25.8292 15.8352 25.6131 15.1219 25.6134 14.3922C25.6161 13.4156 26.0055 12.4798 26.6965 11.7896C27.3875 11.0994 28.3238 10.7111 29.3004 10.7096V10.7052Z" fill="black"/>
<path d="M43.0375 14.3963C44.0823 14.3963 45.1036 14.0865 45.9724 13.506C46.8411 12.9255 47.5182 12.1005 47.918 11.1352C48.3178 10.17 48.4224 9.10781 48.2186 8.08309C48.0148 7.05836 47.5117 6.11709 46.7729 5.3783C46.0341 4.63951 45.0928 4.13639 44.0681 3.93256C43.0434 3.72873 41.9812 3.83334 41.0159 4.23317C40.0507 4.633 39.2256 5.31009 38.6452 6.17881C38.0647 7.04753 37.7549 8.06887 37.7549 9.11367C37.7564 10.5142 38.3135 11.857 39.3038 12.8474C40.2942 13.8377 41.6369 14.3948 43.0375 14.3963V14.3963ZM43.0375 6.13489C43.627 6.13489 44.2033 6.30971 44.6934 6.63725C45.1835 6.96478 45.5655 7.43032 45.791 7.97497C46.0165 8.51962 46.0755 9.11892 45.9604 9.69707C45.8453 10.2752 45.5613 10.8062 45.1443 11.223C44.7274 11.6397 44.1962 11.9234 43.618 12.0383C43.0398 12.1531 42.4406 12.0939 41.896 11.8681C41.3515 11.6423 40.8861 11.2601 40.5588 10.7698C40.2315 10.2795 40.057 9.70317 40.0573 9.11367C40.058 8.32363 40.3723 7.56619 40.9311 7.00769C41.4899 6.44918 42.2475 6.13527 43.0375 6.13489V6.13489Z" fill="black"/>
<path d="M40.5226 34.1545C40.2933 33.8262 39.998 33.5496 39.6554 33.3422C39.3511 33.1536 39.0189 33.0141 38.6712 32.9289V30.2073C38.7737 30.2897 38.8676 30.3822 38.9516 30.4834C39.0506 30.6033 39.1266 30.7405 39.1756 30.8881C39.23 31.0541 39.2654 31.2257 39.2811 31.3997C39.286 31.5036 39.3124 31.6054 39.3587 31.6986C39.4051 31.7917 39.4703 31.8742 39.5502 31.9408C39.6301 32.0074 39.723 32.0567 39.823 32.0854C39.923 32.1142 40.0278 32.1219 40.1309 32.1079C40.5024 32.0631 40.7741 31.7943 40.8724 31.2566C40.8522 30.427 40.5833 29.7492 40.063 29.2332C39.677 28.8536 39.1964 28.5841 38.6712 28.4527V28.1434C38.6716 27.9721 38.6218 27.8045 38.5278 27.6613C38.4338 27.5181 38.2999 27.4056 38.1425 27.3379C37.9852 27.2701 37.8114 27.2501 37.6428 27.2803C37.4742 27.3104 37.3182 27.3894 37.1941 27.5075C37.1084 27.5894 37.0408 27.6883 36.9955 27.7977C36.9502 27.9072 36.9283 28.025 36.931 28.1434V28.3631C36.6468 28.4063 36.3678 28.479 36.0985 28.5799C35.688 28.7256 35.3128 28.9561 34.9972 29.2563C34.6978 29.5405 34.4627 29.8854 34.3078 30.268C34.1514 30.6691 34.0915 31.1013 34.1329 31.5298C34.206 32.2838 34.5687 32.9801 35.1446 33.4723C35.6612 33.8876 36.2804 34.1558 36.9368 34.2484V36.9685C36.5964 36.9236 36.2718 36.7977 35.9901 36.6014C35.7009 36.4013 35.4891 36.1079 35.3903 35.7703C35.3669 35.5776 35.2734 35.4002 35.1276 35.272C34.9818 35.1438 34.7939 35.0737 34.5997 35.0751C34.48 35.0671 34.36 35.0858 34.2485 35.1301C34.1369 35.1743 34.0367 35.243 33.9551 35.331C33.8814 35.4168 33.8298 35.5193 33.8046 35.6296C33.7794 35.7399 33.7815 35.8547 33.8106 35.964C33.8757 36.3636 34.0254 36.7446 34.2498 37.0817C34.4741 37.4187 34.7679 37.7038 35.1114 37.9181C35.6665 38.2572 36.289 38.4707 36.9354 38.5439V38.7173C36.9312 38.8431 36.955 38.9682 37.0049 39.0836C37.0549 39.1991 37.1299 39.302 37.2244 39.3851C37.3829 39.5229 37.5853 39.5998 37.7953 39.6019C37.995 39.6 38.1886 39.5336 38.3474 39.4125C38.4532 39.3331 38.5384 39.2294 38.5958 39.1102C38.6531 38.991 38.681 38.8597 38.677 38.7275V38.5266C39.3476 38.3979 39.8708 38.1291 40.2364 37.7244C40.6588 37.2855 40.9184 36.7153 40.9721 36.1085C40.9989 35.7946 40.9819 35.4784 40.9215 35.1691C40.8593 34.8072 40.7236 34.4619 40.5226 34.1545V34.1545ZM36.9368 32.6253C36.833 32.5962 36.7319 32.558 36.6347 32.5112C36.4332 32.415 36.2471 32.2894 36.0826 32.1383C35.9928 32.0578 35.9209 31.9593 35.8716 31.8492C35.8242 31.7142 35.7932 31.5739 35.7791 31.4315C35.7656 31.2378 35.794 31.0434 35.8623 30.8616C35.9307 30.6797 36.0373 30.5148 36.1751 30.3779C36.3849 30.1701 36.6488 30.0254 36.9368 29.9602V32.6253ZM39.3938 36.0478C39.3847 36.1265 39.3658 36.2037 39.3375 36.2776C39.3028 36.3827 39.2494 36.4806 39.1799 36.5667C39.0713 36.6872 38.9402 36.7854 38.794 36.8558C38.7574 36.8761 38.7192 36.8935 38.6798 36.9078V34.5953C38.8408 34.6663 38.9854 34.7696 39.1048 34.8988C39.3086 35.1344 39.4054 35.516 39.3938 36.0319V36.0478Z" fill="black"/>
<path d="M14.3086 58.4889H27.0273V50.7449C27.0341 47.4378 25.9782 44.2159 24.0153 41.5542L20.5147 36.7847C19.5909 35.5313 18.3864 34.5117 16.9978 33.8075C15.6091 33.1032 14.0748 32.7339 12.5178 32.7291C12.5077 32.7291 12.4976 32.7291 12.4976 32.7291C12.4531 32.7286 12.4093 32.7401 12.3709 32.7625C12.3324 32.7849 12.3008 32.8173 12.2793 32.8563C12.2559 32.8951 12.2435 32.9396 12.2435 32.9849C12.2435 33.0303 12.2559 33.0748 12.2793 33.1136L19.0073 45.8815C19.0947 46.0422 19.1493 46.2186 19.168 46.4006C19.1867 46.5826 19.169 46.7665 19.1161 46.9416C19.0632 47.1167 18.976 47.2795 18.8596 47.4207C18.7432 47.5618 18.6 47.6785 18.4382 47.7638C18.2764 47.8492 18.0992 47.9016 17.917 47.9179C17.7348 47.9343 17.5512 47.9143 17.3767 47.8591C17.2023 47.8039 17.0406 47.7146 16.901 47.5965C16.7613 47.4783 16.6465 47.3336 16.5632 47.1707L9.83676 34.423C9.58706 33.9648 9.46143 33.4493 9.47233 32.9275C9.48323 32.4058 9.63028 31.896 9.8989 31.4486C10.1706 30.9908 10.5579 30.6124 11.0219 30.3516L9.52168 13.7984C9.35531 12.8605 8.97829 11.9726 8.419 11.2015C7.85971 10.4304 7.13274 9.79626 6.29285 9.34686C5.60199 8.96963 5.15539 9.17053 4.99207 9.2717C4.82091 9.37084 4.67919 9.5137 4.58141 9.68563C4.48364 9.85757 4.43332 10.0524 4.43562 10.2502V35.0821C4.43797 37.5977 5.03419 40.0771 6.17578 42.3188L14.19 57.9903C14.2612 58.1474 14.3014 58.3166 14.3086 58.4889V58.4889Z" fill="black"/>
<path d="M14.3423 61.5156H7.00879V70.1687H33.195V61.5156H14.3423ZM29.3013 66.1955C29.3016 66.6364 29.1711 67.0674 28.9264 67.4341C28.6817 67.8008 28.3337 68.0867 27.9265 68.2556C27.5193 68.4245 27.0711 68.4688 26.6387 68.383C26.2063 68.2972 25.809 68.085 25.4972 67.7734C25.1854 67.4618 24.973 67.0647 24.8869 66.6323C24.8008 66.2 24.8448 65.7518 25.0135 65.3445C25.1821 64.9371 25.4677 64.589 25.8343 64.344C26.2008 64.0991 26.6318 63.9683 27.0726 63.9683C27.6634 63.9683 28.2301 64.2029 28.648 64.6206C29.0659 65.0382 29.3009 65.6047 29.3013 66.1955V66.1955Z" fill="black"/>
<path d="M22.6426 35.032L22.1555 29.4848C22.0481 28.3138 21.7067 27.1762 21.1515 26.1394C20.5964 25.1027 19.8389 24.1879 18.9238 23.4492L19.739 32.2396C20.8499 33.0092 21.8302 33.9519 22.6426 35.032V35.032Z" fill="black"/>
<path d="M16.8238 30.7444L15.7615 19.3105C15.6718 18.3184 15.3086 17.3706 14.7123 16.5727C14.116 15.7748 13.3099 15.158 12.3838 14.791L13.7684 30.0289C14.8125 30.1403 15.8388 30.3806 16.8238 30.7444V30.7444Z" fill="black"/>
<path d="M54.2611 32.2445L55.0762 23.4541C54.1618 24.1921 53.4047 25.106 52.8496 26.1417C52.2945 27.1774 51.9527 28.3139 51.8445 29.4839L51.3574 35.0253C52.1708 33.9494 53.151 33.0106 54.2611 32.2445V32.2445Z" fill="black"/>
<path d="M61.6164 14.791C60.6916 15.1591 59.8871 15.7763 59.292 16.5742C58.697 17.372 58.3349 18.3192 58.2459 19.3105L57.1836 30.7444C58.1686 30.3807 59.1949 30.1404 60.239 30.0289L61.6164 14.791Z" fill="black"/>
<path d="M46.9728 61.5156H40.8057V70.1687H66.9918V61.5156H46.9728ZM46.9251 68.4242C46.4845 68.4236 46.0538 68.2925 45.6877 68.0472C45.3216 67.802 45.0364 67.4537 44.8682 67.0464C44.6999 66.6391 44.6562 66.1911 44.7425 65.759C44.8288 65.3269 45.0413 64.93 45.3531 64.6186C45.6649 64.3072 46.062 64.0952 46.4943 64.0095C46.9265 63.9237 47.3745 63.968 47.7816 64.1368C48.1886 64.3056 48.5365 64.5912 48.7813 64.9577C49.026 65.3241 49.1567 65.7549 49.1567 66.1955C49.1567 66.7866 48.9219 67.3535 48.5039 67.7715C48.086 68.1894 47.5191 68.4242 46.928 68.4242H46.9251Z" fill="black"/>
<path d="M69.0108 9.2717C68.8446 9.17053 68.398 8.96963 67.71 9.34686C66.8701 9.79626 66.1431 10.4304 65.5839 11.2015C65.0246 11.9726 64.6475 12.8605 64.4812 13.7984L62.9781 30.3516C63.4427 30.6136 63.83 30.9935 64.1011 31.4529C64.3697 31.9003 64.5167 32.4101 64.5276 32.9319C64.5385 33.4536 64.4129 33.9691 64.1632 34.4274L57.444 47.1765C57.3607 47.3394 57.2459 47.4841 57.1062 47.6023C56.9666 47.7204 56.8049 47.8097 56.6304 47.8649C56.456 47.92 56.2724 47.94 56.0902 47.9237C55.908 47.9073 55.7308 47.855 55.569 47.7696C55.4072 47.6843 55.264 47.5676 55.1476 47.4265C55.0312 47.2853 54.944 47.1225 54.8911 46.9474C54.8382 46.7723 54.8205 46.5884 54.8392 46.4064C54.8579 46.2244 54.9125 46.0479 54.9999 45.8872L61.7279 33.1194C61.7513 33.0806 61.7637 33.0361 61.7637 32.9907C61.7637 32.9454 61.7513 32.9009 61.7279 32.8621C61.7064 32.8231 61.6748 32.7907 61.6363 32.7683C61.5979 32.7459 61.5541 32.7344 61.5096 32.7349C61.5096 32.7349 61.4995 32.7349 61.4894 32.7349C59.9324 32.7397 58.3981 33.109 57.0094 33.8132C55.6208 34.5175 54.4163 35.5371 53.4925 36.7905L49.9919 41.56C48.0276 44.2192 46.9692 47.4389 46.9727 50.7449V58.4889H59.6914C59.699 58.3166 59.7397 58.1473 59.8114 57.9903L67.8242 42.3188C68.9668 40.0774 69.564 37.5979 69.5672 35.0821V10.2502C69.5695 10.0524 69.5192 9.85757 69.4214 9.68563C69.3237 9.5137 69.1819 9.37084 69.0108 9.2717V9.2717Z" fill="black"/>
</svg>
