<svg width="64" height="64" viewBox="0 0 64 64" fill="none" xmlns="http://www.w3.org/2000/svg">
<rect width="64" height="64" rx="12" fill="#A2AAB8"/>
<path d="M31.25 36.8187C29.5158 37.1144 27.7592 37.2586 26 37.25L21.25 30.9133C22.823 31.1393 24.4104 31.2519 26 31.25C27.5896 31.2519 29.177 31.1393 30.75 30.9133V31.4183M31.25 36.8187V31.3437C31.0835 31.3698 30.9168 31.3947 30.75 31.4183M31.25 36.8187H30.75V36.3937M31.25 36.8187L31.166 36.3259C31.0275 36.3495 30.8888 36.3721 30.75 36.3937M30.75 31.4183V36.3937M30.75 31.4183C29.1767 31.641 27.5894 31.7519 26 31.75M21.25 31.4183C22.8233 31.641 24.4106 31.7519 26 31.75M21.25 31.4183L25.9994 31.75C25.9996 31.75 25.9998 31.75 26 31.75M21.25 31.4183V36.3977C21.8143 36.4887 22.4051 36.5595 23.0238 36.6188H23.0563V37.1188L23.106 36.6212C24.0228 36.7129 24.9805 36.75 26 36.75H26.0025C27.5922 36.7578 29.1797 36.6387 30.75 36.3937M21.25 31.4183L26 31.75M37.9994 40.75C39.589 40.7519 41.1765 40.641 42.75 40.4183V45.3918C39.6013 45.8694 36.3987 45.8694 33.25 45.3918V40.4172C34.8234 40.6372 36.4103 40.7485 37.9994 40.75ZM37.9994 40.75L38 40.25M37.9994 40.75C37.9994 40.75 37.9995 40.75 37.9995 40.75L38 40.25M38 40.25C36.4105 40.2485 34.8233 40.1356 33.25 39.9123L42.75 39.9133C41.177 40.1393 39.5896 40.2519 38 40.25ZM38 38.25H37.9993C36.8856 38.2515 35.7731 38.1933 34.6665 38.0757C36.6134 37.4898 38.2847 36.703 39.5588 35.7578C41.2096 34.5332 42.25 32.9952 42.25 31.25V27.543C44.9858 27.9206 47.3382 28.6537 49.0239 29.5768C50.8606 30.5827 51.75 31.7199 51.75 32.75C51.75 33.3059 51.4762 33.9267 50.8621 34.5677C50.2493 35.2073 49.3268 35.8339 48.117 36.3848C45.6994 37.4858 42.2105 38.25 38 38.25ZM33.25 30.9545C35.8985 30.3252 38.1617 29.3488 39.75 28.1071V31.25C39.75 32.0326 39.1951 32.9474 37.9528 33.8364C36.8393 34.6332 35.2441 35.3539 33.25 35.8794V30.9545ZM42.25 25.0129V23.75C42.25 21.3503 40.2859 19.3477 37.4018 17.9736C34.4856 16.5843 30.4709 15.75 26 15.75C21.5291 15.75 17.5144 16.5843 14.5982 17.9736C11.7141 19.3477 9.75 21.3503 9.75 23.75V31.25C9.75 33.2978 11.1895 35.0574 13.3843 36.3734C15.5 37.6418 18.4096 38.5611 21.75 38.9872V40.25C21.75 42.6497 23.7141 44.6523 26.5982 46.0264C29.5144 47.4157 33.5291 48.25 38 48.25C42.4709 48.25 46.4856 47.4157 49.4018 46.0264C52.2859 44.6523 54.25 42.6497 54.25 40.25V32.75C54.25 30.7252 52.8534 28.9697 50.674 27.649C48.5733 26.3759 45.66 25.4474 42.25 25.0129ZM26 18.25C30.2105 18.25 33.6994 19.0142 36.117 20.1152C37.3268 20.6661 38.2493 21.2927 38.8621 21.9323C39.4762 22.5733 39.75 23.1941 39.75 23.75C39.75 24.3059 39.4762 24.9267 38.8621 25.5677C38.2493 26.2073 37.3268 26.8339 36.117 27.3848C33.6994 28.4858 30.2105 29.25 26 29.25C21.7895 29.25 18.3006 28.4858 15.883 27.3848C14.6732 26.8339 13.7507 26.2073 13.1379 25.5677C12.5238 24.9267 12.25 24.3059 12.25 23.75C12.25 23.1941 12.5238 22.5733 13.1379 21.9323C13.7507 21.2927 14.6732 20.6661 15.883 20.1152C18.3006 19.0142 21.7895 18.25 26 18.25ZM12.25 31.25V28.1071C13.8383 29.3488 16.1015 30.3252 18.75 30.9545V35.8794C16.7559 35.3539 15.1607 34.6332 14.0472 33.8364C12.8049 32.9474 12.25 32.0326 12.25 31.25ZM24.25 40.25V39.2084C24.8252 39.239 25.4089 39.25 26 39.25C26.7389 39.25 27.4663 39.2329 28.1799 39.1816C29.0207 39.4856 29.8789 39.7386 30.75 39.9392V44.8794C28.7559 44.3539 27.1607 43.6332 26.0472 42.8364C24.8049 41.9474 24.25 41.0326 24.25 40.25ZM51.75 40.25C51.75 41.0326 51.1951 41.9474 49.9528 42.8364C48.8393 43.6332 47.2441 44.3539 45.25 44.8794V39.9545C47.8985 39.3252 50.1617 38.3488 51.75 37.1071V40.25Z" fill="white" stroke="white"/>
</svg>
