<svg width="70" height="70" viewBox="0 0 70 70" fill="none" xmlns="http://www.w3.org/2000/svg">
<path d="M5.83203 17.4997C5.83203 13.1101 8.10703 8.51634 11.6654 5.83301C11.6654 8.29759 13.6779 11.6663 17.4987 11.6663C19.8193 11.6663 22.0449 12.5882 23.6859 14.2292C25.3268 15.8701 26.2487 18.0957 26.2487 20.4163C26.2487 21.5422 26.0183 22.6097 25.6304 23.5984C27.7938 25.3154 29.9243 27.0735 32.0208 28.8718L25.9541 34.9384C24.1566 32.8414 22.3985 30.7109 20.6808 28.548C19.6683 28.952 18.5888 29.1618 17.4987 29.1663C11.0529 29.1663 5.83203 23.9455 5.83203 17.4997ZM41.2754 37.473L45.1866 33.5618C46.9978 34.4942 49.0033 34.9868 51.0404 34.9997C54.5213 34.9997 57.8597 33.6169 60.3211 31.1554C62.7826 28.694 64.1654 25.3556 64.1654 21.8747C64.1654 19.7601 63.617 17.7884 62.7274 16.0209L52.4987 26.2497L46.6654 20.4163L56.8941 10.1876C55.0829 9.25514 53.0775 8.76252 51.0404 8.74967C47.5594 8.74967 44.221 10.1325 41.7596 12.5939C39.2982 15.0553 37.9154 18.3937 37.9154 21.8747C37.9154 23.9893 38.4637 25.9609 39.3533 27.7284L8.7487 58.333L14.582 64.1663L34.5554 44.193C40.0485 49.8291 45.8696 55.1359 51.9883 60.0859L56.1445 63.4372L60.5195 59.0622L57.1683 54.9059C52.2183 48.7873 46.9114 42.9662 41.2754 37.473Z" fill="black"/>
</svg>
