<svg width="81" height="80" viewBox="0 0 81 80" fill="none" xmlns="http://www.w3.org/2000/svg">
<path d="M37.638 49.624H35.867C35.235 49.624 34.7227 50.1364 34.7227 50.769C34.7227 51.4016 35.235 51.9139 35.867 51.9139H37.638C38.27 51.9139 38.7824 51.4016 38.7824 50.769C38.7824 50.1364 38.27 49.624 37.638 49.624Z" fill="white"/>
<path d="M44.1302 49.624H42.3598C41.7278 49.624 41.2148 50.1364 41.2148 50.769C41.2148 51.4016 41.7278 51.9139 42.3598 51.9139H44.1302C44.7628 51.9139 45.2752 51.4016 45.2752 50.769C45.2752 50.1364 44.7628 49.624 44.1302 49.624Z" fill="white"/>
<path d="M49.7678 48.7083C49.2073 48.7083 48.7407 49.1111 48.6419 49.6437C48.1099 49.7419 47.707 50.2085 47.707 50.7691C47.707 51.4016 48.22 51.914 48.852 51.914H49.7678C50.3998 51.914 50.9128 51.4016 50.9128 50.7691V49.8532C50.9128 49.2206 50.3998 48.7083 49.7678 48.7083Z" fill="white"/>
<path d="M50.9149 43.3607C50.9149 42.7287 50.4019 42.2163 49.77 42.2163C49.138 42.2163 48.625 42.7287 48.625 43.3607V45.1317C48.625 45.7637 49.138 46.276 49.77 46.276C50.4019 46.276 50.9149 45.7637 50.9149 45.1317V43.3607Z" fill="white"/>
<path d="M50.9149 36.8682C50.9149 36.2363 50.4019 35.7239 49.77 35.7239C49.138 35.7239 48.625 36.2363 48.625 36.8682V38.6392C48.625 39.2718 49.138 39.7842 49.77 39.7842C50.4019 39.7842 50.9149 39.2718 50.9149 38.6392V36.8682Z" fill="white"/>
<path d="M37.638 30.0859H35.8676C35.235 30.0859 34.7227 30.5983 34.7227 31.2309C34.7227 31.8635 35.235 32.3759 35.8676 32.3759H37.638C38.27 32.3759 38.783 31.8635 38.783 31.2309C38.783 30.5983 38.27 30.0859 37.638 30.0859Z" fill="white"/>
<path d="M44.1302 30.0859H42.3592C41.7272 30.0859 41.2148 30.5983 41.2148 31.2309C41.2148 31.8635 41.7272 32.3759 42.3592 32.3759H44.1302C44.7622 32.3759 45.2746 31.8635 45.2746 31.2309C45.2746 30.5983 44.7622 30.0859 44.1302 30.0859Z" fill="white"/>
<path d="M32.2917 31.2309C32.2917 30.5983 31.7787 30.0859 31.1467 30.0859H30.2309C29.5989 30.0859 29.0859 30.5983 29.0859 31.2309V32.1467C29.0859 32.7793 29.5989 33.2917 30.2309 33.2917C30.7915 33.2917 31.258 32.8888 31.3568 32.3562C31.8888 32.258 32.2917 31.7915 32.2917 31.2309Z" fill="white"/>
<path d="M31.3759 36.8688C31.3759 36.2363 30.8629 35.7239 30.2309 35.7239C29.5989 35.7239 29.0859 36.2363 29.0859 36.8688V38.6392C29.0859 39.2718 29.5989 39.7842 30.2309 39.7842C30.8629 39.7842 31.3759 39.2718 31.3759 38.6392V36.8688Z" fill="white"/>
<path d="M30.2309 42.2163C29.5989 42.2163 29.0859 42.7287 29.0859 43.3607V45.1317C29.0859 45.7643 29.5989 46.2766 30.2309 46.2766C30.8629 46.2766 31.3759 45.7643 31.3759 45.1317V43.3607C31.3759 42.7287 30.8629 42.2163 30.2309 42.2163Z" fill="white"/>
<path d="M62.852 4.28992H64.7729C65.4055 4.28992 65.9179 3.77695 65.9179 3.14496C65.9179 2.51237 65.4055 2 64.7729 2H62.852C62.22 2 61.707 2.51237 61.707 3.14496C61.707 3.77695 62.22 4.28992 62.852 4.28992Z" fill="white"/>
<path d="M55.8084 4.28992H57.73C58.362 4.28992 58.8743 3.77695 58.8743 3.14496C58.8743 2.51237 58.362 2 57.73 2H55.8084C55.1764 2 54.6641 2.51237 54.6641 3.14496C54.6641 3.77695 55.1764 4.28992 55.8084 4.28992Z" fill="white"/>
<path d="M69.895 4.28992H71.8159C72.4479 4.28992 72.9609 3.77695 72.9609 3.14496C72.9609 2.51237 72.4479 2 71.8159 2H69.895C69.2624 2 68.75 2.51237 68.75 3.14496C68.75 3.77695 69.2624 4.28992 69.895 4.28992Z" fill="white"/>
<path d="M77.8538 2H76.9379C76.3059 2 75.793 2.51237 75.793 3.14496C75.793 3.70554 76.1964 4.17209 76.7285 4.27028C76.8266 4.80229 77.2932 5.20576 77.8538 5.20576C78.4864 5.20576 78.9987 4.69279 78.9987 4.06081V3.14496C78.9987 2.51237 78.4864 2 77.8538 2Z" fill="white"/>
<path d="M77.8559 14.9445C77.2239 14.9445 76.7109 15.4568 76.7109 16.0894V17.989C76.7109 18.6209 77.2239 19.1333 77.8559 19.1333C78.4885 19.1333 79.0009 18.6209 79.0009 17.989V16.0894C79.0009 15.4568 78.4885 14.9445 77.8559 14.9445Z" fill="white"/>
<path d="M77.8559 7.98071C77.2239 7.98071 76.7109 8.49309 76.7109 9.12567V11.0246C76.7109 11.6572 77.2239 12.1696 77.8559 12.1696C78.4885 12.1696 79.0009 11.6572 79.0009 11.0246V9.12567C79.0009 8.49309 78.4885 7.98071 77.8559 7.98071Z" fill="white"/>
<path d="M77.8559 21.9088C77.2239 21.9088 76.7109 22.4212 76.7109 23.0538V24.9527C76.7109 25.5853 77.2239 26.0977 77.8559 26.0977C78.4885 26.0977 79.0009 25.5853 79.0009 24.9527V23.0538C79.0009 22.4212 78.4885 21.9088 77.8559 21.9088Z" fill="white"/>
<path d="M77.855 28.8726C77.2231 28.8726 76.7101 29.385 76.7101 30.0176V30.086H50.914V4.26671C51.4365 4.16078 51.8298 3.69839 51.8298 3.14496C51.8298 2.51237 51.3169 2 50.6849 2H2.14496C1.51237 2 1 2.51237 1 3.14496L1.14877 51.6849C1.14877 52.3175 1.66115 52.8298 2.29373 52.8298C2.84717 52.8298 3.30956 52.4365 3.41548 51.914H29.086V77.7142C28.4915 77.7559 28.0214 78.2498 28.0214 78.855C28.0214 79.4876 28.5338 80 29.1663 80H77.855C78.4876 80 79 79.4876 79 78.855V61.1998C79 60.5672 78.4876 60.0549 77.855 60.0549C77.2231 60.0549 76.7101 60.5672 76.7101 61.1998V77.7101H31.3759V51.8908C31.8984 51.7849 32.2918 51.3231 32.2918 50.769C32.2918 50.2085 31.8889 49.7419 31.3569 49.6437C31.2581 49.1111 30.7915 48.7082 30.231 48.7082C29.6769 48.7082 29.2151 49.1016 29.1092 49.6241H3.28992V4.28992H48.6241V30.1092C48.1016 30.2151 47.7082 30.6769 47.7082 31.231C47.7082 31.7915 48.1111 32.2581 48.6431 32.3563C48.7419 32.8889 49.2085 33.2918 49.769 33.2918C50.3231 33.2918 50.7849 32.8984 50.8908 32.3759H76.7101V55.7047C76.7101 56.3367 77.2231 56.8491 77.855 56.8491C78.4876 56.8491 79 56.3367 79 55.7047V30.0176C79 29.385 78.4876 28.8726 77.855 28.8726Z" fill="white"/>
<path d="M1.14844 65.7725C1.14844 66.405 1.66081 66.9174 2.2934 66.9174C2.92538 66.9174 3.43835 66.405 3.43835 65.7725V63.8515C3.43835 63.2189 2.92538 62.7065 2.2934 62.7065C1.66081 62.7065 1.14844 63.2189 1.14844 63.8515V65.7725Z" fill="white"/>
<path d="M2.2934 59.8734C2.92538 59.8734 3.43835 59.361 3.43835 58.729V56.8074C3.43835 56.1755 2.92538 55.6631 2.2934 55.6631C1.66081 55.6631 1.14844 56.1755 1.14844 56.8074V58.729C1.14844 59.361 1.66081 59.8734 2.2934 59.8734Z" fill="white"/>
<path d="M1.14844 72.8167C1.14844 73.4486 1.66081 73.961 2.2934 73.961C2.92538 73.961 3.43835 73.4486 3.43835 72.8167V70.8951C3.43835 70.2631 2.92538 69.7507 2.2934 69.7507C1.66081 69.7507 1.14844 70.2631 1.14844 70.8951V72.8167Z" fill="white"/>
<path d="M3.41872 77.7297C3.32053 77.1977 2.85397 76.7942 2.2934 76.7942C1.66081 76.7942 1.14844 77.3072 1.14844 77.9391V78.855C1.14844 79.4876 1.66081 80 2.2934 80H3.20924C3.84123 80 4.3542 79.4876 4.3542 78.855C4.3542 78.2944 3.95073 77.8279 3.41872 77.7297Z" fill="white"/>
<path d="M24.1025 77.7101H22.203C21.571 77.7101 21.0586 78.2231 21.0586 78.855C21.0586 79.4876 21.571 80 22.203 80H24.1025C24.7351 80 25.2475 79.4876 25.2475 78.855C25.2475 78.2231 24.7351 77.7101 24.1025 77.7101Z" fill="white"/>
<path d="M17.1382 77.7101H15.2387C14.6067 77.7101 14.0938 78.2231 14.0938 78.855C14.0938 79.4876 14.6067 80 15.2387 80H17.1382C17.7702 80 18.2826 79.4876 18.2826 78.855C18.2826 78.2231 17.7702 77.7101 17.1382 77.7101Z" fill="white"/>
<path d="M10.1728 77.7101H8.27386C7.64128 77.7101 7.12891 78.2231 7.12891 78.855C7.12891 79.4876 7.64128 80 8.27386 80H10.1728C10.8054 80 11.3178 79.4876 11.3178 78.855C11.3178 78.2231 10.8054 77.7101 10.1728 77.7101Z" fill="white"/>
</svg>
