<svg width="69" height="69" viewBox="0 0 69 69" fill="none" xmlns="http://www.w3.org/2000/svg">
<path d="M34.5 23.7188C34.5 26.5781 33.3641 29.3204 31.3422 31.3422C29.3204 33.3641 26.5781 34.5 23.7188 34.5C20.8594 34.5 18.1171 33.3641 16.0953 31.3422C14.0734 29.3204 12.9375 26.5781 12.9375 23.7188C12.9375 20.8594 14.0734 18.1171 16.0953 16.0953C18.1171 14.0734 20.8594 12.9375 23.7188 12.9375C26.5781 12.9375 29.3204 14.0734 31.3422 16.0953C33.3641 18.1171 34.5 20.8594 34.5 23.7188V23.7188ZM49.5938 34.5C51.8812 34.5 54.075 33.5913 55.6925 31.9738C57.3101 30.3563 58.2188 28.1625 58.2188 25.875C58.2188 23.5875 57.3101 21.3937 55.6925 19.7762C54.075 18.1587 51.8812 17.25 49.5938 17.25C47.3063 17.25 45.1125 18.1587 43.495 19.7762C41.8775 21.3937 40.9688 23.5875 40.9688 25.875C40.9688 28.1625 41.8775 30.3563 43.495 31.9738C45.1125 33.5913 47.3063 34.5 49.5938 34.5ZM45.2813 45.6866V45.2812C45.2844 42.948 44.5275 40.6772 43.125 38.8125H57.2398C60.1551 38.8125 62.5226 41.1758 62.5226 44.0953C62.5226 44.0953 62.5226 53.9062 49.5851 53.9062C47.0063 53.9062 44.9406 53.5181 43.2889 52.8928C44.319 51.0052 44.9736 48.9359 45.2166 46.7993C45.2424 46.5319 45.2597 46.3033 45.2683 46.1136L45.2813 45.6823V45.6866ZM40.9688 45.2812C40.9688 43.5656 40.2872 41.9203 39.0741 40.7072C37.861 39.494 36.2156 38.8125 34.5 38.8125H12.9375C11.2219 38.8125 9.57653 39.494 8.3634 40.7072C7.15028 41.9203 6.46875 43.5656 6.46875 45.2812V45.6047C6.46875 45.6047 6.46875 58.2188 23.7188 58.2188C40.158 58.2188 40.9299 46.7647 40.9688 45.6866V45.2812Z" fill="black"/>
</svg>
