<svg width="70" height="70" viewBox="0 0 70 70" fill="none" xmlns="http://www.w3.org/2000/svg">
<path d="M60.1879 42.8448C60.1879 42.5878 60.0858 42.3414 59.9041 42.1597C59.7225 41.978 59.476 41.876 59.2191 41.876C58.9622 41.876 58.7158 41.978 58.5341 42.1597C58.3524 42.3414 58.2503 42.5878 58.2503 42.8448C58.2503 43.8725 57.8421 44.8582 57.1153 45.5849C56.3886 46.3116 55.4029 46.7199 54.3752 46.7199C53.3474 46.7199 52.3618 46.3116 51.6351 45.5849C50.9083 44.8582 50.5001 43.8725 50.5001 42.8448C50.5001 42.5878 50.398 42.3414 50.2163 42.1597C50.0346 41.978 49.7882 41.876 49.5313 41.876C49.2743 41.876 49.0279 41.978 48.8462 42.1597C48.6646 42.3414 48.5625 42.5878 48.5625 42.8448C48.5625 44.3864 49.1749 45.8649 50.265 46.955C51.3551 48.045 52.8336 48.6575 54.3752 48.6575C55.9168 48.6575 57.3953 48.045 58.4854 46.955C59.5755 45.8649 60.1879 44.3864 60.1879 42.8448Z" fill="#212121"/>
<path d="M12.7188 51.564C12.9757 51.564 13.2221 51.4619 13.4038 51.2802C13.5855 51.0986 13.6876 50.8521 13.6876 50.5952V8.93756H19.5003V11.8439C19.5003 12.1008 19.6023 12.3473 19.784 12.5289C19.9657 12.7106 20.2121 12.8127 20.469 12.8127H24.3442V17.6566C24.3442 17.9135 24.4462 18.16 24.6279 18.3416C24.8096 18.5233 25.056 18.6254 25.313 18.6254H36.9383C37.1953 18.6254 37.4417 18.5233 37.6234 18.3416C37.8051 18.16 37.9071 17.9135 37.9071 17.6566V15.719H44.6886V36.0925C44.6886 36.3495 44.7907 36.5959 44.9724 36.7776C45.154 36.9593 45.4005 37.0613 45.6574 37.0613C45.9143 37.0613 46.1607 36.9593 46.3424 36.7776C46.5241 36.5959 46.6262 36.3495 46.6262 36.0925V14.7503C46.6262 14.4933 46.5241 14.2469 46.3424 14.0652C46.1607 13.8835 45.9143 13.7815 45.6574 13.7815H37.9071V12.8127H41.7823C42.0392 12.8127 42.2856 12.7106 42.4673 12.5289C42.649 12.3473 42.751 12.1008 42.751 11.8439V8.93756H48.5637V28.3132C48.5637 28.5702 48.6658 28.8166 48.8475 28.9982C49.0292 29.1799 49.2756 29.282 49.5325 29.282C49.7895 29.282 50.0359 29.1799 50.2176 28.9982C50.3992 28.8166 50.5013 28.5702 50.5013 28.3132V7.96878C50.5013 7.71185 50.3992 7.46543 50.2176 7.28375C50.0359 7.10207 49.7895 7 49.5325 7H12.7188C12.4618 7 12.2154 7.10207 12.0338 7.28375C11.8521 7.46543 11.75 7.71185 11.75 7.96878V50.5952C11.75 50.8521 11.8521 51.0986 12.0338 51.2802C12.2154 51.4619 12.4618 51.564 12.7188 51.564ZM35.9696 16.6878H26.2817V15.719H34.032C34.2889 15.719 34.5353 15.617 34.717 15.4353C34.8987 15.2536 35.0008 15.0072 35.0008 14.7503C35.0008 14.4933 34.8987 14.2469 34.717 14.0652C34.5353 13.8835 34.2889 13.7815 34.032 13.7815H26.2817V12.8127H35.9696V16.6878ZM40.8135 8.93756V10.8751H21.4378V8.93756H40.8135Z" fill="#212121"/>
<path d="M39.8438 41.876H37.9063C37.6493 41.876 37.4029 41.978 37.2212 42.1597C37.0396 42.3414 36.9375 42.5878 36.9375 42.8448C36.9375 43.1017 37.0396 43.3481 37.2212 43.5298C37.4029 43.7115 37.6493 43.8135 37.9063 43.8135H39.8438C40.1008 43.8135 40.3472 43.7115 40.5289 43.5298C40.7106 43.3481 40.8126 43.1017 40.8126 42.8448C40.8126 42.5878 40.7106 42.3414 40.5289 42.1597C40.3472 41.978 40.1008 41.876 39.8438 41.876Z" fill="#212121"/>
<path d="M39.8438 45.751H37.9063C37.6493 45.751 37.4029 45.853 37.2212 46.0347C37.0396 46.2164 36.9375 46.4628 36.9375 46.7198C36.9375 46.9767 37.0396 47.2231 37.2212 47.4048C37.4029 47.5865 37.6493 47.6885 37.9063 47.6885H39.8438C40.1008 47.6885 40.3472 47.5865 40.5289 47.4048C40.7106 47.2231 40.8126 46.9767 40.8126 46.7198C40.8126 46.4628 40.7106 46.2164 40.5289 46.0347C40.3472 45.853 40.1008 45.751 39.8438 45.751Z" fill="#212121"/>
<path d="M39.8438 49.627H37.9063C37.6493 49.627 37.4029 49.729 37.2212 49.9107C37.0396 50.0924 36.9375 50.3388 36.9375 50.5957C36.9375 50.8527 37.0396 51.0991 37.2212 51.2808C37.4029 51.4625 37.6493 51.5645 37.9063 51.5645H39.8438C40.1008 51.5645 40.3472 51.4625 40.5289 51.2808C40.7106 51.0991 40.8126 50.8527 40.8126 50.5957C40.8126 50.3388 40.7106 50.0924 40.5289 49.9107C40.3472 49.729 40.1008 49.627 39.8438 49.627Z" fill="#212121"/>
<path d="M35.0005 41.876H20.4688C20.2118 41.876 19.9654 41.978 19.7837 42.1597C19.6021 42.3414 19.5 42.5878 19.5 42.8448C19.5 43.1017 19.6021 43.3481 19.7837 43.5298C19.9654 43.7115 20.2118 43.8135 20.4688 43.8135H35.0005C35.2575 43.8135 35.5039 43.7115 35.6856 43.5298C35.8672 43.3481 35.9693 43.1017 35.9693 42.8448C35.9693 42.5878 35.8672 42.3414 35.6856 42.1597C35.5039 41.978 35.2575 41.876 35.0005 41.876Z" fill="#212121"/>
<path d="M35.0005 45.751H20.4688C20.2118 45.751 19.9654 45.853 19.7837 46.0347C19.6021 46.2164 19.5 46.4628 19.5 46.7198C19.5 46.9767 19.6021 47.2231 19.7837 47.4048C19.9654 47.5865 20.2118 47.6885 20.4688 47.6885H35.0005C35.2575 47.6885 35.5039 47.5865 35.6856 47.4048C35.8672 47.2231 35.9693 46.9767 35.9693 46.7198C35.9693 46.4628 35.8672 46.2164 35.6856 46.0347C35.5039 45.853 35.2575 45.751 35.0005 45.751Z" fill="#212121"/>
<path d="M35.0005 49.627H20.4688C20.2118 49.627 19.9654 49.729 19.7837 49.9107C19.6021 50.0924 19.5 50.3388 19.5 50.5957C19.5 50.8527 19.6021 51.0991 19.7837 51.2808C19.9654 51.4625 20.2118 51.5645 20.4688 51.5645H35.0005C35.2575 51.5645 35.5039 51.4625 35.6856 51.2808C35.8672 51.0991 35.9693 50.8527 35.9693 50.5957C35.9693 50.3388 35.8672 50.0924 35.6856 49.9107C35.5039 49.729 35.2575 49.627 35.0005 49.627Z" fill="#212121"/>
<path d="M42.7508 38.9698C42.7508 38.7128 42.6487 38.4664 42.467 38.2847C42.2853 38.103 42.0389 38.001 41.782 38.001H20.4688C20.2118 38.001 19.9654 38.103 19.7837 38.2847C19.6021 38.4664 19.5 38.7128 19.5 38.9698C19.5 39.2267 19.6021 39.4731 19.7837 39.6548C19.9654 39.8365 20.2118 39.9385 20.4688 39.9385H41.782C42.0389 39.9385 42.2853 39.8365 42.467 39.6548C42.6487 39.4731 42.7508 39.2267 42.7508 38.9698Z" fill="#212121"/>
<path d="M41.782 34.126H20.4688C20.2118 34.126 19.9654 34.228 19.7837 34.4097C19.6021 34.5914 19.5 34.8378 19.5 35.0948C19.5 35.3517 19.6021 35.5981 19.7837 35.7798C19.9654 35.9615 20.2118 36.0635 20.4688 36.0635H41.782C42.0389 36.0635 42.2853 35.9615 42.467 35.7798C42.6487 35.5981 42.7508 35.3517 42.7508 35.0948C42.7508 34.8378 42.6487 34.5914 42.467 34.4097C42.2853 34.228 42.0389 34.126 41.782 34.126Z" fill="#212121"/>
<path d="M28.2206 27.344C27.9637 27.344 27.7173 27.446 27.5356 27.6277C27.3539 27.8094 27.2518 28.0558 27.2518 28.3128V28.5617C27.2526 29.2664 27.533 29.9421 28.0313 30.4403C28.5297 30.9385 29.2055 31.2186 29.9102 31.2191H30.1582C30.1582 31.476 30.2602 31.7225 30.4419 31.9041C30.6236 32.0858 30.87 32.1879 31.127 32.1879C31.3839 32.1879 31.6303 32.0858 31.812 31.9041C31.9937 31.7225 32.0957 31.476 32.0957 31.2191H32.3447C32.9754 31.2184 33.5852 30.9934 34.0653 30.5845C34.5454 30.1756 34.8645 29.6093 34.9655 28.9868C35.0666 28.3643 34.9431 27.7262 34.617 27.1864C34.291 26.6466 33.7836 26.2402 33.1856 26.04L32.0957 25.6777V23.4688H32.3447C32.5356 23.4688 32.7187 23.5447 32.8537 23.6797C32.9887 23.8147 33.0645 23.9977 33.0645 24.1887V24.4376C33.0645 24.6946 33.1666 24.941 33.3483 25.1227C33.53 25.3043 33.7764 25.4064 34.0333 25.4064C34.2902 25.4064 34.5367 25.3043 34.7183 25.1227C34.9 24.941 35.0021 24.6946 35.0021 24.4376V24.1887C35.0016 23.484 34.7214 22.8084 34.2232 22.3102C33.725 21.8119 33.0493 21.5318 32.3447 21.5313H32.0957C32.0957 21.2743 31.9937 21.0279 31.812 20.8462C31.6303 20.6646 31.3839 20.5625 31.127 20.5625C30.87 20.5625 30.6236 20.6646 30.4419 20.8462C30.2602 21.0279 30.1582 21.2743 30.1582 21.5313H29.9102C29.2787 21.5306 28.6677 21.7548 28.1865 22.1637C27.7054 22.5726 27.3856 23.1395 27.2844 23.7628C27.1832 24.386 27.3072 25.025 27.6343 25.5651C27.9613 26.1052 28.4701 26.5112 29.0693 26.7104L30.1582 27.0727V29.2815H29.9102C29.7192 29.2815 29.536 29.2057 29.4008 29.0708C29.2657 28.9358 29.1896 28.7527 29.1894 28.5617V28.3128C29.1894 28.0558 29.0873 27.8094 28.9056 27.6277C28.724 27.446 28.4775 27.344 28.2206 27.344ZM29.6825 24.8726C29.5195 24.8192 29.381 24.7093 29.2919 24.5628C29.2027 24.4162 29.1688 24.2427 29.1963 24.0734C29.2237 23.9041 29.3107 23.7502 29.4416 23.6393C29.5725 23.5285 29.7387 23.468 29.9102 23.4688H30.1582V25.0315L29.6825 24.8726ZM32.0957 27.7189L32.5724 27.8778C32.7341 27.9323 32.8713 28.0425 32.9594 28.1887C33.0475 28.3349 33.0809 28.5077 33.0536 28.6762C33.0262 28.8447 32.94 28.998 32.8102 29.1089C32.6804 29.2197 32.5154 29.2809 32.3447 29.2815H32.0957V27.7189Z" fill="#212121"/>
<path d="M65.9364 53.9048L64.3757 41.3969C64.2564 40.4601 63.8001 39.5989 63.0922 38.974C62.3842 38.3491 61.473 38.0033 60.5287 38.0013H60.1886V35.0949C60.1886 33.5533 59.5762 32.0748 58.4861 30.9847C57.396 29.8946 55.9176 29.2822 54.3759 29.2822C52.8343 29.2822 51.3558 29.8946 50.2657 30.9847C49.1756 32.0748 48.5632 33.5533 48.5632 35.0949V38.0013H48.2242C47.2797 38.0034 46.3684 38.3493 45.6604 38.9744C44.9524 39.5995 44.4962 40.4609 44.3771 41.3978L42.8164 53.9058C42.6054 55.5913 42.9208 57.3008 43.7193 58.8001C43.8398 59.0272 44.0456 59.1972 44.2914 59.2725C44.5373 59.3479 44.803 59.3226 45.0301 59.2021C45.2572 59.0816 45.4272 58.8758 45.5026 58.63C45.578 58.3842 45.5526 58.1185 45.4321 57.8913C44.821 56.7437 44.58 55.4351 44.7424 54.1451L46.3021 41.639C46.3616 41.1707 46.5894 40.7399 46.943 40.4271C47.2967 40.1142 47.752 39.9407 48.2242 39.9388H60.5277C61.0002 39.94 61.4561 40.1131 61.8104 40.4257C62.1646 40.7384 62.3929 41.1694 62.4527 41.6381L64.0124 54.1451C64.1235 55.0346 64.0442 55.9377 63.7797 56.7943C63.5153 57.6509 63.0717 58.4414 62.4784 59.1135C61.8851 59.7856 61.1556 60.3238 60.3385 60.6925C59.5213 61.0612 58.6351 61.252 57.7386 61.252H11.7495V59.3145H39.8442C40.1011 59.3145 40.3476 59.2124 40.5292 59.0307C40.7109 58.8491 40.813 58.6026 40.813 58.3457C40.813 58.0888 40.7109 57.8423 40.5292 57.6607C40.3476 57.479 40.1011 57.3769 39.8442 57.3769H11.7495V55.4394H39.8442C40.1011 55.4394 40.3476 55.3373 40.5292 55.1556C40.7109 54.9739 40.813 54.7275 40.813 54.4706C40.813 54.2136 40.7109 53.9672 40.5292 53.7855C40.3476 53.6039 40.1011 53.5018 39.8442 53.5018H10.7807C10.591 53.5103 10.4065 53.5663 10.244 53.6645L4.43133 57.5397C4.29864 57.6281 4.18985 57.748 4.11461 57.8886C4.03937 58.0292 4 58.1862 4 58.3457C4 58.5052 4.03937 58.6622 4.11461 58.8028C4.18985 58.9434 4.29864 59.0633 4.43133 59.1517L10.244 63.0269C10.4067 63.1246 10.5911 63.1806 10.7807 63.1896H57.7386C58.9099 63.1896 60.0678 62.9405 61.1354 62.4588C62.2031 61.9772 63.1562 61.274 63.9314 60.396C64.7067 59.518 65.2864 58.4852 65.632 57.366C65.9777 56.2469 66.0815 55.0671 65.9364 53.9048V53.9048ZM50.5008 38.0013V35.0949C50.5008 34.0672 50.9091 33.0815 51.6358 32.3548C52.3625 31.6281 53.3482 31.2198 54.3759 31.2198C55.4037 31.2198 56.3893 31.6281 57.1161 32.3548C57.8428 33.0815 58.2511 34.0672 58.2511 35.0949V38.0013H50.5008ZM9.81194 56.2803V60.4111L6.71184 58.3457L9.81194 56.2803Z" fill="#212121"/>
<path d="M23.3753 14.75C23.3753 14.4931 23.2732 14.2467 23.0915 14.065C22.9098 13.8833 22.6634 13.7812 22.4065 13.7812H16.5938C16.3368 13.7812 16.0904 13.8833 15.9087 14.065C15.7271 14.2467 15.625 14.4931 15.625 14.75V50.595C15.625 50.8519 15.7271 51.0983 15.9087 51.28C16.0904 51.4617 16.3368 51.5638 16.5938 51.5638C16.8507 51.5638 17.0971 51.4617 17.2788 51.28C17.4605 51.0983 17.5626 50.8519 17.5626 50.595V15.7188H22.4065C22.6634 15.7188 22.9098 15.6167 23.0915 15.4351C23.2732 15.2534 23.3753 15.007 23.3753 14.75Z" fill="#212121"/>
</svg>
