<svg width="81" height="80" viewBox="0 0 81 80" fill="none" xmlns="http://www.w3.org/2000/svg">
<path d="M72.9516 21.3548H64.4839V2H11.2581V21.3548H10.0484C6.71351 21.3548 4 24.0683 4 27.4032V63.6936C4 67.0284 6.71351 69.7419 10.0484 69.7419H25.7742V74.5807H20.9355V77H62.0645V74.5807H57.2258V69.7419H72.9516C76.2865 69.7419 79 67.0284 79 63.6936V27.4032C79 24.0683 76.2865 21.3548 72.9516 21.3548ZM62.0645 31.0323H64.4839V38.2903H62.0645V31.0323ZM59.6452 33.4516H37.871V31.0323H59.6452V33.4516ZM35.4516 37.7546L28.5409 35.1634C28.3329 35.0848 28.1936 34.884 28.1936 34.6613C28.1936 34.4386 28.3329 34.2378 28.542 34.1592L35.4516 31.568V37.7546ZM37.871 35.871H59.6452V38.2903H37.871V35.871ZM66.9032 31.0323H68.1129C70.1135 31.0323 71.7419 32.6607 71.7419 34.6613C71.7419 36.6619 70.1135 38.2903 68.1129 38.2903H66.9032V31.0323ZM36.441 28.6129L27.6927 31.8934C26.5462 32.3229 25.7742 33.4357 25.7742 34.6613C25.7742 35.8869 26.5462 36.9997 27.6915 37.4291L36.441 40.7097H62.0645V52.8065H13.6774V14.0968H62.0645V28.6129H36.441ZM62.0645 4.41935V11.6774H13.6774V4.41935H62.0645ZM10.0484 23.7742H11.2581V55.2258H64.4839V40.7097H68.1129C71.4478 40.7097 74.1613 37.9962 74.1613 34.6613C74.1613 31.3264 71.4478 28.6129 68.1129 28.6129H64.4839V23.7742H72.9516C74.9522 23.7742 76.5807 25.4027 76.5807 27.4032V60.0645H6.41935V27.4032C6.41935 25.4027 8.04781 23.7742 10.0484 23.7742ZM54.8065 74.5807H28.1936V69.7419H54.8065V74.5807ZM72.9516 67.3226H10.0484C8.04781 67.3226 6.41935 65.6941 6.41935 63.6936V62.4839H76.5807V63.6936C76.5807 65.6941 74.9522 67.3226 72.9516 67.3226Z" fill="white"/>
<path d="M16.0977 6.83875H18.517V9.25809H16.0977V6.83875Z" fill="white"/>
<path d="M20.9336 6.83875H23.3529V9.25809H20.9336V6.83875Z" fill="white"/>
<path d="M25.7734 6.83875H28.1928V9.25809H25.7734V6.83875Z" fill="white"/>
<path d="M16.0977 26.1935H30.6138V16.5161H16.0977V26.1935ZM18.517 18.9355H28.1944V23.7742H18.517V18.9355Z" fill="white"/>
<path d="M34.2422 16.5161V26.1935H48.7583V16.5161H34.2422ZM46.339 23.7742H36.6615V18.9355H46.339V23.7742Z" fill="white"/>
<path d="M16.0977 28.6129H24.5654V31.0323H16.0977V28.6129Z" fill="white"/>
<path d="M16.0977 33.4517H23.3557V35.871H16.0977V33.4517Z" fill="white"/>
<path d="M16.0977 38.2903H24.5654V40.7096H16.0977V38.2903Z" fill="white"/>
<path d="M16.0977 43.129H59.646V45.5484H16.0977V43.129Z" fill="white"/>
<path d="M57.2266 47.9678H59.6459V50.3871H57.2266V47.9678Z" fill="white"/>
<path d="M16.0977 47.9678H54.8073V50.3871H16.0977V47.9678Z" fill="white"/>
</svg>
