<svg width="81" height="80" viewBox="0 0 81 80" fill="none" xmlns="http://www.w3.org/2000/svg">
<path d="M75.1321 7H5.86791C3.18361 7 1 9.18361 1 11.8678V58.8686C1 61.5527 3.18361 63.7364 5.86791 63.7364H29.2942L28.3467 71.3168H24.4207C23.7815 71.3168 23.2635 71.8349 23.2635 72.474C23.2635 73.1131 23.7815 73.6313 24.4207 73.6313H56.5793C57.2185 73.6313 57.7365 73.1131 57.7365 72.474C57.7365 71.8349 57.2185 71.3168 56.5793 71.3168H52.6535L51.7058 63.7364H75.1321C77.8162 63.7364 80 61.5527 80 58.8686V11.8678C80 9.18361 77.8164 7 75.1321 7ZM30.6792 71.3168L31.6268 63.7364H35.8859L36.3037 65.4074C36.7861 67.3366 38.5117 68.6837 40.5002 68.6837C42.4886 68.6837 44.2142 67.3366 44.6966 65.4074L45.1144 63.7364H49.3735L50.3208 71.3168H30.6792ZM38.2715 63.7364H42.7284L42.4509 64.8461C42.2267 65.743 41.4245 66.3693 40.4998 66.3693C39.5751 66.3693 38.7731 65.7428 38.5488 64.8461L38.2715 63.7364ZM77.6855 58.8686C77.6855 60.2766 76.54 61.4219 75.1321 61.4219H5.86791C4.45995 61.4219 3.31445 60.2766 3.31445 58.8686V11.8678C3.31445 10.4598 4.45995 9.31445 5.86791 9.31445H75.1321C76.54 9.31445 77.6855 10.4598 77.6855 11.8678V58.8686Z" fill="white"/>
<path d="M66.4759 11.9475H7.10645C6.46719 11.9475 5.94922 12.4655 5.94922 13.1047V57.6317C5.94922 58.271 6.46719 58.789 7.10645 58.789H9.58029C10.2195 58.789 10.7375 58.271 10.7375 57.6317C10.7377 56.9926 10.2195 56.4745 9.58044 56.4745H8.26383V14.262H66.4759C67.1151 14.262 67.6331 13.7438 67.6331 13.1047C67.6331 12.4655 67.1151 11.9475 66.4759 11.9475Z" fill="white"/>
<path d="M73.8977 11.9475H71.4239C70.7847 11.9475 70.2667 12.4655 70.2667 13.1047C70.2667 13.7438 70.7847 14.262 71.4239 14.262H72.7405V56.4745H14.5283C13.8891 56.4745 13.3711 56.9926 13.3711 57.6317C13.3711 58.271 13.8891 58.789 14.5283 58.789H73.8976C74.5368 58.789 75.0548 58.271 75.0548 57.6317V13.1047C75.055 12.4655 74.5368 11.9475 73.8977 11.9475Z" fill="white"/>
<path d="M56.2541 24.76C56.0461 24.4942 55.7324 24.3324 55.3954 24.3172L28.1846 23.0802C28.1633 23.0792 28.1424 23.0788 28.121 23.0791C27.9599 22.5503 27.6195 22.0917 27.1588 21.7844L23.8265 19.5628C23.2947 19.2084 22.5762 19.3521 22.2218 19.8839C21.8673 20.4158 22.011 21.1342 22.5427 21.4886L25.8749 23.7099C25.8906 23.7204 25.9022 23.7362 25.9075 23.7545L30.152 38.6103C30.2844 39.0735 30.5023 39.4898 30.782 39.8493L29.229 42.9553C28.8551 43.7029 28.8943 44.5736 29.3338 45.2846C29.4932 45.5424 29.6953 45.762 29.9275 45.9379C29.6235 46.4685 29.4487 47.0823 29.4487 47.7365C29.4487 49.7387 31.0776 51.3674 33.0796 51.3674C35.0816 51.3674 36.7106 49.7385 36.7106 47.7365C36.7106 47.2722 36.622 46.8285 36.4624 46.42H47.0128C46.8533 46.8285 46.7647 47.2722 46.7647 47.7365C46.7647 49.7387 48.3936 51.3674 50.3956 51.3674C52.3976 51.3674 54.0265 49.7385 54.0265 47.7365C54.0265 47.1557 53.8887 46.6069 53.6452 46.1196C53.8789 45.9079 54.0265 45.603 54.0265 45.2628C54.0265 44.6237 53.5085 44.1056 52.8693 44.1056H31.3699C31.3534 44.1056 31.3254 44.1056 31.3021 44.0678C31.2788 44.0301 31.2913 44.0053 31.2987 43.9903L32.7294 41.1292C33.0205 41.204 33.3239 41.2445 33.6343 41.2445C33.7774 41.2445 33.9218 41.236 34.0671 41.219L50.3279 39.306C52.428 39.0588 54.1177 37.4998 54.5325 35.4261L56.4775 25.7001C56.5437 25.3692 56.4621 25.0259 56.2541 24.76ZM50.3953 46.4204C51.1213 46.4204 51.7118 47.011 51.7118 47.7368C51.7118 48.4628 51.1213 49.0533 50.3953 49.0533C49.6693 49.0533 49.0788 48.4628 49.0788 47.7368C49.0788 47.0108 49.6693 46.4204 50.3953 46.4204ZM33.0793 46.4204C33.8053 46.4204 34.3958 47.0108 34.3958 47.7368C34.3958 48.4628 33.8053 49.0533 33.0793 49.0533C32.3534 49.0533 31.7629 48.4628 31.7629 47.7368C31.7629 47.0108 32.3534 46.4204 33.0793 46.4204ZM30.2415 30.5003L28.7913 25.4247L33.4179 25.635L34.22 30.5003H30.2415ZM33.7968 38.9204C33.1515 38.9964 32.5552 38.5984 32.3771 37.9746L30.9028 32.8148H34.6016L35.5738 38.7114L33.7968 38.9204ZM40.5802 38.1224L37.875 38.4407L36.9476 32.8149H40.5802V38.1224ZM40.5802 30.5003H36.5658L35.7814 25.7426L40.5802 25.9607V30.5003ZM46.4407 37.4329L42.8946 37.8501V32.8148H46.8587L46.4407 37.4329ZM47.0682 30.5003H42.8946V26.0658L47.4508 26.2729L47.0682 30.5003ZM52.2628 34.9725C52.0452 36.0599 51.1589 36.8779 50.0574 37.0075L48.7895 37.1567L49.1825 32.8149H52.6942L52.2628 34.9725ZM53.1572 30.5003H49.3922L49.7653 26.3781L53.9437 26.5681L53.1572 30.5003Z" fill="white"/>
</svg>
