<svg width="81" height="80" viewBox="0 0 81 80" fill="none" xmlns="http://www.w3.org/2000/svg">
<path d="M33.4789 15.0838C33.7823 15.3877 34.1809 15.5394 34.579 15.5394C34.977 15.5394 35.3751 15.3877 35.6785 15.0838L40.5986 10.1647C41.2054 9.55697 41.2054 8.57189 40.5986 7.96461C39.9913 7.35685 39.0063 7.35685 38.399 7.96461L33.4789 12.8842C32.8716 13.492 32.8716 14.477 33.4789 15.0838Z" fill="white"/>
<path d="M41.6629 15.0838C41.9668 15.3877 42.3644 15.5394 42.762 15.5394C43.1606 15.5394 43.5582 15.3877 43.8621 15.0838L48.7821 10.1647C49.3899 9.55697 49.3899 8.57189 48.7821 7.96461C48.1749 7.35685 47.1898 7.35685 46.582 7.96461L41.6624 12.8842C41.0552 13.492 41.0552 14.477 41.6629 15.0838Z" fill="white"/>
<path d="M77.2466 61.2149H71.7434V56.0513C71.7434 55.1928 71.0462 54.4957 70.1878 54.4957H64.3415V50.9583H69.8452C71.1313 50.9583 72.1782 49.9124 72.1782 48.6253V34.5072C72.1782 33.2211 71.1313 32.1742 69.8452 32.1742H64.3415V27.1353C64.3415 26.2758 63.6449 25.5796 62.7859 25.5796H42.778V22.049H54.0787C55.4159 22.049 56.5044 20.9605 56.5044 19.6223V3.42622C56.5044 2.08847 55.4159 1 54.0787 1H47.2015C46.342 1 45.6458 1.69617 45.6458 2.55564C45.6458 3.41463 46.342 4.11128 47.2015 4.11128H53.3941V18.9377H29.0526V4.11128H34.7215C35.5805 4.11128 36.2772 3.41463 36.2772 2.55564C36.2772 1.69617 35.5805 1 34.7215 1H28.3671C27.0298 1 25.9414 2.08847 25.9414 3.42622V19.6223C25.9414 20.9605 27.0298 22.049 28.3671 22.049H39.6677V25.5796H18.8357C17.9767 25.5796 17.28 26.2758 17.28 27.1353V32.1742H11.7768C10.4898 32.1742 9.44335 33.2211 9.44335 34.5072V48.6253C9.44335 49.9124 10.4898 50.9583 11.7768 50.9583H17.28V54.4957H12.4764C11.6169 54.4957 10.9207 55.1928 10.9207 56.0513V61.2149H5.33298C4.04595 61.2149 3 62.2618 3 63.5479V77.6661C3 78.9531 4.04595 80 5.33298 80H19.4511C20.7372 80 21.7841 78.9531 21.7841 77.6661V63.5479C21.7841 62.2618 20.7372 61.2149 19.4511 61.2149H14.0315V57.6065H39.6677V61.2149H34.2568C32.919 61.2149 31.8311 62.3034 31.8311 63.6416V77.5733C31.8311 78.9115 32.919 80 34.2568 80H35.0448C35.9037 80 36.6004 79.3033 36.6004 78.4444C36.6004 77.5854 35.9037 76.8887 35.0448 76.8887H34.9419V64.3262H47.5044V76.8887H47.3957C46.5367 76.8887 45.84 77.5854 45.84 78.4444C45.84 79.3033 46.5367 80 47.3957 80H48.189C49.5267 80 50.6147 78.9115 50.6147 77.5733V63.6416C50.6147 62.3034 49.5267 61.2149 48.189 61.2149H42.778V57.6065H68.6321V61.2149H63.1284C61.8419 61.2149 60.7954 62.2618 60.7954 63.5479V77.6661C60.7954 78.9531 61.8419 80 63.1284 80H77.2466C78.5327 80 79.5796 78.9531 79.5796 77.6661V63.5479C79.5796 62.2618 78.5327 61.2149 77.2466 61.2149ZM18.6728 64.3262V76.8887H6.11032V64.3262H18.6728ZM12.5541 47.848V35.2855H25.1167V47.848H12.5541ZM61.2307 54.4957H20.3913V50.9583H25.895C27.181 50.9583 28.228 49.9124 28.228 48.6253V34.5072C28.228 33.2211 27.181 32.1742 25.895 32.1742H20.3913V28.6904H61.2307V32.1742H55.7271C54.44 32.1742 53.3941 33.2211 53.3941 34.5072V48.6253C53.3941 49.9124 54.44 50.9583 55.7271 50.9583H61.2307V54.4957ZM56.5044 47.848V35.2855H69.0669V47.848H56.5044ZM76.4683 76.8887H63.9058V64.3262H76.4683V76.8887Z" fill="white"/>
<path d="M40.0599 3.7944L40.1053 3.8287C40.3869 4.04272 40.7174 4.14659 41.0459 4.14659C41.515 4.14659 41.9793 3.9345 42.2851 3.53158C42.805 2.84749 42.6721 1.87255 41.988 1.35224L41.9421 1.31745C41.258 0.797616 40.2821 0.930473 39.7628 1.61505C39.2424 2.29866 39.3758 3.27408 40.0599 3.7944Z" fill="white"/>
<path d="M42.1863 77.1689L42.1413 77.1346C41.4572 76.6153 40.4813 76.7481 39.961 77.4322C39.4417 78.1163 39.5755 79.0922 40.2596 79.612L40.3045 79.6468C40.5862 79.8604 40.9166 79.9637 41.2442 79.9637C41.7143 79.9637 42.1785 79.7517 42.4848 79.3492C43.0042 78.6642 42.8709 77.6887 42.1863 77.1689Z" fill="white"/>
</svg>
