<svg width="81" height="80" viewBox="0 0 81 80" fill="none" xmlns="http://www.w3.org/2000/svg">
<path d="M75.7152 4H5.28475C2.92208 4 1 5.92208 1 8.28475V53.6281C1 55.9908 2.92208 57.9129 5.28475 57.9129H10.9678C11.6127 57.9129 12.1365 57.3897 12.1365 56.7448C12.1365 56.0993 11.6127 55.5761 10.9678 55.5761H5.28475C4.2107 55.5761 3.33736 54.7022 3.33736 53.6281V8.28475C3.33736 7.2107 4.2113 6.33736 5.28475 6.33736H75.7152C76.7893 6.33736 77.6626 7.2113 77.6626 8.28475V32.0881C77.483 32.0531 77.298 32.0332 77.1081 32.0332H75.0137V10.155C75.0137 9.50948 74.4905 8.98632 73.845 8.98632H63.1618C62.5162 8.98632 61.9931 9.50948 61.9931 10.155C61.9931 10.8005 62.5162 11.3237 63.1618 11.3237H72.6763V32.0332H57.8054C56.2106 32.0332 54.9129 33.3309 54.9129 34.9257V50.5898H8.32368V11.3237H57.7083C58.3538 11.3237 58.877 10.8005 58.877 10.155C58.877 9.50948 58.3538 8.98632 57.7083 8.98632H7.155C6.50948 8.98632 5.98632 9.50948 5.98632 10.155V51.7585C5.98632 52.404 6.50948 52.9272 7.155 52.9272H54.9135V55.5761H16.455C15.8101 55.5761 15.2869 56.0993 15.2869 56.7448C15.2869 57.3903 15.8101 57.9135 16.455 57.9135H29.8294L28.5595 68.1971H26.4765C24.9727 68.1971 23.7491 69.4207 23.7491 70.9245V74.0405C23.7491 75.5443 24.9727 76.7673 26.4765 76.7673H54.5235C55.1275 76.7673 55.6844 76.5677 56.137 76.2338C56.609 76.5684 57.184 76.7673 57.8054 76.7673H77.1081C78.7023 76.7673 80 75.4702 80 73.8754V52.1677C80 51.5222 79.4768 50.9991 78.8313 50.9991C78.1858 50.9991 77.6626 51.5222 77.6626 52.1677V69.0874H57.2503V39.7131H77.6626V46.6974C77.6626 47.343 78.1858 47.8661 78.8313 47.8661C79.4768 47.8661 80 47.343 80 46.6974V8.28475C80 5.92208 78.0779 4 75.7152 4ZM54.9129 68.2285C54.7857 68.2098 54.6561 68.1971 54.5235 68.1971H52.4405L51.1706 57.9129H54.9129V68.2285ZM32.1842 57.9129H48.8158L50.0857 68.1971H30.9143L32.1842 57.9129ZM54.9129 74.0405C54.9129 74.2551 54.7387 74.4299 54.5235 74.4299H26.4765C26.2613 74.4299 26.0865 74.2551 26.0865 74.0405V70.9239C26.0865 70.7093 26.2613 70.5345 26.4765 70.5345H51.4105H54.5235C54.7387 70.5345 54.9135 70.7093 54.9135 70.9239V74.0405H54.9129ZM77.6626 73.8754C77.6626 74.181 77.4137 74.4299 77.1081 74.4299H57.8054C57.4998 74.4299 57.2503 74.181 57.2503 73.8754V71.4247H77.6626V73.8754ZM57.2503 37.3757V34.9251C57.2503 34.6195 57.4992 34.3706 57.8054 34.3706H77.1081C77.4137 34.3706 77.6626 34.6195 77.6626 34.9251V37.3757H57.2503Z" fill="white"/>
<path d="M13.3874 34.696H38.3184C38.9639 34.696 39.487 34.1729 39.487 33.5273V14.8297C39.487 14.1842 38.9639 13.661 38.3184 13.661H13.3874C12.7419 13.661 12.2188 14.1842 12.2188 14.8297V33.5273C12.2188 34.1735 12.7419 34.696 13.3874 34.696ZM14.5561 15.9984H37.1497V32.3593H14.5561V15.9984Z" fill="white"/>
<path d="M51.9525 40.3839C51.9525 39.7384 51.4294 39.2152 50.7839 39.2152H13.3874C12.7419 39.2152 12.2188 39.7384 12.2188 40.3839C12.2188 41.0288 12.7419 41.5526 13.3874 41.5526H50.7839C51.4294 41.5526 51.9525 41.0288 51.9525 40.3839Z" fill="white"/>
<path d="M13.3874 45.1364C12.7419 45.1364 12.2188 45.6595 12.2188 46.305C12.2188 46.9499 12.7419 47.4737 13.3874 47.4737H33.6437C34.2892 47.4737 34.8124 46.9499 34.8124 46.305C34.8124 45.6595 34.2892 45.1364 33.6437 45.1364H13.3874Z" fill="white"/>
<path d="M67.6117 15.8423H42.9923C42.3474 15.8423 41.8242 16.3654 41.8242 17.011C41.8242 17.6565 42.3474 18.1796 42.9923 18.1796H67.6117C68.2572 18.1796 68.7804 17.6565 68.7804 17.011C68.7804 16.3654 68.2572 15.8423 67.6117 15.8423Z" fill="white"/>
<path d="M68.4688 25.2695C68.4688 24.624 67.9456 24.1008 67.3001 24.1008H42.9923C42.3474 24.1008 41.8242 24.624 41.8242 25.2695C41.8242 25.9144 42.3474 26.4382 42.9923 26.4382H67.3001C67.9456 26.4382 68.4688 25.915 68.4688 25.2695Z" fill="white"/>
<path d="M50.4721 34.696C51.117 34.696 51.6402 34.1728 51.6402 33.5273C51.6402 32.8824 51.117 32.3593 50.4721 32.3593H42.9923C42.3474 32.3593 41.8242 32.8824 41.8242 33.5273C41.8242 34.1728 42.3474 34.696 42.9923 34.696H50.4721Z" fill="white"/>
<path d="M75.4829 43.0329C75.4829 42.3874 74.9597 41.8643 74.3142 41.8643H60.6023C59.9568 41.8643 59.4336 42.3874 59.4336 43.0329V53.3166C59.4336 53.9621 59.9568 54.4853 60.6023 54.4853H74.3142C74.9597 54.4853 75.4829 53.9621 75.4829 53.3166V43.0329ZM73.1455 52.1479H61.771V44.2016H73.1455V52.1479Z" fill="white"/>
<path d="M74.3142 56.3549H60.6023C59.9568 56.3549 59.4336 56.878 59.4336 57.5235C59.4336 58.1691 59.9568 58.6922 60.6023 58.6922H74.3142C74.9597 58.6922 75.4829 58.1691 75.4829 57.5235C75.4829 56.878 74.9597 56.3549 74.3142 56.3549Z" fill="white"/>
<path d="M75.4829 62.0427C75.4829 61.3972 74.9597 60.874 74.3142 60.874H60.6023C59.9568 60.874 59.4336 61.3972 59.4336 62.0427C59.4336 62.6876 59.9568 63.2108 60.6023 63.2108H74.3142C74.9597 63.2108 75.4829 62.6876 75.4829 62.0427Z" fill="white"/>
<path d="M60.6023 65.3927C59.9568 65.3927 59.4336 65.9159 59.4336 66.5614C59.4336 67.2069 59.9568 67.7301 60.6023 67.7301H67.9253C68.5709 67.7301 69.094 67.2069 69.094 66.5614C69.094 65.9159 68.5709 65.3927 67.9253 65.3927H60.6023Z" fill="white"/>
</svg>
