<svg width="81" height="80" viewBox="0 0 81 80" fill="none" xmlns="http://www.w3.org/2000/svg">
<path d="M9.48202 22.0174H11.6078C12.2149 22.0174 12.7064 21.5259 12.7064 20.9188C12.7064 20.3117 12.2149 19.8202 11.6078 19.8202H9.48202C8.87491 19.8202 8.38281 20.3117 8.38281 20.9188C8.38281 21.5259 8.87491 22.0174 9.48202 22.0174Z" fill="white"/>
<path d="M9.48202 27.5111H11.6078C12.2149 27.5111 12.7064 27.0195 12.7064 26.4124C12.7064 25.8053 12.2149 25.3138 11.6078 25.3138H9.48202C8.87491 25.3138 8.38281 25.8053 8.38281 26.4124C8.38281 27.0195 8.87491 27.5111 9.48202 27.5111Z" fill="white"/>
<path d="M9.48202 33.0055H11.6078C12.2149 33.0055 12.7064 32.5134 12.7064 31.9063C12.7064 31.2992 12.2149 30.8076 11.6078 30.8076H9.48202C8.87491 30.8076 8.38281 31.2992 8.38281 31.9063C8.38281 32.5134 8.87491 33.0055 9.48202 33.0055Z" fill="white"/>
<path d="M9.48202 38.4992H11.6078C12.2149 38.4992 12.7064 38.0071 12.7064 37.4C12.7064 36.7935 12.2149 36.3014 11.6078 36.3014H9.48202C8.87491 36.3014 8.38281 36.7935 8.38281 37.4C8.38281 38.0071 8.87491 38.4992 9.48202 38.4992Z" fill="white"/>
<path d="M9.48202 43.9928H11.6078C12.2149 43.9928 12.7064 43.5007 12.7064 42.8942C12.7064 42.2871 12.2149 41.795 11.6078 41.795H9.48202C8.87491 41.795 8.38281 42.2871 8.38281 42.8942C8.38281 43.5007 8.87491 43.9928 9.48202 43.9928Z" fill="white"/>
<path d="M9.48202 49.4867H11.6078C12.2149 49.4867 12.7064 48.9952 12.7064 48.3881C12.7064 47.781 12.2149 47.2894 11.6078 47.2894H9.48202C8.87491 47.2894 8.38281 47.781 8.38281 48.3881C8.38281 48.9952 8.87491 49.4867 9.48202 49.4867Z" fill="white"/>
<path d="M9.48202 54.981H11.6078C12.2149 54.981 12.7064 54.4889 12.7064 53.8818C12.7064 53.2752 12.2149 52.7831 11.6078 52.7831H9.48202C8.87491 52.7831 8.38281 53.2752 8.38281 53.8818C8.38281 54.4889 8.87491 54.981 9.48202 54.981Z" fill="white"/>
<path d="M9.48202 60.4747H11.6078C12.2149 60.4747 12.7064 59.9826 12.7064 59.3761C12.7064 58.769 12.2149 58.2769 11.6078 58.2769H9.48202C8.87491 58.2769 8.38281 58.769 8.38281 59.3761C8.38281 59.9826 8.87491 60.4747 9.48202 60.4747Z" fill="white"/>
<path d="M9.48202 65.9685H11.6078C12.2149 65.9685 12.7064 65.4769 12.7064 64.8698C12.7064 64.2627 12.2149 63.7706 11.6078 63.7706H9.48202C8.87491 63.7706 8.38281 64.2627 8.38281 64.8698C8.38281 65.4769 8.87491 65.9685 9.48202 65.9685Z" fill="white"/>
<path d="M9.48202 71.4622H11.6078C12.2149 71.4622 12.7064 70.9707 12.7064 70.3636C12.7064 69.7565 12.2149 69.265 11.6078 69.265H9.48202C8.87491 69.265 8.38281 69.7565 8.38281 70.3636C8.38281 70.9707 8.87491 71.4622 9.48202 71.4622Z" fill="white"/>
<path d="M15.568 22.0174H25.9037C26.5108 22.0174 27.0023 21.5259 27.0023 20.9188C27.0023 20.3117 26.5108 19.8202 25.9037 19.8202H15.568C14.9608 19.8202 14.4688 20.3117 14.4688 20.9188C14.4688 21.5259 14.9608 22.0174 15.568 22.0174Z" fill="white"/>
<path d="M15.568 43.9928H25.9037C26.5108 43.9928 27.0023 43.5007 27.0023 42.8942C27.0023 42.2871 26.5108 41.795 25.9037 41.795H15.568C14.9608 41.795 14.4688 42.2871 14.4688 42.8942C14.4688 43.5007 14.9608 43.9928 15.568 43.9928Z" fill="white"/>
<path d="M15.568 54.981H25.9037C26.5108 54.981 27.0023 54.4889 27.0023 53.8818C27.0023 53.2752 26.5108 52.7831 25.9037 52.7831H15.568C14.9608 52.7831 14.4688 53.2752 14.4688 53.8818C14.4688 54.4889 14.9608 54.981 15.568 54.981Z" fill="white"/>
<path d="M15.568 27.5111H21.3591C21.9662 27.5111 22.4578 27.0195 22.4578 26.4124C22.4578 25.8053 21.9662 25.3138 21.3591 25.3138H15.568C14.9608 25.3138 14.4688 25.8053 14.4688 26.4124C14.4688 27.0195 14.9608 27.5111 15.568 27.5111Z" fill="white"/>
<path d="M15.568 33.0055H21.3591C21.9662 33.0055 22.4578 32.5134 22.4578 31.9063C22.4578 31.2992 21.9662 30.8076 21.3591 30.8076H15.568C14.9608 30.8076 14.4688 31.2992 14.4688 31.9063C14.4688 32.5134 14.9608 33.0055 15.568 33.0055Z" fill="white"/>
<path d="M15.568 71.4622H21.3591C21.9662 71.4622 22.4578 70.9707 22.4578 70.3636C22.4578 69.7565 21.9662 69.265 21.3591 69.265H15.568C14.9608 69.265 14.4688 69.7565 14.4688 70.3636C14.4688 70.9707 14.9608 71.4622 15.568 71.4622Z" fill="white"/>
<path d="M15.568 49.4867H18.4639C19.0704 49.4867 19.5625 48.9952 19.5625 48.3881C19.5625 47.781 19.0704 47.2894 18.4639 47.2894H15.568C14.9608 47.2894 14.4688 47.781 14.4688 48.3881C14.4688 48.9952 14.9608 49.4867 15.568 49.4867Z" fill="white"/>
<path d="M15.568 38.4992H24.1007C24.7072 38.4992 25.1993 38.0071 25.1993 37.4C25.1993 36.7935 24.7072 36.3014 24.1007 36.3014H15.568C14.9608 36.3014 14.4688 36.7935 14.4688 37.4C14.4688 38.0071 14.9608 38.4992 15.568 38.4992Z" fill="white"/>
<path d="M15.568 60.4747H24.1007C24.7072 60.4747 25.1993 59.9826 25.1993 59.3761C25.1993 58.769 24.7072 58.2769 24.1007 58.2769H15.568C14.9608 58.2769 14.4688 58.769 14.4688 59.3761C14.4688 59.9826 14.9608 60.4747 15.568 60.4747Z" fill="white"/>
<path d="M15.568 65.9685H24.1007C24.7072 65.9685 25.1993 65.4769 25.1993 64.8698C25.1993 64.2627 24.7072 63.7706 24.1007 63.7706H15.568C14.9608 63.7706 14.4688 64.2627 14.4688 64.8698C14.4688 65.4769 14.9608 65.9685 15.568 65.9685Z" fill="white"/>
<path d="M11.0218 6.21765C9.24341 6.21765 7.79688 7.66419 7.79688 9.4426C7.79688 11.2204 9.24341 12.6669 11.0218 12.6669C12.7997 12.6669 14.2462 11.2204 14.2462 9.4426C14.2462 7.66419 12.7997 6.21765 11.0218 6.21765ZM11.0218 10.4691C10.4553 10.4691 9.99471 10.0085 9.99471 9.4426C9.99471 8.87611 10.4553 8.41549 11.0218 8.41549C11.5877 8.41549 12.0489 8.87611 12.0489 9.4426C12.0489 10.0085 11.5877 10.4691 11.0218 10.4691Z" fill="white"/>
<path d="M19.2322 6.21765C17.4538 6.21765 16.0078 7.66419 16.0078 9.4426C16.0078 11.2204 17.4543 12.6669 19.2322 12.6669C21.01 12.6669 22.4566 11.2204 22.4566 9.4426C22.4566 7.66419 21.01 6.21765 19.2322 6.21765ZM19.2322 10.4691C18.6657 10.4691 18.2051 10.0085 18.2051 9.4426C18.2051 8.87611 18.6657 8.41549 19.2322 8.41549C19.7981 8.41549 20.2593 8.87611 20.2593 9.4426C20.2593 10.0085 19.7981 10.4691 19.2322 10.4691Z" fill="white"/>
<path d="M27.4437 6.21765C25.6653 6.21765 24.2188 7.66419 24.2188 9.4426C24.2188 11.2204 25.6653 12.6669 27.4437 12.6669C29.2215 12.6669 30.6681 11.2204 30.6681 9.4426C30.6681 7.66419 29.2215 6.21765 27.4437 6.21765ZM27.4437 10.4691C26.8772 10.4691 26.4165 10.0085 26.4165 9.4426C26.4165 8.87611 26.8772 8.41549 27.4437 8.41549C28.0096 8.41549 28.4708 8.87611 28.4708 9.4426C28.4708 10.0085 28.0102 10.4691 27.4437 10.4691Z" fill="white"/>
<path d="M40.8883 40.8824H67.9611C69.526 40.8824 70.7986 39.6093 70.7986 38.0449V22.6577C70.7986 21.0927 69.526 19.8202 67.9611 19.8202H40.8883C39.3234 19.8202 38.0508 21.0927 38.0508 22.6577V38.0449C38.0508 39.6093 39.3234 40.8824 40.8883 40.8824ZM40.248 22.6577C40.248 22.3047 40.5353 22.0174 40.8883 22.0174H67.9611C68.3141 22.0174 68.6008 22.3047 68.6008 22.6577V38.0449C68.6008 38.3974 68.3141 38.6846 67.9611 38.6846H40.8883C40.5353 38.6846 40.248 38.3974 40.248 38.0449V22.6577Z" fill="white"/>
<path d="M39.1494 44.8587H56.517C57.1241 44.8587 57.6162 44.3666 57.6162 43.7595C57.6162 43.153 57.1241 42.6609 56.517 42.6609H39.1494C38.5423 42.6609 38.0508 43.153 38.0508 43.7595C38.0508 44.3666 38.5423 44.8587 39.1494 44.8587Z" fill="white"/>
<path d="M62.376 42.6609C61.7689 42.6609 61.2773 43.153 61.2773 43.7595C61.2773 44.3666 61.7689 44.8587 62.376 44.8587H69.6996C70.3067 44.8587 70.7983 44.3666 70.7983 43.7595C70.7983 43.153 70.3067 42.6609 69.6996 42.6609H62.376Z" fill="white"/>
<path d="M40.8883 67.486H67.9611C69.526 67.486 70.7986 66.2134 70.7986 64.6484V49.2612C70.7986 47.6968 69.526 46.4237 67.9611 46.4237H40.8883C39.3234 46.4237 38.0508 47.6968 38.0508 49.2612V54.2978C38.0508 54.9049 38.5423 55.3964 39.1494 55.3964C39.756 55.3964 40.248 54.9049 40.248 54.2978V49.2612C40.248 48.9082 40.5353 48.6215 40.8883 48.6215H67.9611C68.3141 48.6215 68.6008 48.9082 68.6008 49.2612V64.6484C68.6008 65.0014 68.3141 65.2881 67.9611 65.2881H40.8883C40.5353 65.2881 40.248 65.0014 40.248 64.6484V60.8902C40.248 60.283 39.756 59.7915 39.1494 59.7915C38.5423 59.7915 38.0508 60.283 38.0508 60.8902V64.6484C38.0508 66.2128 39.3234 67.486 40.8883 67.486Z" fill="white"/>
<path d="M39.1494 71.4622H56.517C57.1241 71.4622 57.6162 70.9707 57.6162 70.3636C57.6162 69.7565 57.1241 69.265 56.517 69.265H39.1494C38.5423 69.265 38.0508 69.7565 38.0508 70.3636C38.0508 70.9707 38.5423 71.4622 39.1494 71.4622Z" fill="white"/>
<path d="M69.6996 69.265H62.376C61.7689 69.265 61.2773 69.7565 61.2773 70.3636C61.2773 70.9707 61.7689 71.4622 62.376 71.4622H69.6996C70.3067 71.4622 70.7983 70.9707 70.7983 70.3636C70.7983 69.7565 70.3067 69.265 69.6996 69.265Z" fill="white"/>
<path d="M73.1643 2H7.8357C5.16923 2 3 4.16923 3 6.8357V27.1335C3 27.7406 3.4921 28.2321 4.09863 28.2321C4.70574 28.2321 5.19784 27.7406 5.19784 27.1335V16.9471H30.4727V74.8027H7.8357C6.38116 74.8027 5.19784 73.6188 5.19784 72.1643V33.5582C5.19784 32.9511 4.70574 32.4596 4.09863 32.4596C3.4921 32.4596 3 32.9511 3 33.5582V72.1637C3 74.8302 5.16923 77 7.8357 77H73.1643C75.8308 77 78 74.8302 78 72.1637V6.8357C78 4.16923 75.8308 2 73.1643 2ZM75.8022 72.1637C75.8022 73.6188 74.6188 74.8022 73.1643 74.8022H32.6705V16.9471H75.8027V72.1637H75.8022ZM75.8022 14.7493H5.19784V6.8357C5.19784 5.38116 6.38116 4.19784 7.8357 4.19784H73.1643C74.6188 4.19784 75.8022 5.38116 75.8022 6.8357V14.7493Z" fill="white"/>
</svg>
