<svg width="81" height="80" viewBox="0 0 81 80" fill="none" xmlns="http://www.w3.org/2000/svg">
<path d="M67.114 22.3549H64.6947C64.0255 22.3549 63.485 22.8954 63.485 23.5646V32.0323H53.7662C52.5642 30.1091 50.9706 28.4541 49.0935 27.1936H54.0303C54.5311 28.5982 55.8619 29.613 57.4366 29.613C59.4372 29.613 61.0656 27.9845 61.0656 25.984C61.0656 23.9834 59.4372 22.3549 57.4366 22.3549C55.8619 22.3549 54.5311 23.3697 54.0303 24.7743H44.1302V23.5646C44.1302 22.8954 43.5897 22.3549 42.9205 22.3549H38.0818C37.4126 22.3549 36.8721 22.8954 36.8721 23.5646V24.7743H26.972C26.4711 23.3697 25.1404 22.3549 23.5656 22.3549C21.5651 22.3549 19.9366 23.9834 19.9366 25.984C19.9366 27.9845 21.5651 29.613 23.5656 29.613C25.1404 29.613 26.4711 28.5982 26.972 27.1936H31.9088C30.0316 28.4541 28.438 30.1091 27.236 32.0323H13.8882C10.5533 32.0323 7.83984 34.7459 7.83984 38.0807V67.113C7.83984 70.4479 10.5533 73.1614 13.8882 73.1614H16.3076C16.9768 73.1614 17.5173 72.6209 17.5173 71.9517V64.6936H67.114C70.4489 64.6936 73.1624 61.9801 73.1624 58.6452V28.4033C73.1624 25.0684 70.4489 22.3549 67.114 22.3549ZM57.4366 24.7743C58.1041 24.7743 58.6463 25.3165 58.6463 25.984C58.6463 26.6514 58.1041 27.1936 57.4366 27.1936C56.7692 27.1936 56.2269 26.6514 56.2269 25.984C56.2269 25.3165 56.7692 24.7743 57.4366 24.7743ZM39.2915 24.7743H41.7108V27.1936H39.2915V24.7743ZM23.5656 27.1936C22.8982 27.1936 22.356 26.6514 22.356 25.984C22.356 25.3165 22.8982 24.7743 23.5656 24.7743C24.2331 24.7743 24.7753 25.3165 24.7753 25.984C24.7753 26.6514 24.2331 27.1936 23.5656 27.1936ZM15.0979 70.742H13.8882C11.8877 70.742 10.2592 69.1136 10.2592 67.113V42.9171C11.2704 43.6779 12.5273 44.1291 13.8882 44.1291H15.0979V70.742ZM67.114 62.2743H17.5173V42.9194C17.5173 42.2502 16.9768 41.7098 16.3076 41.7098H13.8882C11.8877 41.7098 10.2592 40.0813 10.2592 38.0807C10.2592 36.0802 11.8877 34.4517 13.8882 34.4517H25.9921C25.3654 35.9732 24.9602 37.6005 24.8308 39.2904H23.5656C22.8964 39.2904 22.356 39.8309 22.356 40.5001V45.3388C22.356 46.008 22.8964 46.5485 23.5656 46.5485H28.4044C29.0736 46.5485 29.614 46.008 29.614 45.3388V40.5001C29.614 39.8309 29.0736 39.2904 28.4044 39.2904H27.249C27.7499 33.7583 31.6453 29.0117 36.8721 27.5067V28.4033C36.8721 29.0725 37.4126 29.613 38.0818 29.613H42.9205C43.5897 29.613 44.1302 29.0725 44.1302 28.4033V27.5067C49.3569 29.0129 53.2524 33.7583 53.7532 39.2904H52.5979C51.9287 39.2904 51.3882 39.8309 51.3882 40.5001V45.3388C51.3882 46.008 51.9287 46.5485 52.5979 46.5485H57.4366C58.1058 46.5485 58.6463 46.008 58.6463 45.3388V40.5001C58.6463 39.8309 58.1058 39.2904 57.4366 39.2904H56.1726C56.0421 37.6005 55.638 35.9732 55.0114 34.4517H63.485V53.8065C63.485 54.4758 64.0255 55.0162 64.6947 55.0162H67.114C69.1146 55.0162 70.7431 56.6447 70.7431 58.6452C70.7431 60.6458 69.1146 62.2743 67.114 62.2743ZM27.1947 41.7098V44.1291H24.7753V41.7098H27.1947ZM53.8076 41.7098H56.2269V44.1291H53.8076V41.7098ZM70.7431 53.8089C69.7318 53.0481 68.4749 52.5969 67.114 52.5969H65.9044V24.7743H67.114C69.1146 24.7743 70.7431 26.4027 70.7431 28.4033V53.8089Z" fill="white"/>
<path d="M76.7903 3H4.20968C3.54046 3 3 3.54046 3 4.20968V76.7903C3 77.4595 3.54046 78 4.20968 78H76.7903C77.4595 78 78 77.4595 78 76.7903V4.20968C78 3.54046 77.4595 3 76.7903 3ZM75.5807 5.41935V17.5161H5.41935V5.41935H75.5807ZM5.41935 75.5807V19.9355H75.5807V75.5807H5.41935Z" fill="white"/>
<path d="M11.4689 15.0968C13.4695 15.0968 15.0979 13.4683 15.0979 11.4677C15.0979 9.46721 13.4695 7.83875 11.4689 7.83875C9.4683 7.83875 7.83984 9.46721 7.83984 11.4677C7.83984 13.4683 9.4683 15.0968 11.4689 15.0968ZM11.4689 10.2581C12.1363 10.2581 12.6786 10.8003 12.6786 11.4677C12.6786 12.1352 12.1363 12.6774 11.4689 12.6774C10.8014 12.6774 10.2592 12.1352 10.2592 11.4677C10.2592 10.8003 10.8014 10.2581 11.4689 10.2581Z" fill="white"/>
<path d="M21.1447 15.0968C23.1452 15.0968 24.7737 13.4683 24.7737 11.4677C24.7737 9.46721 23.1452 7.83875 21.1447 7.83875C19.1441 7.83875 17.5156 9.46721 17.5156 11.4677C17.5156 13.4683 19.1441 15.0968 21.1447 15.0968ZM21.1447 10.2581C21.8121 10.2581 22.3543 10.8003 22.3543 11.4677C22.3543 12.1352 21.8121 12.6774 21.1447 12.6774C20.4772 12.6774 19.935 12.1352 19.935 11.4677C19.935 10.8003 20.4772 10.2581 21.1447 10.2581Z" fill="white"/>
<path d="M30.8243 15.0968C32.8249 15.0968 34.4534 13.4683 34.4534 11.4677C34.4534 9.46721 32.8249 7.83875 30.8243 7.83875C28.8238 7.83875 27.1953 9.46721 27.1953 11.4677C27.1953 13.4683 28.8238 15.0968 30.8243 15.0968ZM30.8243 10.2581C31.4918 10.2581 32.034 10.8003 32.034 11.4677C32.034 12.1352 31.4918 12.6774 30.8243 12.6774C30.1569 12.6774 29.6147 12.1352 29.6147 11.4677C29.6147 10.8003 30.1569 10.2581 30.8243 10.2581Z" fill="white"/>
<path d="M46.5488 52.5968H48.9681V50.1773H46.9433L48.922 43.2507C49.013 42.9288 48.9681 42.5832 48.7962 42.2961L41.5382 30.1993C41.1017 29.4711 39.9003 29.4711 39.4638 30.1993L32.2057 42.2961C32.0326 42.5832 31.9877 42.9288 32.0799 43.2507L34.0574 50.1773H32.0326V52.5968H34.452V55.0161H29.6133V57.4354H51.3875V55.0161H46.5488V52.5968ZM41.7101 44.129C41.7101 44.7965 41.1678 45.3386 40.5004 45.3386C39.8329 45.3386 39.2907 44.7965 39.2907 44.129C39.2907 43.4616 39.8329 42.9193 40.5004 42.9193C41.1678 42.9193 41.7101 43.4616 41.7101 44.129ZM34.55 43.0923L39.2907 35.1893V40.7226C37.8861 41.2235 36.8713 42.5543 36.8713 44.129C36.8713 46.1296 38.4998 47.758 40.5004 47.758C42.501 47.758 44.1294 46.1296 44.1294 44.129C44.1294 42.5543 43.1147 41.2235 41.7101 40.7226V35.1893L46.4507 43.0912L44.4259 50.1773H36.5737L34.55 43.0923ZM36.8713 52.5968H44.1294V55.0161H36.8713V52.5968Z" fill="white"/>
</svg>
