<svg width="81" height="80" viewBox="0 0 81 80" fill="none" xmlns="http://www.w3.org/2000/svg">
<path d="M73 12V14.5C74.3809 14.5 75.5 15.6191 75.5 17V54.5H5.5V17C5.5 15.6191 6.61906 14.5 8 14.5V12C5.23875 12 3 14.2387 3 17V59.5C3 62.2612 5.23875 64.5 8 64.5H32.57L29.57 74.5H26.75V77H54.25V74.5H51.43L48.43 64.5H73C75.7612 64.5 78 62.2612 78 59.5V17C78 14.2387 75.7612 12 73 12ZM48.82 74.5H32.18L35.18 64.5H45.82L48.82 74.5ZM75.5 59.5C75.5 60.8809 74.3809 62 73 62H8C6.61906 62 5.5 60.8809 5.5 59.5V57H75.5V59.5Z" fill="white"/>
<path d="M15.5 52H65.5C68.2612 52 70.5 49.7612 70.5 47V7C70.5 4.23875 68.2612 2 65.5 2H15.5C12.7387 2 10.5 4.23875 10.5 7V47C10.5 49.7612 12.7387 52 15.5 52ZM13 7C13 5.61906 14.1191 4.5 15.5 4.5H65.5C66.8809 4.5 68 5.61906 68 7V47C68 48.3809 66.8809 49.5 65.5 49.5H15.5C14.1191 49.5 13 48.3809 13 47V7Z" fill="white"/>
<path d="M15.5 12H65.5V14.5H15.5V12Z" fill="white"/>
<path d="M15.5 18.25H26.75V20.75H15.5V18.25Z" fill="white"/>
<path d="M15.5 23.25H24.25V25.75H15.5V23.25Z" fill="white"/>
<path d="M15.5 28.25H23V30.75H15.5V28.25Z" fill="white"/>
<path d="M15.5 33.25H23V35.75H15.5V33.25Z" fill="white"/>
<path d="M15.5 38.25H23V40.75H15.5V38.25Z" fill="white"/>
<path d="M15.5 43.25H26.75V45.75H15.5V43.25Z" fill="white"/>
<path d="M54.25 18.25H65.5V20.75H54.25V18.25Z" fill="white"/>
<path d="M56.75 23.25H65.5V25.75H56.75V23.25Z" fill="white"/>
<path d="M58 28.25H65.5V30.75H58V28.25Z" fill="white"/>
<path d="M58 33.25H65.5V35.75H58V33.25Z" fill="white"/>
<path d="M58 38.25H65.5V40.75H58V38.25Z" fill="white"/>
<path d="M54.25 43.25H65.5V45.75H54.25V43.25Z" fill="white"/>
<path d="M15.5 7H18V9.5H15.5V7Z" fill="white"/>
<path d="M20.5 7H23V9.5H20.5V7Z" fill="white"/>
<path d="M25.5 7H28V9.5H25.5V7Z" fill="white"/>
<path d="M50.6453 36.8412C50.8144 36.485 50.965 36.1213 51.0975 35.75H54.25C54.9406 35.75 55.5 35.1906 55.5 34.5V29.5C55.5 28.8094 54.9406 28.25 54.25 28.25H51.0975C50.965 27.8787 50.8144 27.515 50.6453 27.1587L52.875 24.9288C53.3631 24.4409 53.3631 23.6494 52.875 23.1619L49.3381 19.625C48.8506 19.1369 48.0591 19.1369 47.5712 19.625L45.3412 21.8534C44.985 21.685 44.6213 21.5344 44.25 21.4025V18.25C44.25 17.5594 43.6906 17 43 17H38C37.3094 17 36.75 17.5594 36.75 18.25V21.4025C36.3787 21.535 36.015 21.6856 35.6587 21.8547L33.4288 19.625C32.9409 19.1369 32.1494 19.1369 31.6619 19.625L28.125 23.1619C27.6369 23.6494 27.6369 24.4409 28.125 24.9288L30.3534 27.1587C30.1844 27.515 30.0338 27.8787 29.9016 28.25H26.75C26.0594 28.25 25.5 28.8094 25.5 29.5V34.5C25.5 35.1906 26.0594 35.75 26.75 35.75H29.9025C30.035 36.1213 30.1856 36.485 30.3547 36.8412L28.125 39.0712C27.6369 39.5591 27.6369 40.3506 28.125 40.8381L31.6619 44.375C32.1494 44.8631 32.9409 44.8631 33.4288 44.375L35.6587 42.1466C36.015 42.3156 36.3787 42.4662 36.75 42.5984V45.75C36.75 46.4406 37.3094 47 38 47H43C43.6906 47 44.25 46.4406 44.25 45.75V42.5975C44.6213 42.465 44.985 42.3144 45.3412 42.1453L47.5712 44.375C48.0591 44.8631 48.8506 44.8631 49.3381 44.375L52.875 40.8381C53.3631 40.3506 53.3631 39.5591 52.875 39.0712L50.6453 36.8412ZM48.4547 41.7162L46.455 39.7156C46.0516 39.3125 45.4263 39.2337 44.9344 39.5238C44.2325 39.9375 43.4747 40.2506 42.685 40.455C42.1331 40.5975 41.7475 41.0944 41.7475 41.665V44.5H39.25V41.6722C39.25 41.1025 38.8641 40.6047 38.3125 40.4625C37.5225 40.2587 36.7653 39.945 36.0625 39.5312C35.5712 39.2412 34.9456 39.32 34.5425 39.7244L32.5422 41.7234L30.7753 39.9566L32.775 37.9566C33.1788 37.5528 33.2578 36.9275 32.9681 36.4359C32.5538 35.7337 32.2403 34.9762 32.0359 34.1869C31.8941 33.6347 31.3962 33.2494 30.8266 33.2494H28V30.75H30.8278C31.3975 30.75 31.8953 30.3641 32.0375 29.8125C32.2413 29.0225 32.555 28.2653 32.9688 27.5625C33.2587 27.0712 33.18 26.4456 32.7756 26.0425L30.7766 24.0422L32.5434 22.2753L34.5434 24.275C34.9472 24.6788 35.5725 24.7578 36.0641 24.4681C36.7662 24.0538 37.5237 23.7403 38.3131 23.5359C38.8653 23.3941 39.2506 22.8962 39.2506 22.3266V19.5H41.7506V22.3278C41.7506 22.8975 42.1369 23.3953 42.6881 23.5375C43.4784 23.7413 44.2359 24.055 44.9381 24.4688C45.4297 24.7587 46.0556 24.68 46.4591 24.2756L48.4591 22.2766L50.2262 24.0434L48.2266 26.0434C47.8234 26.4472 47.7437 27.0725 48.0337 27.5641C48.4472 28.2662 48.7612 29.0237 48.965 29.8131C49.1075 30.3653 49.6056 30.7506 50.1753 30.7506H53V33.2506H50.1722C49.6025 33.2506 49.1047 33.6369 48.9625 34.1881C48.7587 34.9784 48.445 35.7359 48.0312 36.4381C47.7412 36.9297 47.82 37.5556 48.2244 37.9591L50.2234 39.9591L48.4547 41.7162Z" fill="white"/>
<path d="M40.5 25.75C37.0484 25.75 34.25 28.5484 34.25 32C34.25 35.4516 37.0484 38.25 40.5 38.25C43.9516 38.25 46.75 35.4516 46.75 32C46.7456 28.55 43.95 25.7544 40.5 25.75ZM40.5 35.75C38.4294 35.75 36.75 34.0706 36.75 32C36.75 29.9294 38.4294 28.25 40.5 28.25C42.5706 28.25 44.25 29.9294 44.25 32C44.25 34.0706 42.5706 35.75 40.5 35.75Z" fill="white"/>
</svg>
