<svg width="80" height="80" viewBox="0 0 80 80" fill="none" xmlns="http://www.w3.org/2000/svg">
<g clip-path="url(#clip0_7942_30530)">
<path d="M35.625 31.25V50.7492H45.3763V55.6231H79.5007V31.25H35.625Z" stroke="white" stroke-width="2" stroke-miterlimit="10" stroke-linecap="round" stroke-linejoin="round"/>
<path d="M40.5002 11.751H25.875V21.5022H40.5002V11.751Z" stroke="white" stroke-width="2" stroke-miterlimit="10" stroke-linecap="round" stroke-linejoin="round"/>
<path d="M21.0002 11.751H6.375V31.2502H21.0002V11.751Z" stroke="white" stroke-width="2" stroke-miterlimit="10" stroke-linecap="round" stroke-linejoin="round"/>
<path d="M30.7505 2H1.5V6.87387H30.7505V2Z" stroke="white" stroke-width="2" stroke-miterlimit="10" stroke-linecap="round" stroke-linejoin="round"/>
<path d="M45.3773 2H40.5V6.87387H45.3773V2Z" stroke="white" stroke-width="2" stroke-miterlimit="10" stroke-linecap="round" stroke-linejoin="round"/>
<path d="M40.499 2H35.625V6.87387H40.499V2Z" stroke="white" stroke-width="2" stroke-miterlimit="10" stroke-linecap="round" stroke-linejoin="round"/>
<path d="M35.6239 2H30.75V6.87387H35.6239V2Z" stroke="white" stroke-width="2" stroke-miterlimit="10" stroke-linecap="round" stroke-linejoin="round"/>
<path d="M74.6244 36.124H40.5V45.8755H74.6244V36.124Z" stroke="white" stroke-width="2" stroke-miterlimit="10" stroke-linecap="round" stroke-linejoin="round"/>
<path d="M64.8755 26.377H35.625V31.2508H64.8755V26.377Z" stroke="white" stroke-width="2" stroke-miterlimit="10" stroke-linecap="round" stroke-linejoin="round"/>
<path d="M79.499 26.377H74.625V31.2508H79.499V26.377Z" stroke="white" stroke-width="2" stroke-miterlimit="10" stroke-linecap="round" stroke-linejoin="round"/>
<path d="M74.624 26.377H69.75V31.2508H74.624V26.377Z" stroke="white" stroke-width="2" stroke-miterlimit="10" stroke-linecap="round" stroke-linejoin="round"/>
<path d="M69.7522 26.377H64.875V31.2508H69.7522V26.377Z" stroke="white" stroke-width="2" stroke-miterlimit="10" stroke-linecap="round" stroke-linejoin="round"/>
<path d="M45.3757 55.623H1.5V79.9996H45.3757V55.623Z" stroke="white" stroke-width="2" stroke-miterlimit="10" stroke-linecap="round" stroke-linejoin="round"/>
<path d="M40.4992 60.501H21V80.0002H40.4992V60.501Z" stroke="white" stroke-width="2" stroke-miterlimit="10" stroke-linecap="round" stroke-linejoin="round"/>
<path d="M16.1263 60.501H6.375V69.033H16.1263V60.501Z" stroke="white" stroke-width="2" stroke-miterlimit="10" stroke-linecap="round" stroke-linejoin="round"/>
<path d="M30.7505 50.75H1.5V55.6239H30.7505V50.75Z" stroke="white" stroke-width="2" stroke-miterlimit="10" stroke-linecap="round" stroke-linejoin="round"/>
<path d="M45.3773 50.75H40.5V55.6239H45.3773V50.75Z" stroke="white" stroke-width="2" stroke-miterlimit="10" stroke-linecap="round" stroke-linejoin="round"/>
<path d="M40.499 50.75H35.625V55.6239H40.499V50.75Z" stroke="white" stroke-width="2" stroke-miterlimit="10" stroke-linecap="round" stroke-linejoin="round"/>
<path d="M35.6239 50.75H30.75V55.6239H35.6239V50.75Z" stroke="white" stroke-width="2" stroke-miterlimit="10" stroke-linecap="round" stroke-linejoin="round"/>
<path d="M16.1263 73.9072H6.375V80.0004H16.1263V73.9072Z" stroke="white" stroke-width="2" stroke-miterlimit="10" stroke-linecap="round" stroke-linejoin="round"/>
<path d="M35.0173 16.6251C35.0173 17.6363 34.1977 18.4523 33.1867 18.4523C32.179 18.4523 31.3594 17.6361 31.3594 16.6251C31.3594 15.6175 32.179 14.7979 33.1867 14.7979C34.1977 14.7979 35.0173 15.6175 35.0173 16.6251Z" stroke="white" stroke-width="2" stroke-miterlimit="10" stroke-linecap="round" stroke-linejoin="round"/>
<path d="M69.1388 41.0015C69.1388 42.0128 68.3192 42.8289 67.3117 42.8289C66.3005 42.8289 65.4844 42.0128 65.4844 41.0015C65.4844 39.9905 66.3007 39.1709 67.3117 39.1709C68.3192 39.1709 69.1388 39.9905 69.1388 41.0015Z" stroke="white" stroke-width="2" stroke-miterlimit="10" stroke-linecap="round" stroke-linejoin="round"/>
<path d="M67.3129 42.8291V67.8136H45.375H67.3129V42.8291Z" stroke="white" stroke-width="2" stroke-miterlimit="10" stroke-linecap="round" stroke-linejoin="round"/>
<path d="M57.5615 26.3763V16.625H35.0156H57.5615V26.3763Z" stroke="white" stroke-width="2" stroke-miterlimit="10" stroke-linecap="round" stroke-linejoin="round"/>
<path d="M74.6242 50.75H55.125V55.6273H74.6242V50.75Z" stroke="white" stroke-width="2" stroke-miterlimit="10" stroke-linecap="round" stroke-linejoin="round"/>
<path d="M35.6242 26.3732H45.3756V6.87402H1.5V31.2505H35.6242V26.3732Z" stroke="white" stroke-width="2" stroke-miterlimit="10" stroke-linecap="round" stroke-linejoin="round"/>
</g>
<defs>
<clipPath id="clip0_7942_30530">
<rect width="80" height="80" fill="white"/>
</clipPath>
</defs>
</svg>
