<svg width="64" height="64" viewBox="0 0 64 64" fill="none" xmlns="http://www.w3.org/2000/svg">
<path d="M54.0445 31.2887C50.8445 27.9109 46.5778 25.5998 42.1333 24.7109C40.1778 24.1776 38.2222 23.822 36.2667 23.6443C41.2445 17.7776 40.3556 8.8887 34.4889 3.91092C28.6222 -1.06685 19.7333 -0.177966 14.7556 5.6887C9.77779 11.5554 10.6667 20.4443 16.5333 25.422C17.6 26.3109 18.6667 27.022 19.7333 27.3776V31.2887L16.8889 28.622C14.4 26.1331 10.3111 26.1331 7.64446 28.622C5.15557 31.1109 4.97779 35.022 7.46668 37.5109L15.6445 47.1109C16 49.5998 16.8889 51.9109 18.1333 54.0443C19.0222 55.6443 20.2667 57.2443 21.5111 58.4887V61.8665C21.5111 62.9331 22.2222 63.6443 23.2889 63.6443H47.4667C48.3556 63.6443 49.2445 62.7554 49.2445 61.8665V57.2443C52.6222 53.1554 54.4 47.9998 54.4 42.8443V32.5331C54.5778 31.822 54.4 31.4665 54.0445 31.2887V31.2887ZM14.9333 14.5776C14.9333 8.71092 19.7333 4.0887 25.6 4.26648C31.4667 4.26648 36.0889 9.06648 35.9111 14.9331C35.9111 18.1331 34.4889 20.9776 32 22.9331V14.0443C31.9092 12.5036 31.2325 11.056 30.1087 9.99824C28.9848 8.94048 27.4989 8.35269 25.9556 8.35537C22.7556 8.17759 19.9111 10.8443 19.9111 14.0443V23.2887C16.8889 21.5109 15.1111 18.1331 14.9333 14.5776ZM51.0222 42.6665C51.2 47.2887 49.6 51.7331 46.5778 55.2887C46.2222 55.6443 45.8667 55.9998 45.8667 56.5331V60.2665H25.2445V57.7776C25.2445 57.2443 24.8889 56.7109 24.5333 56.3554C23.2889 55.2887 22.2222 54.0443 21.3333 52.4443C20.2667 50.6665 19.5556 48.5331 19.2 46.3998C19.2 46.0443 19.0222 45.6887 18.8445 45.3331L10.3111 35.1998C9.77779 34.6665 9.42224 33.9554 9.42224 33.0665C9.42224 32.3554 9.77779 31.4665 10.3111 30.9331C11.5556 29.8665 13.3333 29.8665 14.5778 30.9331L19.7333 36.0887V41.422L23.1111 39.6443V14.0443C23.2889 12.7998 24.3556 11.7331 25.7778 11.9109C27.0222 11.9109 28.2667 12.7998 28.2667 14.0443V34.4887L31.8222 35.1998V27.022C32 26.8443 32.1778 26.8443 32.3556 26.6665C33.6 26.6665 34.8445 26.8443 36.0889 27.022V36.0887L38.9333 36.622V27.3776L41.0667 27.9109C41.9556 28.0887 42.8445 28.4443 43.7333 28.7998V37.6887L46.5778 38.222V30.0443C48.1778 30.7554 49.6 31.822 50.8445 33.0665L51.0222 42.6665V42.6665Z" fill="black"/>
</svg>
