<svg width="70" height="70" viewBox="0 0 70 70" fill="none" xmlns="http://www.w3.org/2000/svg">
<path d="M35 6.5625C27.4579 6.5625 20.2247 9.55859 14.8917 14.8917C9.55859 20.2247 6.5625 27.4579 6.5625 35C6.5625 42.5421 9.55859 49.7753 14.8917 55.1083C20.2247 60.4414 27.4579 63.4375 35 63.4375C37.8367 63.4453 40.6581 63.0212 43.3672 62.1797C43.7151 62.0898 44.0289 61.8996 44.2695 61.6328L61.6328 44.2695C61.8938 44.0241 62.0829 43.7121 62.1797 43.3672C63.0212 40.6581 63.4453 37.8367 63.4375 35C63.423 27.4623 60.4223 20.2376 55.0924 14.9076C49.7624 9.57768 42.5377 6.57695 35 6.5625V6.5625ZM58.1602 41.5625L41.5625 58.1602C36.4441 59.6058 30.9907 59.3128 26.0566 57.3271C21.1225 55.3415 16.9864 51.7753 14.2961 47.1872C11.6058 42.5991 10.5134 37.2483 11.1899 31.9728C11.8663 26.6973 14.2735 21.7953 18.0344 18.0344C21.7953 14.2735 26.6973 11.8663 31.9728 11.1899C37.2483 10.5134 42.5991 11.6058 47.1872 14.2961C51.7753 16.9864 55.3415 21.1225 57.3271 26.0566C59.3128 30.9907 59.6058 36.4441 58.1602 41.5625V41.5625ZM21.875 29.5312C21.875 28.8823 22.0674 28.2479 22.428 27.7083C22.7885 27.1687 23.301 26.7481 23.9006 26.4998C24.5001 26.2514 25.1599 26.1864 25.7964 26.313C26.4329 26.4397 27.0176 26.7522 27.4764 27.2111C27.9353 27.6699 28.2478 28.2546 28.3745 28.8911C28.5011 29.5276 28.4361 30.1874 28.1877 30.7869C27.9394 31.3865 27.5188 31.899 26.9792 32.2595C26.4396 32.6201 25.8052 32.8125 25.1562 32.8125C24.286 32.8125 23.4514 32.4668 22.8361 31.8514C22.2207 31.2361 21.875 30.4015 21.875 29.5312ZM41.5625 29.5312C41.5625 28.8823 41.7549 28.2479 42.1155 27.7083C42.476 27.1687 42.9885 26.7481 43.5881 26.4998C44.1876 26.2514 44.8474 26.1864 45.4839 26.313C46.1204 26.4397 46.7051 26.7522 47.1639 27.2111C47.6228 27.6699 47.9353 28.2546 48.062 28.8911C48.1886 29.5276 48.1236 30.1874 47.8752 30.7869C47.6269 31.3865 47.2063 31.899 46.6667 32.2595C46.1271 32.6201 45.4927 32.8125 44.8438 32.8125C43.9735 32.8125 43.1389 32.4668 42.5236 31.8514C41.9082 31.2361 41.5625 30.4015 41.5625 29.5312ZM48.2617 42.6562C46.9179 44.9844 44.9848 46.9177 42.6569 48.2619C40.3289 49.6061 37.6881 50.3137 35 50.3137C32.3119 50.3137 29.6711 49.6061 27.3431 48.2619C25.0152 46.9177 23.0821 44.9844 21.7383 42.6562C21.5671 42.4079 21.4491 42.1268 21.3918 41.8306C21.3344 41.5345 21.3389 41.2297 21.405 40.9353C21.4712 40.641 21.5974 40.3636 21.7759 40.1204C21.9544 39.8772 22.1813 39.6736 22.4423 39.5223C22.7032 39.371 22.9927 39.2753 23.2924 39.2413C23.5921 39.2072 23.8957 39.2355 24.1839 39.3244C24.4722 39.4133 24.739 39.5608 24.9675 39.7578C25.196 39.9547 25.3813 40.1968 25.5117 40.4688C26.4751 42.1321 27.8588 43.5129 29.5241 44.4729C31.1894 45.4328 33.0778 45.9381 35 45.9381C36.9222 45.9381 38.8106 45.4328 40.4759 44.4729C42.1412 43.5129 43.5249 42.1321 44.4883 40.4688C44.8008 40.0154 45.2727 39.6966 45.8099 39.5759C46.3471 39.4552 46.9101 39.5416 47.3865 39.8177C47.8628 40.0939 48.2175 40.5395 48.3797 41.0657C48.542 41.5918 48.4998 42.1598 48.2617 42.6562Z" fill="black"/>
</svg>
