<svg width="64" height="64" viewBox="0 0 64 64" fill="none" xmlns="http://www.w3.org/2000/svg">
<rect width="64" height="64" rx="12" fill="#A2AAB8"/>
<path d="M42.0084 19.7547L40.9475 18.6943L38.8267 20.8162L39.8876 21.8766L42.0084 19.7547ZM44.1236 26.1106L45.1845 27.171L47.3053 25.0492L46.2444 23.9887L44.1236 26.1106ZM32.218 28.5397L33.2779 29.6011L33.2787 29.6003L32.218 28.5397ZM31.058 30.7037L29.5873 30.4085L29.5871 30.4098L31.058 30.7037ZM30 35.9997L28.5291 35.7058C28.4308 36.1976 28.5848 36.7059 28.9395 37.0605C29.2942 37.4151 29.8026 37.5689 30.2944 37.4705L30 35.9997ZM35.296 34.9397L35.0018 33.4688L35.0016 33.4688L35.296 34.9397ZM37.46 33.7817L36.3993 32.721L36.3993 32.721L37.46 33.7817ZM48.914 22.3277L49.9747 23.3883L49.9747 23.3883L48.914 22.3277ZM46.293 16L46.293 17.5L46.293 16ZM39.8876 21.8766L44.1236 26.1106L46.2444 23.9887L42.0084 19.7547L39.8876 21.8766ZM42.6113 16.025L31.1573 27.479L33.2787 29.6003L44.7327 18.1463L42.6113 16.025ZM31.1581 27.4783C30.3567 28.2785 29.8101 29.2981 29.5873 30.4085L32.5287 30.9988C32.635 30.4691 32.8957 29.9828 33.2779 29.6011L31.1581 27.4783ZM29.5871 30.4098L28.5291 35.7058L31.4709 36.2935L32.5289 30.9975L29.5871 30.4098ZM30.2944 37.4705L35.5904 36.4105L35.0016 33.4688L29.7056 34.5288L30.2944 37.4705ZM35.5902 36.4105C36.7002 36.1885 37.719 35.6439 38.5207 34.8423L36.3993 32.721C36.017 33.1034 35.5318 33.3628 35.0018 33.4688L35.5902 36.4105ZM38.5207 34.8423L49.9747 23.3883L47.8533 21.267L36.3993 32.721L38.5207 34.8423ZM49.9747 23.3883C50.4581 22.9048 50.8417 22.3309 51.1033 21.6992L48.3317 20.5511C48.2208 20.8188 48.0582 21.0621 47.8533 21.267L49.9747 23.3883ZM51.1033 21.6992C51.365 21.0674 51.4997 20.3904 51.4997 19.7067L48.4997 19.7067C48.4997 19.9964 48.4426 20.2834 48.3317 20.5511L51.1033 21.6992ZM51.4997 19.7067C51.4997 19.0229 51.365 18.3459 51.1033 17.7142L48.3317 18.8622C48.4426 19.1299 48.4997 19.4169 48.4997 19.7067L51.4997 19.7067ZM51.1033 17.7142C50.8417 17.0825 50.4581 16.5085 49.9747 16.025L47.8533 18.1463C48.0582 18.3512 48.2208 18.5945 48.3317 18.8622L51.1033 17.7142ZM49.9747 16.025C49.4912 15.5415 48.9172 15.158 48.2855 14.8963L47.1375 17.668C47.4052 17.7789 47.6484 17.9414 47.8533 18.1463L49.9747 16.025ZM48.2855 14.8963C47.6538 14.6347 46.9767 14.5 46.293 14.5L46.293 17.5C46.5828 17.5 46.8697 17.5571 47.1375 17.668L48.2855 14.8963ZM46.293 14.5C45.6093 14.5 44.9322 14.6347 44.3005 14.8963L45.4485 17.668C45.7163 17.5571 46.0032 17.5 46.293 17.5L46.293 14.5ZM44.3005 14.8963C43.6688 15.158 43.0948 15.5415 42.6113 16.025L44.7327 18.1463C44.9376 17.9414 45.1808 17.7789 45.4485 17.668L44.3005 14.8963Z" fill="white"/>
<path d="M47.5 40V38.5H44.5V40H47.5ZM16 46H14.5H16ZM20 20L20 18.5L20 20ZM26 21.5H27.5V18.5H26V21.5ZM44.5 40V46H47.5V40H44.5ZM44.5 46C44.5 46.663 44.2366 47.2989 43.7678 47.7678L45.8891 49.8891C46.9205 48.8576 47.5 47.4587 47.5 46H44.5ZM43.7678 47.7678C43.2989 48.2366 42.663 48.5 42 48.5V51.5C43.4587 51.5 44.8576 50.9205 45.8891 49.8891L43.7678 47.7678ZM42 48.5H20V51.5H42V48.5ZM20 48.5C19.337 48.5 18.7011 48.2366 18.2322 47.7678L16.1109 49.8891C17.1424 50.9205 18.5413 51.5 20 51.5V48.5ZM18.2322 47.7678C17.7634 47.2989 17.5 46.663 17.5 46H14.5C14.5 47.4587 15.0795 48.8576 16.1109 49.8891L18.2322 47.7678ZM17.5 46V24H14.5V46H17.5ZM17.5 24C17.5 23.337 17.7634 22.7011 18.2322 22.2322L16.1109 20.1109C15.0795 21.1424 14.5 22.5413 14.5 24H17.5ZM18.2322 22.2322C18.7011 21.7634 19.337 21.5 20 21.5L20 18.5C18.5413 18.5 17.1424 19.0795 16.1109 20.1109L18.2322 22.2322ZM20 21.5H26V18.5H20V21.5Z" fill="white"/>
</svg>
