<svg width="64" height="64" viewBox="0 0 64 64" fill="none" xmlns="http://www.w3.org/2000/svg">
<rect width="64" height="64" rx="12" fill="#A2AAB8"/>
<path d="M48.5341 31.4665C46.1341 28.9332 42.9341 27.1999 39.6007 26.5332C38.1341 26.1332 36.6674 25.8665 35.2007 25.7332C38.9341 21.3332 38.2674 14.6665 33.8674 10.9332C29.4674 7.19986 22.8007 7.86653 19.0674 12.2665C15.3341 16.6665 16.0007 23.3332 20.4007 27.0665C21.2007 27.7332 22.0007 28.2665 22.8007 28.5332V31.4665L20.6674 29.4665C18.8007 27.5999 15.7341 27.5999 13.7341 29.4665C11.8674 31.3332 11.7341 34.2665 13.6007 36.1332L19.7341 43.3332C20.0007 45.1999 20.6674 46.9332 21.6007 48.5332C22.2674 49.7332 23.2007 50.9332 24.1341 51.8665V54.3999C24.1341 55.1999 24.6674 55.7332 25.4674 55.7332H43.6007C44.2674 55.7332 44.9341 55.0665 44.9341 54.3999V50.9332C47.4674 47.8665 48.8007 43.9999 48.8007 40.1332V32.3999C48.9341 31.8665 48.8007 31.5999 48.5341 31.4665V31.4665ZM19.2007 18.9332C19.2007 14.5332 22.8007 11.0665 27.2007 11.1999C31.6007 11.1999 35.0674 14.7999 34.9341 19.1999C34.9341 21.5999 33.8674 23.7332 32.0007 25.1999V18.5332C31.9327 17.3777 31.4251 16.292 30.5822 15.4987C29.7393 14.7054 28.6249 14.2645 27.4674 14.2665C25.0674 14.1332 22.9341 16.1332 22.9341 18.5332V25.4665C20.6674 24.1332 19.3341 21.5999 19.2007 18.9332ZM46.2674 39.9999C46.4007 43.4665 45.2007 46.7999 42.9341 49.4665C42.6674 49.7332 42.4007 49.9999 42.4007 50.3999V53.1999H26.9341V51.3332C26.9341 50.9332 26.6674 50.5332 26.4007 50.2665C25.4674 49.4665 24.6674 48.5332 24.0007 47.3332C23.2007 45.9999 22.6674 44.3999 22.4007 42.7999C22.4007 42.5332 22.2674 42.2665 22.1341 41.9999L15.7341 34.3999C15.3341 33.9999 15.0674 33.4665 15.0674 32.7999C15.0674 32.2665 15.3341 31.5999 15.7341 31.1999C16.6674 30.3999 18.0007 30.3999 18.9341 31.1999L22.8007 35.0665V39.0665L25.3341 37.7332V18.5332C25.4674 17.5999 26.2674 16.7999 27.3341 16.9332C28.2674 16.9332 29.2007 17.5999 29.2007 18.5332V33.8665L31.8674 34.3999V28.2665C32.0007 28.1332 32.1341 28.1332 32.2674 27.9999C33.2007 27.9999 34.1341 28.1332 35.0674 28.2665V35.0665L37.2007 35.4665V28.5332L38.8007 28.9332C39.4674 29.0665 40.1341 29.3332 40.8007 29.5999V36.2665L42.9341 36.6665V30.5332C44.1341 31.0665 45.2007 31.8665 46.1341 32.7999L46.2674 39.9999V39.9999Z" fill="white"/>
</svg>
