<svg width="80" height="80" viewBox="0 0 80 80" fill="none" xmlns="http://www.w3.org/2000/svg">
<path d="M71.75 11.75H69.3125C68.9893 11.75 68.6793 11.8784 68.4507 12.107C68.2222 12.3355 68.0938 12.6455 68.0938 12.9688C68.0938 13.292 68.2222 13.602 68.4507 13.8305C68.6793 14.0591 68.9893 14.1875 69.3125 14.1875H71.75C72.3965 14.1875 73.0165 14.4443 73.4736 14.9014C73.9307 15.3585 74.1875 15.9785 74.1875 16.625V53.1875H63.2188V20.2496C63.9729 19.6867 64.5857 18.956 65.0088 18.1154C65.4318 17.2748 65.6535 16.3473 65.6562 15.4062V10.5312C65.6455 10.2922 65.5751 10.0597 65.4515 9.85484L60.5765 2.54234C60.4652 2.37548 60.3144 2.23867 60.1375 2.14406C59.9606 2.04945 59.7631 1.99997 59.5625 2H20.5625C20.3619 1.99997 20.1644 2.04945 19.9875 2.14406C19.8106 2.23867 19.6598 2.37548 19.5485 2.54234L14.6735 9.85484C14.5499 10.0597 14.4795 10.2922 14.4688 10.5312V15.4062C14.4715 16.3473 14.6932 17.2748 15.1162 18.1154C15.5393 18.956 16.1521 19.6867 16.9062 20.2496V53.1875H5.9375V16.625C5.9375 15.9785 6.19431 15.3585 6.65143 14.9014C7.10855 14.4443 7.72853 14.1875 8.375 14.1875H10.8125C11.1357 14.1875 11.4457 14.0591 11.6743 13.8305C11.9028 13.602 12.0312 13.292 12.0312 12.9688C12.0312 12.6455 11.9028 12.3355 11.6743 12.107C11.4457 11.8784 11.1357 11.75 10.8125 11.75H8.375C7.08207 11.75 5.84209 12.2636 4.92785 13.1779C4.01361 14.0921 3.5 15.3321 3.5 16.625V58.0625C3.5 59.3554 4.01361 60.5954 4.92785 61.5096C5.84209 62.4239 7.08207 62.9375 8.375 62.9375H27.5325L25.7044 70.25H19.3438C19.0205 70.25 18.7105 70.3784 18.482 70.607C18.2534 70.8355 18.125 71.1455 18.125 71.4688V78.7812C18.125 79.1045 18.2534 79.4145 18.482 79.643C18.7105 79.8716 19.0205 80 19.3438 80H60.7812C61.1045 80 61.4145 79.8716 61.643 79.643C61.8716 79.4145 62 79.1045 62 78.7812V71.4688C62 71.1455 61.8716 70.8355 61.643 70.607C61.4145 70.3784 61.1045 70.25 60.7812 70.25H54.4206L52.5925 62.9375H71.75C73.0429 62.9375 74.2829 62.4239 75.1971 61.5096C76.1114 60.5954 76.625 59.3554 76.625 58.0625V16.625C76.625 15.3321 76.1114 14.0921 75.1971 13.1779C74.2829 12.2636 73.0429 11.75 71.75 11.75V11.75ZM63.2188 15.4062C63.2188 16.3759 62.8335 17.3059 62.1479 17.9916C61.4622 18.6773 60.5322 19.0625 59.5625 19.0625C58.5928 19.0625 57.6628 18.6773 56.9771 17.9916C56.2915 17.3059 55.9062 16.3759 55.9062 15.4062V11.75H63.2188V15.4062ZM53.4688 15.4062C53.4688 16.3759 53.0835 17.3059 52.3979 17.9916C51.7122 18.6773 50.7822 19.0625 49.8125 19.0625C48.8428 19.0625 47.9128 18.6773 47.2271 17.9916C46.5415 17.3059 46.1562 16.3759 46.1562 15.4062V11.75H53.4688V15.4062ZM43.7188 15.4062C43.7188 16.3759 43.3335 17.3059 42.6479 17.9916C41.9622 18.6773 41.0322 19.0625 40.0625 19.0625C39.0928 19.0625 38.1628 18.6773 37.4771 17.9916C36.7915 17.3059 36.4063 16.3759 36.4062 15.4062V11.75H43.7188V15.4062ZM33.9688 15.4062C33.9688 16.3759 33.5835 17.3059 32.8979 17.9916C32.2122 18.6773 31.2822 19.0625 30.3125 19.0625C29.3428 19.0625 28.4128 18.6773 27.7271 17.9916C27.0415 17.3059 26.6563 16.3759 26.6562 15.4062V11.75H33.9688V15.4062ZM16.9062 15.4062V11.75H24.2188V15.4062C24.2187 16.3759 23.8335 17.3059 23.1479 17.9916C22.4622 18.6773 21.5322 19.0625 20.5625 19.0625C19.5928 19.0625 18.6628 18.6773 17.9771 17.9916C17.2915 17.3059 16.9062 16.3759 16.9062 15.4062ZM35.9334 4.4375L34.3088 9.3125H27.4094L29.8469 4.4375H35.9334ZM41.6213 4.4375L43.2459 9.3125H36.8791L38.5037 4.4375H41.6213ZM50.2744 4.4375L52.7119 9.3125H45.8162L44.1916 4.4375H50.2744ZM62.156 9.3125H55.4407L53.0032 4.4375H58.9105L62.156 9.3125ZM21.206 4.4375H27.1133L24.6758 9.3125H17.9653L21.206 4.4375ZM19.3438 21.3781C20.4781 21.6106 21.6553 21.5125 22.7355 21.0955C23.8157 20.6786 24.7535 19.9603 25.4375 19.0259C25.998 19.793 26.7316 20.417 27.5787 20.8472C28.4258 21.2774 29.3624 21.5016 30.3125 21.5016C31.2626 21.5016 32.1992 21.2774 33.0463 20.8472C33.8934 20.417 34.627 19.793 35.1875 19.0259C35.748 19.793 36.4816 20.417 37.3287 20.8472C38.1758 21.2774 39.1124 21.5016 40.0625 21.5016C41.0126 21.5016 41.9492 21.2774 42.7963 20.8472C43.6434 20.417 44.377 19.793 44.9375 19.0259C45.498 19.793 46.2316 20.417 47.0787 20.8472C47.9258 21.2774 48.8624 21.5016 49.8125 21.5016C50.7626 21.5016 51.6992 21.2774 52.5463 20.8472C53.3934 20.417 54.127 19.793 54.6875 19.0259C55.3715 19.9603 56.3093 20.6786 57.3895 21.0955C58.4697 21.5125 59.6469 21.6106 60.7812 21.3781V53.1875H38.8438V30.0312C38.8438 29.708 38.7153 29.398 38.4868 29.1695C38.2582 28.9409 37.9482 28.8125 37.625 28.8125H24.2188C23.8955 28.8125 23.5855 28.9409 23.357 29.1695C23.1284 29.398 23 29.708 23 30.0312V53.1875H19.3438V21.3781ZM36.4062 53.1875H25.4375V31.25H36.4062V53.1875ZM59.5625 77.5625H20.5625V72.6875H59.5625V77.5625ZM51.9075 70.25H28.2175L30.0456 62.9375H50.0794L51.9075 70.25ZM74.1875 58.0625C74.1875 58.709 73.9307 59.329 73.4736 59.7861C73.0165 60.2432 72.3965 60.5 71.75 60.5H8.375C7.72853 60.5 7.10855 60.2432 6.65143 59.7861C6.19431 59.329 5.9375 58.709 5.9375 58.0625V55.625H74.1875V58.0625Z" fill="white"/>
<path d="M10.8125 56.8438H8.375C8.05177 56.8438 7.74177 56.9722 7.51321 57.2007C7.28465 57.4293 7.15625 57.7393 7.15625 58.0625C7.15625 58.3857 7.28465 58.6957 7.51321 58.9243C7.74177 59.1528 8.05177 59.2812 8.375 59.2812H10.8125C11.1357 59.2812 11.4457 59.1528 11.6743 58.9243C11.9028 58.6957 12.0312 58.3857 12.0312 58.0625C12.0312 57.7393 11.9028 57.4293 11.6743 57.2007C11.4457 56.9722 11.1357 56.8438 10.8125 56.8438V56.8438Z" fill="white"/>
<path d="M27.875 56.844C14.0202 56.844 13.25 56.4247 13.25 58.0627C13.25 58.3859 13.3784 58.6959 13.607 58.9245C13.8355 59.1531 14.1455 59.2815 14.4688 59.2815H27.875C28.1982 59.2815 28.5082 59.1531 28.7368 58.9245C28.9653 58.6959 29.0938 58.3859 29.0938 58.0627C29.0938 57.7395 28.9653 57.4295 28.7368 57.2009C28.5082 56.9724 28.1982 56.844 27.875 56.844Z" fill="white"/>
<path d="M43.7188 41H55.9062C56.2295 41 56.5395 40.8716 56.768 40.643C56.9966 40.4145 57.125 40.1045 57.125 39.7812V30.0312C57.125 29.708 56.9966 29.398 56.768 29.1695C56.5395 28.9409 56.2295 28.8125 55.9062 28.8125H43.7188C43.3955 28.8125 43.0855 28.9409 42.857 29.1695C42.6284 29.398 42.5 29.708 42.5 30.0312V39.7812C42.5 40.1045 42.6284 40.4145 42.857 40.643C43.0855 40.8716 43.3955 41 43.7188 41ZM44.9375 36.125H48.5938V38.5625H44.9375V36.125ZM51.0312 38.5625V36.125H54.6875V38.5625H51.0312ZM54.6875 33.6875H51.0312V31.25H54.6875V33.6875ZM48.5938 31.25V33.6875H44.9375V31.25H48.5938Z" fill="white"/>
<path d="M33.9688 43.4375C34.292 43.4375 34.602 43.3091 34.8305 43.0805C35.0591 42.852 35.1875 42.542 35.1875 42.2188V41C35.1875 40.6768 35.0591 40.3668 34.8305 40.1382C34.602 39.9097 34.292 39.7812 33.9688 39.7812C33.6455 39.7812 33.3355 39.9097 33.107 40.1382C32.8784 40.3668 32.75 40.6768 32.75 41V42.2188C32.75 42.542 32.8784 42.852 33.107 43.0805C33.3355 43.3091 33.6455 43.4375 33.9688 43.4375Z" fill="white"/>
</svg>
