<svg width="70" height="70" viewBox="0 0 70 70" fill="none" xmlns="http://www.w3.org/2000/svg">
<path d="M43.7489 64.1868H14.5822V58.3534H43.7489V64.1868ZM64.1656 11.6663L50.3551 29.0351L49.7135 29.8226L33.2926 50.7934C32.7507 51.3354 32.1073 51.7653 31.3991 52.0586C30.691 52.352 29.932 52.5029 29.1656 52.5029C28.3991 52.5029 27.6401 52.352 26.932 52.0586C26.2239 51.7653 25.5805 51.3354 25.0385 50.7934C24.4965 50.2514 24.0666 49.608 23.7733 48.8999C23.48 48.1918 23.329 47.4328 23.329 46.6663C23.329 45.8999 23.48 45.1409 23.7733 44.4328C24.0666 43.7247 24.4965 43.0812 25.0385 42.5393L64.1656 11.6663ZM7.71348 21.0988C3.50045 27.8467 1.98518 35.9344 3.46973 43.7497H5.83223V40.833C5.80045 35.09 7.51991 29.4738 10.7614 24.733L7.71348 21.0988ZM34.9989 5.83301C30.5384 5.83202 26.1271 6.7647 22.0487 8.57106C17.9703 10.3774 14.3152 13.0175 11.3185 16.3213L14.6551 20.2997C18.6146 16.6589 23.7868 14.6212 29.1656 14.583C34.5733 14.6207 39.7717 16.6784 43.7401 20.3522L54.0943 12.1797C48.5807 8.05917 41.8821 5.83278 34.9989 5.83301ZM54.9197 32.6663L54.2401 33.5034L52.1168 36.2159C52.365 37.7426 52.4927 39.2863 52.4989 40.833V43.7497H66.5281C67.9121 36.4504 66.6911 28.8969 63.0776 22.4055L54.9197 32.6663Z" fill="black"/>
</svg>
