<svg width="81" height="80" viewBox="0 0 81 80" fill="none" xmlns="http://www.w3.org/2000/svg">
<path d="M8.99745 23.5147H12.2455C12.8757 23.5147 13.3869 23.0035 13.3869 22.3733C13.3869 21.7425 12.8757 21.2313 12.2455 21.2313H8.99745C8.36665 21.2313 7.85547 21.7425 7.85547 22.3733C7.85547 23.0035 8.36665 23.5147 8.99745 23.5147Z" fill="white"/>
<path d="M35.7008 21.2313H15.8836C15.2534 21.2313 14.7422 21.7425 14.7422 22.3733C14.7422 23.0035 15.2534 23.5147 15.8836 23.5147H35.7008C36.3316 23.5147 36.8427 23.0035 36.8427 22.3733C36.8427 21.7425 36.3316 21.2313 35.7008 21.2313Z" fill="white"/>
<path d="M32.6898 27.0181H25.4428C24.812 27.0181 24.3008 27.5287 24.3008 28.1595C24.3008 28.7903 24.812 29.3008 25.4428 29.3008H32.6898C33.32 29.3008 33.8312 28.7903 33.8312 28.1595C33.8312 27.5287 33.32 27.0181 32.6898 27.0181Z" fill="white"/>
<path d="M21.6543 27.0181H19.3953C18.7651 27.0181 18.2539 27.5287 18.2539 28.1595C18.2539 28.7903 18.7651 29.3008 19.3953 29.3008H21.6543C22.2851 29.3008 22.7962 28.7903 22.7962 28.1595C22.7962 27.5287 22.2851 27.0181 21.6543 27.0181Z" fill="white"/>
<path d="M15.7577 27.0181H8.99745C8.36665 27.0181 7.85547 27.5287 7.85547 28.1595C7.85547 28.7903 8.36665 29.3008 8.99745 29.3008H15.7577C16.3879 29.3008 16.8991 28.7903 16.8991 28.1595C16.8991 27.5287 16.3879 27.0181 15.7577 27.0181Z" fill="white"/>
<path d="M7.07031 8.73209C7.07031 10.5793 8.57292 12.0819 10.4201 12.0819C12.2673 12.0819 13.7705 10.5793 13.7705 8.73209C13.7705 6.88492 12.2673 5.38171 10.4201 5.38171C8.57292 5.38171 7.07031 6.88492 7.07031 8.73209ZM11.4871 8.73209C11.4871 9.32004 11.008 9.79909 10.4201 9.79909C9.83154 9.79909 9.35309 9.32004 9.35309 8.73209C9.35309 8.14354 9.83154 7.66508 10.4201 7.66508C11.008 7.66508 11.4871 8.14354 11.4871 8.73209Z" fill="white"/>
<path d="M15.5977 8.73209C15.5977 10.5793 17.1009 12.0819 18.948 12.0819C20.7952 12.0819 22.2978 10.5793 22.2978 8.73209C22.2978 6.88492 20.7952 5.38171 18.948 5.38171C17.1009 5.38171 15.5977 6.88492 15.5977 8.73209ZM20.0144 8.73209C20.0144 9.32004 19.536 9.79909 18.9474 9.79909C18.3595 9.79909 17.8804 9.32004 17.8804 8.73209C17.8804 8.14354 18.3595 7.66508 18.9474 7.66508C19.536 7.66508 20.0144 8.14354 20.0144 8.73209Z" fill="white"/>
<path d="M24.1289 8.73209C24.1289 10.5793 25.6315 12.0819 27.4787 12.0819C29.3259 12.0819 30.8285 10.5793 30.8285 8.73209C30.8285 6.88492 29.3259 5.38171 27.4787 5.38171C25.6315 5.38171 24.1289 6.88492 24.1289 8.73209ZM28.5457 8.73209C28.5457 9.32004 28.0672 9.79909 27.4787 9.79909C26.8907 9.79909 26.4117 9.32004 26.4117 8.73209C26.4117 8.14354 26.8907 7.66508 27.4787 7.66508C28.0672 7.66508 28.5457 8.14354 28.5457 8.73209Z" fill="white"/>
<path d="M65.4428 76.0627H69.2531C69.8833 76.0627 70.3945 75.5515 70.3945 74.9213C70.3945 74.2905 69.8833 73.7793 69.2531 73.7793H65.4428C64.812 73.7793 64.3008 74.2905 64.3008 74.9213C64.3008 75.5515 64.812 76.0627 65.4428 76.0627Z" fill="white"/>
<path d="M65.1117 36.6259H63.7976C63.1674 36.6259 62.6562 37.1364 62.6562 37.7672C62.6562 38.398 63.1674 38.9086 63.7976 38.9086H65.1117C65.7425 38.9086 66.2537 38.398 66.2537 37.7672C66.2537 37.1364 65.7425 36.6259 65.1117 36.6259Z" fill="white"/>
<path d="M70.8993 36.6259H68.3172C67.687 36.6259 67.1758 37.1364 67.1758 37.7672C67.1758 38.398 67.687 38.9086 68.3172 38.9086H70.8993C71.5295 38.9086 72.0407 38.398 72.0407 37.7672C72.0407 37.1364 71.5295 36.6259 70.8993 36.6259Z" fill="white"/>
<path d="M79.9131 6.02437C79.9131 3.25421 77.6595 1 74.8893 1H65.1501C64.5193 1 64.0087 1.51118 64.0087 2.14139C64.0087 2.77219 64.5193 3.28337 65.1501 3.28337H74.8893C76.4009 3.28337 77.6303 4.51283 77.6303 6.02437V14.245H4.28337V6.02437C4.28337 4.51283 5.51283 3.28337 7.02437 3.28337H58.047C58.6778 3.28337 59.1884 2.77219 59.1884 2.14139C59.1884 1.51118 58.6778 1 58.047 1H7.02437C4.25362 1 2 3.25421 2 6.02437V61.2591C2 64.0293 4.25362 66.2835 7.02437 66.2835H29.2368V70.3771H25.79C23.4906 70.3771 21.6202 72.2481 21.6202 74.5469V77.013C21.6202 78.0621 22.4736 78.9161 23.5227 78.9161L76.4294 78.9857C78.3986 78.9857 80 77.3837 80 75.4152V71.8035L79.9131 6.02437ZM7.02437 64.0001C5.51283 64.0001 4.28337 62.7706 4.28337 61.2591V56.9292H54.699V64.0001H7.02437ZM52.6763 66.2835H54.699V70.3771H52.6763V66.2835ZM50.3935 66.2835V70.3771H31.5196V66.2835H50.3935ZM23.903 76.6327V74.5469C23.903 73.5073 24.7498 72.6605 25.79 72.6605H54.699V75.4152C54.699 75.8424 54.7746 76.2525 54.9133 76.6327H23.903ZM77.7166 75.4152C77.7166 76.1251 77.1394 76.7023 76.4294 76.7023H58.2696C57.5596 76.7023 56.9824 76.1251 56.9824 75.4152V72.9449H77.7166V75.4152ZM77.7166 70.6616H56.9824V50.7486C56.9824 50.1184 56.4712 49.6072 55.841 49.6072C55.2102 49.6072 54.699 50.1184 54.699 50.7486V54.6458H4.28337V16.5284H77.6303V33.9973C77.2548 33.8628 76.8508 33.789 76.4294 33.789H58.2696C56.301 33.789 54.699 35.391 54.699 37.3596V43.7979C54.699 44.4287 55.2102 44.9393 55.841 44.9393C56.4712 44.9393 56.9824 44.4287 56.9824 43.7979V42.1132H77.7166V70.6616ZM77.7166 39.8304H56.9824V37.3596C56.9824 36.6502 57.5596 36.0724 58.2696 36.0724H76.4294C77.1394 36.0724 77.7172 36.6502 77.7172 37.3596V39.8304H77.7166Z" fill="white"/>
<path d="M59.2859 47.7367H63.4944C64.1246 47.7367 64.6358 47.2256 64.6358 46.5954C64.6358 45.9646 64.1246 45.4534 63.4944 45.4534H59.2859C58.6551 45.4534 58.1445 45.9646 58.1445 46.5954C58.1445 47.2256 58.6551 47.7367 59.2859 47.7367Z" fill="white"/>
<path d="M66.7625 47.7367H68.5579C69.1881 47.7367 69.6993 47.2256 69.6993 46.5954C69.6993 45.9646 69.1881 45.4534 68.5579 45.4534H66.7625C66.1323 45.4534 65.6211 45.9646 65.6211 46.5954C65.6211 47.2256 66.1323 47.7367 66.7625 47.7367Z" fill="white"/>
<path d="M71.5594 47.7367H75.4126C76.0434 47.7367 76.5546 47.2256 76.5546 46.5954C76.5546 45.9646 76.0434 45.4534 75.4126 45.4534H71.5594C70.9292 45.4534 70.418 45.9646 70.418 46.5954C70.418 47.2256 70.9292 47.7367 71.5594 47.7367Z" fill="white"/>
<path d="M59.2859 52.87H61.1587C61.7895 52.87 62.3007 52.3589 62.3007 51.7281C62.3007 51.0979 61.7895 50.5867 61.1587 50.5867H59.2859C58.6551 50.5867 58.1445 51.0979 58.1445 51.7281C58.1445 52.3589 58.6551 52.87 59.2859 52.87Z" fill="white"/>
<path d="M70.8107 51.7281C70.8107 51.0979 70.3002 50.5867 69.6694 50.5867H64.3094C63.6792 50.5867 63.168 51.0979 63.168 51.7281C63.168 52.3589 63.6792 52.87 64.3094 52.87H69.6694C70.3002 52.87 70.8107 52.3589 70.8107 51.7281Z" fill="white"/>
<path d="M75.4145 50.5867H73.2977C72.6675 50.5867 72.1562 51.0979 72.1562 51.7281C72.1562 52.3589 72.6675 52.87 73.2977 52.87H75.4145C76.0453 52.87 76.5564 52.3589 76.5564 51.7281C76.5564 51.0979 76.0453 50.5867 75.4145 50.5867Z" fill="white"/>
<path d="M59.2859 57.5927H63.032C63.6622 57.5927 64.1734 57.0815 64.1734 56.4513C64.1734 55.8205 63.6622 55.3093 63.032 55.3093H59.2859C58.6551 55.3093 58.1445 55.8205 58.1445 56.4513C58.1445 57.0815 58.6551 57.5927 59.2859 57.5927Z" fill="white"/>
<path d="M66.1576 57.5927H70.9005C71.5307 57.5927 72.0419 57.0815 72.0419 56.4513C72.0419 55.8205 71.5307 55.3093 70.9005 55.3093H66.1576C65.5268 55.3093 65.0156 55.8205 65.0156 56.4513C65.0156 57.0815 65.5268 57.5927 66.1576 57.5927Z" fill="white"/>
<path d="M75.4146 55.3093H73.9578C73.3276 55.3093 72.8164 55.8205 72.8164 56.4513C72.8164 57.0815 73.3276 57.5927 73.9578 57.5927H75.4146C76.0454 57.5927 76.5566 57.0815 76.5566 56.4513C76.5566 55.8205 76.0454 55.3093 75.4146 55.3093Z" fill="white"/>
<path d="M59.2859 62.726H65.0161C65.6469 62.726 66.1581 62.2148 66.1581 61.584C66.1581 60.9538 65.6469 60.4426 65.0161 60.4426H59.2859C58.6551 60.4426 58.1445 60.9538 58.1445 61.584C58.1445 62.2148 58.6551 62.726 59.2859 62.726Z" fill="white"/>
<path d="M69.8073 60.4426H68.2547C67.6245 60.4426 67.1133 60.9538 67.1133 61.584C67.1133 62.2148 67.6245 62.726 68.2547 62.726H69.8073C70.4375 62.726 70.9487 62.2148 70.9487 61.584C70.9487 60.9538 70.4375 60.4426 69.8073 60.4426Z" fill="white"/>
<path d="M75.4131 60.4426H72.7078C72.0776 60.4426 71.5664 60.9538 71.5664 61.584C71.5664 62.2148 72.0776 62.726 72.7078 62.726H75.4131C76.0439 62.726 76.5551 62.2148 76.5551 61.584C76.5551 60.9538 76.0439 60.4426 75.4131 60.4426Z" fill="white"/>
</svg>
