<svg width="81" height="80" viewBox="0 0 81 80" fill="none" xmlns="http://www.w3.org/2000/svg">
<path d="M72.9062 51.6062H7.09375V12.6062H72.9062V51.6062ZM9.53125 49.1687H70.4688V15.0437H9.53125V49.1687Z" fill="white"/>
<path d="M14.4062 17.4812H11.9688V19.9187H14.4062V17.4812Z" fill="white"/>
<path d="M19.2812 17.4812H16.8438V19.9187H19.2812V17.4812Z" fill="white"/>
<path d="M24.1562 17.4812H21.7188V19.9187H24.1562V17.4812Z" fill="white"/>
<path d="M71.6875 22.3562H8.3125V24.7937H71.6875V22.3562Z" fill="white"/>
<path d="M63.1562 50.3875H60.7188V46.7312H57.9156L57.6719 45.7562C57.1844 44.1718 56.575 42.5875 55.7219 41.125L55.2344 40.2718L57.1844 38.3218L52.0656 33.0812L50.1156 35.0312L49.2625 34.5437C47.8 33.6906 46.2156 32.9593 44.5094 32.5937L43.6562 32.4718V29.6687H36.3438V32.4718L35.3688 32.7156C33.6625 33.0812 32.0781 33.8125 30.6156 34.6656L29.7625 35.1531L27.8125 33.2031L22.6937 38.3218L24.6437 40.2718L24.2781 41.125C23.425 42.5875 22.6938 44.1718 22.3281 45.8781L22.0844 46.8531H19.2812V50.5093H16.8438V44.4156H20.2563C20.6219 43.1968 21.1094 41.9781 21.7188 40.7593L19.2812 38.3218L27.9344 29.6687L30.3719 32.1062C31.4688 31.4968 32.6875 31.0093 33.9062 30.6437V27.2312H46.0938V30.6437C47.3125 31.0093 48.5313 31.4968 49.6281 32.1062L52.0656 29.6687L60.7188 38.3218L58.2812 40.7593C58.8906 41.8562 59.3781 43.075 59.7438 44.2937H63.1562V50.3875Z" fill="white"/>
<path d="M53.4062 50.3875H50.9688C50.9688 44.2937 46.0938 39.4187 40 39.4187C33.9062 39.4187 29.0312 44.2937 29.0312 50.3875H26.5938C26.5938 42.9531 32.5656 36.9812 40 36.9812C47.4344 36.9812 53.4062 42.9531 53.4062 50.3875Z" fill="white"/>
<path d="M41.2188 44.2937H38.7812V46.7312H41.2188V44.2937Z" fill="white"/>
<path d="M46.0938 44.2937H43.6562V46.7312H46.0938V44.2937Z" fill="white"/>
<path d="M36.3438 44.2937H33.9062V46.7312H36.3438V44.2937Z" fill="white"/>
<path d="M65.5938 27.2312H63.1562V29.6687H65.5938V27.2312Z" fill="white"/>
<path d="M65.5938 32.1062H63.1562V34.5437H65.5938V32.1062Z" fill="white"/>
<path d="M68.0312 29.6687H65.5938V32.1062H68.0312V29.6687Z" fill="white"/>
<path d="M63.1562 29.6687H60.7188V32.1062H63.1562V29.6687Z" fill="white"/>
<path d="M16.8438 33.325H14.4062V35.7625H16.8438V33.325Z" fill="white"/>
<path d="M16.8438 38.2H14.4062V40.6375H16.8438V38.2Z" fill="white"/>
<path d="M19.2812 35.7625H16.8438V38.2H19.2812V35.7625Z" fill="white"/>
<path d="M14.4062 35.7625H11.9688V38.2H14.4062V35.7625Z" fill="white"/>
<path d="M55.8438 72.8125H24.1562V75.25H55.8438V72.8125Z" fill="white"/>
<path d="M73.0281 63.0625H6.97188C3.68125 63.0625 1 60.3812 1 57.0906V12.9719C1 9.68125 3.68125 7 6.97188 7H73.0281C76.3187 7 79 9.68125 79 12.9719V57.0906C79 60.3812 76.3187 63.0625 73.0281 63.0625ZM6.97188 9.4375C5.02188 9.4375 3.4375 11.0219 3.4375 12.9719V57.0906C3.4375 59.0406 5.02188 60.625 6.97188 60.625H73.0281C74.9781 60.625 76.5625 59.0406 76.5625 57.0906V12.9719C76.5625 11.0219 74.9781 9.4375 73.0281 9.4375H6.97188Z" fill="white"/>
<path d="M75.3438 54.5312H4.65625V56.9688H75.3438V54.5312Z" fill="white"/>
<path d="M52.5516 75.25H27.4453L31.8328 60.625H48.2859L52.5516 75.25ZM30.6141 72.8125H49.2609L46.3359 63.0625H33.5391L30.6141 72.8125Z" fill="white"/>
</svg>
