<svg width="70" height="70" viewBox="0 0 70 70" fill="none" xmlns="http://www.w3.org/2000/svg">
<path d="M46.6271 11.6663C46.4478 10.0621 45.6835 8.58032 44.4803 7.50417C43.2772 6.42803 41.7197 5.83306 40.1055 5.83301H29.8971C28.2829 5.83306 26.7254 6.42803 25.5223 7.50417C24.3191 8.58032 23.5548 10.0621 23.3755 11.6663H18.2305C16.49 11.6663 14.8208 12.3577 13.5901 13.5885C12.3594 14.8192 11.668 16.4884 11.668 18.2288V57.6038C11.668 59.3443 12.3594 61.0135 13.5901 62.2442C14.8208 63.4749 16.49 64.1663 18.2305 64.1663H24.793C23.8443 62.9053 23.3323 61.3694 23.3346 59.7913H18.2305C17.6503 59.7913 17.0939 59.5609 16.6837 59.1506C16.2734 58.7404 16.043 58.184 16.043 57.6038V18.2288C16.043 17.6487 16.2734 17.0923 16.6837 16.682C17.0939 16.2718 17.6503 16.0413 18.2305 16.0413H24.4401C25.6184 17.8001 27.6221 18.958 29.8971 18.958H40.1055C42.3805 18.958 44.3842 17.8001 45.5626 16.0413H51.7721C52.3523 16.0413 52.9087 16.2718 53.3189 16.682C53.7292 17.0923 53.9596 17.6487 53.9596 18.2288V55.4163C55.0298 53.9885 56.5864 53.0027 58.3346 52.6455V18.2288C58.3346 17.367 58.1649 16.5137 57.8351 15.7175C57.5053 14.9213 57.0219 14.1978 56.4125 13.5885C55.8031 12.9791 55.0797 12.4957 54.2835 12.1659C53.4873 11.8361 52.6339 11.6663 51.7721 11.6663H46.6271ZM46.6534 11.9463L46.668 12.3955C46.668 12.2438 46.6621 12.0951 46.6534 11.9463V11.9463ZM29.8971 10.208H40.1055C40.6856 10.208 41.242 10.4385 41.6523 10.8487C42.0625 11.2589 42.293 11.8153 42.293 12.3955C42.293 12.9757 42.0625 13.5321 41.6523 13.9423C41.242 14.3525 40.6856 14.583 40.1055 14.583H29.8971C29.317 14.583 28.7606 14.3525 28.3503 13.9423C27.9401 13.5321 27.7096 12.9757 27.7096 12.3955C27.7096 11.8153 27.9401 11.2589 28.3503 10.8487C28.7606 10.4385 29.317 10.208 29.8971 10.208ZM35.0013 59.7913C35.0013 60.9517 34.5404 62.0645 33.7199 62.8849C32.8994 63.7054 31.7866 64.1663 30.6263 64.1663C29.466 64.1663 28.3532 63.7054 27.5327 62.8849C26.7122 62.0645 26.2513 60.9517 26.2513 59.7913C26.2513 58.631 26.7122 57.5182 27.5327 56.6977C28.3532 55.8773 29.466 55.4163 30.6263 55.4163C31.7866 55.4163 32.8994 55.8773 33.7199 56.6977C34.5404 57.5182 35.0013 58.631 35.0013 59.7913ZM45.2096 64.1663C46.37 64.1663 47.4828 63.7054 48.3032 62.8849C49.1237 62.0645 49.5846 60.9517 49.5846 59.7913C49.5846 58.631 49.1237 57.5182 48.3032 56.6977C47.4828 55.8773 46.37 55.4163 45.2096 55.4163C44.0493 55.4163 42.9365 55.8773 42.116 56.6977C41.2956 57.5182 40.8346 58.631 40.8346 59.7913C40.8346 60.9517 41.2956 62.0645 42.116 62.8849C42.9365 63.7054 44.0493 64.1663 45.2096 64.1663V64.1663ZM59.793 64.1663C60.9533 64.1663 62.0661 63.7054 62.8866 62.8849C63.707 62.0645 64.168 60.9517 64.168 59.7913C64.168 58.631 63.707 57.5182 62.8866 56.6977C62.0661 55.8773 60.9533 55.4163 59.793 55.4163C58.6326 55.4163 57.5199 55.8773 56.6994 56.6977C55.8789 57.5182 55.418 58.631 55.418 59.7913C55.418 60.9517 55.8789 62.0645 56.6994 62.8849C57.5199 63.7054 58.6326 64.1663 59.793 64.1663Z" fill="black"/>
</svg>
