<svg width="77" height="70" viewBox="0 0 77 70" fill="none" xmlns="http://www.w3.org/2000/svg">
<path d="M10.9375 35L24.0625 48.125M4.375 28.4375H30.625M15.3125 21.875H17.5M48.125 65.625L37.1875 43.75L26.25 65.625M30.625 56.875H43.75M8.75 48.125L21.875 35L26.25 28.4375L8.75 48.125Z" stroke="black" stroke-width="2" stroke-linecap="round" stroke-linejoin="round"/>
<path d="M46.2066 15.8594L47.9369 4.375H38.9375L35.1772 14.2188C35.0612 14.5687 35 14.9319 35 15.3125C35 17.7275 37.5156 19.6875 40.6241 19.6875C43.4897 19.6875 45.8588 18.0163 46.2066 15.8594ZM54.6875 19.6875C57.7937 19.6875 60.3116 17.7275 60.3116 15.3125C60.3116 15.2228 60.305 15.1331 60.3006 15.0478L59.1872 4.375H50.1878L49.0722 15.0391C49.067 15.1301 49.0641 15.2213 49.0634 15.3125C49.0634 17.7275 51.5813 19.6875 54.6875 19.6875ZM65.625 21.9756V30.625H43.75V21.9888C42.7919 22.3344 41.7375 22.5313 40.6241 22.5313C40.1975 22.5313 39.7841 22.4809 39.375 22.4241V36.3125C39.375 37.9969 40.7509 39.375 42.4331 39.375H66.9375C68.6219 39.375 70 37.9947 70 36.3125V22.4262C69.5865 22.4897 69.1692 22.5255 68.7509 22.5334C67.6843 22.5324 66.6262 22.3435 65.625 21.9756V21.9756ZM74.2 14.2188L70.4353 4.375H61.4381L63.1663 15.8419C63.5031 18.0075 65.8722 19.6875 68.7509 19.6875C71.8572 19.6875 74.375 17.7275 74.375 15.3125C74.375 14.9319 74.3138 14.5687 74.2 14.2188Z" fill="black"/>
</svg>
