<svg width="55" height="65" viewBox="0 0 55 65" fill="none" xmlns="http://www.w3.org/2000/svg">
<path d="M53.5268 11.4722C49.0756 10.2962 44.7271 8.76818 40.5232 6.90278C36.3873 5.12675 32.3947 3.04011 28.5804 0.661111L27.5 0L26.4393 0.680556C22.625 3.05955 18.6324 5.1462 14.4964 6.92222C10.2856 8.78197 5.93047 10.3035 1.47321 11.4722L0 11.8417V28.0583C0 54.0944 26.5768 63.8361 26.8321 63.9333L27.5 64.1667L28.1679 63.9333C28.4429 63.9333 55 54.1139 55 28.0583V11.8417L53.5268 11.4722Z" fill="#A2AAB8"/>
<path d="M38.0001 16C38.2882 16 38.5718 16.0721 38.8258 16.2101C39.0798 16.3481 39.2963 16.5477 39.4561 16.7911L39.5646 16.9831L44.8146 27.6491C44.9541 27.9319 45.0168 28.2474 44.9962 28.563C44.9756 28.8786 44.8724 29.183 44.6974 29.4446L44.5504 29.633L28.8477 47.3618C28.6623 47.5905 28.4228 47.7678 28.1516 47.8769C27.8805 47.986 27.5865 48.0235 27.2972 47.9857L27.0994 47.952C26.736 47.8694 26.409 47.6684 26.1684 47.3795L10.45 29.6348C10.2416 29.3999 10.0987 29.1129 10.0359 28.8032C9.97319 28.4935 9.99287 28.1725 10.093 27.8731L10.1857 27.6509L15.4357 16.9848C15.5645 16.7232 15.7549 16.4979 15.9899 16.3289C16.225 16.1599 16.4975 16.0524 16.7832 16.016L17.0002 16H38.0001ZM32.0082 30.2214H22.9904L27.5002 41.4954L32.0082 30.2214ZM39.3179 30.2214H35.7864L32.8797 37.4886L39.3179 30.2214ZM19.2122 30.2214H15.6807L22.1172 37.4868L19.2122 30.2214ZM21.5887 19.5554H18.0817L14.5817 26.6661H19.3137L21.5887 19.5554ZM29.7279 19.5554H25.2707L22.9974 26.6661H32.0012L29.7279 19.5554ZM36.9169 19.5554H33.4099L35.6849 26.6661H40.4169L36.9169 19.5554Z" fill="white"/>
</svg>
