<svg width="55" height="65" viewBox="0 0 55 65" fill="none" xmlns="http://www.w3.org/2000/svg">
<path d="M53.5268 11.4722C49.0756 10.2962 44.7271 8.76818 40.5232 6.90278C36.3873 5.12675 32.3947 3.04011 28.5804 0.661111L27.5 0L26.4393 0.680556C22.625 3.05955 18.6324 5.1462 14.4964 6.92222C10.2856 8.78197 5.93047 10.3035 1.47321 11.4722L0 11.8417V28.0583C0 54.0944 26.5768 63.8361 26.8321 63.9333L27.5 64.1667L28.1679 63.9333C28.4429 63.9333 55 54.1139 55 28.0583V11.8417L53.5268 11.4722Z" fill="#A2AAB8"/>
<path d="M19.2213 46.886C18.4493 47.282 17.5733 46.588 17.7293 45.702L19.3893 36.2424L12.3433 29.5306C11.6853 28.9026 12.0273 27.7546 12.9093 27.6306L22.7053 26.2387L27.0733 17.585C27.4673 16.805 28.5333 16.805 28.9273 17.585L33.2952 26.2387L43.0912 27.6306C43.9732 27.7546 44.3152 28.9026 43.6552 29.5306L36.6112 36.2424L38.2712 45.702C38.4272 46.588 37.5512 47.282 36.7792 46.886L27.9973 42.3742L19.2193 46.886H19.2213Z" fill="white"/>
</svg>
