<svg width="81" height="80" viewBox="0 0 81 80" fill="none" xmlns="http://www.w3.org/2000/svg">
<path d="M6.2 59.2H8.8V56.6H6.2C4.76383 56.6 3.6 55.4362 3.6 54V7.2C3.6 5.76383 4.76383 4.6 6.2 4.6H63.4C64.8362 4.6 66 5.76383 66 7.2V9.8H68.6V7.2C68.6 4.3283 66.2717 2 63.4 2H6.2C3.3283 2 1 4.3283 1 7.2V54C1 56.8717 3.3283 59.2 6.2 59.2Z" fill="white"/>
<path d="M6.19922 7.20001H8.79922V9.80001H6.19922V7.20001Z" fill="white"/>
<path d="M11.3984 7.20001H13.9984V9.80001H11.3984V7.20001Z" fill="white"/>
<path d="M16.6016 7.20001H19.2016V9.80001H16.6016V7.20001Z" fill="white"/>
<path d="M73.7984 12.4H16.5984C13.7267 12.4 11.3984 14.7283 11.3984 17.6V64.4C11.3984 67.2717 13.7267 69.6 16.5984 69.6H73.7984C76.6701 69.6 78.9984 67.2717 78.9984 64.4V17.6C78.9984 14.7283 76.6701 12.4 73.7984 12.4ZM76.3984 64.4C76.3984 65.8362 75.2346 67 73.7984 67H16.5984C15.1623 67 13.9984 65.8362 13.9984 64.4V17.6C13.9984 16.1638 15.1623 15 16.5984 15H73.7984C75.2346 15 76.3984 16.1638 76.3984 17.6V64.4Z" fill="white"/>
<path d="M16.6016 17.6H19.2016V20.2H16.6016V17.6Z" fill="white"/>
<path d="M21.8008 17.6H24.4008V20.2H21.8008V17.6Z" fill="white"/>
<path d="M27 17.6H29.6V20.2H27V17.6Z" fill="white"/>
<path d="M16.6016 22.8H73.8016V25.4H16.6016V22.8Z" fill="white"/>
<path d="M19.1992 44.9H26.9992V47.5H19.1992V44.9Z" fill="white"/>
<path d="M19.1992 51.4H46.4992V54H19.1992V51.4Z" fill="white"/>
<path d="M19.1992 57.9H33.4992V60.5H19.1992V57.9Z" fill="white"/>
<path d="M42.6016 38.4H55.6016V41H42.6016V38.4Z" fill="white"/>
<path d="M62.1016 51.4H71.2016V54H62.1016V51.4Z" fill="white"/>
<path d="M50.3984 57.9H71.1984V60.5H50.3984V57.9Z" fill="white"/>
<path d="M30.8984 44.9H50.3984V47.5H30.8984V44.9Z" fill="white"/>
<path d="M42.6016 31.9H51.7016V34.5H42.6016V31.9Z" fill="white"/>
<path d="M54.3008 31.9H71.2008V34.5H54.3008V31.9Z" fill="white"/>
<path d="M36.1016 57.9H47.8016V60.5H36.1016V57.9Z" fill="white"/>
<path d="M53 44.9H71.2V47.5H53V44.9Z" fill="white"/>
<path d="M58.1992 38.4H71.1992V41H58.1992V38.4Z" fill="white"/>
<path d="M49.1016 51.4H59.5016V54H49.1016V51.4Z" fill="white"/>
<path d="M23.4797 30.9809L19.5797 34.8809C19.0724 35.3889 19.0724 36.2111 19.5797 36.7191L23.4797 40.6191L25.3179 38.7809L22.337 35.8L25.3179 32.8191L23.4797 30.9809Z" fill="white"/>
<path d="M35.7171 40.6191L39.6171 36.7191C40.1244 36.2111 40.1244 35.3889 39.6171 34.8809L35.7171 30.9809L33.8789 32.8191L36.8598 35.8L33.8789 38.7809L35.7171 40.6191Z" fill="white"/>
<path d="M27.0391 40.6851L29.6404 30.2851L32.162 30.9159L29.5604 41.3152L27.0391 40.6851Z" fill="white"/>
<path d="M59.4996 72.2H30.8996C30.5548 72.2 30.2242 72.3372 29.9805 72.5809L27.3805 75.1809C26.8732 75.6889 26.8732 76.5111 27.3805 77.0191L29.9805 79.6191C30.2242 79.8629 30.5548 80 30.8996 80H59.4996C61.653 80 63.3996 78.2535 63.3996 76.1C63.3996 73.9466 61.653 72.2 59.4996 72.2ZM55.5996 77.4H31.4378L30.1378 76.1L31.4378 74.8H55.5996V77.4ZM59.4996 77.4H58.1996V74.8H59.4996C60.2178 74.8 60.7996 75.3818 60.7996 76.1C60.7996 76.8183 60.2178 77.4 59.4996 77.4Z" fill="white"/>
</svg>
