<svg width="81" height="80" viewBox="0 0 81 80" fill="none" xmlns="http://www.w3.org/2000/svg">
<path d="M10.6667 56.3333H13V54H10.6667C9.37779 54 8.33333 52.9555 8.33333 51.6667V9.66667C8.33333 8.37779 9.37779 7.33333 10.6667 7.33333H62C63.2889 7.33333 64.3333 8.37779 64.3333 9.66667V12H66.6667V9.66667C66.6667 7.0895 64.5772 5 62 5H10.6667C8.0895 5 6 7.0895 6 9.66667V51.6667C6 54.2438 8.0895 56.3333 10.6667 56.3333Z" fill="white"/>
<path d="M10.668 9.66675H13.0013V12.0001H10.668V9.66675Z" fill="white"/>
<path d="M15.332 9.66675H17.6654V12.0001H15.332V9.66675Z" fill="white"/>
<path d="M20 9.66675H22.3333V12.0001H20V9.66675Z" fill="white"/>
<path d="M71.332 14.3333H19.9987C17.4215 14.3333 15.332 16.4228 15.332 19V61C15.332 63.5771 17.4215 65.6666 19.9987 65.6666H71.332C73.9092 65.6666 75.9987 63.5771 75.9987 61V19C75.9987 16.4228 73.9092 14.3333 71.332 14.3333ZM73.6654 61C73.6654 62.2889 72.6209 63.3333 71.332 63.3333H19.9987C18.7098 63.3333 17.6654 62.2889 17.6654 61V19C17.6654 17.7111 18.7098 16.6666 19.9987 16.6666H71.332C72.6209 16.6666 73.6654 17.7111 73.6654 19V61Z" fill="white"/>
<path d="M20 19H22.3333V21.3333H20V19Z" fill="white"/>
<path d="M24.668 19H27.0013V21.3333H24.668V19Z" fill="white"/>
<path d="M29.332 19H31.6654V21.3333H29.332V19Z" fill="white"/>
<path d="M20 23.6667H71.3333V26H20V23.6667Z" fill="white"/>
<path d="M22.332 43.5H29.332V45.8333H22.332V43.5Z" fill="white"/>
<path d="M22.332 49.3333H46.832V51.6665H22.332V49.3333Z" fill="white"/>
<path d="M22.332 55.1667H35.1654V57.5H22.332V55.1667Z" fill="white"/>
<path d="M43.332 37.6667H54.9987V40H43.332V37.6667Z" fill="white"/>
<path d="M60.832 49.3333H68.9987V51.6665H60.832V49.3333Z" fill="white"/>
<path d="M50.332 55.1667H68.9987V57.5H50.332V55.1667Z" fill="white"/>
<path d="M32.832 43.5H50.332V45.8333H32.832V43.5Z" fill="white"/>
<path d="M43.332 31.8333H51.4987V34.1666H43.332V31.8333Z" fill="white"/>
<path d="M53.832 31.8333H68.9987V34.1666H53.832V31.8333Z" fill="white"/>
<path d="M37.5 55.1667H48V57.5H37.5V55.1667Z" fill="white"/>
<path d="M52.668 43.5H69.0013V45.8333H52.668V43.5Z" fill="white"/>
<path d="M57.332 37.6667H68.9987V40H57.332V37.6667Z" fill="white"/>
<path d="M49.168 49.3333H58.5013V51.6665H49.168V49.3333Z" fill="white"/>
<path d="M26.1735 31.0085L22.6735 34.5085C22.2182 34.9644 22.2182 35.7023 22.6735 36.1582L26.1735 39.6582L27.8232 38.0085L25.148 35.3333L27.8232 32.6582L26.1735 31.0085Z" fill="white"/>
<path d="M37.1575 39.6582L40.6575 36.1582C41.1128 35.7023 41.1128 34.9644 40.6575 34.5085L37.1575 31.0085L35.5078 32.6582L38.183 35.3333L35.5078 38.0085L37.1575 39.6582Z" fill="white"/>
<path d="M29.3672 39.7174L31.7017 30.384L33.9647 30.9502L31.6299 40.2829L29.3672 39.7174Z" fill="white"/>
<path d="M58.4983 68H32.8317C32.5222 68 32.2256 68.1231 32.0068 68.3418L29.6735 70.6752C29.2182 71.131 29.2182 71.869 29.6735 72.3248L32.0068 74.6582C32.2256 74.8769 32.5222 75 32.8317 75H58.4983C60.4309 75 61.9983 73.4326 61.9983 71.5C61.9983 69.5674 60.4309 68 58.4983 68ZM54.9983 72.6667H33.3147L32.148 71.5L33.3147 70.3333H54.9983V72.6667ZM58.4983 72.6667H57.3317V70.3333H58.4983C59.1429 70.3333 59.665 70.8554 59.665 71.5C59.665 72.1446 59.1429 72.6667 58.4983 72.6667Z" fill="white"/>
</svg>
