<svg width="80" height="80" viewBox="0 0 80 80" fill="none" xmlns="http://www.w3.org/2000/svg">
<g clip-path="url(#clip0_7074_38386)">
<path d="M62.9541 29.3105H64.4971C64.804 29.3105 65.0983 29.1886 65.3154 28.9716C65.5324 28.7546 65.6543 28.4602 65.6543 28.1533C65.6543 27.8464 65.5324 27.5521 65.3154 27.335C65.0983 27.118 64.804 26.9961 64.4971 26.9961H62.9541C62.6472 26.9961 62.3528 27.118 62.1358 27.335C61.9188 27.5521 61.7969 27.8464 61.7969 28.1533C61.7969 28.4602 61.9188 28.7546 62.1358 28.9716C62.3528 29.1886 62.6472 29.3105 62.9541 29.3105Z" fill="white"/>
<path d="M69.126 29.3105H70.6689C70.9759 29.3105 71.2702 29.1886 71.4872 28.9716C71.7043 28.7546 71.8262 28.4602 71.8262 28.1533C71.8262 27.8464 71.7043 27.5521 71.4872 27.335C71.2702 27.118 70.9759 26.9961 70.6689 26.9961H69.126C68.8191 26.9961 68.5247 27.118 68.3077 27.335C68.0907 27.5521 67.9688 27.8464 67.9688 28.1533C67.9688 28.4602 68.0907 28.7546 68.3077 28.9716C68.5247 29.1886 68.8191 29.3105 69.126 29.3105Z" fill="white"/>
<path d="M67.5869 56.0039H27.4697C26.3444 56.0039 25.2651 56.451 24.4694 57.2467C23.6736 58.0424 23.2266 59.1217 23.2266 60.2471C23.2266 61.3724 23.6736 62.4517 24.4694 63.2474C25.2651 64.0432 26.3444 64.4902 27.4697 64.4902H67.5869C68.7123 64.4902 69.7915 64.0432 70.5873 63.2474C71.383 62.4517 71.8301 61.3724 71.8301 60.2471C71.8301 59.1217 71.383 58.0424 70.5873 57.2467C69.7915 56.451 68.7123 56.0039 67.5869 56.0039V56.0039ZM25.541 60.2471C25.5418 59.7358 25.7453 59.2457 26.1068 58.8842C26.4684 58.5226 26.9585 58.3192 27.4697 58.3184H61.8008V62.1758H27.4697C26.9585 62.175 26.4684 61.9715 26.1068 61.61C25.7453 61.2484 25.5418 60.7583 25.541 60.2471V60.2471ZM67.5869 62.1758H64.1152V58.3184H67.5869C68.0984 58.3184 68.589 58.5216 68.9507 58.8833C69.3124 59.245 69.5156 59.7355 69.5156 60.2471C69.5156 60.7586 69.3124 61.2492 68.9507 61.6109C68.589 61.9726 68.0984 62.1758 67.5869 62.1758Z" fill="white"/>
<path d="M76.8428 23.1387H59.9473V3.15723C59.9473 2.85031 59.8253 2.55597 59.6083 2.33894C59.3913 2.12192 59.097 2 58.79 2H0.157227C-0.149689 2 -0.444034 2.12192 -0.661056 2.33894C-0.878078 2.55597 -1 2.85031 -1 3.15723L-1 50.9893C-1 51.2962 -0.878078 51.5905 -0.661056 51.8075C-0.444034 52.0246 -0.149689 52.1465 0.157227 52.1465H17.0527V79.8428C17.0527 80.1497 17.1747 80.444 17.3917 80.6611C17.6087 80.8781 17.903 81 18.21 81H76.8428C77.1497 81 77.444 80.8781 77.6611 80.6611C77.8781 80.444 78 80.1497 78 79.8428V24.2959C78 23.989 77.8781 23.6946 77.6611 23.4776C77.444 23.2606 77.1497 23.1387 76.8428 23.1387ZM75.6855 25.4531V30.8535H59.9473V25.4531H75.6855ZM57.6328 4.31445V9.71484H1.31445V4.31445H57.6328ZM1.31445 12.0293H57.6328V49.832H1.31445V12.0293ZM19.3672 78.6855V52.1465H58.79C59.097 52.1465 59.3913 52.0246 59.6083 51.8075C59.8253 51.5905 59.9473 51.2962 59.9473 50.9893V33.168H75.6855V78.6855H19.3672Z" fill="white"/>
<path d="M52.6182 39.0312H6.3291C6.02219 39.0312 5.72784 39.1532 5.51082 39.3702C5.2938 39.5872 5.17188 39.8816 5.17188 40.1885V44.8174C5.17188 45.1243 5.2938 45.4186 5.51082 45.6357C5.72784 45.8527 6.02219 45.9746 6.3291 45.9746H52.6182C52.9251 45.9746 53.2194 45.8527 53.4364 45.6357C53.6535 45.4186 53.7754 45.1243 53.7754 44.8174V40.1885C53.7754 39.8816 53.6535 39.5872 53.4364 39.3702C53.2194 39.1532 52.9251 39.0312 52.6182 39.0312ZM51.4609 43.6602H7.48633V41.3457H51.4609V43.6602Z" fill="white"/>
<path d="M44.9072 8.17188H46.4502C46.7571 8.17187 47.0515 8.04995 47.2685 7.83293C47.4855 7.61591 47.6074 7.32156 47.6074 7.01465C47.6074 6.70773 47.4855 6.41339 47.2685 6.19637C47.0515 5.97934 46.7571 5.85742 46.4502 5.85742H44.9072C44.6003 5.85742 44.306 5.97934 44.0889 6.19637C43.8719 6.41339 43.75 6.70773 43.75 7.01465C43.75 7.32156 43.8719 7.61591 44.0889 7.83293C44.306 8.04995 44.6003 8.17187 44.9072 8.17188V8.17188Z" fill="white"/>
<path d="M51.0791 8.17188H52.6221C52.929 8.17187 53.2233 8.04995 53.4404 7.83293C53.6574 7.61591 53.7793 7.32156 53.7793 7.01465C53.7793 6.70773 53.6574 6.41339 53.4404 6.19637C53.2233 5.97934 52.929 5.85742 52.6221 5.85742H51.0791C50.7722 5.85742 50.4778 5.97934 50.2608 6.19637C50.0438 6.41339 49.9219 6.70773 49.9219 7.01465C49.9219 7.32156 50.0438 7.61591 50.2608 7.83293C50.4778 8.04995 50.7722 8.17187 51.0791 8.17188V8.17188Z" fill="white"/>
<path d="M9.41504 30.5449H15.5869C16.7118 30.5433 17.7901 30.0957 18.5855 29.3003C19.3809 28.5049 19.8284 27.4266 19.8301 26.3018V20.1299C19.8284 19.005 19.3809 17.9267 18.5855 17.1313C17.7901 16.3359 16.7118 15.8884 15.5869 15.8867H9.41504C8.29018 15.8884 7.21187 16.3359 6.41647 17.1313C5.62108 17.9267 5.17351 19.005 5.17188 20.1299V26.3018C5.17351 27.4266 5.62108 28.5049 6.41647 29.3003C7.21187 30.0957 8.29018 30.5433 9.41504 30.5449V30.5449ZM7.48633 20.1299C7.48714 19.6186 7.69061 19.1285 8.05214 18.767C8.41366 18.4055 8.90376 18.202 9.41504 18.2012H15.5869C16.0982 18.202 16.5883 18.4055 16.9498 18.767C17.3113 19.1285 17.5148 19.6186 17.5156 20.1299V26.3018C17.5148 26.813 17.3113 27.3031 16.9498 27.6647C16.5883 28.0262 16.0982 28.2297 15.5869 28.2305H9.41504C8.90376 28.2297 8.41366 28.0262 8.05214 27.6647C7.69061 27.3031 7.48714 26.813 7.48633 26.3018V20.1299Z" fill="white"/>
<path d="M10.9541 34.4023C10.6472 34.4023 10.3528 34.5243 10.1358 34.7413C9.9188 34.9583 9.79688 35.2527 9.79688 35.5596C9.79688 35.8665 9.9188 36.1608 10.1358 36.3779C10.3528 36.5949 10.6472 36.7168 10.9541 36.7168H18.6689C18.9759 36.7168 19.2702 36.5949 19.4872 36.3779C19.7042 36.1608 19.8262 35.8665 19.8262 35.5596C19.8262 35.2527 19.7042 34.9583 19.4872 34.7413C19.2702 34.5243 18.9759 34.4023 18.6689 34.4023H10.9541Z" fill="white"/>
<path d="M6.3291 36.7168H7.10059C7.4075 36.7168 7.70185 36.5949 7.91887 36.3779C8.13589 36.1608 8.25781 35.8665 8.25781 35.5596C8.25781 35.2527 8.13589 34.9583 7.91887 34.7413C7.70185 34.5243 7.4075 34.4023 7.10059 34.4023H6.3291C6.02219 34.4023 5.72784 34.5243 5.51082 34.7413C5.2938 34.9583 5.17188 35.2527 5.17188 35.5596C5.17188 35.8665 5.2938 36.1608 5.51082 36.3779C5.72784 36.5949 6.02219 36.7168 6.3291 36.7168V36.7168Z" fill="white"/>
<path d="M26.3838 30.5449H32.5557C33.6805 30.5433 34.7588 30.0957 35.5542 29.3003C36.3496 28.5049 36.7972 27.4266 36.7988 26.3018V20.1299C36.7972 19.005 36.3496 17.9267 35.5542 17.1313C34.7588 16.3359 33.6805 15.8884 32.5557 15.8867H26.3838C25.2589 15.8884 24.1806 16.3359 23.3852 17.1313C22.5898 17.9267 22.1423 19.005 22.1406 20.1299V26.3018C22.1423 27.4266 22.5898 28.5049 23.3852 29.3003C24.1806 30.0957 25.2589 30.5433 26.3838 30.5449V30.5449ZM24.4551 20.1299C24.4559 19.6186 24.6594 19.1285 25.0209 18.767C25.3824 18.4055 25.8725 18.202 26.3838 18.2012H32.5557C33.0669 18.202 33.557 18.4055 33.9186 18.767C34.2801 19.1285 34.4836 19.6186 34.4844 20.1299V26.3018C34.4836 26.813 34.2801 27.3031 33.9186 27.6647C33.557 28.0262 33.0669 28.2297 32.5557 28.2305H26.3838C25.8725 28.2297 25.3824 28.0262 25.0209 27.6647C24.6594 27.3031 24.4559 26.813 24.4551 26.3018V20.1299Z" fill="white"/>
<path d="M27.9307 34.4023C27.6237 34.4023 27.3294 34.5243 27.1124 34.7413C26.8954 34.9583 26.7734 35.2527 26.7734 35.5596C26.7734 35.8665 26.8954 36.1608 27.1124 36.3779C27.3294 36.5949 27.6237 36.7168 27.9307 36.7168H35.6455C35.9524 36.7168 36.2468 36.5949 36.4638 36.3779C36.6808 36.1608 36.8027 35.8665 36.8027 35.5596C36.8027 35.2527 36.6808 34.9583 36.4638 34.7413C36.2468 34.5243 35.9524 34.4023 35.6455 34.4023H27.9307Z" fill="white"/>
<path d="M23.2979 36.7168H24.0693C24.3763 36.7168 24.6706 36.5949 24.8876 36.3779C25.1046 36.1608 25.2266 35.8665 25.2266 35.5596C25.2266 35.2527 25.1046 34.9583 24.8876 34.7413C24.6706 34.5243 24.3763 34.4023 24.0693 34.4023H23.2979C22.9909 34.4023 22.6966 34.5243 22.4796 34.7413C22.2625 34.9583 22.1406 35.2527 22.1406 35.5596C22.1406 35.8665 22.2625 36.1608 22.4796 36.3779C22.6966 36.5949 22.9909 36.7168 23.2979 36.7168Z" fill="white"/>
<path d="M49.5322 15.8867H43.3604C42.2355 15.8884 41.1572 16.3359 40.3618 17.1313C39.5664 17.9267 39.1188 19.005 39.1172 20.1299V26.3018C39.1188 27.4266 39.5664 28.5049 40.3618 29.3003C41.1572 30.0957 42.2355 30.5433 43.3604 30.5449H49.5322C50.6571 30.5433 51.7354 30.0957 52.5308 29.3003C53.3262 28.5049 53.7738 27.4266 53.7754 26.3018V20.1299C53.7738 19.005 53.3262 17.9267 52.5308 17.1313C51.7354 16.3359 50.6571 15.8884 49.5322 15.8867V15.8867ZM51.4609 26.3018C51.4601 26.813 51.2567 27.3031 50.8951 27.6647C50.5336 28.0262 50.0435 28.2297 49.5322 28.2305H43.3604C42.8491 28.2297 42.359 28.0262 41.9974 27.6647C41.6359 27.3031 41.4325 26.813 41.4316 26.3018V20.1299C41.4325 19.6186 41.6359 19.1285 41.9974 18.767C42.359 18.4055 42.8491 18.202 43.3604 18.2012H49.5322C50.0435 18.202 50.5336 18.4055 50.8951 18.767C51.2567 19.1285 51.4601 19.6186 51.4609 20.1299V26.3018Z" fill="white"/>
<path d="M52.6221 34.4023H44.9072C44.6003 34.4023 44.306 34.5243 44.0889 34.7413C43.8719 34.9583 43.75 35.2527 43.75 35.5596C43.75 35.8665 43.8719 36.1608 44.0889 36.3779C44.306 36.5949 44.6003 36.7168 44.9072 36.7168H52.6221C52.929 36.7168 53.2233 36.5949 53.4404 36.3779C53.6574 36.1608 53.7793 35.8665 53.7793 35.5596C53.7793 35.2527 53.6574 34.9583 53.4404 34.7413C53.2233 34.5243 52.929 34.4023 52.6221 34.4023Z" fill="white"/>
<path d="M41.0459 36.7168C41.3528 36.7168 41.6472 36.5949 41.8642 36.3779C42.0812 36.1608 42.2031 35.8665 42.2031 35.5596C42.2031 35.2527 42.0812 34.9583 41.8642 34.7413C41.6472 34.5243 41.3528 34.4023 41.0459 34.4023H40.2744C39.9675 34.4023 39.6732 34.5243 39.4561 34.7413C39.2391 34.9583 39.1172 35.2527 39.1172 35.5596C39.1172 35.8665 39.2391 36.1608 39.4561 36.3779C39.6732 36.5949 39.9675 36.7168 40.2744 36.7168H41.0459Z" fill="white"/>
<path d="M35.1846 67.8848H24.3838C24.0769 67.8848 23.7825 68.0067 23.5655 68.2237C23.3485 68.4407 23.2266 68.7351 23.2266 69.042V73.6709C23.2266 73.9778 23.3485 74.2722 23.5655 74.4892C23.7825 74.7062 24.0769 74.8281 24.3838 74.8281H35.1846C35.4915 74.8281 35.7858 74.7062 36.0029 74.4892C36.2199 74.2722 36.3418 73.9778 36.3418 73.6709V69.042C36.3418 68.7351 36.2199 68.4407 36.0029 68.2237C35.7858 68.0067 35.4915 67.8848 35.1846 67.8848ZM34.0273 72.5137H25.541V70.1992H34.0273V72.5137Z" fill="white"/>
<path d="M52.9268 67.8848H42.126C41.8191 67.8848 41.5247 68.0067 41.3077 68.2237C41.0907 68.4407 40.9688 68.7351 40.9688 69.042V73.6709C40.9688 73.9778 41.0907 74.2722 41.3077 74.4892C41.5247 74.7062 41.8191 74.8281 42.126 74.8281H52.9268C53.2337 74.8281 53.528 74.7062 53.745 74.4892C53.9621 74.2722 54.084 73.9778 54.084 73.6709V69.042C54.084 68.7351 53.9621 68.4407 53.745 68.2237C53.528 68.0067 53.2337 67.8848 52.9268 67.8848ZM51.7695 72.5137H43.2832V70.1992H51.7695V72.5137Z" fill="white"/>
<path d="M70.6689 67.8848H59.8682C59.5612 67.8848 59.2669 68.0067 59.0499 68.2237C58.8329 68.4407 58.7109 68.7351 58.7109 69.042V73.6709C58.7109 73.9778 58.8329 74.2722 59.0499 74.4892C59.2669 74.7062 59.5612 74.8281 59.8682 74.8281H70.6689C70.9759 74.8281 71.2702 74.7062 71.4872 74.4892C71.7043 74.2722 71.8262 73.9778 71.8262 73.6709V69.042C71.8262 68.7351 71.7043 68.4407 71.4872 68.2237C71.2702 68.0067 70.9759 67.8848 70.6689 67.8848ZM69.5117 72.5137H61.0254V70.1992H69.5117V72.5137Z" fill="white"/>
</g>
<defs>
<clipPath id="clip0_7074_38386">
<rect width="80" height="80" fill="white"/>
</clipPath>
</defs>
</svg>
