<svg width="70" height="70" viewBox="0 0 70 70" fill="none" xmlns="http://www.w3.org/2000/svg">
<path d="M21.4078 18.696L2.50781 37.6251L21.437 56.5251L40.3661 37.6251L21.4078 18.696ZM10.762 37.6251L21.437 26.9501L32.0828 37.6251L21.4078 48.3001L10.762 37.6251ZM56.4661 19.3668C54.0357 16.9221 51.1452 14.9829 47.9613 13.6613C44.7775 12.3397 41.3634 11.6619 37.9161 11.6668V2.2168L25.5495 14.5835L37.9161 26.9501V17.5001C43.137 17.5001 48.3578 19.4835 52.3536 23.4793C56.178 27.3109 58.3258 32.5033 58.3258 37.9168C58.3258 43.3303 56.178 48.5227 52.3536 52.3543C49.4398 55.277 45.7058 57.244 41.6476 57.9942C37.5893 58.7444 33.3989 58.2422 29.6328 56.5543L25.287 60.9001C29.2245 63.0585 33.5703 64.1668 37.9161 64.1668C44.6245 64.1668 51.362 61.6001 56.4661 56.4668C58.9072 54.0336 60.844 51.1425 62.1655 47.9593C63.487 44.7761 64.1672 41.3634 64.1672 37.9168C64.1672 34.4702 63.487 31.0575 62.1655 27.8743C60.844 24.6911 58.9072 21.8 56.4661 19.3668Z" fill="black"/>
</svg>
