<svg width="64" height="64" viewBox="0 0 64 64" fill="none" xmlns="http://www.w3.org/2000/svg">
<rect width="64" height="64" rx="12" fill="#A2AAB8"/>
<path d="M39.125 17.4286C39.125 16.7845 39.3752 16.1668 39.8206 15.7113C40.266 15.2559 40.8701 15 41.5 15H46.25C46.8799 15 47.484 15.2559 47.9294 15.7113C48.3748 16.1668 48.625 16.7845 48.625 17.4286V46.5714H49.8125C50.1274 46.5714 50.4295 46.6994 50.6522 46.9271C50.8749 47.1548 51 47.4637 51 47.7857C51 48.1078 50.8749 48.4166 50.6522 48.6443C50.4295 48.8721 50.1274 49 49.8125 49H14.1875C13.8726 49 13.5705 48.8721 13.3478 48.6443C13.1251 48.4166 13 48.1078 13 47.7857C13 47.4637 13.1251 47.1548 13.3478 46.9271C13.5705 46.6994 13.8726 46.5714 14.1875 46.5714H15.375V39.2857C15.375 38.6416 15.6252 38.0239 16.0706 37.5685C16.516 37.113 17.1201 36.8571 17.75 36.8571H22.5C23.1299 36.8571 23.734 37.113 24.1794 37.5685C24.6248 38.0239 24.875 38.6416 24.875 39.2857V46.5714H27.25V29.5714C27.25 28.9273 27.5002 28.3096 27.9456 27.8542C28.391 27.3987 28.9951 27.1429 29.625 27.1429H34.375C35.0049 27.1429 35.609 27.3987 36.0544 27.8542C36.4998 28.3096 36.75 28.9273 36.75 29.5714V46.5714H39.125V17.4286ZM41.5 46.5714H46.25V17.4286H41.5V46.5714ZM34.375 46.5714V29.5714H29.625V46.5714H34.375ZM22.5 46.5714V39.2857H17.75V46.5714H22.5Z" fill="white"/>
<path d="M16 26L21.4 20.5L25 24.1667L34 15" stroke="white" stroke-width="2.5" stroke-linecap="square" stroke-linejoin="round"/>
<path d="M35 20V14H30" stroke="white" stroke-width="2.5" stroke-linecap="square" stroke-linejoin="round"/>
</svg>
