<?xml version="1.0" encoding="UTF-8"?>
<svg width="184" height="185" id="_圖層_1" data-name="圖層_1" xmlns="http://www.w3.org/2000/svg" xmlns:xlink="http://www.w3.org/1999/xlink" version="1.1" viewBox="0 0 184 185">
  <!-- Generator: Adobe Illustrator 29.8.2, SVG Export Plug-In . SVG Version: 2.1.1 Build 3)  -->
  <defs>
    <style>
      .st0, .st1 {
        fill: none;
      }

      .st1 {
        stroke: url(#_未命名漸層_291);
        stroke-width: 2px;
      }

      ._x00E7__x00B9__x00AA_圖樣式 {
        fill: url(#_未命名漸層_29);
      }

      .st2 {
        fill: #fff;
      }

      .st3 {
        clip-path: url(#clippath);
      }
    </style>
    <linearGradient id="_未命名漸層_29" data-name="未命名漸層 29" x1="91" y1="20" x2="91" y2="170" gradientUnits="userSpaceOnUse">
      <stop offset="0" stop-color="#fecd00"/>
      <stop offset="1" stop-color="#df9f14"/>
    </linearGradient>
    <clipPath id="clippath">
      <rect class="st0" x="41" y="38" width="99.87" height="112.76"/>
    </clipPath>
    <linearGradient id="_未命名漸層_291" data-name="未命名漸層 29" y1="11" y2="179" xlink:href="#_未命名漸層_29"/>
  </defs>
  <rect class="_x00E7__x00B9__x00AA_圖樣式" x="16" y="20" width="150" height="150" rx="36" ry="36"/>
  <g class="st3">
    <g>
      <circle class="st2" cx="87.99" cy="125.6" r="17.81"/>
      <path class="st2" d="M110.12,104.41c6.23,6.45,9.31,15.32,8.42,24.25-.89,8.93-5.66,17.01-13.05,22.1,14.48-4.42,26.28-15,32.26-28.92,7.52-18.49.52-32.4-11.23-45.01.37,1.67.56,3.37.56,5.07-.03,10.44-6.94,19.6-16.96,22.51h0Z"/>
      <circle class="st2" cx="103.64" cy="81.91" r="13.6"/>
      <path class="st2" d="M64.55,145.36c-7.32-8.59-9.31-20.52-5.17-31.02s13.74-17.86,24.95-19.14c-5.22-7.65-5.45-17.65-.6-25.54,4.85-7.89,13.88-12.19,23.06-10.99-7.69-6.29-14.84-13.2-21.38-20.67,3.17,32.14-29.27,20.46-41.23,50.09-8.01,19.87-.78,44.42,20.37,57.27Z"/>
    </g>
  </g>
  <rect class="st1" x="8" y="12" width="166" height="166" rx="36" ry="36"/>
</svg>