<svg width="64" height="64" viewBox="0 0 64 64" fill="none" xmlns="http://www.w3.org/2000/svg">
<rect width="64" height="64" rx="12" fill="#A2AAB8"/>
<path d="M33.4846 30.5003C30.518 29.517 29.0846 28.9003 29.0846 27.3337C29.0846 25.6337 30.9346 25.017 32.1013 25.017C34.2846 25.017 35.0846 26.667 35.268 27.2503L37.9013 26.1337C37.6513 25.3837 36.5346 22.9337 33.668 22.4003V20.3337H30.3346V22.4337C26.2013 23.367 26.1846 27.2003 26.1846 27.367C26.1846 31.1503 29.9346 32.217 31.768 32.8837C34.4013 33.817 35.568 34.667 35.568 36.267C35.568 38.1503 33.818 38.9503 32.268 38.9503C29.2346 38.9503 28.368 35.8337 28.268 35.467L25.5013 36.5837C26.5513 40.2337 29.3013 41.217 30.3346 41.517V43.667H33.668V41.6003C34.3346 41.4503 38.5013 40.617 38.5013 36.2337C38.5013 33.917 37.4846 31.8837 33.4846 30.5003ZM17.0013 47.0003H13.668V37.0003H23.668V40.3337H19.5346C22.218 44.3503 26.8013 47.0003 32.0013 47.0003C35.9795 47.0003 39.7949 45.42 42.6079 42.6069C45.4209 39.7939 47.0013 35.9786 47.0013 32.0003H50.3346C50.3346 42.1337 42.1346 50.3337 32.0013 50.3337C25.8013 50.3337 20.318 47.2503 17.0013 42.5503V47.0003ZM13.668 32.0003C13.668 21.867 21.868 13.667 32.0013 13.667C38.2013 13.667 43.6846 16.7503 47.0013 21.4503V17.0003H50.3346V27.0003H40.3346V23.667H44.468C41.7846 19.6503 37.2013 17.0003 32.0013 17.0003C28.0231 17.0003 24.2077 18.5807 21.3947 21.3937C18.5817 24.2068 17.0013 28.0221 17.0013 32.0003H13.668Z" fill="white"/>
</svg>
