<svg width="64" height="64" viewBox="0 0 64 64" fill="none" xmlns="http://www.w3.org/2000/svg">
<rect width="64" height="64" rx="12" fill="#A2AAB8"/>
<path d="M35.1208 13.9525C33.1179 13.1513 30.8836 13.1513 28.8808 13.9525L15.064 19.4845C14.3966 19.7514 13.8243 20.212 13.421 20.807C13.0176 21.402 12.8016 22.1041 12.8008 22.8229V41.1733C12.8007 41.8929 13.0162 42.5961 13.4196 43.192C13.823 43.7879 14.3958 44.2493 15.064 44.5165L28.8808 50.0437C30.8836 50.8449 33.1179 50.8449 35.1208 50.0437L48.9376 44.5165C49.6058 44.2493 50.1785 43.7879 50.5819 43.192C50.9853 42.5961 51.2009 41.8929 51.2008 41.1733V22.8229C51.2004 22.1037 50.9846 21.401 50.5813 20.8056C50.1779 20.2101 49.6054 19.7492 48.9376 19.4821L35.1208 13.9525ZM29.7736 16.1845C31.2041 15.6123 32.7999 15.6123 34.2304 16.1845L46.7704 21.2005L41.3008 23.3845L26.5312 17.4805L29.7712 16.1845H29.7736ZM23.3008 18.7693L38.0704 24.6757L32.0008 27.1069L17.2312 21.1981L23.3008 18.7717V18.7693ZM33.2008 29.2093L48.8008 22.9693V41.1709C48.8012 41.4109 48.7296 41.6456 48.5953 41.8446C48.4609 42.0435 48.27 42.1976 48.0472 42.2869L34.228 47.8141C33.892 47.9461 33.5488 48.0493 33.2008 48.1213V29.2093ZM30.8008 29.2093V48.1213C30.4499 48.0496 30.1062 47.9468 29.7736 47.8141L15.9544 42.2869C15.7319 42.1977 15.5413 42.044 15.407 41.8456C15.2726 41.6471 15.2008 41.4129 15.2008 41.1733V22.9717L30.8008 29.2117V29.2093Z" fill="white"/>
</svg>
