<svg width="36" height="36" viewBox="0 0 36 36" fill="none" xmlns="http://www.w3.org/2000/svg">
<path d="M26.6489 10.5067L15.6489 14.6317C15.2586 14.778 15 15.1512 15 15.568V17.7879C15 18.2141 15.2701 18.5935 15.6729 18.7329L26.6729 22.5406C27.3225 22.7655 28 22.283 28 21.5956V11.443C28 10.7448 27.3026 10.2615 26.6489 10.5067Z" fill="#FFAE00"/>
<path d="M31.903 4.45935C31.5181 4.20452 31.0779 4.05036 30.6212 4.0104C30.1645 3.97045 29.7051 4.04594 29.2836 4.23022L15.4701 9.79793C15.1431 9.93414 14.7934 10.0042 14.4403 10.0041H5.59701C4.8548 10.0041 4.14299 10.3059 3.61817 10.843C3.09335 11.3801 2.79851 12.1086 2.79851 12.8682V13.0973H0V19.971H2.79851V20.2689C2.81604 21.0165 3.11861 21.7274 3.64154 22.2498C4.16448 22.7721 4.8663 23.0644 5.59701 23.0642L8.95522 30.3503C9.18262 30.841 9.54062 31.256 9.98812 31.5478C10.4356 31.8396 10.9545 31.9964 11.4851 32H12.8955C13.6338 31.994 14.3399 31.6895 14.8599 31.1531C15.3799 30.6166 15.6717 29.8916 15.6716 29.136V23.3391L29.2836 28.9068C29.6184 29.0432 29.9755 29.1132 30.3358 29.113C30.8949 29.1038 31.4393 28.9287 31.903 28.609C32.2712 28.3545 32.575 28.014 32.7891 27.6156C33.0032 27.2171 33.1215 26.7723 33.1343 26.3177V6.81932C33.1323 6.35309 33.019 5.89442 32.8045 5.48315C32.5899 5.07188 32.2804 4.72043 31.903 4.45935ZM12.8731 12.8682V20.2689H5.59701V12.8682H12.8731ZM12.8731 29.136H11.4627L8.70896 23.0642H12.8731V29.136ZM16.5 20.6126C16.2342 20.4735 15.957 20.3585 15.6716 20.2689V12.7078C15.9543 12.6481 16.2314 12.5638 16.5 12.4558L30.3358 6.81932V26.249L16.5 20.6126ZM33.2015 13.6701V19.3982C33.9437 19.3982 34.6555 19.0965 35.1803 18.5593C35.7052 18.0222 36 17.2938 36 16.5342C36 15.7746 35.7052 15.0461 35.1803 14.509C34.6555 13.9719 33.9437 13.6701 33.2015 13.6701Z" fill="black"/>
</svg>
