<svg width="64" height="64" viewBox="0 0 64 64" fill="none" xmlns="http://www.w3.org/2000/svg">
<rect width="64" height="64" rx="12" fill="#A2AAB8"/>
<path d="M14 14V41H23V50H50V23H41V14H14ZM17 17H38V23.8445L23.843 38H17V17ZM24.5 20V21.5H20V24.5H27.407C27.212 26.222 26.6855 27.5825 25.8125 28.532C25.3386 28.3788 24.8828 28.174 24.4535 27.9215C23.399 27.2945 23 26.627 23 26H20C20 27.7865 21.101 29.276 22.5785 30.266C21.7295 30.4338 20.8653 30.5122 20 30.5V33.5C22.6595 33.5 24.875 32.891 26.5625 31.766C27.347 31.901 28.145 32 29 32V29.1875C29.8145 27.8225 30.248 26.228 30.407 24.5H32V21.5H27.5V20H24.5ZM40.157 26H47V47H26V40.1555L40.157 26ZM39.4055 33.0305C38.9586 31.6746 37.0402 31.6762 36.593 33.032V33.032L33.593 42.032L33.5 42.266V44H36.5V42.6875L36.5465 42.5H39.4535L39.5 42.6875V44H42.5V42.266L42.4055 42.0305L39.4055 33.0305V33.0305ZM38 38.1875L38.4215 39.5H37.5785L38 38.1875Z" fill="white"/>
</svg>
