<svg width="64" height="64" viewBox="0 0 64 64" fill="none" xmlns="http://www.w3.org/2000/svg">
<rect width="64" height="64" rx="12" fill="#A2AAB8"/>
<path d="M26 38L38 26" stroke="white" stroke-width="3" stroke-linecap="round" stroke-linejoin="round"/>
<path d="M27 28C27.5523 28 28 27.5523 28 27C28 26.4477 27.5523 26 27 26C26.4477 26 26 26.4477 26 27C26 27.5523 26.4477 28 27 28Z" fill="white" stroke="white" stroke-width="3" stroke-linecap="round" stroke-linejoin="round"/>
<path d="M37 38C37.5523 38 38 37.5523 38 37C38 36.4477 37.5523 36 37 36C36.4477 36 36 36.4477 36 37C36 37.5523 36.4477 38 37 38Z" fill="white" stroke="white" stroke-width="3" stroke-linecap="round" stroke-linejoin="round"/>
<path d="M18.0009 22.3999C18.0009 21.233 18.4645 20.1138 19.2897 19.2887C20.1148 18.4635 21.234 17.9999 22.4009 17.9999H24.4009C25.5627 17.9993 26.6771 17.5391 27.5009 16.7199L28.9009 15.3199C29.3098 14.9087 29.796 14.5824 30.3314 14.3598C30.8668 14.1371 31.441 14.0225 32.0209 14.0225C32.6008 14.0225 33.175 14.1371 33.7104 14.3598C34.2459 14.5824 34.732 14.9087 35.1409 15.3199L36.5409 16.7199C37.3647 17.5391 38.4791 17.9993 39.6409 17.9999H41.6409C42.8079 17.9999 43.927 18.4635 44.7522 19.2887C45.5774 20.1138 46.0409 21.233 46.0409 22.3999V24.3999C46.0416 25.5617 46.5017 26.6761 47.3209 27.4999L48.7209 28.8999C49.1321 29.3088 49.4584 29.795 49.6811 30.3304C49.9038 30.8659 50.0184 31.4401 50.0184 32.0199C50.0184 32.5998 49.9038 33.174 49.6811 33.7095C49.4584 34.2449 49.1321 34.7311 48.7209 35.1399L47.3209 36.5399C46.5017 37.3638 46.0416 38.4781 46.0409 39.6399V41.6399C46.0409 42.8069 45.5774 43.9261 44.7522 44.7512C43.927 45.5764 42.8079 46.0399 41.6409 46.0399H39.6409C38.4791 46.0406 37.3647 46.5007 36.5409 47.3199L35.1409 48.7199C34.732 49.1311 34.2459 49.4575 33.7104 49.6801C33.175 49.9028 32.6008 50.0174 32.0209 50.0174C31.441 50.0174 30.8668 49.9028 30.3314 49.6801C29.796 49.4575 29.3098 49.1311 28.9009 48.7199L27.5009 47.3199C26.6771 46.5007 25.5627 46.0406 24.4009 46.0399H22.4009C21.234 46.0399 20.1148 45.5764 19.2897 44.7512C18.4645 43.9261 18.0009 42.8069 18.0009 41.6399V39.6399C18.0003 38.4781 17.5401 37.3638 16.7209 36.5399L15.3209 35.1399C14.9097 34.7311 14.5834 34.2449 14.3607 33.7095C14.1381 33.174 14.0234 32.5998 14.0234 32.0199C14.0234 31.4401 14.1381 30.8659 14.3607 30.3304C14.5834 29.795 14.9097 29.3088 15.3209 28.8999L16.7209 27.4999C17.5401 26.6761 18.0003 25.5617 18.0009 24.3999V22.3999" stroke="white" stroke-width="3" stroke-linecap="round" stroke-linejoin="round"/>
</svg>
