<?xml version="1.0" encoding="UTF-8"?>
<svg width="184" height="184" id="_圖層_1" data-name="圖層_1" xmlns="http://www.w3.org/2000/svg" xmlns:xlink="http://www.w3.org/1999/xlink" version="1.1" viewBox="0 0 184 184">
  <!-- Generator: Adobe Illustrator 29.8.2, SVG Export Plug-In . SVG Version: 2.1.1 Build 3)  -->
  <defs>
    <style>
      .st0, ._x00E7__x00B9__x00AA_圖樣式_x0020_2, .st1 {
        fill: none;
      }

      .st2 {
        fill-rule: evenodd;
      }

      .st2, .st3 {
        fill: #fff;
      }

      ._x00E7__x00B9__x00AA_圖樣式_x0020_2 {
        stroke: url(#_未命名漸層_331);
      }

      ._x00E7__x00B9__x00AA_圖樣式_x0020_2, .st1 {
        stroke-width: 2px;
      }

      .st1 {
        stroke: url(#_未命名漸層_332);
      }

      ._x00E7__x00B9__x00AA_圖樣式 {
        fill: url(#_未命名漸層_33);
      }

      .st4 {
        clip-path: url(#clippath-1);
      }

      .st5 {
        clip-path: url(#clippath);
      }
    </style>
    <linearGradient id="_未命名漸層_33" data-name="未命名漸層 33" x1="91" y1="19" x2="91" y2="169" gradientUnits="userSpaceOnUse">
      <stop offset="0" stop-color="#fecd00"/>
      <stop offset="1" stop-color="#df9f14"/>
    </linearGradient>
    <linearGradient id="_未命名漸層_331" data-name="未命名漸層 33" y1="10" y2="178" xlink:href="#_未命名漸層_33"/>
    <linearGradient id="_未命名漸層_332" data-name="未命名漸層 33" y1="10" y2="178" xlink:href="#_未命名漸層_33"/>
    <clipPath id="clippath">
      <rect class="st0" x="39" y="48" width="104.16" height="92.34"/>
    </clipPath>
    <clipPath id="clippath-1">
      <rect class="st0" x="39" y="48" width="104.16" height="92.34"/>
    </clipPath>
  </defs>
  <rect class="_x00E7__x00B9__x00AA_圖樣式" x="16" y="19" width="150" height="150" rx="36" ry="36"/>
  <rect class="st1" x="8" y="11" width="166" height="166" rx="36" ry="36"/>
  <g class="st5">
    <g class="st4">
      <g>
        <path class="st2" d="M138.02,84.68c-4.26-3.21-9.07-5.63-14.19-7.15-1.73-.54-2.42-1.43-1.89-3.24.45-1.72.74-3.48.84-5.25.43-5.03.44-10.04-1.7-14.78-1.79-3.94-4.88-6.1-9.22-6.26-2.01,0-4.01.4-5.87,1.17-4.99,1.85-9.27,4.9-13.17,8.44-1.33,1.2-2.21,1.18-3.49-.04-3.38-3.17-7.28-5.75-11.53-7.62-2.77-1.26-5.69-2.15-8.74-1.81-4.7.52-7.88,3.83-9.18,9.44-1.29,5.51-.82,11.05.33,16.52.4,1.9-.08,2.78-1.97,3.36-4.74,1.42-9.21,3.62-13.23,6.51-2.96,2.18-5.63,4.59-6.02,8.58v3.71c.76,3.34,2.9,5.71,5.48,7.75,4.11,3.24,8.8,5.37,13.73,7.04,1.83.63,2.48,1.51,1.97,3.4-1.12,4.17-1.04,8.41-.93,12.65.05,2.56.69,5.07,1.85,7.34,2.32,4.49,6.58,6.59,11.53,5.68,6.46-1.18,11.63-4.78,16.57-8.8,2.15-1.76,2.1-1.74,4.13,0,4.63,3.93,9.51,7.41,15.59,8.69,6,1.26,10.74-1.42,12.72-7.19,2.08-6.03,1.5-12.17.62-18.3-.4-2.82-.46-2.78,2.27-3.76,4.69-1.64,9.12-3.75,13.09-6.78,2.64-2.01,4.74-4.38,5.52-7.7v-3.71c-.48-3.44-2.51-5.87-5.14-7.9h0ZM94.79,62.46c4.63-4.22,9.41-8.16,15.79-9.37,2.96-.57,4.93.46,6.1,3.21,1.17,2.75,1.49,5.62,1.43,9.95-.21,2.75-.6,5.49-1.14,8.19-.24,1.3-.69,1.64-1.97,1.33-3.58-.85-7.23-1.43-10.9-1.72-.77,0-1.48-.38-1.91-1.02-2.25-3.21-4.7-6.28-7.34-9.18-.45-.48-.75-.77-.07-1.39h0ZM70.1,99.46l6,10.37c-2.91-.05-5.52-.72-8.16-1.12-.74-.12-1.26-.19-.87-1.3.91-2.59,1.77-5.19,3.03-7.95h0ZM70.05,89.12c-1.17-3.19-2.19-5.97-3.24-8.88,3.04-.81,6.14-1.34,9.27-1.61l-6.02,10.49ZM73.05,95.56c-.51-.84-.51-1.89,0-2.73,2.4-4.63,4.97-9.17,7.81-13.55.52-.95,1.54-1.52,2.62-1.47h15.26c1.01-.07,1.96.43,2.47,1.3,2.93,4.51,5.6,9.16,8.1,13.9.41.73.38,1.62-.07,2.32-2.45,4.7-5.03,9.31-7.91,13.77-.51.96-1.53,1.53-2.61,1.45-2.62-.06-5.24,0-7.88,0-2.32,0-4.63-.08-6.95.03-1.3.16-2.57-.49-3.2-1.64-2.71-4.36-5.34-8.78-7.68-13.36h.02ZM112.16,99.33c1.44,2.68,2.26,5.44,3.24,8.13.37,1.01-.54.93-1.03,1.03-2.63.52-5.25,1.13-8.18,1.24l5.96-10.41ZM106.16,78.62c2.74.26,5.46.72,8.13,1.35.82.18,1.21.32.81,1.32-.99,2.47-1.85,4.99-2.9,7.88l-6.05-10.55ZM90.66,66.62c.62-.72.88-.04,1.18.31,1.72,2.03,3.43,4.07,5.49,6.52h-12.14c1.58-2.63,3.6-4.67,5.46-6.83h0ZM64.84,57.81c1.33-4.25,3.63-5.64,7.86-4.47,5.78,1.61,10.39,5.14,14.76,9.07.64.57.46.89-.05,1.43-2.65,2.89-5.11,5.95-7.37,9.15-.42.64-1.12,1.03-1.89,1.05-3.67.27-7.31.83-10.89,1.69-1.25.32-1.71.05-1.98-1.3-.79-3.55-1.21-7.16-1.26-10.8-.04-1.97.23-3.94.82-5.83h0ZM63.04,106.01c-.27.85-.4,1.45-1.69,1.04-5.13-1.66-10.06-3.67-14.37-6.95-2-1.51-3.33-3.74-3.7-6.22.24-1.29.85-2.48,1.76-3.42,4.58-4.76,10.55-6.95,16.59-8.99.93-.32,1.19.24,1.43.98,1.16,3.73,2.58,7.38,4.23,10.92.28.63.23,1.35-.13,1.93-1.59,3.48-2.97,7.05-4.12,10.69v.02ZM87.19,126.54c-3.82,3.58-8.3,6.39-13.2,8.26-4.86,1.8-8.34-.12-9.47-5.17-.44-1.82-.61-3.69-.51-5.56-.12-3.35.54-6.43,1.07-9.54.23-1.33.6-2.03,2.32-1.64,3.52.85,7.11,1.34,10.72,1.49.85,0,1.64.46,2.07,1.2,2.16,3.09,4.53,6.03,7.09,8.81.86.92.75,1.38-.1,2.16h0ZM91.87,121.68c-.46.58-.82.5-1.27-.04-1.78-2.14-3.59-4.25-5.64-6.69h12.14c-1.48,2.6-3.48,4.59-5.23,6.73ZM117.71,129.56c-.88,4.54-3.91,6.69-8.3,5.53-5.73-1.51-10.23-5.1-14.51-9.03-.76-.69-.16-1.06.22-1.49,2.59-2.95,5.01-6.04,7.24-9.27.39-.58,1.04-.93,1.73-.93,3.83-.28,7.64-.87,11.38-1.76,1.14-.28,1.53.11,1.71,1.13.55,3.1,1.28,6.18.97,9.22.13,2.21-.01,4.43-.44,6.6h0ZM136.56,98.37c-4.43,4.26-9.99,6.49-15.66,8.44-.77.27-1.18.05-1.48-.84-1.25-3.78-2.74-7.48-4.47-11.07-.29-.62-.24-1.34.12-1.92,1.57-3.31,2.9-6.73,4-10.22.35-1.11.75-1.52,1.94-1.11,4.86,1.7,9.64,3.57,13.77,6.74,1.91,1.46,3.65,3.09,4.1,5.56-.19,1.72-1.03,3.3-2.33,4.43h0Z"/>
        <path class="st3" d="M91.23,103.41c-3.74.05-7.14-2.15-8.62-5.59-1.48-3.44-.73-7.42,1.88-10.1,2.61-2.68,6.58-3.51,10.05-2.11,3.47,1.4,5.76,4.75,5.79,8.49.05,2.45-.89,4.81-2.6,6.57-1.71,1.75-4.05,2.74-6.5,2.75Z"/>
      </g>
    </g>
  </g>
</svg>