<?xml version="1.0" encoding="UTF-8"?>
<svg width="184" height="184" id="_圖層_1" data-name="圖層_1" xmlns="http://www.w3.org/2000/svg" xmlns:xlink="http://www.w3.org/1999/xlink" version="1.1" viewBox="0 0 184 184">
  <!-- Generator: Adobe Illustrator 29.8.2, SVG Export Plug-In . SVG Version: 2.1.1 Build 3)  -->
  <defs>
    <style>
      .st0 {
        fill: #fff;
        fill-rule: evenodd;
      }

      ._x00E7__x00B9__x00AA_圖樣式_x0020_2 {
        stroke: url(#_未命名漸層_331);
      }

      ._x00E7__x00B9__x00AA_圖樣式_x0020_2, .st1 {
        fill: none;
        stroke-width: 2px;
      }

      .st1 {
        stroke: url(#_未命名漸層_332);
      }

      ._x00E7__x00B9__x00AA_圖樣式 {
        fill: url(#_未命名漸層_33);
      }
    </style>
    <linearGradient id="_未命名漸層_33" data-name="未命名漸層 33" x1="91" y1="19" x2="91" y2="169" gradientUnits="userSpaceOnUse">
      <stop offset="0" stop-color="#fecd00"/>
      <stop offset="1" stop-color="#df9f14"/>
    </linearGradient>
    <linearGradient id="_未命名漸層_331" data-name="未命名漸層 33" y1="10" y2="178" xlink:href="#_未命名漸層_33"/>
    <linearGradient id="_未命名漸層_332" data-name="未命名漸層 33" y1="10" y2="178" xlink:href="#_未命名漸層_33"/>
  </defs>
  <rect class="_x00E7__x00B9__x00AA_圖樣式" x="16" y="19" width="150" height="150" rx="36" ry="36"/>
  <path class="st0" d="M61.54,57h.45c.63.12,1.17.5,1.49,1.05.8,1.29,1.61,2.59,2.39,3.88l15.62,26.08,8.14,13.63c.09.24.36.36.6.27l13.1-3.15,17.85-4.28,1.14-.27-.2-.31-10.6-14.75c-.12-.17-.23-.35-.31-.54-.11-.19-.12-.42-.05-.63.07-.21.23-.38.43-.46.52-.23,1.07-.39,1.63-.49l6.34-1.07,6.27-1.03,2.65-.45c.56-.12,1.14,0,1.58.36.52.4,1,.86,1.43,1.36,3.93,4.83,7.84,9.68,11.74,14.52.22.27.45.54.65.8.2.19.27.46.2.72-.07.26-.28.46-.54.53-.68.26-1.37.47-2.07.65l-12.85,3.41h-.31l.18.38,12.27,16.51c.27.36.54.71.78,1.09.15.22.28.46.38.71.18.37.05.82-.31,1.03-.36.25-.75.45-1.16.6l-8.03,2.94-19.54,7.01c-2.63.94-5.27,1.85-7.9,2.74-.78.29-1.6.47-2.43.51-.76.02-1.5-.28-2.03-.82-.66-.66-1.23-1.41-1.67-2.23-2.39-4.18-4.78-8.37-7.16-12.56-1.36-2.39-2.68-4.8-3.99-7.21-.03-.08-.1-.15-.19-.18-.08-.03-.18-.03-.26,0l-17.85,4.66c-1.52.4-3.03.78-4.46,1.12-1.23.33-2.53.11-3.59-.58-.7-.52-1.24-1.21-1.58-2.01l-5.93-12.83-10.42-22.56c-1.9-4.14-3.79-8.27-5.67-12.41-.27-.64-.51-1.3-.71-1.96v-.62s0-.09,0-.13c.07-.59.53-1.07,1.12-1.16.44-.1.89-.17,1.34-.2l3.24-.27,3.35-.27,3.24-.2,3.35-.33,2.59-.2,3.61-.29,1.45-.13h1.27ZM64.71,108.12l.8-.16,18.99-4.46c.96-.22.94-.51.54-1.23l-15.31-26.46-9.06-15.62c-.1-.2-.31-.31-.54-.29l-2.16.29-3.12.27-2.97.27-3.15.29-2.99.27c-1.03,0-2.07.22-3.1.27-.6,0-.71.2-.51.8v.2l6.2,12.74,5.42,11.16,8.08,16.67c.76,1.58,1.5,3.16,2.23,4.75.04.11.12.19.23.24.11.05.22.05.33,0h.09ZM92.16,106l.16.31,4.46,7.81,5.62,9.55c.19.31.41.59.67.85.28.3.72.39,1.09.22l10.44-3.57,20.08-6.83c.42-.16.87-.29,1.27-.49.13-.04.23-.14.26-.28.04-.13,0-.27-.09-.37-.13-.22-.27-.44-.42-.65l-9.15-12.52-1.38-1.92c-.08-.23-.25-.41-.47-.5-.23-.09-.48-.07-.69.05l-.45.13-16.49,4.28-12.2,3.17-2.72.74ZM128.79,77.39h-.31l-2.23.45c-3.21.58-6.4,1.16-9.62,1.72-.76.13-.78.38-.38.94l9.3,12.76c.1.17.31.25.49.18l10.35-2.57c.76-.18,1.52-.36,2.23-.6.71-.25.56-.4.22-.8l-7.7-9.79-1.47-1.87c-.21-.28-.55-.43-.89-.4Z"/>
  <rect class="st1" x="8" y="11" width="166" height="166" rx="36" ry="36"/>
</svg>