<?xml version="1.0" encoding="UTF-8"?>
<svg width="184" height="183" id="_圖層_1" data-name="圖層_1" xmlns="http://www.w3.org/2000/svg" xmlns:xlink="http://www.w3.org/1999/xlink" version="1.1" viewBox="0 0 184 183">
  <!-- Generator: Adobe Illustrator 29.8.2, SVG Export Plug-In . SVG Version: 2.1.1 Build 3)  -->
  <defs>
    <style>
      .st0, ._x00E7__x00B9__x00AA_圖樣式_x0020_2, .st1 {
        fill: none;
      }

      .st2 {
        fill-rule: evenodd;
      }

      .st2, .st3 {
        fill: #fff;
      }

      ._x00E7__x00B9__x00AA_圖樣式_x0020_2 {
        stroke: url(#_未命名漸層_331);
      }

      ._x00E7__x00B9__x00AA_圖樣式_x0020_2, .st1 {
        stroke-width: 2px;
      }

      .st1 {
        stroke: url(#_未命名漸層_332);
      }

      ._x00E7__x00B9__x00AA_圖樣式 {
        fill: url(#_未命名漸層_33);
      }

      .st4 {
        clip-path: url(#clippath);
      }
    </style>
    <linearGradient id="_未命名漸層_33" data-name="未命名漸層 33" x1="91" y1="17" x2="91" y2="167" gradientUnits="userSpaceOnUse">
      <stop offset="0" stop-color="#fecd00"/>
      <stop offset="1" stop-color="#df9f14"/>
    </linearGradient>
    <linearGradient id="_未命名漸層_331" data-name="未命名漸層 33" y1="8" y2="176" xlink:href="#_未命名漸層_33"/>
    <linearGradient id="_未命名漸層_332" data-name="未命名漸層 33" y1="8" y2="176" xlink:href="#_未命名漸層_33"/>
    <clipPath id="clippath">
      <rect class="st0" x="37" y="38" width="107.96" height="107.97"/>
    </clipPath>
  </defs>
  <rect class="_x00E7__x00B9__x00AA_圖樣式" x="16" y="17" width="150" height="150" rx="36" ry="36"/>
  <rect class="st1" x="8" y="9" width="166" height="166" rx="36" ry="36"/>
  <g class="st4">
    <g>
      <path class="st2" d="M90.98,38c-29.81,0-53.98,24.17-53.98,53.98s24.17,53.98,53.98,53.98,53.98-24.17,53.98-53.98-24.17-53.98-53.98-53.98h0ZM90.98,142.75c-28.04,0-50.77-22.73-50.77-50.77s22.73-50.77,50.77-50.77,50.77,22.73,50.77,50.77c-.01,28.03-22.73,50.75-50.77,50.77h0Z"/>
      <path class="st3" d="M90.98,45.56c11.66-.04,22.91,4.33,31.49,12.24-2.16-.18-4.3.57-5.87,2.06-1.58,1.49-2.44,3.58-2.38,5.75-.34,11.25,13.34,13.5,5.96,35.99l-6.19,18.51-16.6-48.88c-.25-.76,0-1.19.97-1.19h4.7c.12,0,.24-.05.33-.14.08-.09.13-.21.12-.33v-2.77c0-.12-.04-.24-.12-.33s-.2-.14-.33-.14c-8.88.39-17.71.39-26.5,0-.12,0-.24.05-.33.14-.08.09-.13.21-.12.33v2.7c0,.12.04.24.12.33.09.09.2.14.33.14h4.72c.72-.14,1.43.32,1.6,1.03l6.75,18.65-10.19,31.04-16.87-49.66c-.13-.22-.13-.49,0-.7.14-.21.39-.32.64-.29h5.26c.12,0,.24-.05.33-.14.09-.09.13-.21.12-.33v-2.77c0-.25-.2-.45-.45-.45-5.65.29-11.25.36-16.58.4,8.57-13.25,23.29-21.23,39.07-21.19Z"/>
      <path class="st3" d="M131.81,69.87c12.15,22.48,3.86,50.55-18.56,62.82l14.49-41c2.6-6.98,3.98-14.37,4.07-21.82h0Z"/>
      <path class="st3" d="M106.52,135.73c-9.36,3.31-19.53,3.55-29.04.68l14.31-40.98,14.73,40.31Z"/>
      <path class="st3" d="M71.12,133.95c-22.96-10.83-32.98-38.08-22.49-61.2l22.49,61.2Z"/>
    </g>
  </g>
</svg>