<svg width="64" height="64" viewBox="0 0 64 64" fill="none" xmlns="http://www.w3.org/2000/svg">
<rect width="64" height="64" rx="12" fill="#A2AAB8"/>
<path d="M22.5 20.6038C22.1242 20.6038 21.7569 20.7153 21.4444 20.9242C21.132 21.1331 20.8885 21.43 20.7446 21.7773C20.6008 22.1247 20.5632 22.5069 20.6365 22.8756C20.7098 23.2444 20.8908 23.5831 21.1565 23.8489C21.4222 24.1148 21.7608 24.2958 22.1293 24.3692C22.4979 24.4425 22.8799 24.4049 23.2271 24.261C23.5743 24.1171 23.871 23.8735 24.0798 23.5609C24.2886 23.2483 24.4 22.8807 24.4 22.5048C24.4 22.0006 24.1998 21.5171 23.8435 21.1606C23.4872 20.8041 23.0039 20.6038 22.5 20.6038ZM50.449 31.5913L32.437 13.6083C32.2598 13.4172 32.0453 13.2646 31.8067 13.16C31.5681 13.0553 31.3105 13.0009 31.05 13H19.65C19.4 12.9986 19.1521 13.0465 18.9206 13.1411C18.6891 13.2357 18.4786 13.3751 18.301 13.5513L13.551 18.2847C13.3749 18.4623 13.2356 18.6729 13.1411 18.9046C13.0465 19.1362 12.9986 19.3842 13 19.6343V31.04C13.007 31.5433 13.2038 32.0254 13.551 32.3897L31.582 50.4487C31.9461 50.7961 32.4279 50.993 32.931 51C33.1811 51.0014 33.4289 50.9535 33.6604 50.8589C33.8919 50.7643 34.1025 50.6249 34.28 50.4487L50.449 34.2716C50.6251 34.094 50.7644 33.8834 50.8589 33.6517C50.9535 33.4201 51.0014 33.1721 51 32.922C50.9882 32.4253 50.7918 31.9508 50.449 31.5913V31.5913ZM32.931 46.4377L16.8 30.2796V20.4137L20.41 16.8019H30.252L46.402 32.941L32.931 46.4377Z" fill="white"/>
</svg>
