<svg width="36" height="36" viewBox="0 0 36 36" fill="none" xmlns="http://www.w3.org/2000/svg">
<path fill-rule="evenodd" clip-rule="evenodd" d="M10.8176 8.62011C10.1496 9.28456 10.1496 10.3674 10.8176 11.0318C11.4821 11.6998 12.5649 11.6998 13.2328 11.0318L17.6344 6.63378C17.8032 6.46503 18.0563 6.45097 18.2391 6.59511C18.2461 6.60214 18.254 6.60829 18.2619 6.61444C18.2699 6.6206 18.2778 6.62675 18.2848 6.63378L29.3379 17.6799C29.5207 17.8627 29.5207 18.1475 29.3379 18.3303L18.2813 29.3764C18.0985 29.5592 17.8137 29.5592 17.6309 29.3764L13.2364 24.9748C12.9155 24.6556 12.4813 24.4763 12.0287 24.4763C11.5761 24.4763 11.142 24.6556 10.8211 24.9748C10.1532 25.6392 10.1532 26.7221 10.8211 27.3865L16.6254 33.1873C16.9823 33.5435 17.4659 33.7436 17.9701 33.7436C18.4744 33.7436 18.958 33.5435 19.3149 33.1873L33.1559 19.3568C33.333 19.1809 33.4736 18.9717 33.5695 18.7412C33.6655 18.5107 33.7148 18.2635 33.7148 18.0139C33.7148 17.7642 33.6655 17.517 33.5695 17.2865C33.4736 17.056 33.333 16.8468 33.1559 16.6709L19.3114 2.8369C18.5731 2.09862 17.3672 2.09159 16.6219 2.81933C15.0399 4.39784 13.9219 5.51581 13.2715 6.1662L10.8176 8.62011ZM7.10511 12.4275L2.7844 16.7271C2.60742 16.903 2.4669 17.1122 2.37091 17.3425C2.27492 17.5728 2.22534 17.8198 2.22501 18.0694C2.22468 18.3189 2.27362 18.5661 2.36901 18.7966C2.4644 19.0272 2.60436 19.2367 2.78088 19.4131L7.06292 23.6916C7.38375 24.0108 7.81794 24.19 8.27053 24.19C8.72313 24.19 9.15732 24.0108 9.47815 23.6916C9.63696 23.5335 9.76297 23.3456 9.84896 23.1386C9.93494 22.9317 9.97921 22.7098 9.97921 22.4857C9.97921 22.2616 9.93494 22.0398 9.84896 21.8328C9.76297 21.6259 9.63696 21.438 9.47815 21.2799L6.60237 18.4076C6.41956 18.2248 6.41956 17.94 6.60237 17.7572L9.52034 14.8428C9.67915 14.6847 9.80516 14.4967 9.89115 14.2898C9.97713 14.0829 10.0214 13.861 10.0214 13.6369C10.0214 13.4128 9.97713 13.1909 9.89115 12.984C9.80516 12.7771 9.67915 12.5891 9.52034 12.431C8.85589 11.7631 7.77307 11.7631 7.10511 12.4275Z" fill="black"/>
<path d="M21.6352 18.0842C21.6352 19.0744 21.2415 20.024 20.5406 20.7242C19.8398 21.4244 18.8892 21.8178 17.8981 21.8178C16.9069 21.8178 15.9564 21.4244 15.2555 20.7242C14.5547 20.024 14.161 19.0744 14.161 18.0842C14.161 17.094 14.5547 16.1443 15.2555 15.4441C15.9564 14.7439 16.9069 14.3506 17.8981 14.3506C18.8892 14.3506 19.8398 14.7439 20.5406 15.4441C21.2415 16.1443 21.6352 17.094 21.6352 18.0842Z" fill="#FFAE00"/>
</svg>
