<?xml version="1.0" encoding="UTF-8"?>
<svg width="184" height="183" id="_圖層_1" data-name="圖層_1" xmlns="http://www.w3.org/2000/svg" xmlns:xlink="http://www.w3.org/1999/xlink" version="1.1" viewBox="0 0 184 183">
  <!-- Generator: Adobe Illustrator 29.8.2, SVG Export Plug-In . SVG Version: 2.1.1 Build 3)  -->
  <defs>
    <style>
      .st0, ._x00E7__x00B9__x00AA_圖樣式_x0020_2, .st1 {
        fill: none;
      }

      ._x00E7__x00B9__x00AA_圖樣式_x0020_2 {
        stroke: url(#_未命名漸層_331);
      }

      ._x00E7__x00B9__x00AA_圖樣式_x0020_2, .st1 {
        stroke-width: 2px;
      }

      .st1 {
        stroke: url(#_未命名漸層_332);
      }

      ._x00E7__x00B9__x00AA_圖樣式 {
        fill: url(#_未命名漸層_33);
      }

      .st2 {
        fill: #fff;
      }

      .st3 {
        clip-path: url(#clippath);
      }
    </style>
    <linearGradient id="_未命名漸層_33" data-name="未命名漸層 33" x1="91" y1="17" x2="91" y2="167" gradientUnits="userSpaceOnUse">
      <stop offset="0" stop-color="#fecd00"/>
      <stop offset="1" stop-color="#df9f14"/>
    </linearGradient>
    <linearGradient id="_未命名漸層_331" data-name="未命名漸層 33" y1="9" y2="177" xlink:href="#_未命名漸層_33"/>
    <clipPath id="clippath">
      <rect class="st0" x="47" y="48" width="87.79" height="87.73"/>
    </clipPath>
    <linearGradient id="_未命名漸層_332" data-name="未命名漸層 33" y1="9" y2="177" xlink:href="#_未命名漸層_33"/>
  </defs>
  <rect class="_x00E7__x00B9__x00AA_圖樣式" x="16" y="17" width="150" height="150" rx="36" ry="36"/>
  <g class="st3">
    <g>
      <path class="st2" d="M62.7,92.15l-1.65-1.65c-5.04-5.06-6.92-12.47-4.92-19.32-5.75-1.31-9.63-6.68-9.08-12.55.56-5.87,5.38-10.41,11.27-10.62,5.89-.21,11.02,3.99,11.99,9.81,6.54-1.57,13.41.39,18.15,5.15l.69.69-8.66,8.66-.69-.69c-2.82-2.82-7.38-2.82-10.2,0-2.82,2.82-2.82,7.38,0,10.2l19.45,19.45-8.66,8.66-9.14-9.14-8.56-8.67Z"/>
      <path class="st2" d="M72.43,82.55l9.14-9.14,8.66-8.66,1.65-1.65c5.05-4.99,12.39-6.87,19.21-4.92.84-6.01,6.12-10.38,12.18-10.09,6.06.3,10.89,5.17,11.13,11.23.25,6.06-4.17,11.31-10.19,12.09,1.95,6.79.07,14.1-4.92,19.1l-.69.69-8.43-8.66.69-.69c2.82-2.82,2.82-7.38,0-10.2-2.82-2.82-7.38-2.82-10.2,0l-1.65,1.65-8.66,8.66-9.14,9.14-8.79-8.56Z"/>
      <path class="st2" d="M111.44,126.24c-6.87,2.11-14.35.26-19.45-4.81l-.69-.69,8.66-8.67.69.69c2.82,2.82,7.38,2.82,10.2,0,2.82-2.82,2.82-7.38,0-10.2l-1.64-1.65-8.67-8.66-9.14-9.14,8.66-8.66,19.56,19.56c4.8,4.82,6.76,11.79,5.17,18.41,6.05.9,10.39,6.31,9.96,12.42-.43,6.1-5.49,10.85-11.61,10.89-5.64-.04-10.5-3.98-11.72-9.49h0Z"/>
      <path class="st2" d="M108.04,101.87l-9.14,9.14-8.66,8.67-1.65,1.64c-4.81,4.81-11.78,6.76-18.39,5.15-1.25,5.67-6.46,9.57-12.25,9.18-5.79-.39-10.43-4.95-10.91-10.74-.48-5.78,3.34-11.05,8.99-12.39-1.74-6.66.18-13.75,5.05-18.63l.69-.69,8.66,8.66-.66.69c-2.82,2.82-2.82,7.38,0,10.2,2.82,2.82,7.38,2.82,10.2,0l1.65-1.64,8.66-8.67,9.14-9.14,8.61,8.56Z"/>
    </g>
  </g>
  <rect class="st1" x="8" y="10" width="166" height="166" rx="36" ry="36"/>
</svg>