<svg width="64" height="64" viewBox="0 0 64 64" fill="none" xmlns="http://www.w3.org/2000/svg">
<path d="M51.9859 47.2588H44.8295C44.2235 48.39 43.5567 49.4924 42.815 50.5656M51.9859 47.2588L42.5062 50.3528M51.9859 47.2588C48.4844 51.831 43.4605 55.1653 37.6661 56.511M51.9859 47.2588L37.6661 56.511M42.815 50.5656C42.8149 50.5657 42.8148 50.5659 42.8147 50.566L42.5062 50.3528M42.815 50.5656C42.8151 50.5654 42.8152 50.5653 42.8153 50.5651L42.5062 50.3528M42.815 50.5656C41.1085 53.0502 39.301 55.0107 37.6661 56.511M42.5062 50.3528C40.6466 53.0604 38.6664 55.1383 36.9276 56.6709C37.1751 56.6212 37.4213 56.5679 37.6661 56.511M21.2004 50.5639L21.2018 50.5659C22.9123 53.0428 24.724 55.0039 26.3612 56.5136C20.5598 55.1694 15.5197 51.8335 12.0289 47.2588H19.186C19.7808 48.378 20.462 49.4798 21.2004 50.5639ZM23.8529 15.3934C26.1101 12.0517 28.5638 9.75014 30.3861 8.31202V17.0055H22.8263C23.1508 16.463 23.4881 15.9285 23.852 15.3947L23.8529 15.3934ZM40.1645 15.3947C40.5284 15.9285 40.8658 16.463 41.1902 17.0055H33.6305V8.32505C35.4513 9.76409 37.8989 12.0621 40.1642 15.3943L40.1645 15.3947ZM32 3.625C16.3475 3.625 3.625 16.3475 3.625 32C3.625 47.6525 16.3475 60.375 32 60.375C47.6525 60.375 60.375 47.6525 60.375 32C60.375 16.3475 47.6525 3.625 32 3.625ZM19.1347 17.0055H11.8204C15.3401 12.2806 20.4852 8.83186 26.4112 7.47872C24.4899 9.26627 22.6867 11.3591 21.1838 13.5849C20.4257 14.6906 19.7427 15.8402 19.1347 17.0055ZM9.77524 20.2334H17.6675C16.3721 23.5271 15.6294 26.9859 15.4526 30.5182H6.90484C7.11605 26.8199 8.13714 23.3319 9.77524 20.2334ZM6.90982 33.7461H15.4523C15.6287 37.3196 16.3707 40.7656 17.6656 44.0309H9.92096C8.23583 40.9322 7.16792 37.4442 6.90982 33.7461ZM30.3861 47.2588V55.7125C27.9103 53.7911 25.1299 50.9537 22.8942 47.2588H30.3861ZM30.3861 44.0309H21.1903C19.8372 41.0189 18.8867 37.5865 18.6819 33.7461H30.3861V44.0309ZM30.3861 30.5182H18.6814C18.8664 26.9381 19.691 23.492 21.1416 20.2334H30.3861V30.5182ZM54.2413 20.2334C55.8781 23.3307 56.8852 26.8185 57.1101 30.5182H48.564C48.3871 26.9859 47.6444 23.5271 46.349 20.2334H54.2413ZM42.8161 13.5848C41.3121 11.3714 39.4954 9.26739 37.5794 7.47592C43.5214 8.82705 48.6584 12.2771 52.1797 17.0055H44.8653C44.2573 15.8401 43.5743 14.6905 42.8161 13.5848ZM33.6139 20.2334H42.8584C44.309 23.492 45.1336 26.9381 45.3186 30.5182H33.6139V20.2334ZM33.6139 33.7461H45.3181C45.1133 37.5865 44.1628 41.0189 42.8097 44.0309H33.6139V33.7461ZM33.6139 47.2588H41.1058C38.8701 50.9537 36.0897 53.7911 33.6139 55.7125V47.2588ZM57.0902 33.7461C56.833 37.4455 55.7789 40.9334 54.08 44.0309H46.3367C47.6453 40.7656 48.387 37.3196 48.5491 33.7461H57.0902Z" fill="#212121" stroke="#212121" stroke-width="0.75"/>
<path d="M62 53.7333L51.6 43L49 46.2667L58.9667 57L62 53.7333Z" fill="#212121"/>
<circle cx="43" cy="38" r="9.5" fill="white" stroke="#212121" stroke-width="3"/>
</svg>
