<svg width="70" height="70" viewBox="0 0 70 70" fill="none" xmlns="http://www.w3.org/2000/svg">
<g clip-path="url(#clip0_7937_35544)">
<path d="M35.9999 11.916C31.237 11.916 26.581 13.3284 22.6207 15.9746C18.6605 18.6207 15.5738 22.3818 13.7511 26.7822C11.9284 31.1826 11.4515 36.0247 12.3807 40.6961C13.3099 45.3676 15.6035 49.6586 18.9714 53.0265C22.3393 56.3944 26.6303 58.688 31.3018 59.6172C35.9732 60.5464 40.8153 60.0695 45.2157 58.2468C49.6161 56.4241 53.3772 53.3375 56.0234 49.3772C58.6695 45.4169 60.0819 40.7609 60.0819 35.998C60.0819 29.611 57.5447 23.4857 53.0285 18.9695C48.5122 14.4532 42.3869 11.916 35.9999 11.916V11.916ZM35.9999 57.2468C31.7973 57.2468 27.6891 56.0005 24.1947 53.6657C20.7004 51.3309 17.9769 48.0122 16.3686 44.1295C14.7603 40.2468 14.3396 35.9744 15.1594 31.8525C15.9793 27.7307 18.0031 23.9445 20.9748 20.9728C23.9465 18.0011 27.7326 15.9774 31.8545 15.1575C35.9764 14.3376 40.2488 14.7584 44.1315 16.3667C48.0142 17.9749 51.3328 20.6984 53.6677 24.1928C56.0025 27.6871 57.2487 31.7954 57.2487 35.998C57.2487 41.6335 55.01 47.0382 51.0251 51.0231C47.0402 55.0081 41.6355 57.2468 35.9999 57.2468Z" fill="#212121" stroke="#212121" stroke-width="0.5"/>
<path d="M36 67.1634C8.84404 67.1634 -5.36431 34.4686 13.3346 14.6364V18.9995C13.3346 19.3752 13.4839 19.7355 13.7495 20.0012C14.0152 20.2669 14.3755 20.4161 14.7512 20.4161C15.1269 20.4161 15.4872 20.2669 15.7529 20.0012C16.0185 19.7355 16.1678 19.3752 16.1678 18.9995V11.9166C16.1678 11.5409 16.0185 11.1806 15.7529 10.9149C15.4872 10.6492 15.1269 10.5 14.7512 10.5H7.66828C7.29258 10.5 6.93226 10.6492 6.6666 10.9149C6.40094 11.1806 6.25169 11.5409 6.25169 11.9166C6.25169 12.2923 6.40094 12.6526 6.6666 12.9183C6.93226 13.1839 7.29258 13.3332 7.66828 13.3332H10.6714C-8.76412 35.0494 6.54917 69.9966 36 69.9966C36.3757 69.9966 36.736 69.8474 37.0017 69.5817C37.2673 69.316 37.4166 68.9557 37.4166 68.58C37.4166 68.2043 37.2673 67.844 37.0017 67.5783C36.736 67.3127 36.3757 67.1634 36 67.1634Z" fill="#212121" stroke="#212121" stroke-width="0.5"/>
<path d="M52.9969 33.1652C52.9969 32.0381 52.5492 30.9571 51.7522 30.1601C50.9552 29.3631 49.8743 28.9154 48.7472 28.9154H46.7923L42.925 21.195C42.7406 20.8885 42.447 20.6632 42.1033 20.5642C41.7596 20.4651 41.3912 20.4998 41.072 20.6612C40.7528 20.8226 40.5065 21.0988 40.3825 21.4343C40.2585 21.7698 40.266 22.1397 40.4035 22.4699L43.6191 28.9154H28.3767L31.5923 22.4699C31.7298 22.1397 31.7373 21.7698 31.6133 21.4343C31.4893 21.0988 31.243 20.8226 30.9238 20.6612C30.6046 20.4998 30.2361 20.4651 29.8924 20.5642C29.5487 20.6632 29.2552 20.8885 29.0708 21.195L25.2035 28.9154H23.2486C22.3835 28.9109 21.5376 29.1705 20.824 29.6595C20.1103 30.1486 19.563 30.8438 19.255 31.6522C18.947 32.4607 18.8931 33.3438 19.1005 34.1838C19.3078 35.0237 19.7666 35.7803 20.4154 36.3525C20.5429 36.8625 19.7921 34.3126 24.0561 48.5493C24.3213 49.4361 24.8689 50.2121 25.6155 50.7593C26.3621 51.3065 27.2669 51.5949 28.1925 51.5808H43.7749C44.6908 51.5826 45.5828 51.2884 46.318 50.7422C47.0531 50.1959 47.5921 49.4268 47.8547 48.5493L51.5803 36.4091C52.4621 35.5571 52.9712 34.391 52.9969 33.1652V33.1652ZM23.2486 31.7486H48.7472C49.1229 31.7486 49.4832 31.8978 49.7488 32.1635C50.0145 32.4291 50.1637 32.7895 50.1637 33.1652C50.1637 33.5409 50.0145 33.9012 49.7488 34.1668C49.4832 34.4325 49.1229 34.5818 48.7472 34.5818H23.2486C22.8729 34.5818 22.5126 34.4325 22.2469 34.1668C21.9813 33.9012 21.832 33.5409 21.832 33.1652C21.832 32.7895 21.9813 32.4291 22.2469 32.1635C22.5126 31.8978 22.8729 31.7486 23.2486 31.7486V31.7486ZM45.1632 47.7418C45.0723 48.043 44.8837 48.3053 44.6272 48.4874C44.3707 48.6695 44.0609 48.761 43.7466 48.7476H28.1642C27.8499 48.761 27.5401 48.6695 27.2836 48.4874C27.0271 48.3053 26.8385 48.043 26.7476 47.7418L23.7302 37.4149H48.2655L45.1632 47.7418Z" fill="#212121" stroke="#212121" stroke-width="0.5"/>
<path d="M30.3332 44.4978V41.6646C30.3332 41.2889 30.1839 40.9286 29.9183 40.663C29.6526 40.3973 29.2923 40.248 28.9166 40.248C28.5409 40.248 28.1806 40.3973 27.9149 40.663C27.6492 40.9286 27.5 41.2889 27.5 41.6646V44.4978C27.5 44.8735 27.6492 45.2338 27.9149 45.4995C28.1806 45.7651 28.5409 45.9144 28.9166 45.9144C29.2923 45.9144 29.6526 45.7651 29.9183 45.4995C30.1839 45.2338 30.3332 44.8735 30.3332 44.4978Z" fill="#212121" stroke="#212121" stroke-width="0.5"/>
<path d="M37.4152 44.4978V41.6646C37.4152 41.2889 37.266 40.9286 37.0003 40.663C36.7346 40.3973 36.3743 40.248 35.9986 40.248C35.6229 40.248 35.2626 40.3973 34.9969 40.663C34.7313 40.9286 34.582 41.2889 34.582 41.6646V44.4978C34.582 44.8735 34.7313 45.2338 34.9969 45.4995C35.2626 45.7651 35.6229 45.9144 35.9986 45.9144C36.3743 45.9144 36.7346 45.7651 37.0003 45.4995C37.266 45.2338 37.4152 44.8735 37.4152 44.4978Z" fill="#212121" stroke="#212121" stroke-width="0.5"/>
<path d="M44.4972 44.4978V41.6646C44.4972 41.2889 44.348 40.9286 44.0823 40.663C43.8167 40.3973 43.4564 40.248 43.0806 40.248C42.7049 40.248 42.3446 40.3973 42.079 40.663C41.8133 40.9286 41.6641 41.2889 41.6641 41.6646V44.4978C41.6641 44.8735 41.8133 45.2338 42.079 45.4995C42.3446 45.7651 42.7049 45.9144 43.0806 45.9144C43.4564 45.9144 43.8167 45.7651 44.0823 45.4995C44.348 45.2338 44.4972 44.8735 44.4972 44.4978Z" fill="#212121" stroke="#212121" stroke-width="0.5"/>
<path d="M64.3303 58.6634H61.3272C80.7627 36.9472 65.4494 2 35.9986 2C35.6229 2 35.2626 2.14925 34.9969 2.41491C34.7313 2.68057 34.582 3.04088 34.582 3.41659C34.582 3.79229 34.7313 4.1526 34.9969 4.41826C35.2626 4.68392 35.6229 4.83317 35.9986 4.83317C63.1546 4.83317 77.3629 37.528 58.664 57.3602V52.9971C58.664 52.6214 58.5147 52.2611 58.2491 51.9954C57.9834 51.7298 57.6231 51.5805 57.2474 51.5805C56.8717 51.5805 56.5114 51.7298 56.2457 51.9954C55.9801 52.2611 55.8308 52.6214 55.8308 52.9971V60.08C55.8308 60.4557 55.9801 60.816 56.2457 61.0817C56.5114 61.3474 56.8717 61.4966 57.2474 61.4966H64.3303C64.706 61.4966 65.0664 61.3474 65.332 61.0817C65.5977 60.816 65.7469 60.4557 65.7469 60.08C65.7469 59.7043 65.5977 59.344 65.332 59.0783C65.0664 58.8127 64.706 58.6634 64.3303 58.6634Z" fill="#212121" stroke="#212121" stroke-width="0.5"/>
</g>
<defs>
<clipPath id="clip0_7937_35544">
<rect width="70" height="70" fill="white"/>
</clipPath>
</defs>
</svg>
