<svg width="77" height="9" viewBox="0 0 77 9" fill="none" xmlns="http://www.w3.org/2000/svg">
<path d="M4.07576 8.14815C6.32674 8.14815 8.15152 6.32412 8.15152 4.07407C8.15152 1.82403 6.32674 0 4.07576 0C1.82478 0 0 1.82403 0 4.07407C0 6.32412 1.82478 8.14815 4.07576 8.14815Z" fill="#0F395A"/>
<path d="M21.0758 8.14815C23.3267 8.14815 25.1515 6.32412 25.1515 4.07407C25.1515 1.82403 23.3267 0 21.0758 0C18.8248 0 17 1.82403 17 4.07407C17 6.32412 18.8248 8.14815 21.0758 8.14815Z" fill="#0F395A"/>
<path d="M38.0758 8.14815C40.3267 8.14815 42.1515 6.32412 42.1515 4.07407C42.1515 1.82403 40.3267 0 38.0758 0C35.8248 0 34 1.82403 34 4.07407C34 6.32412 35.8248 8.14815 38.0758 8.14815Z" fill="#0F395A"/>
<path d="M55.0758 8.14815C57.3267 8.14815 59.1515 6.32412 59.1515 4.07407C59.1515 1.82403 57.3267 0 55.0758 0C52.8248 0 51 1.82403 51 4.07407C51 6.32412 52.8248 8.14815 55.0758 8.14815Z" fill="#0F395A"/>
<path d="M72.0758 8.14815C74.3267 8.14815 76.1515 6.32412 76.1515 4.07407C76.1515 1.82403 74.3267 0 72.0758 0C69.8248 0 68 1.82403 68 4.07407C68 6.32412 69.8248 8.14815 72.0758 8.14815Z" fill="#0F395A"/>
</svg>
