<svg width="81" height="80" viewBox="0 0 81 80" fill="none" xmlns="http://www.w3.org/2000/svg">
<path d="M42.1654 63.3333H39.832V65.6666H42.1654V63.3333Z" fill="white"/>
<path d="M74.8333 65.6667H73.6667V23.6667C73.6667 21.0894 71.5773 19 69 19H62V9.66667C62 7.08935 59.9106 5 57.3333 5H24.6667C22.0894 5 20 7.08935 20 9.66667V19H13C10.4227 19 8.33333 21.0894 8.33333 23.6667V65.6667H7.16667C6.52237 65.6667 6 66.189 6 66.8333V70.3333C6 72.9106 8.08935 75 10.6667 75H71.3333C73.9106 75 76 72.9106 76 70.3333V66.8333C76 66.189 75.4776 65.6667 74.8333 65.6667ZM22.3333 9.66667C22.3333 8.37794 23.3779 7.33333 24.6667 7.33333H57.3333C58.6221 7.33333 59.6667 8.37794 59.6667 9.66667V14.3333H22.3333V9.66667ZM22.3333 16.6667H59.6667V50.5C59.6667 51.7887 58.6221 52.8333 57.3333 52.8333H24.6667C23.3779 52.8333 22.3333 51.7887 22.3333 50.5V16.6667ZM24.6667 55.1667H57.3333C59.9106 55.1667 62 53.0773 62 50.5V26H66.6667V58.6667H15.3333V26H20V50.5C20 53.0773 22.0894 55.1667 24.6667 55.1667ZM10.6667 23.6667C10.6667 22.3779 11.7113 21.3333 13 21.3333H20V23.6667H14.1667C13.5224 23.6667 13 24.189 13 24.8333V59.8333C13 60.4776 13.5224 61 14.1667 61H67.8333C68.4776 61 69 60.4776 69 59.8333V24.8333C69 24.189 68.4776 23.6667 67.8333 23.6667H62V21.3333H69C70.2887 21.3333 71.3333 22.3779 71.3333 23.6667V65.6667H51.5C51.1908 65.6664 50.8941 65.789 50.6752 66.0073L48.6837 68H33.3163L31.3248 66.0073C31.1059 65.789 30.8092 65.6664 30.5 65.6667H10.6667V23.6667ZM73.6667 70.3333C73.6667 71.6221 72.6221 72.6667 71.3333 72.6667H10.6667C9.37794 72.6667 8.33333 71.6221 8.33333 70.3333V68H30.017L32.0085 69.9915C32.2272 70.2103 32.5239 70.3333 32.8333 70.3333H49.1667C49.4761 70.3333 49.7728 70.2103 49.9915 69.9915L51.983 68H73.6667V70.3333Z" fill="white"/>
<path d="M56.1654 42.3335H25.832V44.6669H56.1654V42.3335Z" fill="white"/>
<path d="M53.832 47H25.832V49.3334H53.832V47Z" fill="white"/>
<path d="M56.1654 37.6667H32.832V40H56.1654V37.6667Z" fill="white"/>
<path d="M27.0013 9.66675H24.668V12.0001H27.0013V9.66675Z" fill="white"/>
<path d="M31.6693 9.66675H29.3359V12.0001H31.6693V9.66675Z" fill="white"/>
<path d="M36.3294 9.66675H33.9961V12.0001H36.3294V9.66675Z" fill="white"/>
<path d="M30.5013 37.6665H28.168V39.9998H30.5013V37.6665Z" fill="white"/>
<path d="M37.0373 24.5999L35.6373 22.7332L30.9707 26.2332C30.4551 26.6198 30.3507 27.351 30.7373 27.8665C30.8037 27.9549 30.8823 28.0335 30.9707 28.0999L35.6373 31.5999L37.0373 29.7332L33.6155 27.1665L37.0373 24.5999Z" fill="white"/>
<path d="M51.2687 26.4665C51.2024 26.3782 51.1238 26.2996 51.0354 26.2332L46.3686 22.7332L44.9688 24.5999L48.3905 27.1665L44.9688 29.7332L46.3686 31.5999L51.0354 28.0999C51.5509 27.7133 51.6554 26.9821 51.2687 26.4665Z" fill="white"/>
<path d="M42.2499 20.9023L37.582 32.5676L39.7483 33.4345L44.4162 21.7691L42.2499 20.9023Z" fill="white"/>
</svg>
