<svg width="81" height="80" viewBox="0 0 81 80" fill="none" xmlns="http://www.w3.org/2000/svg">
<path d="M25.7484 55.3388L25.7036 55.2942C25.1073 54.7008 24.1428 54.7029 23.5491 55.2994C22.9556 55.8958 22.9579 56.8603 23.5543 57.4538L23.6041 57.5033C23.9012 57.7976 24.2887 57.9445 24.6762 57.9445C25.0684 57.9445 25.4607 57.7938 25.7586 57.4933C26.3507 56.8955 26.3461 55.931 25.7484 55.3388Z" fill="white"/>
<path d="M58.449 22.5488C48.8263 12.9261 33.1691 12.9261 23.5464 22.5488C15.669 30.4262 14.0455 42.6627 19.5981 52.3058C20.018 53.0349 20.9496 53.2855 21.6785 52.8658C22.4076 52.4459 22.6584 51.5145 22.2385 50.7854C17.3719 42.3338 18.7957 31.6085 25.7009 24.7032C34.1355 16.2686 47.8599 16.2686 56.2944 24.7032C64.729 33.1379 64.729 46.8621 56.2944 55.2968C49.3472 62.2439 38.5771 63.6417 30.1036 58.696C29.3768 58.2717 28.444 58.517 28.0198 59.2438C27.5957 59.9705 27.841 60.9035 28.5677 61.3276C32.434 63.5843 36.7185 64.6833 40.9762 64.6833C47.3652 64.6833 53.693 62.2072 58.449 57.4512C68.0715 47.8286 68.0715 32.1714 58.449 22.5488Z" fill="white"/>
<path d="M79.9947 33.3063C79.9944 32.5572 79.4494 31.9194 78.7096 31.8022L73.0862 30.9112L70.1028 23.7164L73.4457 19.1074C73.8855 18.5011 73.8193 17.6649 73.2894 17.1355L63.8409 7.69338C63.3109 7.16383 62.4747 7.09802 61.8687 7.53844L57.2641 10.8835L50.0643 7.90437L49.1694 2.2838C49.0515 1.54432 48.4138 1 47.6649 1C47.6647 1 47.6644 1 47.6643 1L34.3063 1.00548C33.5572 1.00579 32.9195 1.55072 32.8022 2.2905L31.9113 7.91397L24.7166 10.8973L20.1076 7.55444C19.5014 7.11462 18.6652 7.18089 18.1356 7.71074L8.69353 17.1593C8.16398 17.6893 8.09832 18.5255 8.53859 19.1315L11.8836 23.7361L8.90452 30.9359L3.28395 31.8307C2.54417 31.9485 1.9997 32.5866 2 33.3357L2.00548 46.6935C2.00579 47.4426 2.55072 48.0805 3.2905 48.1976L8.91397 49.0887L11.8973 56.2834L8.55444 60.8924C8.11462 61.4988 8.18089 62.335 8.71074 62.8644L18.1593 72.3065C18.6893 72.836 19.5256 72.9018 20.1315 72.4614L24.7361 69.1164L31.9359 72.0955L32.8307 77.716C32.9485 78.4557 33.5862 79 34.3351 79C34.3353 79 34.3356 79 34.3357 79L47.6935 78.9944C48.4426 78.9941 49.0803 78.4491 49.1976 77.7093L50.0887 72.0859L57.2834 69.1025L61.8924 72.4454C62.4988 72.8854 63.335 72.819 63.8644 72.2891L73.3065 62.8406C73.836 62.3106 73.9017 61.4744 73.4614 60.8684L70.1164 56.2638L73.0955 49.064L78.716 48.1691C79.4558 48.0514 80.0003 47.4132 80 46.6641L79.9947 33.3063ZM71.7745 46.1891C71.2512 46.2725 70.8089 46.6215 70.6063 47.1111L66.9752 55.8867C66.7726 56.3762 66.839 56.9359 67.1504 57.3646L70.2322 61.6068L62.6287 69.2154L58.3821 66.1355C57.9534 65.8244 57.3937 65.7587 56.9041 65.9614L48.134 69.5981C47.6446 69.801 47.2958 70.2436 47.2129 70.7669L46.3919 75.9479L35.6354 75.9525L34.8109 70.7744C34.7275 70.2511 34.3785 69.8088 33.8889 69.6062L25.1133 65.9751C24.9258 65.8974 24.7279 65.8593 24.531 65.8593C24.2142 65.8593 23.8999 65.9582 23.6356 66.1503L19.3934 69.232L11.7847 61.6285L14.8647 57.382C15.1758 56.9531 15.2416 56.3934 15.0386 55.9039L11.402 47.1338C11.1991 46.6445 10.7566 46.2956 10.2333 46.2127L5.05205 45.3917L5.04764 34.6352L10.2258 33.8107C10.7491 33.7274 11.1914 33.3784 11.394 32.8887L15.0251 24.1131C15.2277 23.6237 15.1613 23.0639 14.8499 22.6353L11.7681 18.3931L19.3716 10.7844L23.6182 13.8644C24.0472 14.1754 24.6067 14.2416 25.0962 14.0385L33.8664 10.4017C34.3557 10.1988 34.7045 9.75611 34.7874 9.23296L35.6083 4.05175L46.3649 4.04733L47.1894 9.2255C47.2728 9.7488 47.6218 10.1911 48.1114 10.3937L56.887 14.0248C57.3765 14.2271 57.9362 14.161 58.3649 13.8496L62.6071 10.7678L70.2157 18.3713L67.1358 22.6179C66.8247 23.0467 66.7589 23.6064 66.9618 24.0959L70.5984 32.866C70.8013 33.3554 71.2439 33.7042 71.7672 33.7871L76.9484 34.6081L76.9528 45.3646L71.7745 46.1891Z" fill="white"/>
<path d="M54.8784 41.8979C52.973 40.1668 50.4124 39.415 47.8847 39.8084L41.1943 33.1179C41.6012 30.4677 40.7272 27.7405 38.8114 25.8246C36.4096 23.4227 32.8185 22.6871 29.6629 23.9501C29.1874 24.1404 28.8395 24.5568 28.7366 25.0583C28.6337 25.5598 28.7897 26.0796 29.1518 26.4417L31.3608 28.6507C31.8283 29.1183 31.8283 29.8791 31.3608 30.3468C30.8932 30.8144 30.1324 30.8144 29.6647 30.3468L27.4481 28.13C27.0868 27.7686 26.5688 27.6123 26.0677 27.7143C25.567 27.8159 25.1505 28.1618 24.9588 28.6355C23.6305 31.9157 24.4997 35.7199 27.1213 38.1018C29.0287 39.835 31.5913 40.5867 34.1217 40.1906L40.8061 46.8751C40.3966 49.5274 41.2701 52.2573 43.188 54.1753C44.8109 55.7982 46.9733 56.6602 49.1786 56.66C50.2482 56.66 51.3283 56.4571 52.3612 56.0398C52.8351 55.8485 53.1816 55.432 53.2835 54.9311C53.3854 54.4302 53.2294 53.9116 52.8679 53.5501L50.669 51.351C50.2014 50.8835 50.2014 50.1226 50.669 49.655C51.1365 49.1873 51.8973 49.1873 52.365 49.655L54.5595 51.8495C54.9213 52.2113 55.4408 52.3676 55.9423 52.2648C56.4439 52.1621 56.8601 51.8146 57.0506 51.3396C58.3641 48.066 57.4912 44.2717 54.8784 41.8979ZM54.5193 47.5007C52.8636 45.8451 50.1697 45.845 48.5142 47.5007C46.8587 49.1563 46.8587 51.8501 48.5142 53.5056L48.5886 53.5801C47.3857 53.4482 46.2361 52.9147 45.3423 52.0209C43.9756 50.6542 43.4367 48.6431 43.9363 46.7723C44.0766 46.2469 43.9262 45.6867 43.5417 45.3022L35.6942 37.4547C35.4047 37.1652 35.0156 37.0084 34.6168 37.0084C34.4867 37.0084 34.3554 37.025 34.2263 37.0593C32.4221 37.5384 30.5319 37.0848 29.1698 35.8471C28.1693 34.9378 27.5668 33.7056 27.4225 32.4138L27.5101 32.5014C29.1658 34.1569 31.8595 34.157 33.5152 32.5014C35.1707 30.8457 35.1707 28.1519 33.5152 26.4964L33.4432 26.4244C34.6345 26.5624 35.772 27.0942 36.6568 27.9793C38.022 29.3445 38.5611 31.3537 38.064 33.223C37.9243 33.748 38.0749 34.3077 38.4591 34.6919L46.3112 42.544C46.6948 42.9275 47.253 43.0783 47.7776 42.9396C49.58 42.4634 51.4686 42.9171 52.8294 44.1532C53.8207 45.0539 54.4215 46.2734 54.5723 47.5537L54.5193 47.5007Z" fill="white"/>
<path d="M54.916 29.121C52.4052 25.9137 48.8459 23.6576 44.8933 22.7682C44.0728 22.5834 43.2573 23.0991 43.0726 23.9201C42.888 24.7411 43.4035 25.5561 44.2245 25.7408C47.4933 26.4763 50.4383 28.3437 52.5169 30.9992C52.8175 31.3831 53.2652 31.5836 53.7175 31.5836C54.046 31.5836 54.3768 31.4779 54.6555 31.2597C55.318 30.7411 55.4347 29.7835 54.916 29.121Z" fill="white"/>
<path d="M57.8279 34.6144L57.8056 34.5456C57.5471 33.7449 56.6886 33.3058 55.8878 33.564C55.087 33.8225 54.6475 34.6812 54.9062 35.4819L54.9256 35.5416C55.1323 36.1889 55.7315 36.6019 56.3763 36.6019C56.5299 36.6019 56.6862 36.5784 56.8402 36.5292C57.6417 36.2731 58.084 35.4159 57.8279 34.6144Z" fill="white"/>
</svg>
