<svg width="81" height="80" viewBox="0 0 81 80" fill="none" xmlns="http://www.w3.org/2000/svg">
<path d="M13 9.66667V21.3333H15.3333V9.66667C15.3333 8.37779 16.3778 7.33333 17.6667 7.33333H64.3333C65.6222 7.33333 66.6667 8.37779 66.6667 9.66667H69C69 7.0895 66.9105 5 64.3333 5H17.6667C15.0895 5 13 7.0895 13 9.66667Z" fill="white"/>
<path d="M10.6667 75H64.3333C66.9105 75 69 72.9104 69 70.3332V65.6667H66.6667V70.3332C66.6667 71.6221 65.6222 72.6667 64.3333 72.6667C63.0445 72.6667 62 71.6221 62 70.3332V66.8332C62 66.1887 61.4779 65.6667 60.8333 65.6667H15.3333V42.3333H13V65.6667H7.16667C6.52208 65.6667 6 66.1887 6 66.8332V70.3332C6 72.9104 8.0895 75 10.6667 75ZM8.33333 68H59.6667V70.3332C59.6661 71.1531 59.8813 71.9579 60.2935 72.6667H10.6667C9.37779 72.6667 8.33333 71.6221 8.33333 70.3332V68Z" fill="white"/>
<path d="M7.16667 40H30.5C31.1446 40 31.6667 39.4779 31.6667 38.8333V24.8333C31.6667 24.1887 31.1446 23.6667 30.5 23.6667H7.16667C6.52208 23.6667 6 24.1887 6 24.8333V38.8333C6 39.4779 6.52208 40 7.16667 40ZM8.33333 26H29.3333V37.6667H8.33333V26Z" fill="white"/>
<path d="M13.3428 28.6753L11.0094 31.0086C10.5541 31.4645 10.5541 32.2024 11.0094 32.6583L13.3428 34.9916L14.9924 33.3419L13.4839 31.8334L14.9924 30.3249L13.3428 28.6753Z" fill="white"/>
<path d="M24.3254 28.6753L22.6758 30.3249L24.1843 31.8334L22.6758 33.3419L24.3254 34.9916L26.6588 32.6583C27.1141 32.2024 27.1141 31.4645 26.6588 31.0086L24.3254 28.6753Z" fill="white"/>
<path d="M16.5586 34.9643L18.8931 27.9634L21.1074 28.7019L18.7718 35.7022L16.5586 34.9643Z" fill="white"/>
<path d="M74.8333 12H35.1667C34.5221 12 34 12.5221 34 13.1667V36.5C34 37.1446 34.5221 37.6667 35.1667 37.6667H74.8333C75.4779 37.6667 76 37.1446 76 36.5V13.1667C76 12.5221 75.4779 12 74.8333 12ZM73.6667 35.3333H36.3333V32.4937L46.81 26.2077L57.0239 32.8133C57.3748 33.0394 57.8201 33.0613 58.1905 32.8693L66.6369 28.4943L73.6667 32.51V35.3333ZM73.6667 29.8232L67.25 26.154C66.9064 25.9568 66.4861 25.949 66.1344 26.1307L57.7265 30.4861L47.4715 23.8533C47.0976 23.6118 46.6187 23.604 46.2369 23.8335L36.3333 29.773V14.3333H73.6667V29.8232Z" fill="white"/>
<path d="M61.4154 24.8334C63.6705 24.8334 65.4987 23.0052 65.4987 20.75C65.4987 18.4949 63.6705 16.6667 61.4154 16.6667C59.1602 16.6667 57.332 18.4949 57.332 20.75C57.332 23.0052 59.1602 24.8334 61.4154 24.8334ZM61.4154 19C62.3819 19 63.1654 19.7834 63.1654 20.75C63.1654 21.7166 62.3819 22.5 61.4154 22.5C60.4488 22.5 59.6654 21.7166 59.6654 20.75C59.6654 19.7834 60.4488 19 61.4154 19Z" fill="white"/>
<path d="M17.668 43.5V57.5C17.668 58.1446 18.1901 58.6666 18.8346 58.6666H48.0013C48.6459 58.6666 49.168 58.1446 49.168 57.5V43.5C49.168 42.8554 48.6459 42.3333 48.0013 42.3333H18.8346C18.1901 42.3333 17.668 42.8554 17.668 43.5ZM20.0013 44.6666H46.8346V56.3333H20.0013V44.6666Z" fill="white"/>
<path d="M22.332 47H26.9987V49.3333H22.332V47Z" fill="white"/>
<path d="M29.332 47H39.832V49.3333H29.332V47Z" fill="white"/>
<path d="M42.168 47H44.5013V49.3333H42.168V47Z" fill="white"/>
<path d="M22.332 51.6667H36.332V54H22.332V51.6667Z" fill="white"/>
<path d="M38.668 51.6667H44.5013V54H38.668V51.6667Z" fill="white"/>
<path d="M17.668 9.66675H20.0013V12.0001H17.668V9.66675Z" fill="white"/>
<path d="M22.332 9.66675H24.6654V12.0001H22.332V9.66675Z" fill="white"/>
<path d="M27 9.66675H29.3333V12.0001H27V9.66675Z" fill="white"/>
<path d="M17.668 14.3333H31.668V16.6666H17.668V14.3333Z" fill="white"/>
<path d="M74.8333 47H52.6667C52.0221 47 51.5 47.5221 51.5 48.1667V62.1667C51.5 62.8113 52.0221 63.3333 52.6667 63.3333H74.8333C75.4779 63.3333 76 62.8113 76 62.1667V48.1667C76 47.5221 75.4779 47 74.8333 47ZM73.6667 61H53.8333V49.3333H73.6667V61Z" fill="white"/>
<path d="M56.168 51.6667H58.5013V54H56.168V51.6667Z" fill="white"/>
<path d="M56.168 56.3333H58.5013V58.6666H56.168V56.3333Z" fill="white"/>
<path d="M60.832 51.6667H71.332V54H60.832V51.6667Z" fill="white"/>
<path d="M60.832 56.3333H71.332V58.6666H60.832V56.3333Z" fill="white"/>
<path d="M66.668 40H69.0013V44.6667H66.668V40Z" fill="white"/>
</svg>
