<svg width="81" height="80" viewBox="0 0 81 80" fill="none" xmlns="http://www.w3.org/2000/svg">
<path d="M71.5009 75C72.9156 74.9989 74.1899 74.1466 74.7314 72.8397C75.273 71.5329 74.9744 70.029 73.9758 69.0276L55.3275 50.3831C56.7166 46.9994 56.0405 43.1189 53.5892 40.4037C51.0497 37.6784 47.134 36.7225 43.6247 37.9711C43.2477 38.1052 42.9662 38.4235 42.8781 38.8133C42.79 39.2037 42.908 39.6123 43.1911 39.8948L47.5773 44.2815C47.7968 44.5005 47.9196 44.7974 47.9196 45.1072C47.9196 45.4169 47.7968 45.7139 47.5773 45.9323L45.9265 47.582C45.4662 48.0242 44.7388 48.0242 44.2784 47.582L39.8901 43.1953C39.6075 42.9127 39.199 42.7947 38.8091 42.8828C38.4187 42.9704 38.1004 43.2524 37.9664 43.6294C36.7306 47.1158 37.67 51.0032 40.3616 53.5405C43.0538 56.0778 46.9904 56.7854 50.3971 55.3451L69.0266 73.9746C69.6819 74.632 70.5727 75.0016 71.5009 75ZM50.6374 52.7693C50.4436 52.7688 50.2524 52.8174 50.0826 52.9103C47.8555 54.1167 45.15 54.0243 43.0106 52.6689C40.8717 51.3129 39.6332 48.9059 39.7736 46.3772L42.6271 49.2306C44.0125 50.5524 46.1919 50.5524 47.5773 49.2306L49.2281 47.5809C49.8849 46.9246 50.2534 46.0343 50.2534 45.1061C50.2534 44.1774 49.8849 43.2871 49.2281 42.6308L46.3698 39.7666C48.4457 39.6502 50.4655 40.4625 51.8823 41.9835C53.8786 44.2041 54.2813 47.433 52.8928 50.0766C52.6546 50.5289 52.739 51.0838 53.1005 51.4448L72.326 70.6715C72.7682 71.1297 72.7618 71.8571 72.3116 72.3073C71.862 72.757 71.134 72.7634 70.6763 72.3212L51.4626 53.1111C51.2436 52.8921 50.9472 52.7693 50.6374 52.7693Z" fill="white"/>
<path d="M43.7899 35.0124C44.2166 35.4958 44.9546 35.5417 45.4374 35.1144C45.9207 34.6877 45.9667 33.9497 45.54 33.4669C40.4915 27.7471 31.9808 26.6667 25.6639 30.9445C19.3476 35.2223 17.1911 43.5259 20.6283 50.3362C24.0655 57.147 32.0267 60.3444 39.2199 57.8033C39.6242 57.673 39.9259 57.3339 40.0077 56.9168C40.0894 56.5002 39.9377 56.0719 39.6125 55.799C39.2872 55.5261 38.8391 55.4514 38.4429 55.6041C32.3562 57.7547 25.6196 55.0497 22.7106 49.2867C19.8021 43.5242 21.6265 36.4977 26.9713 32.8778C32.3167 29.2585 39.5185 30.1723 43.7899 35.0124Z" fill="white"/>
<path d="M32.9986 66.8332H35.3319C36.6206 66.8332 37.6652 65.7886 37.6652 64.4999L37.6919 63.0029C39.4783 62.6819 41.2119 62.1154 42.8429 61.3186C43.2178 61.1359 43.4672 60.7673 43.4966 60.3508C43.526 59.9348 43.3316 59.5347 42.9855 59.3008C42.64 59.0674 42.1962 59.036 41.8207 59.2187C40.382 59.9199 38.8535 60.4191 37.278 60.7011C36.157 60.8966 35.3378 61.867 35.3319 63.0045V64.4999H32.9986V63.0045C32.9906 61.868 32.1698 60.9003 31.0504 60.7059C28.5889 60.2669 26.2524 59.2982 24.2032 57.8663C23.2734 57.2116 22.0083 57.3163 21.1986 58.1147L20.1407 59.1753L18.491 57.5247L19.5505 56.465C20.3495 55.6559 20.4536 54.3902 19.7978 53.4609C18.3671 51.4107 17.3983 49.0747 16.9582 46.6138C16.7654 45.4938 15.7972 44.6735 14.6607 44.6666H13.1653V42.3333H14.6607C15.7977 42.3263 16.7659 41.5055 16.9582 40.385C17.3983 37.9246 18.3671 35.5887 19.7978 33.539C20.4536 32.6097 20.3495 31.344 19.5505 30.5349L18.491 29.4753L20.1407 27.8245L21.2002 28.8862C22.0099 29.6831 23.2734 29.7867 24.2032 29.1335C26.2529 27.7012 28.5905 26.7324 31.0525 26.2939C32.1714 26.099 32.9906 25.1313 32.9986 23.9959V22.5H35.3319V23.9959C35.3399 25.1324 36.1602 26.1001 37.2802 26.2939C39.7416 26.7329 42.0776 27.7017 44.1273 29.1335C45.0571 29.7883 46.3218 29.6836 47.1314 28.8852L48.1899 27.8245L49.8396 29.4753L48.78 30.5349C47.9811 31.344 47.8769 32.6097 48.5328 33.539C48.8735 34.0282 49.1891 34.5344 49.4775 35.0557C49.6735 35.4311 50.0575 35.6714 50.481 35.6827C50.9045 35.6944 51.3008 35.4754 51.5165 35.1107C51.7323 34.7459 51.7334 34.293 51.5192 33.9277C51.1886 33.3248 50.8244 32.7405 50.4297 32.1776L51.4888 31.1191C51.9267 30.6817 52.1729 30.0879 52.1729 29.4689C52.1729 28.8499 51.9267 28.2566 51.4888 27.8187L49.8369 26.1668C48.9248 25.2589 47.4502 25.2589 46.5375 26.1668L45.4587 27.2088C43.1249 25.5842 40.4653 24.4877 37.6652 23.9959V22.5C37.6652 21.2113 36.6206 20.1667 35.3319 20.1667H32.9986C31.7099 20.1667 30.6653 21.2113 30.6653 22.5L30.6381 23.9969C27.8375 24.4974 25.179 25.6029 22.8483 27.2355L21.7893 26.1738C20.8761 25.2659 19.4015 25.2659 18.4888 26.1738L16.8412 27.8235C16.4033 28.2614 16.1571 28.8553 16.1571 29.4742C16.1571 30.0938 16.4033 30.6876 16.8412 31.125L17.8811 32.2043C16.2538 34.5382 15.1547 37.1983 14.6607 40H13.1653C11.8766 40 10.832 41.0446 10.832 42.3333V44.6666C10.832 45.9553 11.8766 46.9999 13.1653 46.9999L14.6618 47.0266C15.1622 49.8282 16.2677 52.4863 17.9008 54.8169L16.8412 55.8748C16.4033 56.3122 16.1577 56.9061 16.1577 57.5251C16.1577 58.1441 16.4033 58.7379 16.8412 59.1753L18.4936 60.8272C19.4058 61.7351 20.8803 61.7351 21.7925 60.8272L22.8718 59.7859C25.2051 61.4121 27.8642 62.5105 30.6653 63.0045V64.4999C30.6653 65.7886 31.7099 66.8332 32.9986 66.8332Z" fill="white"/>
<path d="M38.602 39.5333C38.7873 39.286 38.8669 38.9747 38.8237 38.6687C38.7799 38.3621 38.6159 38.0855 38.3686 37.9002C35.9317 36.0726 32.5933 36.0304 30.1116 37.7955C27.6293 39.5606 26.574 42.728 27.5 45.6296C28.4266 48.5306 31.1225 50.5002 34.1683 50.5002C34.8129 50.5002 35.3352 49.9779 35.3352 49.3333C35.3352 48.6892 34.8129 48.1669 34.1683 48.1669C31.5909 48.1669 29.5017 46.0777 29.5017 43.5003C29.5017 40.9229 31.5909 38.8332 34.1683 38.8332C35.1787 38.83 36.1624 39.1579 36.9683 39.7667C37.2161 39.9525 37.527 40.0321 37.8335 39.9883C38.1395 39.9445 38.4162 39.7811 38.602 39.5333Z" fill="white"/>
<path d="M35.3333 43.5001C35.3333 44.1442 34.811 44.6665 34.1664 44.6665C33.5223 44.6665 33 44.1442 33 43.5001C33 42.8555 33.5223 42.3333 34.1664 42.3333C34.811 42.3333 35.3333 42.8555 35.3333 43.5001Z" fill="white"/>
<path d="M71.4998 5H8.50021C6.56693 5 5 6.56693 5 8.50021V71.4998C5 73.4331 6.56693 75 8.50021 75H63.3335C63.9776 75 64.4999 74.4777 64.4999 73.8331C64.4999 73.189 63.9776 72.6667 63.3335 72.6667H8.50021C7.85561 72.6667 7.3333 72.1444 7.3333 71.4998V65.6668H17.8334C18.4775 65.6668 18.9998 65.1445 18.9998 64.4999C18.9998 63.8558 18.4775 63.3335 17.8334 63.3335H7.3333V16.6665H72.6667V63.3335C72.6667 63.9776 73.189 64.4999 73.8331 64.4999C74.4777 64.4999 75 63.9776 75 63.3335V8.50021C75 6.56693 73.4331 5 71.4998 5ZM7.3333 14.3332V8.50021C7.3333 7.85561 7.85561 7.3333 8.50021 7.3333H71.4998C72.1444 7.3333 72.6667 7.85561 72.6667 8.50021V14.3332H7.3333Z" fill="white"/>
<path d="M45.8349 63.3335C45.1903 63.3335 44.668 63.8558 44.668 64.4999C44.668 65.1445 45.1903 65.6668 45.8349 65.6668H52.8348C53.4789 65.6668 54.0012 65.1445 54.0012 64.4999C54.0012 63.8558 53.4789 63.3335 52.8348 63.3335H45.8349Z" fill="white"/>
<path d="M69.1652 18.9998H43.4989C42.8543 18.9998 42.332 19.5221 42.332 20.1667C42.332 20.8108 42.8543 21.3331 43.4989 21.3331H69.1652C69.8098 21.3331 70.3321 20.8108 70.3321 20.1667C70.3321 19.5221 69.8098 18.9998 69.1652 18.9998Z" fill="white"/>
<path d="M10.8349 21.3331H26.0016C26.6457 21.3331 27.168 20.8108 27.168 20.1667C27.168 19.5221 26.6457 18.9998 26.0016 18.9998H10.8349C10.1903 18.9998 9.66797 19.5221 9.66797 20.1667C9.66797 20.8108 10.1903 21.3331 10.8349 21.3331Z" fill="white"/>
<path d="M10.8349 26.0003H15.5015C16.1456 26.0003 16.6679 25.478 16.6679 24.8334C16.6679 24.1893 16.1456 23.667 15.5015 23.667H10.8349C10.1903 23.667 9.66797 24.1893 9.66797 24.8334C9.66797 25.478 10.1903 26.0003 10.8349 26.0003Z" fill="white"/>
<path d="M69.1651 23.667H53.9984C53.3543 23.667 52.832 24.1893 52.832 24.8334C52.832 25.478 53.3543 26.0003 53.9984 26.0003H69.1651C69.8097 26.0003 70.332 25.478 70.332 24.8334C70.332 24.1893 69.8097 23.667 69.1651 23.667Z" fill="white"/>
<path d="M69.1678 28.3335H56.3344C55.6903 28.3335 55.168 28.8558 55.168 29.4999C55.168 30.1445 55.6903 30.6668 56.3344 30.6668H69.1678C69.8124 30.6668 70.3347 30.1445 70.3347 29.4999C70.3347 28.8558 69.8124 28.3335 69.1678 28.3335Z" fill="white"/>
<path d="M69.1678 33H56.3344C55.6903 33 55.168 33.5223 55.168 34.1664C55.168 34.811 55.6903 35.3333 56.3344 35.3333H69.1678C69.8124 35.3333 70.3347 34.811 70.3347 34.1664C70.3347 33.5223 69.8124 33 69.1678 33Z" fill="white"/>
<path d="M69.1654 37.6667H57.4989C56.8549 37.6667 56.332 38.189 56.332 38.8331C56.332 39.4777 56.8549 40 57.4989 40H69.1654C69.81 40 70.3324 39.4777 70.3324 38.8331C70.3324 38.189 69.81 37.6667 69.1654 37.6667Z" fill="white"/>
<path d="M69.1675 42.3333H59.8344C59.1903 42.3333 58.668 42.8555 58.668 43.5001C58.668 44.1442 59.1903 44.6665 59.8344 44.6665H69.1675C69.8121 44.6665 70.3345 44.1442 70.3345 43.5001C70.3345 42.8555 69.8121 42.3333 69.1675 42.3333Z" fill="white"/>
<path d="M69.1675 47H59.8344C59.1903 47 58.668 47.5223 58.668 48.1669C58.668 48.811 59.1903 49.3333 59.8344 49.3333H69.1675C69.8121 49.3333 70.3345 48.811 70.3345 48.1669C70.3345 47.5223 69.8121 47 69.1675 47Z" fill="white"/>
<path d="M69.165 51.6665H64.4984C63.8543 51.6665 63.332 52.1888 63.332 52.8334C63.332 53.4775 63.8543 53.9998 64.4984 53.9998H69.165C69.8096 53.9998 70.3319 53.4775 70.3319 52.8334C70.3319 52.1888 69.8096 51.6665 69.165 51.6665Z" fill="white"/>
<path d="M69.1676 56.333H66.8344C66.1903 56.333 65.668 56.8558 65.668 57.4999C65.668 58.144 66.1903 58.6668 66.8344 58.6668H69.1676C69.8123 58.6668 70.3346 58.144 70.3346 57.4999C70.3346 56.8558 69.8123 56.333 69.1676 56.333Z" fill="white"/>
<path d="M12.0013 10.8334C12.0013 11.4775 11.479 11.9998 10.8349 11.9998C10.1903 11.9998 9.66797 11.4775 9.66797 10.8334C9.66797 10.1888 10.1903 9.6665 10.8349 9.6665C11.479 9.6665 12.0013 10.1888 12.0013 10.8334Z" fill="white"/>
<path d="M16.6653 10.8334C16.6653 11.4775 16.143 11.9998 15.4989 11.9998C14.8543 11.9998 14.332 11.4775 14.332 10.8334C14.332 10.1888 14.8543 9.6665 15.4989 9.6665C16.143 9.6665 16.6653 10.1888 16.6653 10.8334Z" fill="white"/>
<path d="M21.3333 10.8334C21.3333 11.4775 20.811 11.9998 20.1669 11.9998C19.5223 11.9998 19 11.4775 19 10.8334C19 10.1888 19.5223 9.6665 20.1669 9.6665C20.811 9.6665 21.3333 10.1888 21.3333 10.8334Z" fill="white"/>
</svg>
