<svg width="81" height="80" viewBox="0 0 81 80" fill="none" xmlns="http://www.w3.org/2000/svg">
<g clip-path="url(#clip0_7074_38365)">
<path d="M79 64.7061H57.3367V62.1633H76.4572V3.54281H2.54281V62.1633H24.2061V64.7061H0V1H79V64.7061Z" fill="white"/>
<path d="M47.1533 62.1633H31.8594V64.7062H47.1533V62.1633Z" fill="white"/>
<path d="M7.64437 6.09796H5.10156V8.64077H7.64437V6.09796Z" fill="white"/>
<path d="M12.7381 6.09796H10.1953V8.64077H12.7381V6.09796Z" fill="white"/>
<path d="M17.8397 6.09796H15.2969V8.64077H17.8397V6.09796Z" fill="white"/>
<path d="M77.7306 11.196H1.27344V13.7388H77.7306V11.196Z" fill="white"/>
<path d="M73.9056 59.6081H57.3403V57.0653H71.3628V18.8367H7.64437V57.0653H24.2097V59.6081H5.10156V16.2939H73.9056V59.6081Z" fill="white"/>
<path d="M47.1533 57.0654H31.8594V59.6082H47.1533V57.0654Z" fill="white"/>
<path d="M52.2366 79.9999C50.5483 79.9967 48.9301 79.3246 47.7363 78.1308C46.5426 76.937 45.8704 75.3188 45.8672 73.6306V53.2387H48.41V73.6306C48.4655 74.6062 48.8922 75.5237 49.6025 76.1948C50.3129 76.866 51.2531 77.2399 52.2304 77.2399C53.2076 77.2399 54.1479 76.866 54.8582 76.1948C55.5686 75.5237 55.9953 74.6062 56.0508 73.6306V53.2387H58.5936V73.6306C58.5903 75.3167 57.9199 76.933 56.7288 78.1264C55.5377 79.3199 53.9227 79.9934 52.2366 79.9999V79.9999Z" fill="white"/>
<path d="M61.1648 51.9674H43.3281V54.5102H61.1648V51.9674Z" fill="white"/>
<path d="M56.0669 53.2388H53.5117V29.7733L54.6844 28.613L53.7463 23.9347H50.7344L49.8086 28.613L50.9689 29.7733V53.2388H48.4261V30.8349L47.0312 29.4524L48.6483 21.3919H55.8323L57.4494 29.4524L56.0669 30.8349V53.2388Z" fill="white"/>
<path d="M53.5116 53.2387H50.9688V58.3366H53.5116V53.2387Z" fill="white"/>
<path d="M53.5116 60.8919H50.9688V63.4347H53.5116V60.8919Z" fill="white"/>
<path d="M38.2727 80H30.5825V72.3593C30.5825 71.6832 30.3139 71.0349 29.8359 70.5568C29.3579 70.0788 28.7095 69.8103 28.0335 69.8103C27.3575 69.8103 26.7091 70.0788 26.2311 70.5568C25.7531 71.0349 25.4845 71.6832 25.4845 72.3593V80H17.8438V72.3593C17.8516 70.5733 18.3262 68.8204 19.2204 67.2744C20.1147 65.7285 21.3975 64.4431 22.9417 63.5458V37.8461C21.3975 36.9489 20.1147 35.6635 19.2204 34.1175C18.3262 32.5715 17.8516 30.8186 17.8438 29.0327V21.3919H25.4845V29.0327C25.4845 29.7087 25.7531 30.3571 26.2311 30.8351C26.7091 31.3131 27.3575 31.5817 28.0335 31.5817C28.7095 31.5817 29.3579 31.3131 29.8359 30.8351C30.3139 30.3571 30.5825 29.7087 30.5825 29.0327V21.3919H38.2727V29.0327C38.2648 30.8186 37.7902 32.5715 36.896 34.1175C36.0017 35.6635 34.7189 36.9489 33.1747 37.8461V63.5335C34.7207 64.4318 36.0047 65.7191 36.8991 67.2674C37.7934 68.8158 38.267 70.5712 38.2727 72.3593V80ZM33.1747 77.4572H35.6805V72.3593C35.6751 70.9145 35.2622 69.5005 34.4892 68.2799C33.7163 67.0593 32.6146 66.0816 31.3108 65.4591L30.5825 65.1135V36.2785L31.3108 35.9328C32.6146 35.3103 33.7163 34.3326 34.4892 33.112C35.2622 31.8914 35.6751 30.4775 35.6805 29.0327V23.9347H33.1377V29.0327C33.1377 30.3848 32.6005 31.6814 31.6445 32.6375C30.6884 33.5935 29.3918 34.1307 28.0397 34.1307C26.6876 34.1307 25.3909 33.5935 24.4349 32.6375C23.4788 31.6814 22.9417 30.3848 22.9417 29.0327V23.9347H20.3989V29.0327C20.4043 30.4775 20.8172 31.8914 21.5901 33.112C22.3631 34.3326 23.4648 35.3103 24.7686 35.9328L25.4969 36.2785V65.1135L24.7686 65.4591C23.4648 66.0816 22.3631 67.0593 21.5901 68.2799C20.8172 69.5005 20.4043 70.9145 20.3989 72.3593V77.4572H22.9417V72.3593C22.9417 71.0072 23.4788 69.7105 24.4349 68.7544C25.3909 67.7984 26.6876 67.2613 28.0397 67.2613C29.3918 67.2613 30.6884 67.7984 31.6445 68.7544C32.6005 69.7105 33.1377 71.0072 33.1377 72.3593L33.1747 77.4572Z" fill="white"/>
<path d="M61.1444 40.5H58.6016V43.0428H61.1444V40.5Z" fill="white"/>
<path d="M66.2459 40.5H63.7031V43.0428H66.2459V40.5Z" fill="white"/>
<path d="M15.285 40.5H12.7422V43.0428H15.285V40.5Z" fill="white"/>
<path d="M20.3866 40.5H17.8438V43.0428H20.3866V40.5Z" fill="white"/>
</g>
<defs>
<clipPath id="clip0_7074_38365">
<rect width="80" height="80" fill="white" transform="translate(0.5)"/>
</clipPath>
</defs>
</svg>
