<svg width="80" height="80" viewBox="0 0 80 80" fill="none" xmlns="http://www.w3.org/2000/svg">
<path d="M73.3635 14.6616C70.7266 14.0184 68.3121 12.6578 66.3805 10.7264C64.4493 8.79499 63.0885 6.38034 62.4453 3.74342L62.0201 2H18.5868L18.1614 3.74342C17.5182 6.38034 16.1577 8.79484 14.2262 10.7264C12.2948 12.6577 9.88034 14.0184 7.24342 14.6616L5.5 15.0869V30.7218C5.5 41.4371 8.72679 51.7418 14.8314 60.5221C20.9237 69.2846 29.4535 75.9154 39.4986 79.6971L40.3035 80L41.1087 79.697C51.1536 75.9152 59.6835 69.2844 65.7759 60.5219C71.8804 51.7416 75.1072 41.4369 75.1072 30.7217V15.0869L73.3635 14.6616ZM43.5923 73.662C42.5183 74.1824 41.4217 74.6654 40.3034 75.1087C39.185 74.6652 38.0885 74.1823 37.0144 73.6619V45.7125L28.6293 40.3987V24.3813L33.2068 22.8554V36.3648L40.3035 40.8618L47.4003 36.3648V22.8554L51.9778 24.3813V40.399L43.5926 45.7128V73.662H43.5923ZM70.5369 30.7217C70.5369 40.4999 67.593 49.9024 62.0233 57.9131C58.3115 63.2516 53.608 67.7237 48.1625 71.1347V48.2272L56.5476 42.9134V21.0873L42.8302 16.5149V33.8504L40.3035 35.4515L37.7769 33.8504V16.5147L24.0594 21.0871V42.9131L32.4446 48.2269V71.1345C26.9991 67.7235 22.2953 63.2516 18.5837 57.9129C13.0141 49.9022 10.0702 40.4996 10.0702 30.7215V18.5881C12.839 17.6294 15.3664 16.0496 17.4581 13.9578C19.5499 11.8662 21.1299 9.33886 22.0884 6.56986H58.519C59.4777 9.3387 61.0575 11.8661 63.1493 13.9578C65.2408 16.0494 67.7682 17.6296 70.5372 18.5881V30.7217H70.5369Z" fill="white"/>
</svg>
