<svg width="81" height="80" viewBox="0 0 81 80" fill="none" xmlns="http://www.w3.org/2000/svg">
<path d="M74.8 12.4V15C76.2362 15 77.4 16.1638 77.4 17.6V56.6H4.6V17.6C4.6 16.1638 5.76383 15 7.2 15V12.4C4.3283 12.4 2 14.7283 2 17.6V61.8C2 64.6717 4.3283 67 7.2 67H32.7528L29.6328 77.4H26.7V80H55.3V77.4H52.3672L49.2472 67H74.8C77.6717 67 80 64.6717 80 61.8V17.6C80 14.7283 77.6717 12.4 74.8 12.4ZM49.6528 77.4H32.3472L35.4672 67H46.5328L49.6528 77.4ZM77.4 61.8C77.4 63.2362 76.2362 64.4 74.8 64.4H7.2C5.76383 64.4 4.6 63.2362 4.6 61.8V59.2H77.4V61.8Z" fill="white"/>
<path d="M15.0008 54H67.0008C69.8725 54 72.2008 51.6717 72.2008 48.8V7.2C72.2008 4.3283 69.8725 2 67.0008 2H15.0008C12.1291 2 9.80078 4.3283 9.80078 7.2V48.8C9.80078 51.6717 12.1291 54 15.0008 54ZM12.4008 7.2C12.4008 5.76383 13.5646 4.6 15.0008 4.6H67.0008C68.437 4.6 69.6008 5.76383 69.6008 7.2V48.8C69.6008 50.2362 68.437 51.4 67.0008 51.4H15.0008C13.5646 51.4 12.4008 50.2362 12.4008 48.8V7.2Z" fill="white"/>
<path d="M15 12.4H67V15H15V12.4Z" fill="white"/>
<path d="M15 18.9H26.7V21.5H15V18.9Z" fill="white"/>
<path d="M15 24.1H24.1V26.7H15V24.1Z" fill="white"/>
<path d="M15 29.3H22.8V31.9H15V29.3Z" fill="white"/>
<path d="M15 34.5H22.8V37.1H15V34.5Z" fill="white"/>
<path d="M15 39.7H22.8V42.3H15V39.7Z" fill="white"/>
<path d="M15 44.9H26.7V47.5H15V44.9Z" fill="white"/>
<path d="M55.3008 18.9H67.0008V21.5H55.3008V18.9Z" fill="white"/>
<path d="M57.8984 24.1H66.9984V26.7H57.8984V24.1Z" fill="white"/>
<path d="M59.1992 29.3H66.9992V31.9H59.1992V29.3Z" fill="white"/>
<path d="M59.1992 34.5H66.9992V37.1H59.1992V34.5Z" fill="white"/>
<path d="M59.1992 39.7H66.9992V42.3H59.1992V39.7Z" fill="white"/>
<path d="M55.3008 44.9H67.0008V47.5H55.3008V44.9Z" fill="white"/>
<path d="M15 7.20001H17.6V9.80001H15V7.20001Z" fill="white"/>
<path d="M20.1992 7.20001H22.7992V9.80001H20.1992V7.20001Z" fill="white"/>
<path d="M25.3984 7.20001H27.9984V9.80001H25.3984V7.20001Z" fill="white"/>
<path d="M51.5496 38.2349C51.7254 37.8644 51.882 37.4861 52.0198 37.1H55.2984C56.0167 37.1 56.5984 36.5183 56.5984 35.8V30.6C56.5984 29.8818 56.0167 29.3 55.2984 29.3H52.0198C51.882 28.9139 51.7254 28.5356 51.5496 28.1651L53.8684 25.8459C54.3761 25.3386 54.3761 24.5154 53.8684 24.0084L50.1901 20.33C49.6831 19.8224 48.8599 19.8224 48.3525 20.33L46.0333 22.6476C45.6628 22.4724 45.2845 22.3158 44.8984 22.1786V18.9C44.8984 18.1818 44.3167 17.6 43.5984 17.6H38.3984C37.6802 17.6 37.0984 18.1818 37.0984 18.9V22.1786C36.7123 22.3164 36.334 22.4731 35.9635 22.6489L33.6443 20.33C33.137 19.8224 32.3138 19.8224 31.8068 20.33L28.1284 24.0084C27.6208 24.5154 27.6208 25.3386 28.1284 25.8459L30.446 28.1651C30.2702 28.5356 30.1135 28.9139 29.9761 29.3H26.6984C25.9802 29.3 25.3984 29.8818 25.3984 30.6V35.8C25.3984 36.5183 25.9802 37.1 26.6984 37.1H29.977C30.1148 37.4861 30.2715 37.8644 30.4473 38.2349L28.1284 40.5541C27.6208 41.0614 27.6208 41.8847 28.1284 42.3917L31.8068 46.07C32.3138 46.5777 33.137 46.5777 33.6443 46.07L35.9635 43.7524C36.334 43.9283 36.7123 44.0849 37.0984 44.2224V47.5C37.0984 48.2183 37.6802 48.8 38.3984 48.8H43.5984C44.3167 48.8 44.8984 48.2183 44.8984 47.5V44.2214C45.2845 44.0836 45.6628 43.927 46.0333 43.7511L48.3525 46.07C48.8599 46.5777 49.6831 46.5777 50.1901 46.07L53.8684 42.3917C54.3761 41.8847 54.3761 41.0614 53.8684 40.5541L51.5496 38.2349ZM49.2713 43.3049L47.1916 41.2243C46.7721 40.805 46.1217 40.7231 45.6102 41.0247C44.8802 41.455 44.0921 41.7807 43.2708 41.9932C42.6969 42.1414 42.2958 42.6582 42.2958 43.2516V46.2H39.6984V43.2591C39.6984 42.6666 39.2971 42.1489 38.7234 42.001C37.9018 41.7891 37.1144 41.4628 36.3834 41.0325C35.8725 40.7309 35.2219 40.8128 34.8026 41.2334L32.7223 43.3124L30.8848 41.4748L32.9644 39.3948C33.3843 38.9749 33.4666 38.3246 33.1653 37.8134C32.7343 37.0831 32.4084 36.2953 32.1958 35.4744C32.0483 34.9001 31.5305 34.4994 30.9381 34.4994H27.9984V31.9H30.9394C31.5318 31.9 32.0496 31.4986 32.1974 30.925C32.4093 30.1034 32.7356 29.3159 33.1659 28.585C33.4675 28.0741 33.3856 27.4235 32.9651 27.0042L30.8861 24.9239L32.7236 23.0863L34.8036 25.166C35.2235 25.5859 35.8738 25.6681 36.3851 25.3669C37.1153 24.9359 37.9031 24.6099 38.7241 24.3974C39.2984 24.2498 39.6991 23.7321 39.6991 23.1396V20.2H42.2991V23.1409C42.2991 23.7334 42.7008 24.2511 43.2741 24.399C44.096 24.6109 44.8838 24.9372 45.6141 25.3675C46.1253 25.6691 46.7763 25.5872 47.1959 25.1667L49.2759 23.0876L51.1137 24.9252L49.0341 27.0052C48.6148 27.4251 48.5319 28.0754 48.8335 28.5866C49.2635 29.3169 49.5901 30.1047 49.802 30.9257C49.9502 31.4999 50.4683 31.9007 51.0608 31.9007H53.9984V34.5007H51.0575C50.465 34.5007 49.9473 34.9024 49.7994 35.4757C49.5875 36.2976 49.2612 37.0854 48.8309 37.8157C48.5293 38.3269 48.6112 38.9779 49.0318 39.3974L51.1108 41.4774L49.2713 43.3049Z" fill="white"/>
<path d="M41 26.7C37.4104 26.7 34.5 29.6104 34.5 33.2C34.5 36.7896 37.4104 39.7 41 39.7C44.5896 39.7 47.5 36.7896 47.5 33.2C47.4954 29.612 44.588 26.7046 41 26.7ZM41 37.1C38.8466 37.1 37.1 35.3535 37.1 33.2C37.1 31.0466 38.8466 29.3 41 29.3C43.1535 29.3 44.9 31.0466 44.9 33.2C44.9 35.3535 43.1535 37.1 41 37.1Z" fill="white"/>
</svg>
