<svg width="81" height="80" viewBox="0 0 81 80" fill="none" xmlns="http://www.w3.org/2000/svg">
<g clip-path="url(#clip0_7074_38345)">
<path d="M71.357 79.9999H68.8019V74.8896C68.8 73.8961 68.9886 72.9114 69.3573 71.9888L70.9744 67.9524C71.2211 67.3319 71.3468 66.6699 71.3447 66.0021V52.6092C71.3447 52.1017 71.1431 51.6151 70.7843 51.2563C70.4255 50.8975 69.9388 50.6959 69.4314 50.6959C68.924 50.6959 68.4373 50.8975 68.0785 51.2563C67.7197 51.6151 67.5181 52.1017 67.5181 52.6092V53.251H64.9877V50.054C64.9877 49.5466 64.7861 49.0599 64.4273 48.7011C64.0685 48.3423 63.5818 48.1407 63.0744 48.1407C62.5669 48.1407 62.0803 48.3423 61.7215 48.7011C61.3627 49.0599 61.1611 49.5466 61.1611 50.054V53.2387H58.6059V50.054C58.6059 49.5466 58.4044 49.0599 58.0456 48.7011C57.6867 48.3423 57.2001 48.1407 56.6927 48.1407C56.1852 48.1407 55.6986 48.3423 55.3398 48.7011C54.981 49.0599 54.7794 49.5466 54.7794 50.054V53.2387H52.2366V28.3907C52.2366 28.1395 52.1871 27.8907 52.0909 27.6585C51.9948 27.4264 51.8538 27.2155 51.6762 27.0378C51.4985 26.8602 51.2876 26.7192 51.0555 26.6231C50.8233 26.5269 50.5745 26.4774 50.3233 26.4774C50.072 26.4774 49.8232 26.5269 49.5911 26.6231C49.359 26.7192 49.1481 26.8602 48.9704 27.0378C48.7927 27.2155 48.6518 27.4264 48.5556 27.6585C48.4595 27.8907 48.41 28.1395 48.41 28.3907V58.3367H45.8672V28.3907C45.8672 27.2073 46.3373 26.0723 47.1742 25.2354C48.011 24.3986 49.146 23.9285 50.3295 23.9285C51.5129 23.9285 52.6479 24.3986 53.4848 25.2354C54.3216 26.0723 54.7917 27.2073 54.7917 28.3907V46.0299C55.6307 45.6321 56.573 45.5062 57.487 45.67C58.401 45.8337 59.241 46.2789 59.8897 46.9434C60.427 46.3998 61.0952 46.0035 61.8299 45.7927C62.5647 45.5819 63.3413 45.5636 64.0851 45.7397C64.8289 45.9157 65.515 46.2801 66.0773 46.7979C66.6396 47.3157 67.0593 47.9694 67.2959 48.6962C67.9756 48.3251 68.7403 48.1375 69.5146 48.1519C70.2889 48.1664 71.046 48.3824 71.7114 48.7786C72.3768 49.1748 72.9274 49.7376 73.309 50.4115C73.6906 51.0854 73.89 51.8471 73.8875 52.6215V66.0021C73.8917 66.9907 73.7074 67.971 73.3444 68.8906L71.7273 72.927C71.4806 73.5475 71.3549 74.2095 71.357 74.8773V79.9999Z" fill="white"/>
<path d="M44.5981 79.9999H42.043V76.2968C42.0342 74.9078 41.4801 73.5779 40.5 72.5937C39.0567 71.1312 38.2531 69.1555 38.2658 67.1007V54.9051C38.2658 53.1143 38.9771 51.3969 40.2434 50.1307C41.5097 48.8644 43.2271 48.1531 45.0178 48.1531H47.178V50.6959H44.9808C44.4249 50.691 43.8736 50.7962 43.3586 51.0056C42.8436 51.2149 42.3752 51.5242 41.9804 51.9156C41.5856 52.3069 41.2723 52.7726 41.0584 53.2857C40.8446 53.7988 40.7345 54.3492 40.7345 54.9051V67.1131C40.7433 68.502 41.2974 69.8319 42.2775 70.8162C43.0063 71.5318 43.5865 72.3844 43.9847 73.3249C44.383 74.2655 44.5914 75.2754 44.5981 76.2968V79.9999Z" fill="white"/>
<path d="M79 69.8041H72.6306V67.2613H76.4572V3.54281H2.54281V67.2613H39.5V69.8041H0V1H79V69.8041Z" fill="white"/>
<path d="M7.64437 6.09796H5.10156V8.64077H7.64437V6.09796Z" fill="white"/>
<path d="M12.7381 6.09796H10.1953V8.64077H12.7381V6.09796Z" fill="white"/>
<path d="M17.8397 6.09796H15.2969V8.64077H17.8397V6.09796Z" fill="white"/>
<path d="M77.7306 11.196H1.27344V13.7388H77.7306V11.196Z" fill="white"/>
<path d="M59.8939 31.5754H53.5122V29.0326H57.3388V21.3918H43.3286V29.0326H47.1428V31.5754H40.7734V18.8367H59.8939V31.5754Z" fill="white"/>
<path d="M42.0588 23.9346H5.10156V26.4774H42.0588V23.9346Z" fill="white"/>
<path d="M73.8955 23.9346H58.6016V26.4774H73.8955V23.9346Z" fill="white"/>
<path d="M33.1361 46.8693H14.0156V34.1306H33.1361V46.8693ZM16.5708 44.3265H30.5809V36.6734H16.5708V44.3265Z" fill="white"/>
<path d="M15.2975 39.2286H5.10156V41.7714H15.2975V39.2286Z" fill="white"/>
<path d="M47.1533 39.2286H31.8594V41.7714H47.1533V39.2286Z" fill="white"/>
<path d="M33.1361 62.1632H14.0156V49.4245H33.1361V62.1632ZM16.5708 59.6081H30.5809V51.9673H16.5708V59.6081Z" fill="white"/>
<path d="M15.2975 54.5101H5.10156V57.0529H15.2975V54.5101Z" fill="white"/>
<path d="M39.5002 54.5101H31.8594V57.0529H39.5002V54.5101Z" fill="white"/>
<path d="M73.9075 39.2286H53.5156V41.7714H73.9075V39.2286Z" fill="white"/>
</g>
<defs>
<clipPath id="clip0_7074_38345">
<rect width="80" height="80" fill="white" transform="translate(0.5)"/>
</clipPath>
</defs>
</svg>
