<svg width="70" height="70" viewBox="0 0 70 70" fill="none" xmlns="http://www.w3.org/2000/svg">
<path d="M17.4974 67.0837C15.8932 67.0837 14.5205 66.513 13.3791 65.3716C12.2357 64.2282 11.6641 62.8545 11.6641 61.2503V8.75033C11.6641 7.14616 12.2357 5.77241 13.3791 4.62908C14.5205 3.48769 15.8932 2.91699 17.4974 2.91699H46.6641C48.2682 2.91699 49.642 3.48769 50.7853 4.62908C51.9267 5.77241 52.4974 7.14616 52.4974 8.75033V20.417H46.6641V17.5003H17.4974V52.5003H46.6641V49.5837H52.4974V61.2503C52.4974 62.8545 51.9267 64.2282 50.7853 65.3716C49.642 66.513 48.2682 67.0837 46.6641 67.0837H17.4974ZM17.4974 58.3337V61.2503H46.6641V58.3337H17.4974ZM43.6016 46.667L31.2057 34.2712L35.2891 30.1878L43.6016 38.5003L60.0807 22.0212L64.1641 26.1045L43.6016 46.667ZM17.4974 11.667H46.6641V8.75033H17.4974V11.667ZM17.4974 11.667V8.75033V11.667ZM17.4974 58.3337V61.2503V58.3337Z" fill="black"/>
</svg>
