<svg width="70" height="70" viewBox="0 0 70 70" fill="none" xmlns="http://www.w3.org/2000/svg">
<path d="M15.3112 14.583C12.7972 14.583 10.3861 15.5817 8.60841 17.3594C6.83073 19.1371 5.83203 21.5481 5.83203 24.0622V27.708H64.1654V24.0622C64.1654 22.8174 63.9202 21.5847 63.4438 20.4347C62.9674 19.2846 62.2692 18.2396 61.389 17.3594C60.5088 16.4792 59.4638 15.7809 58.3137 15.3046C57.1637 14.8282 55.931 14.583 54.6862 14.583H15.3112ZM64.1654 32.083H5.83203V45.9372C5.83203 48.4512 6.83073 50.8623 8.60841 52.64C10.3861 54.4176 12.7972 55.4163 15.3112 55.4163H54.6862C55.931 55.4163 57.1637 55.1712 58.3137 54.6948C59.4638 54.2184 60.5088 53.5202 61.389 52.64C62.2692 51.7597 62.9674 50.7148 63.4438 49.5647C63.9202 48.4146 64.1654 47.182 64.1654 45.9372V32.083ZM45.9362 42.2913H53.2279C53.808 42.2913 54.3644 42.5218 54.7747 42.932C55.1849 43.3423 55.4154 43.8987 55.4154 44.4788C55.4154 45.059 55.1849 45.6154 54.7747 46.0256C54.3644 46.4359 53.808 46.6663 53.2279 46.6663H45.9362C45.356 46.6663 44.7996 46.4359 44.3894 46.0256C43.9792 45.6154 43.7487 45.059 43.7487 44.4788C43.7487 43.8987 43.9792 43.3423 44.3894 42.932C44.7996 42.5218 45.356 42.2913 45.9362 42.2913Z" fill="black"/>
</svg>
