<svg width="81" height="80" viewBox="0 0 81 80" fill="none" xmlns="http://www.w3.org/2000/svg">
<g clip-path="url(#clip0_7077_39754)">
<path d="M55.9746 27.8447C55.9746 24.259 54.9113 20.7538 52.9192 17.7723C50.927 14.7909 48.0955 12.4671 44.7827 11.0949C41.4699 9.7227 37.8246 9.36367 34.3078 10.0632C30.7909 10.7628 27.5605 12.4895 25.025 15.025C22.4895 17.5605 20.7628 20.7909 20.0632 24.3078C19.3637 27.8246 19.7227 31.4699 21.0949 34.7827C22.4671 38.0955 24.7909 40.927 27.7723 42.9192C30.7538 44.9113 34.259 45.9746 37.8447 45.9746C42.6514 45.9693 47.2598 44.0575 50.6586 40.6586C54.0575 37.2598 55.9693 32.6514 55.9746 27.8447V27.8447ZM37.8447 43.6602C34.7167 43.6602 31.659 42.7326 29.0582 40.9948C26.4573 39.257 24.4302 36.7869 23.2332 33.897C22.0362 31.0071 21.723 27.8272 22.3332 24.7593C22.9434 21.6914 24.4497 18.8734 26.6615 16.6615C28.8734 14.4497 31.6914 12.9434 34.7593 12.3332C37.8272 11.723 41.0071 12.0362 43.897 13.2332C46.7869 14.4302 49.257 16.4573 50.9948 19.0582C52.7326 21.659 53.6602 24.7167 53.6602 27.8447C53.6557 32.0379 51.988 36.058 49.023 39.023C46.058 41.988 42.0379 43.6557 37.8447 43.6602V43.6602Z" fill="white"/>
<path d="M49.3989 26.9668L44.5216 22.7853C44.4064 22.6852 44.2725 22.6089 44.1277 22.5608C43.9828 22.5126 43.8299 22.4936 43.6777 22.5049C43.5255 22.5161 43.377 22.5573 43.2407 22.6261C43.1045 22.695 42.9833 22.7901 42.884 22.906C42.7846 23.0219 42.7092 23.1563 42.6621 23.3014C42.6149 23.4466 42.597 23.5996 42.6092 23.7518C42.6214 23.9039 42.6637 24.0521 42.7334 24.1879C42.8032 24.3236 42.8991 24.4442 43.0157 24.5428L46.8731 27.8447L43.0157 31.1467C42.8991 31.2452 42.8032 31.3658 42.7334 31.5016C42.6637 31.6373 42.6214 31.7855 42.6092 31.9377C42.597 32.0898 42.6149 32.2429 42.6621 32.388C42.7092 32.5332 42.7846 32.6676 42.884 32.7835C42.9833 32.8994 43.1045 32.9945 43.2407 33.0633C43.377 33.1322 43.5255 33.1734 43.6777 33.1846C43.8299 33.1958 43.9828 33.1768 44.1277 33.1287C44.2725 33.0805 44.4064 33.0042 44.5216 32.9041L49.3989 28.7227C49.5257 28.6142 49.6274 28.4795 49.6972 28.328C49.767 28.1764 49.8031 28.0116 49.8031 27.8447C49.8031 27.6779 49.767 27.513 49.6972 27.3615C49.6274 27.2099 49.5257 27.0753 49.3989 26.9668V26.9668Z" fill="white"/>
<path d="M32.8006 22.9103C32.6006 22.6775 32.3163 22.5336 32.0103 22.5102C31.7042 22.4867 31.4014 22.5857 31.1682 22.7853L26.2909 26.9668C26.1641 27.0753 26.0624 27.2099 25.9926 27.3615C25.9228 27.513 25.8867 27.6779 25.8867 27.8447C25.8867 28.0116 25.9228 28.1764 25.9926 28.328C26.0624 28.4795 26.1641 28.6142 26.2909 28.7227L31.1682 32.9041C31.2834 33.0042 31.4173 33.0805 31.5621 33.1287C31.707 33.1768 31.8599 33.1958 32.0121 33.1846C32.1643 33.1734 32.3128 33.1322 32.4491 33.0633C32.5853 32.9945 32.7065 32.8994 32.8058 32.7835C32.9052 32.6676 32.9806 32.5332 33.0277 32.388C33.0749 32.2429 33.0928 32.0898 33.0806 31.9377C33.0684 31.7855 33.0261 31.6373 32.9564 31.5016C32.8866 31.3658 32.7907 31.2452 32.6741 31.1467L28.8167 27.8447L32.6741 24.5428C32.9072 24.3429 33.0514 24.0588 33.0751 23.7527C33.0988 23.4467 33.0001 23.1437 32.8006 22.9103V22.9103Z" fill="white"/>
<path d="M39.8678 19.7534C39.5699 19.6792 39.2547 19.7262 38.9915 19.8841C38.7282 20.0421 38.5384 20.2981 38.4637 20.5958L34.9797 34.5319C34.9055 34.8298 34.9525 35.145 35.1104 35.4083C35.2684 35.6715 35.5244 35.8613 35.8222 35.936C35.9146 35.9587 36.0094 35.9701 36.1045 35.97C36.3623 35.9695 36.6127 35.8831 36.8158 35.7243C37.019 35.5656 37.1634 35.3436 37.2263 35.0936L40.7103 21.1575C40.7845 20.8596 40.7375 20.5444 40.5795 20.2812C40.4216 20.0179 40.1656 19.8281 39.8678 19.7534V19.7534Z" fill="white"/>
<path d="M67.979 55.541L63.0168 50.5788L67.0455 48.8522C67.2722 48.7576 67.4629 48.5933 67.59 48.3832C67.7171 48.173 67.7741 47.9278 67.7526 47.6831C67.7311 47.4384 67.6323 47.2069 67.4705 47.0221C67.3088 46.8373 67.0924 46.7087 66.8527 46.6551L57.5949 44.518C60.7624 40.7678 62.7964 36.1929 63.4586 31.3288C64.1209 26.4647 63.3841 21.5126 61.3344 17.052C59.2848 12.5914 56.0071 8.80686 51.8849 6.14123C47.7627 3.47559 42.9666 2.03914 38.0578 2L37.8449 2C31.0249 2 24.5753 4.67088 19.6779 9.53277C14.7266 14.444 12.0001 20.9477 12.0001 27.8447C11.9893 31.2605 12.6605 34.644 13.9744 37.797C15.2883 40.9499 17.2185 43.8088 19.6517 46.2061C22.8919 49.4231 24.7605 53.9626 24.7605 58.6578V60.1699H24.4935C23.8232 60.1696 23.1671 60.3634 22.6046 60.7279C22.042 61.0925 21.5971 61.6121 21.3236 62.2241C21.0501 62.8361 20.9597 63.5142 21.0633 64.1765C21.1669 64.8388 21.4601 65.4569 21.9075 65.9561C21.4601 66.4552 21.1669 67.0733 21.0633 67.7356C20.9597 68.3979 21.0501 69.076 21.3236 69.688C21.5971 70.3 22.042 70.8197 22.6046 71.1842C23.1671 71.5487 23.8232 71.7425 24.4935 71.7422H27.4252V77.5283C27.426 78.4496 27.7927 79.3329 28.4446 79.9839C29.0964 80.6349 29.9802 81.0004 30.9015 81H44.7882C45.7087 80.9992 46.5913 80.6332 47.2422 79.9823C47.8931 79.3314 48.2591 78.4488 48.2599 77.5283V71.7422H50.7286C51.3991 71.7429 52.0555 71.5493 52.6182 71.1848C53.1809 70.8202 53.626 70.3004 53.8994 69.6882C54.1729 69.076 54.263 68.3977 54.159 67.7353C54.0549 67.0729 53.7611 66.4549 53.3131 65.9561C53.7011 65.524 53.9744 65.0014 54.108 64.4362C54.2415 63.871 54.231 63.2814 54.0775 62.7213C53.9239 62.1613 53.6322 61.6487 53.229 61.2307C52.8259 60.8127 52.3243 60.5026 51.7701 60.3288V57.6472C51.7724 55.9877 52.0141 54.3372 52.4876 52.7467L54.0414 59.4725C54.0963 59.7102 54.2249 59.9245 54.4089 60.0848C54.5929 60.245 54.8228 60.343 55.0659 60.3648C55.3089 60.3865 55.5526 60.3309 55.7621 60.2058C55.9716 60.0808 56.1362 59.8927 56.2324 59.6685L57.959 55.6398L62.9212 60.602C63.0286 60.7095 63.1563 60.7948 63.2967 60.853C63.4372 60.9112 63.5877 60.9412 63.7397 60.9412C63.8918 60.9412 64.0423 60.9112 64.1827 60.853C64.3232 60.7948 64.4508 60.7095 64.5583 60.602L67.9867 57.1735C68.0943 57.066 68.1796 56.9384 68.2378 56.798C68.296 56.6575 68.326 56.507 68.326 56.3549C68.326 56.2029 68.296 56.0524 68.2378 55.9119C68.1796 55.7715 68.0943 55.6439 67.9867 55.5364L67.979 55.541ZM44.7882 78.6855H30.9015C30.5946 78.6855 30.3002 78.5636 30.0832 78.3466C29.8662 78.1296 29.7443 77.8352 29.7443 77.5283V76.3711H45.9454V77.5283C45.9454 77.8352 45.8235 78.1296 45.6065 78.3466C45.3895 78.5636 45.0951 78.6855 44.7882 78.6855ZM45.9454 74.0566H29.7443V71.7422H45.9454V74.0566ZM50.7286 69.4277H24.4982C24.1913 69.4277 23.8969 69.3058 23.6799 69.0888C23.4629 68.8718 23.3409 68.5774 23.3409 68.2705C23.3409 67.9636 23.4629 67.6692 23.6799 67.4522C23.8969 67.2352 24.1913 67.1133 24.4982 67.1133H50.7286C51.0356 67.1133 51.3299 67.2352 51.5469 67.4522C51.7639 67.6692 51.8859 67.9636 51.8859 68.2705C51.8859 68.5774 51.7639 68.8718 51.5469 69.0888C51.3299 69.3058 51.0356 69.4277 50.7286 69.4277ZM50.7286 64.7988H24.4982C24.1913 64.7988 23.8969 64.6769 23.6799 64.4599C23.4629 64.2429 23.3409 63.9485 23.3409 63.6416C23.3409 63.3347 23.4629 63.0403 23.6799 62.8233C23.8969 62.6063 24.1913 62.4844 24.4982 62.4844H50.7286C51.0356 62.4844 51.3299 62.6063 51.5469 62.8233C51.7639 63.0403 51.8859 63.3347 51.8859 63.6416C51.8859 63.9485 51.7639 64.2429 51.5469 64.4599C51.3299 64.6769 51.0356 64.7988 50.7286 64.7988ZM49.4526 57.6472V60.1699H27.0796V58.6516C27.0796 53.3423 24.9688 48.2057 21.2857 44.5566C19.0704 42.3748 17.3128 39.7729 16.1158 36.9033C14.9187 34.0337 14.3064 30.954 14.3146 27.8447C14.3146 21.5695 16.7988 15.6553 21.3089 11.1807C25.7742 6.74617 31.639 4.31445 37.8449 4.31445H38.0377C50.9061 4.41783 61.3736 14.9733 61.3736 27.8432C61.3838 33.8179 59.1102 39.5706 55.0181 43.924L51.9908 43.225C51.7995 43.1811 51.6001 43.1865 51.4114 43.2407C51.2228 43.295 51.0509 43.3962 50.9121 43.5351C50.7733 43.6739 50.6721 43.8457 50.6178 44.0343C50.5636 44.223 50.5582 44.4224 50.6021 44.6137L51.5665 48.7936C50.1792 51.5391 49.4537 54.5711 49.448 57.6472H49.4526ZM63.7374 58.1471L58.3833 52.7945C58.1665 52.5774 57.8723 52.4553 57.5655 52.4551C57.4919 52.4546 57.4185 52.4619 57.3464 52.4767C57.1607 52.5125 56.9865 52.5932 56.8391 52.7118C56.6917 52.8304 56.5756 52.9833 56.5009 53.1571L55.4964 55.5024L53.2745 45.899L62.878 48.1147L60.5327 49.1192C60.3587 49.1936 60.2057 49.3096 60.087 49.4569C59.9683 49.6042 59.8875 49.7784 59.8517 49.9641C59.8159 50.1499 59.8263 50.3416 59.8818 50.5225C59.9372 50.7034 60.0362 50.8679 60.1701 51.0016L65.5226 56.3557L63.7374 58.1471Z" fill="white"/>
</g>
<defs>
<clipPath id="clip0_7077_39754">
<rect width="80" height="80" fill="white" transform="translate(0.5)"/>
</clipPath>
</defs>
</svg>
