<svg width="146" height="147" viewBox="0 0 146 147" fill="none" xmlns="http://www.w3.org/2000/svg">
<circle cx="50.5" cy="2.5" r="2.5" fill="#3E5560"/>
<circle cx="66.5" cy="2.5" r="2.5" fill="#3E5560"/>
<circle cx="82.5" cy="2.5" r="2.5" fill="#3E5560"/>
<circle cx="98.5" cy="2.5" r="2.5" fill="#3E5560"/>
<circle cx="50.5" cy="96.5" r="2.5" fill="#3E5560"/>
<circle cx="66.5" cy="96.5" r="2.5" fill="#3E5560"/>
<circle cx="82.5" cy="96.5" r="2.5" fill="#3E5560"/>
<circle cx="98.5" cy="96.5" r="2.5" fill="#3E5560"/>
<circle cx="114.5" cy="96.5" r="2.5" fill="#3E5560"/>
<circle cx="127.5" cy="96.5" r="2.5" fill="#3E5560"/>
<circle cx="143.5" cy="96.5" r="2.5" fill="#3E5560"/>
<circle cx="34.5" cy="96.5" r="2.5" fill="#3E5560"/>
<circle cx="18.5" cy="96.5" r="2.5" fill="#3E5560"/>
<circle cx="2.5" cy="96.5" r="2.5" fill="#3E5560"/>
<circle cx="50.5" cy="50.5" r="2.5" fill="#3E5560"/>
<circle cx="66.5" cy="50.5" r="2.5" fill="#3E5560"/>
<circle cx="82.5" cy="50.5" r="2.5" fill="#3E5560"/>
<circle cx="98.5" cy="50.5" r="2.5" fill="#3E5560"/>
<circle cx="114.5" cy="50.5" r="2.5" fill="#3E5560"/>
<circle cx="127.5" cy="50.5" r="2.5" fill="#3E5560"/>
<circle cx="143.5" cy="50.5" r="2.5" fill="#3E5560"/>
<circle cx="34.5" cy="50.5" r="2.5" fill="#3E5560"/>
<circle cx="18.5" cy="50.5" r="2.5" fill="#3E5560"/>
<circle cx="2.5" cy="50.5" r="2.5" fill="#3E5560"/>
<circle cx="50.5" cy="144.5" r="2.5" fill="#3E5560"/>
<circle cx="66.5" cy="144.5" r="2.5" fill="#3E5560"/>
<circle cx="82.5" cy="144.5" r="2.5" fill="#3E5560"/>
<circle cx="98.5" cy="144.5" r="2.5" fill="#3E5560"/>
<circle cx="49.5" cy="18.5" r="2.5" fill="#3E5560"/>
<circle cx="65.5" cy="18.5" r="2.5" fill="#3E5560"/>
<circle cx="81.5" cy="18.5" r="2.5" fill="#3E5560"/>
<circle cx="97.5" cy="18.5" r="2.5" fill="#3E5560"/>
<circle cx="113.5" cy="18.5" r="2.5" fill="#3E5560"/>
<circle cx="126.5" cy="18.5" r="2.5" fill="#3E5560"/>
<circle cx="33.5" cy="18.5" r="2.5" fill="#3E5560"/>
<circle cx="17.5" cy="18.5" r="2.5" fill="#3E5560"/>
<circle cx="50.5" cy="18.5" r="2.5" fill="#3E5560"/>
<circle cx="66.5" cy="18.5" r="2.5" fill="#3E5560"/>
<circle cx="82.5" cy="18.5" r="2.5" fill="#3E5560"/>
<circle cx="98.5" cy="18.5" r="2.5" fill="#3E5560"/>
<circle cx="114.5" cy="18.5" r="2.5" fill="#3E5560"/>
<circle cx="34.5" cy="18.5" r="2.5" fill="#3E5560"/>
<circle cx="50.5" cy="112.5" r="2.5" fill="#3E5560"/>
<circle cx="66.5" cy="112.5" r="2.5" fill="#3E5560"/>
<circle cx="82.5" cy="112.5" r="2.5" fill="#3E5560"/>
<circle cx="98.5" cy="112.5" r="2.5" fill="#3E5560"/>
<circle cx="114.5" cy="112.5" r="2.5" fill="#3E5560"/>
<circle cx="127.5" cy="112.5" r="2.5" fill="#3E5560"/>
<circle cx="34.5" cy="112.5" r="2.5" fill="#3E5560"/>
<circle cx="18.5" cy="112.5" r="2.5" fill="#3E5560"/>
<circle cx="50.5" cy="66.5" r="2.5" fill="#3E5560"/>
<circle cx="66.5" cy="66.5" r="2.5" fill="#3E5560"/>
<circle cx="82.5" cy="66.5" r="2.5" fill="#3E5560"/>
<circle cx="98.5" cy="66.5" r="2.5" fill="#3E5560"/>
<circle cx="114.5" cy="66.5" r="2.5" fill="#3E5560"/>
<circle cx="127.5" cy="66.5" r="2.5" fill="#3E5560"/>
<circle cx="143.5" cy="66.5" r="2.5" fill="#3E5560"/>
<circle cx="34.5" cy="66.5" r="2.5" fill="#3E5560"/>
<circle cx="18.5" cy="66.5" r="2.5" fill="#3E5560"/>
<circle cx="2.5" cy="66.5" r="2.5" fill="#3E5560"/>
<circle cx="50.5" cy="34.5" r="2.5" fill="#3E5560"/>
<circle cx="66.5" cy="34.5" r="2.5" fill="#3E5560"/>
<circle cx="82.5" cy="34.5" r="2.5" fill="#3E5560"/>
<circle cx="98.5" cy="34.5" r="2.5" fill="#3E5560"/>
<circle cx="114.5" cy="34.5" r="2.5" fill="#3E5560"/>
<circle cx="127.5" cy="34.5" r="2.5" fill="#3E5560"/>
<circle cx="34.5" cy="34.5" r="2.5" fill="#3E5560"/>
<circle cx="18.5" cy="34.5" r="2.5" fill="#3E5560"/>
<circle cx="50.5" cy="128.5" r="2.5" fill="#3E5560"/>
<circle cx="66.5" cy="128.5" r="2.5" fill="#3E5560"/>
<circle cx="82.5" cy="128.5" r="2.5" fill="#3E5560"/>
<circle cx="98.5" cy="128.5" r="2.5" fill="#3E5560"/>
<circle cx="114.5" cy="128.5" r="2.5" fill="#3E5560"/>
<circle cx="127.5" cy="128.5" r="2.5" fill="#3E5560"/>
<circle cx="34.5" cy="128.5" r="2.5" fill="#3E5560"/>
<circle cx="18.5" cy="128.5" r="2.5" fill="#3E5560"/>
<circle cx="50.5" cy="82.5" r="2.5" fill="#3E5560"/>
<circle cx="66.5" cy="82.5" r="2.5" fill="#3E5560"/>
<circle cx="82.5" cy="82.5" r="2.5" fill="#3E5560"/>
<circle cx="98.5" cy="82.5" r="2.5" fill="#3E5560"/>
<circle cx="114.5" cy="82.5" r="2.5" fill="#3E5560"/>
<circle cx="127.5" cy="82.5" r="2.5" fill="#3E5560"/>
<circle cx="143.5" cy="82.5" r="2.5" fill="#3E5560"/>
<circle cx="34.5" cy="82.5" r="2.5" fill="#3E5560"/>
<circle cx="18.5" cy="82.5" r="2.5" fill="#3E5560"/>
<circle cx="2.5" cy="82.5" r="2.5" fill="#3E5560"/>
</svg>
