<svg width="81" height="80" viewBox="0 0 81 80" fill="none" xmlns="http://www.w3.org/2000/svg">
<path d="M45.375 6.875H35.625V10.1249H45.375V6.875Z" fill="white"/>
<path d="M27.5 60.5H24.25V63.75H27.5V60.5Z" fill="white"/>
<path d="M27.5 54H24.25V57.2499H27.5V54Z" fill="white"/>
<path d="M33.9999 60.5H30.75V63.75H33.9999V60.5Z" fill="white"/>
<path d="M71.375 29.6249C69.1302 29.6249 65.7444 30.3998 63.2501 32.7358V6.875C63.2501 4.18263 61.0674 2 58.3751 2H22.625C19.9326 2 17.75 4.18263 17.75 6.875V26.375H12.875C10.1826 26.375 8 28.5576 8 31.25V34.4999C8 35.7487 8.47013 36.8875 9.24236 37.7499C8.47013 38.6125 8 39.7511 8 40.9998V44.2498C8 45.4986 8.47013 46.6373 9.24236 47.4997C8.47013 48.3623 8 49.5009 8 50.7497V53.9996C8 55.2484 8.47013 56.3872 9.24236 57.2496C8.47013 58.1122 8 59.2508 8 60.4995V63.7495C8 66.4419 10.1826 68.6245 12.875 68.6245H17.75V75.125C17.75 77.8174 19.9326 80 22.625 80H58.3751C61.0674 80 63.2501 77.8174 63.2501 75.125V39.8771C63.5103 36.3978 66.188 33.4949 69.7501 33.0455V78.375H73.0001V31.25C72.9999 30.3525 72.2725 29.6249 71.375 29.6249ZM22.625 5.24995H58.3751C59.2724 5.24995 60 5.97754 60 6.875V11.75H20.9999V6.875C20.9999 5.97754 21.7275 5.24995 22.625 5.24995ZM11.2499 54V50.75C11.2499 49.8525 11.9775 49.125 12.875 49.125H17.75V55.625H12.875C11.9775 55.625 11.2499 54.8974 11.2499 54ZM11.2499 44.25V41C11.2499 40.1025 11.9775 39.3749 12.875 39.3749H17.75V45.875H12.875C11.9775 45.875 11.2499 45.1474 11.2499 44.25ZM11.2499 31.25C11.2499 30.3525 11.9775 29.6249 12.875 29.6249H17.75V36.125H12.875C11.9775 36.125 11.2499 35.3974 11.2499 34.4999V31.25ZM12.875 65.375C11.9775 65.375 11.2499 64.6474 11.2499 63.75V60.5C11.2499 59.6025 11.9775 58.875 12.875 58.875H17.75V65.375H12.875ZM58.3749 76.75H22.625C21.7275 76.75 20.9999 76.0225 20.9999 75.125V70.25H60V75.125C60 76.0225 59.2724 76.75 58.3749 76.75ZM60 67H20.9999V57.25V47.5V37.7501V28.0001V14.9999H60V67Z" fill="white"/>
<path d="M40.5001 24.75C31.5255 24.75 24.25 32.0253 24.25 41.0001C24.25 49.9748 31.5255 57.2501 40.5001 57.2501C49.4707 57.2402 56.7402 49.9707 56.7501 41.0001C56.7501 32.0255 49.4746 24.75 40.5001 24.75ZM40.5001 54C33.3204 54 27.5001 48.1797 27.5001 41.0001C27.5001 33.8204 33.3204 28.0001 40.5001 28.0001C47.6764 28.0082 53.4919 33.8237 53.5 41.0001C53.5 48.1797 47.6797 54 40.5001 54Z" fill="white"/>
<path d="M40.5 36.125C41.3975 36.125 42.125 36.8526 42.125 37.7501H45.375C45.375 35.6276 44.0182 33.8229 42.125 33.1535V31.25H38.8751V33.1535C36.9818 33.8228 35.625 35.6276 35.625 37.7501C35.625 40.4424 37.8076 42.625 40.5 42.625C41.3975 42.625 42.125 43.3526 42.125 44.2501C42.125 45.1476 41.3975 45.8752 40.5 45.8752C39.6025 45.8752 38.8749 45.1476 38.8749 44.2501H35.625C35.625 46.3726 36.9818 48.1772 38.8749 48.8466V50.75H42.1249V48.8465C44.0181 48.1771 45.3748 46.3724 45.3748 44.25C45.3748 41.5576 43.1922 39.3749 40.4998 39.3749C39.6024 39.3749 38.8748 38.6474 38.8748 37.7499C38.8749 36.8526 39.6025 36.125 40.5 36.125Z" fill="white"/>
<path d="M56.7499 18.25H53.5V21.4999H56.7499V18.25Z" fill="white"/>
<path d="M56.7499 24.75H53.5V28H56.7499V24.75Z" fill="white"/>
<path d="M50.25 18.25H47V21.4999H50.25V18.25Z" fill="white"/>
</svg>
