<svg width="70" height="70" viewBox="0 0 70 70" fill="none" xmlns="http://www.w3.org/2000/svg">
<path d="M59.0625 10.9375H19.6875C18.5272 10.9375 17.4144 11.3984 16.5939 12.2189C15.7734 13.0394 15.3125 14.1522 15.3125 15.3125V19.6875H10.9375C9.77718 19.6875 8.66438 20.1484 7.84391 20.9689C7.02344 21.7894 6.5625 22.9022 6.5625 24.0625V54.6875C6.5625 55.8478 7.02344 56.9606 7.84391 57.7811C8.66438 58.6016 9.77718 59.0625 10.9375 59.0625H50.3125C51.4728 59.0625 52.5856 58.6016 53.4061 57.7811C54.2266 56.9606 54.6875 55.8478 54.6875 54.6875V50.3125H59.0625C60.2228 50.3125 61.3356 49.8516 62.1561 49.0311C62.9766 48.2106 63.4375 47.0978 63.4375 45.9375V15.3125C63.4375 14.1522 62.9766 13.0394 62.1561 12.2189C61.3356 11.3984 60.2228 10.9375 59.0625 10.9375ZM50.3125 24.0625V28.4375H10.9375V24.0625H50.3125ZM50.3125 54.6875H10.9375V32.8125H50.3125V54.6875ZM59.0625 45.9375H54.6875V24.0625C54.6875 22.9022 54.2266 21.7894 53.4061 20.9689C52.5856 20.1484 51.4728 19.6875 50.3125 19.6875H19.6875V15.3125H59.0625V45.9375Z" fill="black"/>
</svg>
