<svg width="70" height="70" viewBox="0 0 70 70" fill="none" xmlns="http://www.w3.org/2000/svg">
<path d="M45.6667 66H25.3333V37.5318C25.3333 36.9925 25.5476 36.4753 25.9289 36.094C26.3102 35.7126 26.8274 35.4984 27.3667 35.4984H43.6333C44.1726 35.4984 44.6898 35.7126 45.0711 36.094C45.4524 36.4753 45.6667 36.9925 45.6667 37.5318V66V66ZM63.9667 66H45.6667V56.1717C45.6667 55.6324 45.8809 55.1152 46.2622 54.7338C46.6435 54.3525 47.1607 54.1383 47.7 54.1383H63.9667C64.5059 54.1383 65.0231 54.3525 65.4045 54.7338C65.7858 55.1152 66 55.6324 66 56.1717V63.9666C66 64.5059 65.7858 65.0231 65.4045 65.4044C65.0231 65.7858 64.5059 66 63.9667 66V66ZM25.3333 66V49.3936C25.3333 48.8543 25.1191 48.337 24.7378 47.9557C24.3565 47.5744 23.8393 47.3601 23.3 47.3601H7.03333C6.49406 47.3601 5.97687 47.5744 5.59555 47.9557C5.21423 48.337 5 48.8543 5 49.3936V63.9666C5 64.5059 5.21423 65.0231 5.59555 65.4044C5.97687 65.7858 6.49406 66 7.03333 66H25.3333V66ZM31.4537 12.1578L34.5342 5.62711C34.6173 5.44042 34.7528 5.28183 34.9242 5.17053C35.0956 5.05923 35.2956 5 35.5 5C35.7044 5 35.9044 5.05923 36.0758 5.17053C36.2472 5.28183 36.3827 5.44042 36.4658 5.62711L39.5497 12.1578L46.4359 13.2118C47.3204 13.3474 47.6729 14.4861 47.0324 15.1368L42.0507 20.2204L43.2267 27.3985C43.3758 28.3203 42.454 29.0253 41.661 28.5881L35.5 25.199L29.339 28.5881C28.5494 29.0219 27.6242 28.3203 27.7733 27.3985L28.9493 20.2204L23.9676 15.1368C23.3237 14.4861 23.6796 13.3474 24.5607 13.2118L31.4537 12.1612V12.1578Z" stroke="black" stroke-width="3.5" stroke-linecap="round" stroke-linejoin="round"/>
</svg>
