<svg width="81" height="80" viewBox="0 0 81 80" fill="none" xmlns="http://www.w3.org/2000/svg">
<path d="M6.82474 55.1902H23.2801V52.6586H6.82474C6.12509 52.6586 5.55894 52.0919 5.55894 51.3928V12.153H53.6594V22.2794H56.191V5.82401C56.191 3.72691 54.4907 2.02661 52.3936 2.02661H6.82474C4.72703 2.02661 3.02734 3.72691 3.02734 5.82401V51.3928C3.02734 53.4899 4.72703 55.1902 6.82474 55.1902ZM6.82474 4.55821H52.3936C53.0926 4.55821 53.6594 5.12498 53.6594 5.82401V9.62141H5.55894V5.82401C5.55894 5.12498 6.12509 4.55821 6.82474 4.55821Z" fill="white"/>
<path d="M8.08984 5.82401H10.6214V8.35561H8.08984V5.82401Z" fill="white"/>
<path d="M13.1523 5.82401H15.6839V8.35561H13.1523V5.82401Z" fill="white"/>
<path d="M18.2148 5.82401H20.7464V8.35561H18.2148V5.82401Z" fill="white"/>
<path d="M25.8125 18.482H28.3441V21.0136H25.8125V18.482Z" fill="white"/>
<path d="M30.875 18.482H33.4066V21.0136H30.875V18.482Z" fill="white"/>
<path d="M35.9375 18.482H38.4691V21.0136H35.9375V18.482Z" fill="white"/>
<path d="M20.7461 18.482H23.2777V21.0136H20.7461V18.482Z" fill="white"/>
<path d="M75.1787 24.811H29.6099C27.5122 24.811 25.8125 26.5113 25.8125 28.6084V74.1772C25.8125 76.2743 27.5122 77.9746 29.6099 77.9746H75.1787C77.2758 77.9746 78.9761 76.2743 78.9761 74.1772V28.6084C78.9761 26.5113 77.2758 24.811 75.1787 24.811ZM29.6099 27.3426H75.1787C75.8777 27.3426 76.4445 27.9094 76.4445 28.6084V32.4058H28.3441V28.6084C28.3441 27.9094 28.9102 27.3426 29.6099 27.3426ZM75.1787 75.443H29.6099C28.9102 75.443 28.3441 74.8762 28.3441 74.1772V34.9374H76.4445V74.1772C76.4445 74.8762 75.8777 75.443 75.1787 75.443Z" fill="white"/>
<path d="M30.875 28.6084H33.4066V31.14H30.875V28.6084Z" fill="white"/>
<path d="M35.9375 28.6084H38.4691V31.14H35.9375V28.6084Z" fill="white"/>
<path d="M41 28.6084H43.5316V31.14H41V28.6084Z" fill="white"/>
<path d="M52.3917 47.5954C48.1969 47.5954 44.7969 50.996 44.7969 55.1902C44.7969 59.385 48.1969 62.785 52.3917 62.785C56.5859 62.785 59.9865 59.385 59.9865 55.1902C59.9822 50.9973 56.584 47.5998 52.3917 47.5954ZM52.3917 60.2534C49.5949 60.2534 47.3285 57.9864 47.3285 55.1902C47.3285 52.3941 49.5949 50.127 52.3917 50.127C55.1878 50.127 57.4549 52.3941 57.4549 55.1902C57.4549 57.9864 55.1878 60.2534 52.3917 60.2534Z" fill="white"/>
<path d="M66.5693 51.4182L64.3239 50.9688C64.1768 50.5504 64.0081 50.14 63.8177 49.7395L65.0835 47.8408C65.4179 47.3389 65.3517 46.6702 64.9253 46.2437L61.3429 42.6589C60.9165 42.2318 60.2477 42.1657 59.7452 42.5007L57.8465 43.7665C57.446 43.5761 57.0363 43.4074 56.6178 43.2603L56.1648 41.013C56.0443 40.424 55.5257 40.0006 54.9243 40.0006H49.8611C49.2591 40.0006 48.7406 40.424 48.6201 41.013L48.1707 43.2591C47.7529 43.4062 47.3425 43.5749 46.942 43.7653L45.0433 42.4995C44.5408 42.1645 43.8727 42.2306 43.4456 42.6577L39.8608 46.24C39.4343 46.6665 39.3682 47.3352 39.7026 47.8371L40.9684 49.7358C40.7786 50.1363 40.6093 50.5467 40.4622 50.9651L38.2155 51.4182C37.6259 51.5387 37.2025 52.0572 37.2031 52.6586V57.7218C37.2025 58.3232 37.6259 58.8418 38.2155 58.9623L40.461 59.4116C40.6081 59.83 40.7774 60.2404 40.9672 60.6409L39.7014 62.5396C39.367 63.0415 39.4331 63.7103 39.8596 64.1367L43.4419 67.7215C43.8684 68.1486 44.5371 68.2147 45.0396 67.8797L46.9383 66.6139C47.3388 66.8043 47.7492 66.973 48.167 67.1201L48.6201 69.3674C48.7406 69.9564 49.2591 70.3798 49.8611 70.3798H54.9243C55.5257 70.3798 56.0443 69.9564 56.1648 69.3674L56.6141 67.122C57.0319 66.9749 57.4423 66.8055 57.8428 66.6152L59.7415 67.881C60.244 68.216 60.9122 68.1498 61.3392 67.7227L64.924 64.1404C65.3505 63.714 65.4166 63.0452 65.0823 62.5434L63.8165 60.6447C64.0062 60.2441 64.1755 59.8337 64.3226 59.4153L66.5693 58.9623C67.159 58.8418 67.5823 58.3232 67.5823 57.7218V52.6586C67.5823 52.0572 67.159 51.5387 66.5693 51.4182ZM65.0507 56.6841L63.0908 57.0766C62.6267 57.1693 62.2527 57.5141 62.1223 57.9697C61.9097 58.7138 61.6124 59.4314 61.2366 60.1082C61.0055 60.5223 61.0259 61.0309 61.2886 61.4259L62.3949 63.0835L60.2811 65.1979L58.6228 64.0916C58.2279 63.8283 57.7192 63.8085 57.3051 64.0397C56.6283 64.4155 55.9114 64.7128 55.1672 64.9254C54.7117 65.0558 54.3668 65.4291 54.2735 65.8939L53.886 67.8482H50.8989L50.5064 65.8889C50.4131 65.4242 50.0682 65.0502 49.6127 64.9204C48.8685 64.7078 48.1509 64.4105 47.4748 64.0341C47.0607 63.8036 46.552 63.8234 46.1571 64.086L44.4988 65.1924L42.385 63.0786L43.4913 61.4203C43.754 61.026 43.7744 60.5173 43.5433 60.1026C43.1668 59.4264 42.8696 58.7089 42.6569 57.9647C42.5272 57.5092 42.1532 57.1643 41.6891 57.071L39.7347 56.6841V53.6963L41.694 53.3045C42.1588 53.2112 42.5321 52.8663 42.6625 52.4108C42.8751 51.6666 43.1724 50.949 43.5482 50.2729C43.7794 49.8582 43.759 49.3495 43.4963 48.9552L42.3899 47.2969L44.5037 45.1831L46.162 46.2894C46.5569 46.5521 47.0656 46.5719 47.4797 46.3414C48.1565 45.965 48.8735 45.6677 49.6176 45.455C50.0737 45.3246 50.418 44.9513 50.5113 44.4865L50.8989 42.5322H53.886L54.2785 44.4915C54.3718 44.9563 54.7167 45.3302 55.1722 45.46C55.9163 45.6726 56.6339 45.9699 57.3101 46.3463C57.7242 46.5768 58.2328 46.5571 58.6278 46.2944L60.2861 45.188L62.3998 47.3018L61.2935 48.9601C61.0308 49.355 61.0104 49.8637 61.2416 50.2778C61.618 50.954 61.9153 51.6716 62.1279 52.4157C62.2577 52.8712 62.6316 53.2161 63.0958 53.3094L65.0507 53.6963V56.6841Z" fill="white"/>
<path d="M8.52441 57.131L6.28516 58.3127C9.97254 65.3092 15.6903 71.0263 22.6862 74.7137L23.8685 72.4763C17.3226 69.0263 11.9732 63.6769 8.52441 57.131Z" fill="white"/>
<path d="M73.473 22.8703L75.7123 21.6885C72.0249 14.692 66.3072 8.97492 59.3113 5.28754L58.1289 7.52556C64.6748 10.975 70.0242 16.3244 73.473 22.8703Z" fill="white"/>
<path d="M2 61.0557L4.19228 59.7905L5.45808 61.9828L3.26518 63.2486L2 61.0557Z" fill="white"/>
<path d="M6.25 67.5083L8.18949 65.8809L9.81624 67.821L7.87675 69.4478L6.25 67.5083Z" fill="white"/>
<path d="M11.5547 73.1253L13.1814 71.1858L15.1209 72.8125L13.4942 74.752L11.5547 73.1253Z" fill="white"/>
<path d="M17.7539 77.7354L19.0197 75.5432L21.212 76.8083L19.9462 79.0012L17.7539 77.7354Z" fill="white"/>
<path d="M76.543 18.0178L78.7359 16.752L80.0011 18.9443L77.8088 20.2101L76.543 18.0178Z" fill="white"/>
<path d="M72.1836 12.1808L74.1231 10.5541L75.7505 12.4936L73.8103 14.1203L72.1836 12.1808Z" fill="white"/>
<path d="M66.8828 7.18809L68.5096 5.2486L70.4491 6.87535L68.8223 8.81546L66.8828 7.18809Z" fill="white"/>
<path d="M60.7891 3.19228L62.0549 1L64.2471 2.2658L62.982 4.45808L60.7891 3.19228Z" fill="white"/>
<path d="M10.6211 26.0768H20.7475V28.6084H10.6211V26.0768Z" fill="white"/>
<path d="M10.6211 31.14H20.7475V33.6716H10.6211V31.14Z" fill="white"/>
<path d="M10.6211 36.2032H20.7475V38.7348H10.6211V36.2032Z" fill="white"/>
<path d="M10.6211 41.2664H20.7475V43.798H10.6211V41.2664Z" fill="white"/>
<path d="M10.6211 46.3296H20.7475V48.8612H10.6211V46.3296Z" fill="white"/>
</svg>
