<svg width="81" height="80" viewBox="0 0 81 80" fill="none" xmlns="http://www.w3.org/2000/svg">
<g clip-path="url(#clip0_7074_38244)">
<path d="M79.7531 11.875H1V2H79.7531V11.875ZM3.46875 9.40625H77.2844V4.46875H3.46875V9.40625Z" fill="white"/>
<path d="M7.17188 56.1891H2.23438V58.6578H7.17188V56.1891Z" fill="white"/>
<path d="M78.5156 56.1891H71.1094V58.6578H78.5156V56.1891Z" fill="white"/>
<path d="M8.40625 5.70312H5.9375V8.17188H8.40625V5.70312Z" fill="white"/>
<path d="M13.3438 5.70312H10.875V8.17188H13.3438V5.70312Z" fill="white"/>
<path d="M18.2812 5.70312H15.8125V8.17188H18.2812V5.70312Z" fill="white"/>
<path d="M74.8141 5.70312H23.0938V8.17188H74.8141V5.70312Z" fill="white"/>
<path d="M76.0469 13.2328H73.5781V54.7078H76.0469V13.2328Z" fill="white"/>
<path d="M7.17188 13.2328H4.70312V54.7078H7.17188V13.2328Z" fill="white"/>
<path d="M79.7531 63.4719H69.8781V61.0031H77.2844V11.875H3.46875V61.0031H7.17188V63.4719H1V9.40625H79.7531V63.4719Z" fill="white"/>
<path d="M56.4219 61.7438C52.7188 61.7438 49.6328 58.6578 49.6328 54.9547C49.6328 51.2516 52.7188 48.1656 56.4219 48.1656C59.7547 48.1656 62.4703 50.511 63.0875 53.7203C63.7047 57.4235 61.2359 60.8797 57.6562 61.6203C57.1625 61.6203 56.7922 61.7438 56.4219 61.7438ZM56.4219 50.6344C56.175 50.6344 55.9281 50.6344 55.6813 50.7578C53.3359 51.2516 51.8547 53.4735 52.225 55.8188C52.5953 58.1641 54.9406 59.6453 57.2859 59.275C59.6313 58.7813 61.1125 56.5594 60.7422 54.2141C60.2484 51.9922 58.3969 50.6344 56.4219 50.6344Z" fill="white"/>
<path d="M57.1625 68.5328H55.8047C54.2 68.4094 52.5953 68.1625 51.1141 67.4219L49.8797 66.9281L50.4969 65.6938C50.6203 64.8297 50.0031 64.0891 49.2625 63.9657C48.8922 63.9657 48.5219 63.9656 48.275 64.0891L47.4109 65.0766L46.5469 64.0891C45.4359 62.8547 44.5719 61.4969 43.9547 60.0156L43.4609 58.7813L44.6953 58.411C45.4359 57.9172 45.5594 56.9297 45.0656 56.3125C44.8187 56.0656 44.5719 55.8188 44.2016 55.6953H42.8438V54.3375C42.8438 52.7328 43.2141 51.1281 43.8312 49.6469L44.325 48.4125L45.5594 49.0297C46.4234 49.1531 47.1641 48.536 47.2875 47.7953C47.2875 47.425 47.2875 47.0547 47.1641 46.8078L46.1766 45.9438L47.1641 45.0797C48.3984 43.9688 49.7562 43.1047 51.2375 42.4875L52.4719 41.9938L52.8422 43.2282C53.0891 43.7219 53.8297 43.9688 54.3234 43.8453C55.0641 43.7219 55.5578 43.2281 55.5578 42.7344V41.3766H56.9156C58.5203 41.3766 60.125 41.7469 61.6063 42.3641L62.8406 42.8578L62.2234 44.0922C62.1 44.9563 62.7172 45.6969 63.4578 45.8203C63.8281 45.8203 64.1984 45.8203 64.4453 45.6969L65.3094 44.7094L66.1734 45.6969C67.2844 46.9313 68.1484 48.2891 68.7656 49.8938L69.2594 51.1281L68.025 51.4985C67.2844 51.9922 67.1609 52.9797 67.6547 53.5969C67.9016 53.8438 68.1484 54.0906 68.5187 54.2141H70V55.5719C69.8766 57.1766 69.6297 58.7813 68.8891 60.2625L68.3953 61.4969L67.1609 60.8797C66.2969 60.7563 65.5562 61.3735 65.4328 62.1141C65.4328 62.4844 65.4328 62.8547 65.5563 63.1016L66.5438 63.9657L65.5563 64.8297C64.3219 65.9407 62.9641 66.8047 61.4828 67.4219L60.2484 67.9157L59.8781 66.6813C59.6312 66.1875 58.8906 65.9407 58.3969 66.0641C57.6562 66.1875 57.1625 66.6813 57.1625 67.175V68.5328ZM53.0891 65.4469C53.7062 65.6938 54.3234 65.8172 54.9406 65.8172C55.9281 63.7188 58.3969 62.8547 60.3719 63.8422C60.7422 63.9656 61.1125 64.2125 61.4828 64.5828C62.1 64.336 62.5938 63.9657 63.0875 63.5953C62.5938 62.361 62.8406 61.0032 63.5812 59.8922C64.3219 58.7813 65.5562 58.1641 66.9141 58.1641C67.1609 57.5469 67.2844 56.9297 67.2844 56.1891C66.05 55.5719 65.3094 54.5844 65.0625 53.2266C64.8156 51.9922 65.1859 50.6344 66.1734 49.6469C65.9266 49.0297 65.5562 48.536 65.1859 48.0422C62.9641 48.7828 60.6187 47.6719 59.8781 45.45C59.7547 45.0797 59.6312 44.7094 59.6312 44.2157C59.0141 44.0922 58.3969 43.9688 57.6562 43.8453C56.6687 45.9438 54.2 46.8078 52.1016 45.8203C51.7312 45.6969 51.3609 45.45 51.1141 45.0797C50.4969 45.3266 50.0031 45.6969 49.5094 46.0672C50.25 48.2891 49.1391 50.6344 46.9172 51.375C46.5469 51.4985 46.1766 51.6219 45.6828 51.6219C45.5594 52.2391 45.4359 52.8563 45.3125 53.4735C46.5469 53.9672 47.4109 55.2016 47.5344 56.436C47.7812 57.6703 47.2875 59.0281 46.4234 60.0156C46.6703 60.6328 47.0406 61.1266 47.5344 61.6203C49.7562 60.8797 52.1016 61.9907 52.8422 64.2125C52.9656 64.5828 53.0891 65.0766 53.0891 65.4469Z" fill="white"/>
<path d="M57.6562 53.7203H55.1875V56.1891H57.6562V53.7203Z" fill="white"/>
<path d="M25.5625 72.1124C20.7484 72.1124 16.9219 68.2859 16.9219 63.4718C16.9219 58.6577 20.7484 54.8312 25.5625 54.8312C30.3766 54.8312 34.2031 58.6577 34.2031 63.4718C34.2031 68.2859 30.3766 72.1124 25.5625 72.1124ZM25.5625 57.2999C22.1063 57.2999 19.3906 60.0156 19.3906 63.4718C19.3906 66.9281 22.1063 69.6437 25.5625 69.6437C29.0187 69.6437 31.7344 66.9281 31.7344 63.4718C31.7344 60.139 29.0187 57.4234 25.5625 57.2999Z" fill="white"/>
<path d="M28.0297 81L27.7828 79.7656C27.5359 78.7781 26.5484 78.1609 25.5609 78.2844C24.5734 78.1609 23.5859 78.7781 23.3391 79.7656L23.2156 81L21.9812 80.7531C19.8828 80.2594 17.9078 79.3953 16.1797 78.2844L15.0687 77.5437L15.8094 76.5562C16.3031 75.6922 16.0562 74.5812 15.3156 73.8406C14.6984 73.1 13.5875 72.8531 12.7234 73.3469L11.6125 74.0875L10.8719 72.9765C9.76094 71.2484 8.89687 69.2734 8.40312 67.175L8.15625 65.9406L9.39062 65.6937C10.625 65.0765 11.1187 63.7187 10.625 62.4844C10.3781 61.9906 9.88437 61.4969 9.39062 61.25L8.15625 61.0031L8.40312 59.7687C8.89687 57.6703 9.76094 55.6953 10.8719 53.9672L11.6125 52.8562L12.7234 53.5969C13.5875 54.0906 14.6984 53.8437 15.3156 53.1031C16.1797 52.4859 16.3031 51.2515 15.8094 50.3875L15.0687 49.4L16.1797 48.6594C17.9078 47.5484 19.8828 46.6844 21.9812 46.1906L23.2156 45.9437L23.4625 47.1781C23.7094 48.1656 24.6969 48.9062 25.6844 48.7828C26.6719 48.9062 27.6594 48.289 27.9062 47.3015L28.1531 46.0672L29.3875 46.314C31.4859 46.8078 33.4609 47.6719 35.1891 48.7828L36.3 49.5234L35.4359 50.6344C34.9422 51.8687 35.5594 53.35 36.9172 53.8437C37.4109 54.0906 38.0281 54.0906 38.6453 53.8437L39.7562 53.1031L40.4969 54.214C41.6078 55.9422 42.4719 57.9172 42.9656 60.0156L43.2125 61.25H41.8547C40.6203 61.8672 40.1266 63.225 40.6203 64.4594C40.8672 64.9531 41.3609 65.4469 41.8547 65.6937L43.0891 65.9406L42.8422 67.175C42.3484 69.2734 41.4844 71.2484 40.3734 72.9765L39.6328 74.0875L38.5219 73.3469C37.2875 72.8531 35.8062 73.4703 35.3125 74.8281C35.0656 75.3219 35.0656 75.939 35.3125 76.5562L36.0531 77.5437L34.9422 78.2844C33.2141 79.3953 31.2391 80.2594 29.1406 80.7531L28.0297 81ZM25.5609 75.6922C27.2891 75.6922 28.8937 76.5562 29.7578 78.0375C30.8687 77.7906 31.8562 77.2969 32.8437 76.8031C32.2266 74.0875 33.9547 71.3719 36.6703 70.7547C37.4109 70.6312 38.1516 70.6312 38.7687 70.7547C39.2625 69.7672 39.7562 68.7797 40.0031 67.6687C37.6578 66.1875 37.0406 63.1015 38.5219 60.7562C38.8922 60.139 39.3859 59.6453 40.0031 59.275C39.7562 58.164 39.2625 57.1765 38.7687 56.189C36.0531 56.8062 33.3375 55.0781 32.7203 52.3625C32.5969 51.6219 32.5969 50.8812 32.7203 50.264C31.7328 49.7703 30.7453 49.2765 29.6344 49.0297C28.1531 51.375 25.0672 51.9922 22.7219 50.5109C22.1047 50.1406 21.6109 49.6469 21.2406 49.0297C20.1297 49.2765 19.1422 49.7703 18.1547 50.264C18.525 51.9922 18.0312 53.7203 16.7969 54.9547C15.5625 56.189 13.8344 56.8062 12.2297 56.3125C11.7359 57.3 11.2422 58.2875 10.9953 59.3984C13.3406 60.8797 13.9578 63.9656 12.4766 66.3109C12.1062 66.9281 11.6125 67.4219 10.9953 67.7922C11.2422 68.9031 11.7359 69.8906 12.2297 70.8781C13.9578 70.5078 15.6859 71.0015 16.9203 72.2359C18.1547 73.4703 18.6484 75.1984 18.2781 76.8031C19.2656 77.2969 20.2531 77.7906 21.3641 78.0375C22.2281 76.5562 23.8328 75.6922 25.5609 75.6922Z" fill="white"/>
<path d="M26.7969 58.6578H24.3281V61.1266H26.7969V58.6578Z" fill="white"/>
<path d="M26.7969 65.9406H24.3281V68.4093H26.7969V65.9406Z" fill="white"/>
<path d="M30.5 62.2374H28.0312V64.7062H30.5V62.2374Z" fill="white"/>
<path d="M23.0938 62.2374H20.625V64.7062H23.0938V62.2374Z" fill="white"/>
<path d="M32.9703 15.5781H9.64062V18.0469H32.9703V15.5781Z" fill="white"/>
<path d="M47.7812 15.5781H35.4375V18.0469H47.7812V15.5781Z" fill="white"/>
<path d="M20.75 20.3922H9.64062V22.861H20.75V20.3922Z" fill="white"/>
<path d="M42.7203 20.3922H23.0938V22.861H42.7203V20.3922Z" fill="white"/>
<path d="M14.5781 25.3297H9.64062V27.7985H14.5781V25.3297Z" fill="white"/>
<path d="M31.8594 25.3297H17.0469V27.7985H31.8594V25.3297Z" fill="white"/>
<path d="M39.1406 25.3297H34.2031V27.7985H39.1406V25.3297Z" fill="white"/>
<path d="M26.9219 30.2672H9.64062V32.736H26.9219V30.2672Z" fill="white"/>
<path d="M46.5469 30.2672H29.2656V32.736H46.5469V30.2672Z" fill="white"/>
<path d="M19.5156 35.2047H9.64062V37.6735H19.5156V35.2047Z" fill="white"/>
<path d="M34.3281 35.2047H21.9844V37.6735H34.3281V35.2047Z" fill="white"/>
<path d="M42.8438 35.2047H36.6719V37.6735H42.8438V35.2047Z" fill="white"/>
<path d="M26.9219 40.1422H9.64062V42.611H26.9219V40.1422Z" fill="white"/>
</g>
<defs>
<clipPath id="clip0_7074_38244">
<rect width="80" height="80" fill="white" transform="translate(0.5)"/>
</clipPath>
</defs>
</svg>
