<svg width="81" height="80" viewBox="0 0 81 80" fill="none" xmlns="http://www.w3.org/2000/svg">
<g clip-path="url(#clip0_7074_38320)">
<path d="M80 65.7061H58.3367V63.1633H77.4572V4.54281H3.54281V63.1633H22.6633V65.7061H1V2H80V65.7061Z" fill="white"/>
<path d="M8.64437 7.09796H6.10156V9.64077H8.64437V7.09796Z" fill="white"/>
<path d="M13.7381 7.09796H11.1953V9.64077H13.7381V7.09796Z" fill="white"/>
<path d="M18.8397 7.09796H16.2969V9.64077H18.8397V7.09796Z" fill="white"/>
<path d="M78.7306 12.196H2.27344V14.7388H78.7306V12.196Z" fill="white"/>
<path d="M53.2396 81H27.7621V62.8424C24.0638 60.1516 21.3119 56.3594 19.9007 52.0089C18.4895 47.6585 18.4915 42.973 19.9062 38.6237C21.321 34.2744 24.076 30.4844 27.7766 27.7967C31.4771 25.1091 35.9334 23.6615 40.507 23.6615C45.0806 23.6615 49.5369 25.1091 53.2375 27.7967C56.9381 30.4844 59.6931 34.2744 61.1078 38.6237C62.5226 42.973 62.5245 47.6585 61.1133 52.0089C59.7022 56.3594 56.9503 60.1516 53.252 62.8424L53.2396 81ZM30.3049 78.4572H50.6968V61.4969L51.2523 61.1142C54.6296 58.8155 57.1813 55.4949 58.5329 51.6396C59.8845 47.7843 59.9649 43.5972 58.7623 39.6929C57.5597 35.7885 55.1373 32.3723 51.8507 29.9457C48.5641 27.5191 44.5863 26.2097 40.5009 26.2097C36.4155 26.2097 32.4376 27.5191 29.151 29.9457C25.8644 32.3723 23.442 35.7885 22.2394 39.6929C21.0368 43.5972 21.1172 47.7843 22.4688 51.6396C23.8204 55.4949 26.3721 58.8155 29.7495 61.1142L30.3049 61.4969V78.4572Z" fill="white"/>
<path d="M55.7786 73.3593H25.2031V75.9021H55.7786V73.3593Z" fill="white"/>
<path d="M55.7786 68.2613H25.2031V70.8041H55.7786V68.2613Z" fill="white"/>
<path d="M55.7786 63.1633H25.2031V65.7062H55.7786V63.1633Z" fill="white"/>
<path d="M41.7694 51.696H39.2266V64.4347H41.7694V51.696Z" fill="white"/>
<path d="M40.5002 52.9674C38.989 52.9674 37.5117 52.5193 36.2552 51.6797C34.9986 50.8401 34.0193 49.6468 33.441 48.2506C32.8627 46.8544 32.7114 45.3181 33.0062 43.836C33.301 42.3538 34.0287 40.9923 35.0973 39.9238C36.1659 38.8552 37.5274 38.1275 39.0095 37.8326C40.4917 37.5378 42.028 37.6891 43.4242 38.2674C44.8203 38.8458 46.0137 39.8251 46.8532 41.0816C47.6928 42.3381 48.1409 43.8154 48.1409 45.3266C48.1377 47.3521 47.3316 49.2936 45.8994 50.7259C44.4672 52.1581 42.5256 52.9641 40.5002 52.9674V52.9674ZM40.5002 40.2657C39.4919 40.2657 38.5062 40.5647 37.6679 41.1248C36.8295 41.685 36.1761 42.4812 35.7903 43.4127C35.4044 44.3443 35.3034 45.3693 35.5001 46.3582C35.6969 47.3471 36.1824 48.2555 36.8954 48.9684C37.6083 49.6814 38.5167 50.1669 39.5056 50.3637C40.4945 50.5604 41.5195 50.4594 42.4511 50.0735C43.3826 49.6877 44.1788 49.0343 44.739 48.1959C45.2991 47.3576 45.5981 46.3719 45.5981 45.3636C45.5981 44.6942 45.4663 44.0312 45.2101 43.4127C44.9539 42.7942 44.5784 42.2322 44.105 41.7588C43.6316 41.2854 43.0696 40.9099 42.4511 40.6537C41.8326 40.3975 41.1696 40.2657 40.5002 40.2657V40.2657Z" fill="white"/>
<path d="M53.2381 44.0429H50.6953V46.5857H53.2381V44.0429Z" fill="white"/>
<path d="M30.3006 44.0429H27.7578V46.5857H30.3006V44.0429Z" fill="white"/>
<path d="M41.7694 17.2939H39.2266V21.1205H41.7694V17.2939Z" fill="white"/>
<path d="M27.5774 20.4053L25.375 21.6763L27.2877 24.9906L29.4901 23.7195L27.5774 20.4053Z" fill="white"/>
<path d="M16.8648 30.2051L15.5938 32.4075L18.908 34.3202L20.179 32.1178L16.8648 30.2051Z" fill="white"/>
<path d="M16.2953 44.0429H12.4688V46.5857H16.2953V44.0429Z" fill="white"/>
<path d="M18.908 56.3238L15.5938 58.2365L16.8648 60.4389L20.179 58.5262L18.908 56.3238Z" fill="white"/>
<path d="M62.0991 56.3291L60.8281 58.5314L64.1424 60.4441L65.4134 58.2418L62.0991 56.3291Z" fill="white"/>
<path d="M68.5297 44.0429H64.7031V46.5857H68.5297V44.0429Z" fill="white"/>
<path d="M64.1424 30.1982L60.8281 32.1109L62.0991 34.3133L65.4134 32.4006L64.1424 30.1982Z" fill="white"/>
<path d="M53.4127 20.3997L51.5 23.714L53.7024 24.985L55.6151 21.6708L53.4127 20.3997Z" fill="white"/>
</g>
<defs>
<clipPath id="clip0_7074_38320">
<rect width="80" height="80" fill="white" transform="translate(0.5)"/>
</clipPath>
</defs>
</svg>
