<svg width="81" height="80" viewBox="0 0 81 80" fill="none" xmlns="http://www.w3.org/2000/svg">
<path d="M76.2969 70.8906H4.70312V28.9219C4.70312 24.8484 8.03594 21.5156 12.1094 21.5156H44.2031V23.9844H12.1094C9.39375 24.1078 7.29531 26.2062 7.17188 28.9219V68.4219H73.8281V35.0938H76.2969V70.8906Z" fill="white"/>
<path d="M74.6922 79.5312H6.30781C3.46875 79.6547 1.12344 77.5562 1 74.7172V68.4219H33.0938V71.2609C33.0938 72.3719 34.0813 73.3594 35.1922 73.3594H45.8078C46.9187 73.3594 47.9062 72.3719 47.9062 71.2609V68.4219H80V74.7172C79.8766 77.5562 77.5313 79.6547 74.6922 79.5312ZM3.46875 70.8906V74.7172C3.59219 76.075 4.82656 77.1859 6.30781 77.0625H74.6922C76.05 77.1859 77.4078 76.1984 77.5312 74.7172V70.8906H50.375V71.2609C50.375 73.7297 48.2766 75.8281 45.8078 75.8281H35.1922C32.7234 75.8281 30.625 73.7297 30.625 71.2609V70.8906H3.46875Z" fill="white"/>
<path d="M45.8078 75.8281H35.1922C32.7234 75.8281 30.625 73.7297 30.625 71.2609V68.4219H50.375V71.2609C50.375 73.7297 48.2766 75.8281 45.8078 75.8281ZM33.0938 70.8906V71.2609C33.0938 72.3719 34.0813 73.3594 35.1922 73.3594H45.8078C46.9187 73.3594 47.9062 72.3719 47.9062 71.2609V70.8906H33.0938Z" fill="white"/>
<path d="M71.3594 70.8906H9.64062V26.4531H45.4375V28.9219H12.1094V68.4219H68.8906V37.5625H71.3594V70.8906Z" fill="white"/>
<path d="M29.3906 48.6719H17.0469V38.7969H29.3906V48.6719ZM19.5156 46.2031H26.9219V41.2656H19.5156V46.2031Z" fill="white"/>
<path d="M29.3906 52.375H17.0469V54.8438H29.3906V52.375Z" fill="white"/>
<path d="M29.3906 57.3125H17.0469V59.7812H29.3906V57.3125Z" fill="white"/>
<path d="M25.6875 62.25H17.0469V64.7188H25.6875V62.25Z" fill="white"/>
<path d="M46.6719 48.6719H34.3281V38.7969H46.6719V48.6719ZM36.7969 46.2031H44.2031V41.2656H36.7969V46.2031Z" fill="white"/>
<path d="M46.6719 52.375H34.3281V54.8438H46.6719V52.375Z" fill="white"/>
<path d="M46.6719 57.3125H34.3281V59.7812H46.6719V57.3125Z" fill="white"/>
<path d="M42.9688 62.25H34.3281V64.7188H42.9688V62.25Z" fill="white"/>
<path d="M63.9531 48.6719H51.6094V38.7969H63.9531V48.6719ZM54.0781 46.2031H61.4844V41.2656H54.0781V46.2031Z" fill="white"/>
<path d="M63.9531 52.375H51.6094V54.8438H63.9531V52.375Z" fill="white"/>
<path d="M63.9531 57.3125H51.6094V59.7812H63.9531V57.3125Z" fill="white"/>
<path d="M60.25 62.25H51.6094V64.7188H60.25V62.25Z" fill="white"/>
<path d="M17.0469 31.3906H14.5781V33.8594H17.0469V31.3906Z" fill="white"/>
<path d="M21.9844 31.3906H19.5156V33.8594H21.9844V31.3906Z" fill="white"/>
<path d="M26.9219 31.3906H24.4531V33.8594H26.9219V31.3906Z" fill="white"/>
<path d="M47.9062 31.3906H31.8594V33.8594H47.9062V31.3906Z" fill="white"/>
<path d="M61.4813 29.9094L54.4453 19.9109L56.5438 18.5531L61.3578 25.4656L69.2578 12.2578L71.3563 13.4922L61.4813 29.9094Z" fill="white"/>
<path d="M62.7188 37.5625C53.2141 37.5625 45.4375 29.7859 45.4375 20.2812C45.4375 10.7766 53.2141 3 62.7188 3C72.2234 3 80 10.7766 80 20.2812C80 29.7859 72.2234 37.5625 62.7188 37.5625ZM62.7188 5.46875C54.5719 5.46875 47.9062 12.1344 47.9062 20.2812C47.9062 28.4281 54.5719 35.0938 62.7188 35.0938C70.8656 35.0938 77.5312 28.4281 77.5312 20.2812C77.5312 12.1344 70.8656 5.46875 62.7188 5.46875Z" fill="white"/>
</svg>
