<?xml version="1.0" encoding="UTF-8"?>
<svg width="184" height="184" id="_圖層_1" data-name="圖層_1" xmlns="http://www.w3.org/2000/svg" xmlns:xlink="http://www.w3.org/1999/xlink" version="1.1" viewBox="0 0 168 168">
  <!-- Generator: Adobe Illustrator 29.8.2, SVG Export Plug-In . SVG Version: 2.1.1 Build 3)  -->
  <defs>
    <style>
      .st0, ._x00E7__x00B9__x00AA_圖樣式_x0020_2, .st1 {
        fill: none;
      }

      .st2 {
        fill: #fff;
        fill-rule: evenodd;
      }

      ._x00E7__x00B9__x00AA_圖樣式_x0020_2 {
        stroke: url(#_未命名漸層_331);
      }

      ._x00E7__x00B9__x00AA_圖樣式_x0020_2, .st1 {
        stroke-width: 2px;
      }

      .st1 {
        stroke: url(#_未命名漸層_332);
      }

      ._x00E7__x00B9__x00AA_圖樣式 {
        fill: url(#_未命名漸層_33);
      }

      .st3 {
        clip-path: url(#clippath-1);
      }

      .st4 {
        clip-path: url(#clippath);
      }
    </style>
    <linearGradient id="_未命名漸層_33" data-name="未命名漸層 33" x1="84" y1="9" x2="84" y2="159" gradientUnits="userSpaceOnUse">
      <stop offset="0" stop-color="#fecd00"/>
      <stop offset="1" stop-color="#df9f14"/>
    </linearGradient>
    <linearGradient id="_未命名漸層_331" data-name="未命名漸層 33" y1="0" y2="168" xlink:href="#_未命名漸層_33"/>
    <linearGradient id="_未命名漸層_332" data-name="未命名漸層 33" y1="0" y2="168" xlink:href="#_未命名漸層_33"/>
    <clipPath id="clippath">
      <rect class="st0" x="32" y="32" width="104.16" height="104.67"/>
    </clipPath>
    <clipPath id="clippath-1">
      <rect class="st0" x="32" y="32" width="104.16" height="104.67"/>
    </clipPath>
  </defs>
  <rect class="_x00E7__x00B9__x00AA_圖樣式" x="9" y="9" width="150" height="150" rx="36" ry="36"/>
  <rect class="st1" x="1" y="1" width="166" height="166" rx="36" ry="36"/>
  <g class="st4">
    <g class="st3">
      <g>
        <path class="st2" d="M50.55,108.08c-2,0-3.65-.12-5.17-.38-2.46-.42-4.6-1.43-6.35-3.01-1.63-1.46-2.94-3.42-3.89-5.82-1.26-3.14-2.15-6.43-2.66-9.77-.5-3.35-.61-6.75-.33-10.12.36-4.44,1.07-7.99,2.22-11.15,2.58-7.07,8.38-11.14,15.94-11.17,3.82-.02,7.53-.02,10.65-.02,1.37,0,2.74,0,4.11,0h.9c1.68,0,3.36,0,5.04,0,2.9,0,5.27,0,7.43,0,.11,0,.24.02.37.03h0c.14.02.29.04.42.04.29,0,.45-.09.51-.29.17-.55.18-1.26.02-2.17-.04-.26-.25-.29-.4-.29-.1,0-.2.01-.3.03h0c-.09.01-.18.02-.26.02-3.16,0-6.34,0-9.45,0s-6.29,0-9.45,0h-1.1c-1.19-.07-2.01-.83-2.05-1.89v-.31s-.02-.31-.02-.31c-.11-3-.22-6.1.42-9.12.75-3.56,2.97-6.14,6.58-7.65,3.85-1.61,7.88-2.14,11.65-2.47,2.19-.18,4.41-.27,6.61-.27,2.91,0,5.85.16,8.74.48,3.77.39,8.57,1.31,12.32,5,2.76,2.71,4.18,5.98,4.2,9.69.04,7.37.07,14.59,0,21.86-.03,3.48-1.16,6.64-3.26,9.13-2.09,2.48-5,4.12-8.41,4.73-.72.1-1.46.16-2.19.16-.14,0-.29,0-.44,0-1,0-2.09,0-3.32,0-1.14,0-2.28,0-3.42,0-.44,0-.87,0-1.31,0h-1.31c-.44,0-.87,0-1.31,0h-11.32c-7.28.02-12.79,5.55-12.82,12.85v9.67c0,1.45-.71,2.31-1.95,2.34-.59.02-1.18.04-1.76.06h-.04s0,0,0,0c-1.27.05-2.58.1-3.87.1h0ZM69.09,39.31c-.05,0-.11,0-.16,0-2.3.04-4.09,1.92-4.07,4.29.03,1.73,1.08,3.25,2.69,3.88.49.19,1.01.29,1.54.29,1.16,0,2.28-.48,3.07-1.32,1.19-1.25,1.49-3.08.78-4.65-.68-1.51-2.19-2.48-3.85-2.48h0Z"/>
        <path class="st2" d="M86.27,136.67c-1.4,0-2.83-.07-4.25-.21-5.26-.52-9.65-1.74-13.42-3.74-4.46-2.35-6.97-5.52-7.69-9.67-.12-.76-.17-1.54-.16-2.29,0-1.51,0-3.01,0-4.52v-.04c-.01-5.64-.02-11.47,0-17.19.02-3.29,1.11-6.35,3.16-8.85,2.05-2.49,4.83-4.17,8.06-4.85.92-.18,1.87-.27,2.81-.27.08,0,.17,0,.25,0,2.18,0,4.39-.01,6.54-.03,2.14-.01,4.36-.03,6.54-.03,3.31,0,6.03.03,8.57.1.11,0,.23,0,.35,0,6.34,0,11.9-4.87,12.65-11.09.14-1.15.13-2.35.11-3.51h0s0-.04,0-.04c0-.42-.01-.86,0-1.28,0-1.13,0-2.31,0-3.35,0-1.14,0-2.26,0-3.35.01-1.29.84-2.27,1.93-2.28.79-.01,1.61-.03,2.33-.05h.02c1.19-.03,2.42-.06,3.63-.06,1.8,0,3.28.06,4.66.2,2.04.2,3.87.87,5.45,1.99,1.48,1.05,2.77,2.52,3.85,4.37,2.01,3.44,2.84,7.21,3.58,11.1.95,5.01,1.17,9.13.68,12.99-.75,5.95-2.45,10.97-5.18,15.34-2.28,3.64-5.74,5.42-10.59,5.42-.08,0-.17,0-.25,0-1.28-.01-2.67-.02-4.25-.02s-3.34,0-4.97.01h-.08c-1.63,0-3.31.01-4.97.01-1.35,0-2.71,0-4.07,0-1.36,0-2.71,0-4.07,0-3.27,0-5.78,0-8.13-.03-.55,0-.85.08-1.02.28-.15.18-.19.45-.12.87.03.22.03.44,0,.66-.05.34-.02.57.11.72.14.17.39.23.85.23h.02c3.45-.02,6.89-.02,9.51-.02,1.31,0,2.62,0,3.92,0h.98c.98,0,1.97,0,2.95,0,.27,0,.54,0,.8,0,.27,0,.54,0,.81,0,.3,0,.56,0,.81,0,1.3.03,2.23.83,2.26,1.94.01.43.03.88.04,1.26.07,2.11.15,4.28-.33,6.4-.49,2.13-1.46,4-2.9,5.57-1.29,1.41-3.01,2.62-5.1,3.6-5.23,2.45-10.85,3.69-16.68,3.69h0ZM96.98,120.77c-1.1,0-2.16.45-2.93,1.22-.78.78-1.21,1.87-1.19,2.97-.01,1.1.43,2.19,1.2,2.97.77.78,1.84,1.22,2.94,1.22h.02c2.26-.06,4.09-1.94,4.09-4.2,0-2.26-1.85-4.14-4.11-4.18h-.02Z"/>
        <path class="st2" d="M52.73,103.68s-.06,0-.09,0c-.27,0-.56-.01-.9-.01-.29,0-.58,0-.86,0h-.05s-.06,0-.06,0c-.27,0-.55,0-.82,0-1.32,0-2.73-.04-4.08-.36-3.27-.76-5.57-3.02-7.03-6.92-1.39-3.71-1.94-7.63-2.27-10.63-.59-5.39.06-10.8,2.01-16.56.76-2.26,1.97-4.08,3.6-5.42,1.61-1.33,3.65-2.19,6.06-2.56.88-.12,1.76-.19,2.63-.19.07,0,.13,0,.2,0,3.29,0,6.25,0,9.06,0,1.89,0,3.78,0,5.67,0h15.71c1.84,0,2.72-.83,2.77-2.62.05-1.92.05-3.94,0-6.15-.04-1.76-.97-2.66-2.78-2.66-1.47,0-2.93,0-4.4,0h-.54s-.03,0-.03,0c-1.64,0-3.28,0-4.91,0-3.72,0-6.56,0-9.23.03-.58,0-.95-.11-1.16-.35-.2-.22-.27-.55-.22-1.05.06-.6.09-1.22.11-1.81.05-1.09.09-2.21.35-3.29.54-2.24,2.1-3.73,4.89-4.72,2.33-.82,4.81-1.17,7.2-1.51l.47-.07c2.24-.32,4.65-.47,7.34-.47,1.36,0,2.82.04,4.47.12.18,0,.36.02.53.03,3.29.16,6.7.32,9.86,1.66,3.23,1.37,5.29,3.48,6.28,6.45.32,1.05.47,2.14.44,3.23v1.63c.04,6.16.06,12.53,0,18.8-.03,2.24-.48,4.16-1.36,5.71-.96,1.7-2.45,3.01-4.43,3.9-1,.47-2.07.72-3.17.73-3.79,0-7.64,0-11.37,0s-7.58,0-11.36,0h-.07c-5.12,0-9.44,1.83-12.84,5.43-2.42,2.54-3.98,5.85-4.4,9.33-.27,2.07-.23,4.18-.2,6.21v.03c.02.97.03,1.98.02,2.96-.01.85-.25,1.11-1.03,1.11h0ZM69.09,39.31c-.05,0-.11,0-.16,0-2.3.04-4.09,1.92-4.07,4.29.03,1.73,1.08,3.25,2.69,3.88.49.19,1.01.29,1.54.29,1.16,0,2.28-.48,3.07-1.32,1.19-1.25,1.49-3.08.78-4.65-.68-1.51-2.2-2.49-3.85-2.49h0Z"/>
        <path class="st2" d="M85.77,132.27c-3.9,0-7.87-.68-11.78-2.01-2.6-.88-5.52-2.16-7.47-4.91-.92-1.29-1.39-2.81-1.37-4.4.02-4.38.02-8.87.01-12.83v-.38c0-3.02,0-6.14,0-9.2,0-2.13.87-4.25,2.45-5.98,1.55-1.69,3.64-2.78,5.74-2.98,1.57-.15,3.23-.22,5.4-.22.96,0,1.91.01,2.84.03h.2s.02,0,.02,0c.87.01,1.76.02,2.64.02.46,0,.89,0,1.29,0,1.5-.02,3.1-.03,5.05-.03,1.07,0,2.15,0,3.19,0h.28s.97,0,.97,0h.12c.88,0,1.79,0,2.69,0,3.43,0,6.59-1.17,9.67-3.56,3.08-2.4,5.14-5.71,6.11-9.84.37-1.57.36-3.2.35-4.76,0-.31,0-.67,0-1.01v-4.89c0-.25,0-.5.14-.64.09-.09.22-.13.4-.13.01,0,.03,0,.04,0,.39.01.81.02,1.28.02.51,0,1.03,0,1.53-.02h.03c.5,0,1.02-.02,1.54-.02,1.28,0,2.26.06,3.18.18,1.96.26,3.56,1.34,5.04,3.37,1.94,2.68,2.64,5.97,3.26,8.86.89,4.16,1.25,7.6,1.15,10.84-.13,3.92-1.08,8-2.92,12.48-.61,1.57-1.45,3.03-2.49,4.35-1.1,1.39-2.74,2.24-4.51,2.34-2.07.15-4.33.23-7.1.23-1.44,0-2.87-.02-4.03-.03h-.02c-1.32-.02-2.56-.03-3.78-.03-1.03,0-1.93.01-2.73.04h-17.68c-1.97,0-2.64.66-2.65,2.61v6.15c0,1.88.79,2.68,2.65,2.68,1.63,0,3.26,0,4.9,0,1.63,0,3.26,0,4.9,0,3.81,0,6.71,0,9.43-.03,1,0,1.18.31,1.23,1.23.19,4.08-1.61,7.03-5.52,9.01-3.18,1.62-6.84,2.64-11.51,3.2-1.38.17-2.77.25-4.15.25h0ZM96.97,120.77c-1.1,0-2.16.45-2.93,1.23-.78.79-1.21,1.87-1.19,2.97-.01,1.1.42,2.18,1.2,2.97.77.78,1.84,1.22,2.94,1.22h.02c2.26-.05,4.09-1.94,4.09-4.2,0-2.26-1.85-4.14-4.11-4.19h-.02Z"/>
      </g>
    </g>
  </g>
</svg>