<svg width="81" height="80" viewBox="0 0 81 80" fill="none" xmlns="http://www.w3.org/2000/svg">
<g clip-path="url(#clip0_7077_39645)">
<path d="M78.8428 2H2.15723C1.85031 2 1.55597 2.12192 1.33894 2.33894C1.12192 2.55597 1 2.85031 1 3.15723L1 52.5322C1 52.8391 1.12192 53.1335 1.33894 53.3505C1.55597 53.5675 1.85031 53.6895 2.15723 53.6895H39.3428V60.1699H22.7559C21.8354 60.1707 20.9528 60.5368 20.3019 61.1877C19.651 61.8385 19.285 62.7211 19.2842 63.6416V77.5283C19.285 78.4488 19.651 79.3314 20.3019 79.9823C20.9528 80.6332 21.8354 80.9992 22.7559 81H58.2441C59.1646 80.9992 60.0472 80.6332 60.6981 79.9823C61.349 79.3314 61.715 78.4488 61.7158 77.5283V63.6416C61.715 62.7211 61.349 61.8385 60.6981 61.1877C60.0472 60.5368 59.1646 60.1707 58.2441 60.1699H41.6572V53.6895H78.8428C79.1497 53.6895 79.444 53.5675 79.6611 53.3505C79.8781 53.1335 80 52.8391 80 52.5322V3.15723C80 2.85031 79.8781 2.55597 79.6611 2.33894C79.444 2.12192 79.1497 2 78.8428 2V2ZM59.4014 63.6416V77.5283C59.4014 77.8352 59.2794 78.1296 59.0624 78.3466C58.8454 78.5636 58.5511 78.6855 58.2441 78.6855H22.7559C22.4489 78.6855 22.1546 78.5636 21.9376 78.3466C21.7206 78.1296 21.5986 77.8352 21.5986 77.5283V63.6416C21.5986 63.3347 21.7206 63.0403 21.9376 62.8233C22.1546 62.6063 22.4489 62.4844 22.7559 62.4844H58.2441C58.5511 62.4844 58.8454 62.6063 59.0624 62.8233C59.2794 63.0403 59.4014 63.3347 59.4014 63.6416ZM77.6855 4.31445V9.71484H3.31445V4.31445H77.6855ZM3.31445 12.0293H25.6875V51.375H3.31445V12.0293ZM28.002 51.375V12.0293H77.6855V51.375H28.002Z" fill="white"/>
<path d="M33.0166 41.3457H48.4463C48.7532 41.3457 49.0476 41.2238 49.2646 41.0068C49.4816 40.7897 49.6035 40.4954 49.6035 40.1885V27.8447C49.6035 27.5378 49.4816 27.2435 49.2646 27.0264C49.0476 26.8094 48.7532 26.6875 48.4463 26.6875H33.0166C32.7097 26.6875 32.4153 26.8094 32.1983 27.0264C31.9813 27.2435 31.8594 27.5378 31.8594 27.8447V40.1885C31.8594 40.4954 31.9813 40.7897 32.1983 41.0068C32.4153 41.2238 32.7097 41.3457 33.0166 41.3457ZM34.1738 29.002H47.2891V39.0312H34.1738V29.002Z" fill="white"/>
<path d="M72.6709 39.0312H54.6182C54.3112 39.0312 54.0169 39.1532 53.7999 39.3702C53.5829 39.5872 53.4609 39.8816 53.4609 40.1885C53.4609 40.4954 53.5829 40.7897 53.7999 41.0068C54.0169 41.2238 54.3112 41.3457 54.6182 41.3457H72.6709C72.9778 41.3457 73.2722 41.2238 73.4892 41.0068C73.7062 40.7897 73.8281 40.4954 73.8281 40.1885C73.8281 39.8816 73.7062 39.5872 73.4892 39.3702C73.2722 39.1532 72.9778 39.0312 72.6709 39.0312Z" fill="white"/>
<path d="M72.6709 26.6875H60.79C60.4831 26.6875 60.1888 26.8094 59.9718 27.0264C59.7547 27.2435 59.6328 27.5378 59.6328 27.8447C59.6328 28.1516 59.7547 28.446 59.9718 28.663C60.1888 28.88 60.4831 29.002 60.79 29.002H72.6709C72.9778 29.002 73.2722 28.88 73.4892 28.663C73.7062 28.446 73.8281 28.1516 73.8281 27.8447C73.8281 27.5378 73.7062 27.2435 73.4892 27.0264C73.2722 26.8094 72.9778 26.6875 72.6709 26.6875Z" fill="white"/>
<path d="M54.6182 29.002H56.1611C56.468 29.002 56.7624 28.88 56.9794 28.663C57.1964 28.446 57.3184 28.1516 57.3184 27.8447C57.3184 27.5378 57.1964 27.2435 56.9794 27.0264C56.7624 26.8094 56.468 26.6875 56.1611 26.6875H54.6182C54.3112 26.6875 54.0169 26.8094 53.7999 27.0264C53.5829 27.2435 53.4609 27.5378 53.4609 27.8447C53.4609 28.1516 53.5829 28.446 53.7999 28.663C54.0169 28.88 54.3112 29.002 54.6182 29.002Z" fill="white"/>
<path d="M72.6709 32.8594H54.6182C54.3112 32.8594 54.0169 32.9813 53.7999 33.1983C53.5829 33.4153 53.4609 33.7097 53.4609 34.0166C53.4609 34.3235 53.5829 34.6179 53.7999 34.8349C54.0169 35.0519 54.3112 35.1738 54.6182 35.1738H72.6709C72.9778 35.1738 73.2722 35.0519 73.4892 34.8349C73.7062 34.6179 73.8281 34.3235 73.8281 34.0166C73.8281 33.7097 73.7062 33.4153 73.4892 33.1983C73.2722 32.9813 72.9778 32.8594 72.6709 32.8594Z" fill="white"/>
<path d="M66.501 8.17188H68.0439C68.3509 8.17187 68.6452 8.04995 68.8622 7.83293C69.0793 7.61591 69.2012 7.32156 69.2012 7.01465C69.2012 6.70773 69.0793 6.41339 68.8622 6.19637C68.6452 5.97934 68.3509 5.85742 68.0439 5.85742H66.501C66.1941 5.85742 65.8997 5.97934 65.6827 6.19637C65.4657 6.41339 65.3438 6.70773 65.3438 7.01465C65.3438 7.32156 65.4657 7.61591 65.6827 7.83293C65.8997 8.04995 66.1941 8.17187 66.501 8.17188V8.17188Z" fill="white"/>
<path d="M72.6729 8.17188H74.2158C74.5227 8.17187 74.8171 8.04995 75.0341 7.83293C75.2511 7.61591 75.373 7.32156 75.373 7.01465C75.373 6.70773 75.2511 6.41339 75.0341 6.19637C74.8171 5.97934 74.5227 5.85742 74.2158 5.85742H72.6729C72.3659 5.85742 72.0716 5.97934 71.8546 6.19637C71.6375 6.41339 71.5156 6.70773 71.5156 7.01465C71.5156 7.32156 71.6375 7.61591 71.8546 7.83293C72.0716 8.04995 72.3659 8.17187 72.6729 8.17188V8.17188Z" fill="white"/>
<path d="M17.8547 24.2188C18.0542 24.4517 18.3381 24.5959 18.6439 24.6196C18.9497 24.6433 19.2525 24.5447 19.4856 24.3453L22.9696 21.3581C23.0964 21.2495 23.1981 21.1147 23.2679 20.963C23.3377 20.8113 23.3738 20.6464 23.3738 20.4794C23.3738 20.3125 23.3377 20.1475 23.2679 19.9958C23.1981 19.8441 23.0964 19.7093 22.9696 19.6007L19.4856 16.6135C19.2525 16.413 18.9494 16.3133 18.6428 16.3363C18.3362 16.3593 18.0513 16.5031 17.8508 16.7362C17.6503 16.9692 17.5506 17.2724 17.5736 17.579C17.5966 17.8855 17.7404 18.1704 17.9735 18.3709L20.4422 20.4786L17.9735 22.5863C17.8581 22.6855 17.7635 22.8064 17.695 22.9423C17.6266 23.0781 17.5857 23.2262 17.5746 23.3779C17.5636 23.5296 17.5826 23.682 17.6307 23.8263C17.6788 23.9706 17.7549 24.104 17.8547 24.2188V24.2188Z" fill="white"/>
<path d="M6.03312 21.3566L9.51715 24.3438C9.7502 24.5443 10.0534 24.644 10.3599 24.621C10.6665 24.598 10.9514 24.4542 11.1519 24.2211C11.3524 23.9881 11.4522 23.6849 11.4292 23.3783C11.4062 23.0717 11.2623 22.7869 11.0293 22.5863L8.56051 20.4786L11.0293 18.3709C11.2623 18.1704 11.4062 17.8855 11.4292 17.579C11.4522 17.2724 11.3524 16.9692 11.1519 16.7362C10.9514 16.5031 10.6665 16.3593 10.3599 16.3363C10.0534 16.3133 9.7502 16.413 9.51715 16.6135L6.03312 19.5991C5.90635 19.7078 5.80458 19.8426 5.73481 19.9942C5.66503 20.1459 5.62891 20.3109 5.62891 20.4779C5.62891 20.6448 5.66503 20.8098 5.73481 20.9615C5.80458 21.1132 5.90635 21.2479 6.03312 21.3566Z" fill="white"/>
<path d="M12.9748 26.578C13.0666 26.6011 13.1609 26.613 13.2556 26.6135C13.5136 26.6129 13.7641 26.5262 13.9673 26.3672C14.1705 26.2082 14.3148 25.9859 14.3773 25.7355L16.8662 15.7818C16.9055 15.6336 16.9151 15.479 16.8942 15.327C16.8733 15.1751 16.8224 15.0288 16.7445 14.8966C16.6665 14.7645 16.5631 14.6492 16.4402 14.5574C16.3173 14.4657 16.1774 14.3992 16.0286 14.362C15.8798 14.3248 15.7251 14.3175 15.5734 14.3406C15.4218 14.3637 15.2763 14.4167 15.1453 14.4966C15.0143 14.5764 14.9005 14.6815 14.8106 14.8058C14.7206 14.93 14.6562 15.0708 14.6211 15.2202L12.1323 25.1754C12.0954 25.3228 12.0879 25.4761 12.1102 25.6264C12.1326 25.7767 12.1844 25.9212 12.2626 26.0514C12.3409 26.1817 12.4441 26.2953 12.5663 26.3856C12.6885 26.476 12.8273 26.5413 12.9748 26.578V26.578Z" fill="white"/>
<path d="M22.2158 30.4708H11.415C11.1081 30.4708 10.8138 30.5927 10.5968 30.8098C10.3797 31.0268 10.2578 31.3211 10.2578 31.6281C10.2578 31.935 10.3797 32.2293 10.5968 32.4463C10.8138 32.6634 11.1081 32.7853 11.415 32.7853H22.2158C22.5227 32.7853 22.8171 32.6634 23.0341 32.4463C23.2511 32.2293 23.373 31.935 23.373 31.6281C23.373 31.3211 23.2511 31.0268 23.0341 30.8098C22.8171 30.5927 22.5227 30.4708 22.2158 30.4708Z" fill="white"/>
<path d="M6.78613 32.7853H7.55762C7.86453 32.7853 8.15888 32.6634 8.3759 32.4463C8.59292 32.2293 8.71484 31.935 8.71484 31.6281C8.71484 31.3211 8.59292 31.0268 8.3759 30.8098C8.15888 30.5927 7.86453 30.4708 7.55762 30.4708H6.78613C6.47922 30.4708 6.18487 30.5927 5.96785 30.8098C5.75083 31.0268 5.62891 31.3211 5.62891 31.6281C5.62891 31.935 5.75083 32.2293 5.96785 32.4463C6.18487 32.6634 6.47922 32.7853 6.78613 32.7853V32.7853Z" fill="white"/>
<path d="M22.2158 40.2919H11.415C11.1081 40.2919 10.8138 40.4138 10.5968 40.6308C10.3797 40.8478 10.2578 41.1422 10.2578 41.4491C10.2578 41.756 10.3797 42.0504 10.5968 42.2674C10.8138 42.4844 11.1081 42.6063 11.415 42.6063H22.2158C22.5227 42.6063 22.8171 42.4844 23.0341 42.2674C23.2511 42.0504 23.373 41.756 23.373 41.4491C23.373 41.1422 23.2511 40.8478 23.0341 40.6308C22.8171 40.4138 22.5227 40.2919 22.2158 40.2919V40.2919Z" fill="white"/>
<path d="M6.78613 42.6063H7.55762C7.86453 42.6063 8.15888 42.4844 8.3759 42.2674C8.59292 42.0504 8.71484 41.756 8.71484 41.4491C8.71484 41.1422 8.59292 40.8478 8.3759 40.6308C8.15888 40.4138 7.86453 40.2919 7.55762 40.2919H6.78613C6.47922 40.2919 6.18487 40.4138 5.96785 40.6308C5.75083 40.8478 5.62891 41.1422 5.62891 41.4491C5.62891 41.756 5.75083 42.0504 5.96785 42.2674C6.18487 42.4844 6.47922 42.6063 6.78613 42.6063V42.6063Z" fill="white"/>
<path d="M22.2158 35.3806H6.78613C6.47922 35.3806 6.18487 35.5025 5.96785 35.7196C5.75083 35.9366 5.62891 36.2309 5.62891 36.5378C5.62891 36.8448 5.75083 37.1391 5.96785 37.3561C6.18487 37.5731 6.47922 37.6951 6.78613 37.6951H22.2158C22.5227 37.6951 22.8171 37.5731 23.0341 37.3561C23.2511 37.1391 23.373 36.8448 23.373 36.5378C23.373 36.2309 23.2511 35.9366 23.0341 35.7196C22.8171 35.5025 22.5227 35.3806 22.2158 35.3806Z" fill="white"/>
<path d="M22.2158 45.2031H6.78613C6.47922 45.2031 6.18487 45.325 5.96785 45.5421C5.75083 45.7591 5.62891 46.0534 5.62891 46.3604C5.62891 46.6673 5.75083 46.9616 5.96785 47.1786C6.18487 47.3957 6.47922 47.5176 6.78613 47.5176H22.2158C22.5227 47.5176 22.8171 47.3957 23.0341 47.1786C23.2511 46.9616 23.373 46.6673 23.373 46.3604C23.373 46.0534 23.2511 45.7591 23.0341 45.5421C22.8171 45.325 22.5227 45.2031 22.2158 45.2031Z" fill="white"/>
<path d="M72.6709 15.8867H33.0166C32.7097 15.8867 32.4153 16.0086 32.1983 16.2257C31.9813 16.4427 31.8594 16.737 31.8594 17.0439V21.6729C31.8594 21.9798 31.9813 22.2741 32.1983 22.4911C32.4153 22.7082 32.7097 22.8301 33.0166 22.8301H72.6709C72.9778 22.8301 73.2722 22.7082 73.4892 22.4911C73.7062 22.2741 73.8281 21.9798 73.8281 21.6729V17.0439C73.8281 16.737 73.7062 16.4427 73.4892 16.2257C73.2722 16.0086 72.9778 15.8867 72.6709 15.8867ZM71.5137 20.5156H34.1738V18.2012H71.5137V20.5156Z" fill="white"/>
<path d="M72.6709 45.2031H33.0166C32.7097 45.2031 32.4153 45.325 32.1983 45.5421C31.9813 45.7591 31.8594 46.0534 31.8594 46.3604C31.8594 46.6673 31.9813 46.9616 32.1983 47.1786C32.4153 47.3957 32.7097 47.5176 33.0166 47.5176H72.6709C72.9778 47.5176 73.2722 47.3957 73.4892 47.1786C73.7062 46.9616 73.8281 46.6673 73.8281 46.3604C73.8281 46.0534 73.7062 45.7591 73.4892 45.5421C73.2722 45.325 72.9778 45.2031 72.6709 45.2031Z" fill="white"/>
<path d="M25.0713 67.1133H27.3857C27.6927 67.1133 27.987 66.9914 28.204 66.7743C28.421 66.5573 28.543 66.263 28.543 65.9561C28.543 65.6491 28.421 65.3548 28.204 65.1378C27.987 64.9207 27.6927 64.7988 27.3857 64.7988H25.0713C24.7644 64.7988 24.47 64.9207 24.253 65.1378C24.036 65.3548 23.9141 65.6491 23.9141 65.9561C23.9141 66.263 24.036 66.5573 24.253 66.7743C24.47 66.9914 24.7644 67.1133 25.0713 67.1133Z" fill="white"/>
<path d="M32.208 67.1133H34.5225C34.8294 67.1133 35.1237 66.9914 35.3407 66.7743C35.5578 66.5573 35.6797 66.263 35.6797 65.9561C35.6797 65.6491 35.5578 65.3548 35.3407 65.1378C35.1237 64.9207 34.8294 64.7988 34.5225 64.7988H32.208C31.9011 64.7988 31.6067 64.9207 31.3897 65.1378C31.1727 65.3548 31.0508 65.6491 31.0508 65.9561C31.0508 66.263 31.1727 66.5573 31.3897 66.7743C31.6067 66.9914 31.9011 67.1133 32.208 67.1133Z" fill="white"/>
<path d="M39.3447 67.1133H41.6592C41.9661 67.1133 42.2604 66.9914 42.4775 66.7743C42.6945 66.5573 42.8164 66.263 42.8164 65.9561C42.8164 65.6491 42.6945 65.3548 42.4775 65.1378C42.2604 64.9207 41.9661 64.7988 41.6592 64.7988H39.3447C39.0378 64.7988 38.7435 64.9207 38.5264 65.1378C38.3094 65.3548 38.1875 65.6491 38.1875 65.9561C38.1875 66.263 38.3094 66.5573 38.5264 66.7743C38.7435 66.9914 39.0378 67.1133 39.3447 67.1133Z" fill="white"/>
<path d="M46.4775 67.1133H48.792C49.0989 67.1133 49.3933 66.9914 49.6103 66.7743C49.8273 66.5573 49.9492 66.263 49.9492 65.9561C49.9492 65.6491 49.8273 65.3548 49.6103 65.1378C49.3933 64.9207 49.0989 64.7988 48.792 64.7988H46.4775C46.1706 64.7988 45.8763 64.9207 45.6593 65.1378C45.4422 65.3548 45.3203 65.6491 45.3203 65.9561C45.3203 66.263 45.4422 66.5573 45.6593 66.7743C45.8763 66.9914 46.1706 67.1133 46.4775 67.1133Z" fill="white"/>
<path d="M53.6143 67.1133H55.9287C56.2356 67.1133 56.53 66.9914 56.747 66.7743C56.964 66.5573 57.0859 66.263 57.0859 65.9561C57.0859 65.6491 56.964 65.3548 56.747 65.1378C56.53 64.9207 56.2356 64.7988 55.9287 64.7988H53.6143C53.3073 64.7988 53.013 64.9207 52.796 65.1378C52.579 65.3548 52.457 65.6491 52.457 65.9561C52.457 66.263 52.579 66.5573 52.796 66.7743C53.013 66.9914 53.3073 67.1133 53.6143 67.1133Z" fill="white"/>
<path d="M25.0713 71.7422H27.3857C27.6927 71.7422 27.987 71.6203 28.204 71.4032C28.421 71.1862 28.543 70.8919 28.543 70.585C28.543 70.278 28.421 69.9837 28.204 69.7667C27.987 69.5497 27.6927 69.4277 27.3857 69.4277H25.0713C24.7644 69.4277 24.47 69.5497 24.253 69.7667C24.036 69.9837 23.9141 70.278 23.9141 70.585C23.9141 70.8919 24.036 71.1862 24.253 71.4032C24.47 71.6203 24.7644 71.7422 25.0713 71.7422Z" fill="white"/>
<path d="M32.208 71.7422H34.5225C34.8294 71.7422 35.1237 71.6203 35.3407 71.4032C35.5578 71.1862 35.6797 70.8919 35.6797 70.585C35.6797 70.278 35.5578 69.9837 35.3407 69.7667C35.1237 69.5497 34.8294 69.4277 34.5225 69.4277H32.208C31.9011 69.4277 31.6067 69.5497 31.3897 69.7667C31.1727 69.9837 31.0508 70.278 31.0508 70.585C31.0508 70.8919 31.1727 71.1862 31.3897 71.4032C31.6067 71.6203 31.9011 71.7422 32.208 71.7422Z" fill="white"/>
<path d="M39.3447 71.7422H41.6592C41.9661 71.7422 42.2604 71.6203 42.4775 71.4032C42.6945 71.1862 42.8164 70.8919 42.8164 70.585C42.8164 70.278 42.6945 69.9837 42.4775 69.7667C42.2604 69.5497 41.9661 69.4277 41.6592 69.4277H39.3447C39.0378 69.4277 38.7435 69.5497 38.5264 69.7667C38.3094 69.9837 38.1875 70.278 38.1875 70.585C38.1875 70.8919 38.3094 71.1862 38.5264 71.4032C38.7435 71.6203 39.0378 71.7422 39.3447 71.7422Z" fill="white"/>
<path d="M46.4775 71.7422H48.792C49.0989 71.7422 49.3933 71.6203 49.6103 71.4032C49.8273 71.1862 49.9492 70.8919 49.9492 70.585C49.9492 70.278 49.8273 69.9837 49.6103 69.7667C49.3933 69.5497 49.0989 69.4277 48.792 69.4277H46.4775C46.1706 69.4277 45.8763 69.5497 45.6593 69.7667C45.4422 69.9837 45.3203 70.278 45.3203 70.585C45.3203 70.8919 45.4422 71.1862 45.6593 71.4032C45.8763 71.6203 46.1706 71.7422 46.4775 71.7422Z" fill="white"/>
<path d="M53.6143 71.7422H55.9287C56.2356 71.7422 56.53 71.6203 56.747 71.4032C56.964 71.1862 57.0859 70.8919 57.0859 70.585C57.0859 70.278 56.964 69.9837 56.747 69.7667C56.53 69.5497 56.2356 69.4277 55.9287 69.4277H53.6143C53.3073 69.4277 53.013 69.5497 52.796 69.7667C52.579 69.9837 52.457 70.278 52.457 70.585C52.457 70.8919 52.579 71.1862 52.796 71.4032C53.013 71.6203 53.3073 71.7422 53.6143 71.7422Z" fill="white"/>
<path d="M25.0713 76.3711H27.3857C27.6927 76.3711 27.987 76.2492 28.204 76.0322C28.421 75.8151 28.543 75.5208 28.543 75.2139C28.543 74.907 28.421 74.6126 28.204 74.3956C27.987 74.1786 27.6927 74.0566 27.3857 74.0566H25.0713C24.7644 74.0566 24.47 74.1786 24.253 74.3956C24.036 74.6126 23.9141 74.907 23.9141 75.2139C23.9141 75.5208 24.036 75.8151 24.253 76.0322C24.47 76.2492 24.7644 76.3711 25.0713 76.3711Z" fill="white"/>
<path d="M32.208 76.3711H48.7949C49.1018 76.3711 49.3962 76.2492 49.6132 76.0322C49.8302 75.8151 49.9521 75.5208 49.9521 75.2139C49.9521 74.907 49.8302 74.6126 49.6132 74.3956C49.3962 74.1786 49.1018 74.0566 48.7949 74.0566H32.208C31.9011 74.0566 31.6067 74.1786 31.3897 74.3956C31.1727 74.6126 31.0508 74.907 31.0508 75.2139C31.0508 75.5208 31.1727 75.8151 31.3897 76.0322C31.6067 76.2492 31.9011 76.3711 32.208 76.3711Z" fill="white"/>
<path d="M53.6143 76.3711H55.9287C56.2356 76.3711 56.53 76.2492 56.747 76.0322C56.964 75.8151 57.0859 75.5208 57.0859 75.2139C57.0859 74.907 56.964 74.6126 56.747 74.3956C56.53 74.1786 56.2356 74.0566 55.9287 74.0566H53.6143C53.3073 74.0566 53.013 74.1786 52.796 74.3956C52.579 74.6126 52.457 74.907 52.457 75.2139C52.457 75.5208 52.579 75.8151 52.796 76.0322C53.013 76.2492 53.3073 76.3711 53.6143 76.3711Z" fill="white"/>
</g>
<defs>
<clipPath id="clip0_7077_39645">
<rect width="80" height="80" fill="white" transform="translate(0.5)"/>
</clipPath>
</defs>
</svg>
