<svg width="81" height="80" viewBox="0 0 81 80" fill="none" xmlns="http://www.w3.org/2000/svg">
<path d="M43.3074 44.6924C43.5052 44.9219 43.7858 45.0637 44.0878 45.0868C44.3899 45.1099 44.6888 45.0125 44.9192 44.8158L48.3591 41.8664C48.4842 41.7593 48.5847 41.6264 48.6536 41.4767C48.7225 41.3271 48.7581 41.1643 48.7581 40.9996C48.7581 40.8349 48.7225 40.6721 48.6536 40.5225C48.5847 40.3728 48.4842 40.2399 48.3591 40.1328L44.9192 37.191C44.8054 37.0922 44.6733 37.0169 44.5303 36.9694C44.3872 36.9218 44.2363 36.9031 44.086 36.9141C43.9357 36.9252 43.7891 36.9659 43.6546 37.0339C43.5201 37.1018 43.4004 37.1957 43.3023 37.3102C43.2042 37.4246 43.1298 37.5573 43.0832 37.7006C43.0367 37.8439 43.0189 37.995 43.031 38.1453C43.0431 38.2955 43.0848 38.4418 43.1537 38.5758C43.2226 38.7099 43.3173 38.8289 43.4324 38.9262L45.8607 40.9996L43.4324 43.0806C43.2023 43.2779 43.0599 43.5585 43.0365 43.8606C43.0131 44.1628 43.1105 44.462 43.3074 44.6924V44.6924Z" fill="white"/>
<path d="M36.6929 37.3068C36.4943 37.078 36.2131 36.9374 35.9109 36.9157C35.6088 36.894 35.3103 36.993 35.0811 37.191L31.6412 40.1404C31.5161 40.2475 31.4156 40.3804 31.3467 40.5301C31.2779 40.6797 31.2422 40.8425 31.2422 41.0072C31.2422 41.1719 31.2779 41.3347 31.3467 41.4843C31.4156 41.6339 31.5161 41.7669 31.6412 41.874L35.0811 44.8234C35.1949 44.9222 35.3271 44.9975 35.4701 45.0451C35.6131 45.0926 35.7641 45.1113 35.9143 45.1003C36.0646 45.0892 36.2112 45.0485 36.3457 44.9805C36.4802 44.9126 36.5999 44.8187 36.698 44.7042C36.7961 44.5898 36.8705 44.4571 36.9171 44.3138C36.9636 44.1705 36.9814 44.0194 36.9693 43.8691C36.9572 43.7189 36.9155 43.5726 36.8466 43.4386C36.7778 43.3045 36.683 43.1855 36.568 43.0882L34.1396 40.9996L36.568 38.9186C36.798 38.7213 36.9404 38.4407 36.9638 38.1385C36.9872 37.8363 36.8898 37.5372 36.6929 37.3068V37.3068Z" fill="white"/>
<path d="M41.5049 34.9775C41.2112 34.9042 40.9004 34.9505 40.6407 35.1061C40.3811 35.2618 40.1938 35.5141 40.1201 35.8078L37.6628 45.6369C37.5896 45.9308 37.636 46.2418 37.792 46.5015C37.948 46.7611 38.2007 46.9483 38.4946 47.0217C38.5851 47.0452 38.6783 47.057 38.7719 47.0567C39.0264 47.0562 39.2736 46.9709 39.4742 46.8142C39.6748 46.6574 39.8174 46.4383 39.8794 46.1914L42.3367 36.3623C42.4099 36.0684 42.3634 35.7574 42.2075 35.4977C42.0515 35.238 41.7988 35.0509 41.5049 34.9775Z" fill="white"/>
<path d="M21.7207 22.3377H19.4355C19.1325 22.3377 18.8419 22.4581 18.6276 22.6723C18.4133 22.8866 18.293 23.1772 18.293 23.4802C18.293 23.7833 18.4133 24.0739 18.6276 24.2882C18.8419 24.5024 19.1325 24.6228 19.4355 24.6228H21.7207C22.0237 24.6228 22.3143 24.5024 22.5286 24.2882C22.7429 24.0739 22.8632 23.7833 22.8632 23.4802C22.8632 23.1772 22.7429 22.8866 22.5286 22.6723C22.3143 22.4581 22.0237 22.3377 21.7207 22.3377Z" fill="white"/>
<path d="M27.8144 22.3377H25.5293C25.2263 22.3377 24.9356 22.4581 24.7214 22.6723C24.5071 22.8866 24.3867 23.1772 24.3867 23.4802C24.3867 23.7833 24.5071 24.0739 24.7214 24.2882C24.9356 24.5024 25.2263 24.6228 25.5293 24.6228H27.8144C28.1174 24.6228 28.4081 24.5024 28.6223 24.2882C28.8366 24.0739 28.957 23.7833 28.957 23.4802C28.957 23.1772 28.8366 22.8866 28.6223 22.6723C28.4081 22.4581 28.1174 22.3377 27.8144 22.3377Z" fill="white"/>
<path d="M33.8887 24.6228H60.5668C60.8698 24.6228 61.1605 24.5024 61.3747 24.2882C61.589 24.0739 61.7094 23.7833 61.7094 23.4802C61.7094 23.1772 61.589 22.8866 61.3747 22.6723C61.1605 22.4581 60.8698 22.3377 60.5668 22.3377H33.8887C33.5856 22.3377 33.295 22.4581 33.0807 22.6723C32.8665 22.8866 32.7461 23.1772 32.7461 23.4802C32.7461 23.7833 32.8665 24.0739 33.0807 24.2882C33.295 24.5024 33.5856 24.6228 33.8887 24.6228Z" fill="white"/>
<path d="M21.7207 57.3764H19.4355C19.1325 57.3764 18.8419 57.4967 18.6276 57.711C18.4133 57.9253 18.293 58.2159 18.293 58.5189C18.293 58.822 18.4133 59.1126 18.6276 59.3268C18.8419 59.5411 19.1325 59.6615 19.4355 59.6615H21.7207C22.0237 59.6615 22.3143 59.5411 22.5286 59.3268C22.7429 59.1126 22.8632 58.822 22.8632 58.5189C22.8632 58.2159 22.7429 57.9253 22.5286 57.711C22.3143 57.4967 22.0237 57.3764 21.7207 57.3764Z" fill="white"/>
<path d="M27.8144 57.3764H25.5293C25.2263 57.3764 24.9356 57.4967 24.7214 57.711C24.5071 57.9253 24.3867 58.2159 24.3867 58.5189C24.3867 58.822 24.5071 59.1126 24.7214 59.3268C24.9356 59.5411 25.2263 59.6615 25.5293 59.6615H27.8144C28.1174 59.6615 28.4081 59.5411 28.6223 59.3268C28.8366 59.1126 28.957 58.822 28.957 58.5189C28.957 58.2159 28.8366 57.9253 28.6223 57.711C28.4081 57.4967 28.1174 57.3764 27.8144 57.3764Z" fill="white"/>
<path d="M60.5668 57.3764H33.8887C33.5856 57.3764 33.295 57.4967 33.0807 57.711C32.8665 57.9253 32.7461 58.2159 32.7461 58.5189C32.7461 58.822 32.8665 59.1126 33.0807 59.3268C33.295 59.5411 33.5856 59.6615 33.8887 59.6615H60.5668C60.8698 59.6615 61.1605 59.5411 61.3747 59.3268C61.589 59.1126 61.7094 58.822 61.7094 58.5189C61.7094 58.2159 61.589 57.9253 61.3747 57.711C61.1605 57.4967 60.8698 57.3764 60.5668 57.3764Z" fill="white"/>
<path d="M74.0485 70.0969C72.9344 70.0984 71.8533 70.4749 70.9795 71.1658C70.1056 71.8568 69.4898 72.8218 69.2314 73.9055H54.1175C53.7569 73.9047 53.4038 73.8019 53.0992 73.6088C52.7946 73.4158 52.5508 73.1405 52.3961 72.8147L49.4208 66.5169H66.6599C66.9629 66.5169 67.2535 66.3965 67.4678 66.1823C67.6821 65.968 67.8024 65.6774 67.8024 65.3743V51.6635C67.8024 51.3605 67.6821 51.0699 67.4678 50.8556C67.2535 50.6414 66.9629 50.521 66.6599 50.521H63.9939V48.2358H66.6599C66.9629 48.2358 67.2535 48.1155 67.4678 47.9012C67.6821 47.6869 67.8024 47.3963 67.8024 47.0933V34.9059C67.8024 34.6029 67.6821 34.3123 67.4678 34.098C67.2535 33.8837 66.9629 33.7633 66.6599 33.7633H63.9939V31.4782H66.6599C66.9629 31.4782 67.2535 31.3578 67.4678 31.1436C67.6821 30.9293 67.8024 30.6387 67.8024 30.3356V16.6249C67.8024 16.3218 67.6821 16.0312 67.4678 15.8169C67.2535 15.6027 66.9629 15.4823 66.6599 15.4823H49.4208L52.3961 9.18447C52.5508 8.8587 52.7946 8.58339 53.0992 8.39036C53.4038 8.19733 53.7569 8.09448 54.1175 8.0937H69.2314C69.5114 9.27446 70.2154 10.3113 71.2095 11.0072C72.2037 11.7031 73.4188 12.0097 74.6241 11.8687C75.8294 11.7278 76.9409 11.149 77.7476 10.2425C78.5543 9.33591 79 8.16465 79 6.95113C79 5.73761 78.5543 4.56635 77.7476 3.65979C76.9409 2.75323 75.8294 2.17451 74.6241 2.03353C73.4188 1.89256 72.2037 2.19915 71.2095 2.89508C70.2154 3.591 69.5114 4.6278 69.2314 5.80856H54.1175C53.3243 5.81066 52.5477 6.03706 51.8776 6.46161C51.2075 6.88617 50.6711 7.49158 50.3303 8.20795L46.8935 15.4823H33.1065L29.6697 8.20795C29.3289 7.49158 28.7925 6.88617 28.1224 6.46161C27.4523 6.03706 26.6757 5.81066 25.8825 5.80856H10.7686C10.4886 4.6278 9.78462 3.591 8.79048 2.89508C7.79635 2.19915 6.58124 1.89256 5.37594 2.03353C4.17064 2.17451 3.05909 2.75323 2.25238 3.65979C1.44567 4.56635 1 5.73761 1 6.95113C1 8.16465 1.44567 9.33591 2.25238 10.2425C3.05909 11.149 4.17064 11.7278 5.37594 11.8687C6.58124 12.0097 7.79635 11.7031 8.79048 11.0072C9.78462 10.3113 10.4886 9.27446 10.7686 8.0937H25.8825C26.2431 8.09448 26.5962 8.19733 26.9008 8.39036C27.2054 8.58339 27.4492 8.8587 27.6039 9.18447L30.5792 15.4823H13.3401C13.0371 15.4823 12.7465 15.6027 12.5322 15.8169C12.3179 16.0312 12.1976 16.3218 12.1976 16.6249V30.3356C12.1976 30.6387 12.3179 30.9293 12.5322 31.1436C12.7465 31.3578 13.0371 31.4782 13.3401 31.4782H16.0061V33.7633H13.3401C13.0371 33.7633 12.7465 33.8837 12.5322 34.098C12.3179 34.3123 12.1976 34.6029 12.1976 34.9059V47.0933C12.1976 47.3963 12.3179 47.6869 12.5322 47.9012C12.7465 48.1155 13.0371 48.2358 13.3401 48.2358H16.0061V50.521H13.3401C13.0371 50.521 12.7465 50.6414 12.5322 50.8556C12.3179 51.0699 12.1976 51.3605 12.1976 51.6635V65.3743C12.1976 65.6774 12.3179 65.968 12.5322 66.1823C12.7465 66.3965 13.0371 66.5169 13.3401 66.5169H30.5792L27.6039 72.8147C27.4492 73.1405 27.2054 73.4158 26.9008 73.6088C26.5962 73.8019 26.2431 73.9047 25.8825 73.9055H10.7686C10.4886 72.7247 9.78462 71.6879 8.79048 70.992C7.79635 70.2961 6.58124 69.9895 5.37594 70.1305C4.17064 70.2714 3.05909 70.8502 2.25238 71.7567C1.44567 72.6633 1 73.8345 1 75.0481C1 76.2616 1.44567 77.4328 2.25238 78.3394C3.05909 79.246 4.17064 79.8247 5.37594 79.9656C6.58124 80.1066 7.79635 79.8 8.79048 79.1041C9.78462 78.4082 10.4886 77.3714 10.7686 76.1906H25.8825C26.6757 76.1885 27.4523 75.9621 28.1224 75.5376C28.7925 75.113 29.3289 74.5076 29.6697 73.7912L33.1065 66.5169H46.8935L50.3303 73.7912C50.6711 74.5076 51.2075 75.113 51.8776 75.5376C52.5477 75.9621 53.3243 76.1885 54.1175 76.1906H69.2314C69.4461 77.0957 69.9114 77.922 70.574 78.5749C71.2366 79.2278 72.0697 79.6808 72.9779 79.882C73.8861 80.0832 74.8326 80.0245 75.709 79.7126C76.5854 79.4007 77.3561 78.8482 77.933 78.1184C78.5099 77.3887 78.8695 76.5112 78.9706 75.5865C79.0718 74.6618 78.9104 73.7273 78.505 72.8901C78.0996 72.0529 77.4665 71.3469 76.6783 70.8528C75.8901 70.3588 74.9787 70.0969 74.0485 70.0969V70.0969ZM74.0485 4.28514C74.5757 4.28514 75.0912 4.4415 75.5296 4.73444C75.968 5.02739 76.3097 5.44376 76.5115 5.9309C76.7133 6.41805 76.7661 6.95409 76.6632 7.47124C76.5604 7.98839 76.3064 8.46342 75.9336 8.83627C75.5607 9.20911 75.0857 9.46302 74.5686 9.56589C74.0514 9.66876 73.5154 9.61596 73.0282 9.41418C72.5411 9.2124 72.1247 8.87069 71.8318 8.43227C71.5388 7.99385 71.3825 7.47841 71.3825 6.95113C71.3833 6.24431 71.6644 5.56668 72.1642 5.06688C72.664 4.56709 73.3416 4.28595 74.0485 4.28514V4.28514ZM5.95154 9.61712C5.42426 9.61712 4.90882 9.46076 4.4704 9.16782C4.03198 8.87487 3.69027 8.4585 3.48849 7.97136C3.28671 7.48421 3.23391 6.94817 3.33678 6.43102C3.43965 5.91387 3.69356 5.43884 4.0664 5.06599C4.43925 4.69315 4.91428 4.43924 5.43143 4.33637C5.94858 4.2335 6.48462 4.2863 6.97177 4.48808C7.45892 4.68986 7.87529 5.03157 8.16823 5.46999C8.46117 5.90841 8.61753 6.42385 8.61753 6.95113C8.61672 7.65795 8.33558 8.33558 7.83579 8.83538C7.33599 9.33517 6.65836 9.61631 5.95154 9.61712ZM5.95154 77.714C5.42426 77.714 4.90882 77.5577 4.4704 77.2647C4.03198 76.9718 3.69027 76.5554 3.48849 76.0683C3.28671 75.5811 3.23391 75.0451 3.33678 74.5279C3.43965 74.0108 3.69356 73.5358 4.0664 73.1629C4.43925 72.7901 4.91428 72.5362 5.43143 72.4333C5.94858 72.3304 6.48462 72.3832 6.97177 72.585C7.45892 72.7868 7.87529 73.1285 8.16823 73.5669C8.46117 74.0053 8.61753 74.5208 8.61753 75.0481C8.61672 75.7549 8.33558 76.4325 7.83579 76.9323C7.33599 77.4321 6.65836 77.7132 5.95154 77.714ZM61.7087 50.521H50.3791C51.0238 49.8187 51.5959 49.0531 52.0868 48.2358H61.7087V50.521ZM28.1935 40.9996C28.1935 38.6645 28.8859 36.3818 30.1832 34.4402C31.4806 32.4987 33.3245 30.9854 35.4818 30.0918C37.6392 29.1982 40.0131 28.9644 42.3033 29.4199C44.5936 29.8755 46.6973 31 48.3485 32.6511C49.9996 34.3023 51.1241 36.406 51.5797 38.6963C52.0352 40.9865 51.8014 43.3604 50.9078 45.5178C50.0142 47.6751 48.5009 49.519 46.5593 50.8164C44.6178 52.1137 42.3351 52.8061 40 52.8061C36.8698 52.8025 33.8689 51.5574 31.6555 49.3441C29.4422 47.1307 28.1971 44.1298 28.1935 40.9996V40.9996ZM65.5173 45.9507H53.1928C54.3913 42.7588 54.3913 39.2404 53.1928 36.0485H65.5173V45.9507ZM61.7087 33.7633H52.0868C51.5959 32.9461 51.0238 32.1805 50.3791 31.4782H61.7087V33.7633ZM14.4827 17.7674H65.5173V29.1931H47.6841C45.3987 27.702 42.7288 26.9081 40 26.9081C37.2712 26.9081 34.6013 27.702 32.3159 29.1931H14.4827V17.7674ZM18.2913 31.4782H29.6209C28.9762 32.1805 28.4041 32.9461 27.9132 33.7633H18.2913V31.4782ZM14.4827 36.0485H26.8072C25.6087 39.2404 25.6087 42.7588 26.8072 45.9507H14.4827V36.0485ZM18.2913 48.2358H27.9132C28.4041 49.0531 28.9762 49.8187 29.6209 50.521H18.2913V48.2358ZM14.4827 52.8061H32.3159C34.6013 54.2972 37.2712 55.0911 40 55.0911C42.7288 55.0911 45.3987 54.2972 47.6841 52.8061H65.5173V64.2318H14.4827V52.8061ZM74.0485 77.714C73.5212 77.714 73.0057 77.5577 72.5673 77.2647C72.1289 76.9718 71.7872 76.5554 71.5854 76.0683C71.3836 75.5811 71.3308 75.0451 71.4337 74.5279C71.5366 74.0108 71.7905 73.5358 72.1633 73.1629C72.5362 72.7901 73.0112 72.5362 73.5283 72.4333C74.0455 72.3304 74.5815 72.3832 75.0687 72.585C75.5558 72.7868 75.9722 73.1285 76.2651 73.5669C76.5581 74.0053 76.7144 74.5208 76.7144 75.0481C76.7136 75.7549 76.4325 76.4325 75.9327 76.9323C75.4329 77.4321 74.7553 77.7132 74.0485 77.714V77.714Z" fill="white"/>
</svg>
