<svg width="81" height="80" viewBox="0 0 81 80" fill="none" xmlns="http://www.w3.org/2000/svg">
<path d="M78.9158 28.7124C79.6161 27.1251 80 25.4088 80 23.6452C80 16.708 74.3565 11.0645 67.4194 11.0645C65.023 11.0645 62.6979 11.7501 60.6947 13.0247C59.3402 8.25906 54.9143 4.77419 49.8064 4.77419C47.8542 4.77419 45.9641 5.27238 44.276 6.2233C41.6579 2.93255 37.6964 1 33.4516 1C29.111 1 25.0702 3.01794 22.4577 6.44383C21.5338 6.16924 20.5816 6.03226 19.6129 6.03226C14.9971 6.03226 10.9778 9.23271 9.86413 13.631C5.44985 14.1016 2 17.8493 2 22.3871C2 24.8504 3.01911 27.0772 4.65557 28.6774H3.25806C2.56392 28.6774 2 29.2395 2 29.9355V77.7419C2 78.4379 2.56392 79 3.25806 79H78.7419C79.4361 79 80 78.4379 80 77.7419V29.9355C80 29.3015 79.5245 28.8009 78.9158 28.7124ZM4.51613 22.3871C4.51613 18.9188 7.33817 16.0968 10.7622 16.0955C11.4269 16.1533 12.0584 15.6717 12.1511 15.0212C12.6782 11.3311 15.8866 8.54839 19.6129 8.54839C20.5915 8.54839 21.5491 8.73575 22.4601 9.108C23.0161 9.33468 23.6574 9.13688 23.9873 8.63377C26.0918 5.42964 29.6295 3.51613 33.4516 3.51613C37.2633 3.51613 40.7961 5.42227 42.9037 8.61227C43.0923 8.89915 43.3877 9.09449 43.725 9.15715C44.0635 9.21919 44.4093 9.1424 44.6864 8.94215C46.1932 7.86161 47.9648 7.29032 49.8064 7.29032C54.3503 7.29032 58.2013 10.8366 58.5754 15.3645C58.6141 15.8425 58.9213 16.2553 59.3666 16.4316C59.8083 16.6115 60.3176 16.5169 60.6738 16.1951C62.5333 14.5076 64.9284 13.5806 67.4194 13.5806C72.9688 13.5806 77.4839 18.0957 77.4839 23.6452C77.4839 25.4315 76.993 27.1503 76.106 28.6774H10.8065C7.33817 28.6774 4.51613 25.8554 4.51613 22.3871ZM77.4839 31.1935V38.7419H4.51613V31.1935H77.4839ZM4.51613 76.4839V41.2581H77.4839V76.4839H4.51613Z" fill="white"/>
<path d="M8.28906 33.7097H10.8052V36.2258H8.28906V33.7097Z" fill="white"/>
<path d="M13.3242 33.7097H15.8403V36.2258H13.3242V33.7097Z" fill="white"/>
<path d="M18.3555 33.7097H20.8716V36.2258H18.3555V33.7097Z" fill="white"/>
<path d="M23.3867 33.7097H25.9028V36.2258H23.3867V33.7097Z" fill="white"/>
<path d="M56.0977 33.7097H76.2267V36.2258H56.0977V33.7097Z" fill="white"/>
<path d="M67.418 16.0968V18.6129C70.1933 18.6129 72.4502 20.8698 72.4502 23.6452H74.9664C74.9664 19.4821 71.581 16.0968 67.418 16.0968Z" fill="white"/>
<path d="M7.03125 22.3871C7.03125 24.4677 8.72485 26.1613 10.8054 26.1613V23.6452C10.1125 23.6452 9.54738 23.0813 9.54738 22.3871C9.54738 21.693 10.1125 21.129 10.8054 21.129V18.6129C8.72485 18.6129 7.03125 20.3065 7.03125 22.3871Z" fill="white"/>
<path d="M22.1276 43.7742C21.6055 43.7742 21.1374 44.0961 20.9512 44.5844L10.8867 71.0038L13.2382 71.9007L16.2851 63.9032H27.9701L31.0158 71.8994L33.3673 71.0026L23.3027 44.5832C23.1178 44.0961 22.6497 43.7742 22.1276 43.7742ZM17.244 61.3871L22.1276 48.5663L27.0112 61.3871H17.244Z" fill="white"/>
<path d="M51.0654 45.0323H37.2267C36.5326 45.0323 35.9688 45.5943 35.9688 46.2903V71.4516H38.4849V57.6129H51.0654C51.7596 57.6129 52.3236 57.0508 52.3236 56.3548V46.2903C52.3236 45.5943 51.7596 45.0323 51.0654 45.0323ZM49.8074 55.0968H38.4849V47.5484H49.8074V55.0968Z" fill="white"/>
<path d="M54.8398 47.5484H59.8721V68.9355H54.8398V71.4516H67.4205V68.9355H62.3882V47.5484H67.4205V45.0323H54.8398V47.5484Z" fill="white"/>
</svg>
