<svg width="70" height="70" viewBox="0 0 70 70" fill="none" xmlns="http://www.w3.org/2000/svg">
<path d="M39.0614 37.006C41.7851 33.8085 43.3345 29.7764 43.4527 25.5779C43.571 21.3793 42.2511 17.2664 39.7117 13.9207C37.1723 10.5751 33.566 8.19753 29.4903 7.18217C25.4147 6.16681 21.1144 6.57458 17.3023 8.3379C13.4901 10.1012 10.3949 13.1142 8.52963 16.8775C6.66437 20.6409 6.14103 24.9286 7.04634 29.0301C7.95166 33.1316 10.2313 36.8006 13.5074 39.4291C16.7835 42.0576 20.8594 43.4877 25.0597 43.4825C30.9551 43.4825 36.7089 40.3505 39.0614 37.006ZM9.47066 25.0591C9.46407 22.4723 10.1013 19.9245 11.325 17.6453C12.5486 15.3662 14.3202 13.4274 16.4801 12.0037C18.6399 10.58 21.1201 9.71618 23.697 9.49007C26.274 9.26396 28.8667 9.68268 31.2414 10.7085C33.6162 11.7343 35.6983 13.335 37.3002 15.3662C38.9021 17.3974 39.9733 19.7953 40.4173 22.3438C40.8613 24.8922 40.6641 27.5111 39.8435 29.9644C39.023 32.4176 37.6048 34.6281 35.7169 36.3966C33.5008 38.4724 30.7267 39.8559 27.7353 40.3771C24.7438 40.8982 21.6653 40.5344 18.8778 39.3303C16.0903 38.1262 13.7151 36.1342 12.0439 33.5989C10.3728 31.0637 9.47839 28.0956 9.47066 25.0591V25.0591Z" fill="#212121"/>
<path d="M68.5808 58.0653L53.5728 43.0715C53.0998 42.5998 52.5222 42.2462 51.8869 42.0393C51.2517 41.8325 50.5766 41.7783 49.9165 41.8811L45.665 37.6295C48.7323 32.5964 49.848 26.6134 48.8012 20.813C47.7543 15.0126 44.6173 9.79715 39.9841 6.15383C35.3508 2.51051 29.5427 0.692072 23.659 1.04269C17.7753 1.39331 12.2242 3.88865 8.05644 8.05644C3.88865 12.2242 1.39331 17.7753 1.04269 23.659C0.692072 29.5427 2.51051 35.3508 6.15383 39.9841C9.79715 44.6173 15.0126 47.7543 20.813 48.8012C26.6134 49.848 32.5964 48.7323 37.6295 45.665L41.8811 49.9165C41.7783 50.5766 41.8325 51.2517 42.0393 51.8869C42.2462 52.5222 42.5998 53.0998 43.0715 53.5728C59.3975 69.8988 58.2354 68.9918 59.0715 68.9918C59.9076 68.9918 59.4825 69.176 68.5808 60.0777C68.7136 59.946 68.8191 59.7892 68.891 59.6165C68.963 59.4438 69 59.2586 69 59.0715C69 58.8844 68.963 58.6992 68.891 58.5265C68.8191 58.3538 68.7136 58.1971 68.5808 58.0653V58.0653ZM3.80141 25.0591C3.80141 20.8548 5.04815 16.7448 7.38398 13.249C9.71981 9.75316 13.0398 7.02851 16.9242 5.41956C20.8085 3.81061 25.0827 3.38964 29.2063 4.20987C33.3299 5.03011 37.1177 7.05471 40.0906 10.0277C43.0636 13.0006 45.0882 16.7884 45.9084 20.912C46.7286 25.0356 46.3077 29.3098 44.6987 33.1941C43.0898 37.0785 40.3651 40.3985 36.8693 42.7343C33.3735 45.0701 29.2635 46.3169 25.0591 46.3169C19.4212 46.3169 14.0143 44.0772 10.0277 40.0906C6.04106 36.104 3.80141 30.697 3.80141 25.0591V25.0591ZM43.9644 39.9396L47.3231 43.3124L43.3124 47.3231L39.9396 43.9644C41.4392 42.7907 42.7907 41.4392 43.9644 39.9396V39.9396ZM59.0715 65.5764L45.0698 51.5746C44.9369 51.4429 44.8315 51.2861 44.7595 51.1134C44.6876 50.9407 44.6506 50.7555 44.6506 50.5684C44.6506 50.3813 44.6876 50.1961 44.7595 50.0234C44.8315 49.8507 44.9369 49.694 45.0698 49.5622C49.8173 44.8147 49.7748 44.6588 50.5684 44.6588C51.362 44.6588 50.3558 43.851 65.5764 59.0715L59.0715 65.5764Z" fill="#212121"/>
<path d="M31.8583 22.4093C30.9796 22.4093 31.6032 23.0045 28.7972 18.7955C28.568 18.5422 28.2552 18.3802 27.9161 18.3393C27.5771 18.2983 27.2347 18.3812 26.9519 18.5726C26.669 18.764 26.4648 19.0511 26.3769 19.3811C26.2889 19.7111 26.323 20.0618 26.473 20.3686L27.8902 22.4093H21.7538L23.1709 20.3686C23.3795 20.0547 23.4549 19.6709 23.3805 19.3014C23.3061 18.932 23.088 18.6073 22.7741 18.3987C22.4603 18.1901 22.0764 18.1147 21.707 18.1891C21.3376 18.2635 21.0128 18.4817 20.8042 18.7955C17.9699 23.047 18.6076 22.4093 17.729 22.4093C17.3531 22.4431 17.0061 22.6249 16.7642 22.9146C16.5224 23.2043 16.4055 23.5782 16.4393 23.954C16.4732 24.3299 16.6549 24.6769 16.9446 24.9188C17.2343 25.1606 17.6082 25.2775 17.9841 25.2437L19.1745 31.1958C19.2407 31.5208 19.4188 31.8122 19.6778 32.0193C19.9367 32.2265 20.2601 32.3363 20.5917 32.3296H29.0948C29.4263 32.3363 29.7497 32.2265 30.0086 32.0193C30.2676 31.8122 30.4457 31.5208 30.5119 31.1958C31.9291 24.3934 31.6032 25.2437 31.9291 25.2437C32.305 25.2343 32.6617 25.076 32.9208 24.8035C33.18 24.5311 33.3203 24.1669 33.3109 23.7911C33.3015 23.4152 33.1432 23.0585 32.8707 22.7993C32.5983 22.5402 32.2341 22.3999 31.8583 22.4093V22.4093ZM27.8618 29.4952H21.6829L20.8326 25.2437H28.7121L27.8618 29.4952Z" fill="#212121"/>
</svg>
