<svg width="75" height="75" viewBox="0 0 75 75" fill="none" xmlns="http://www.w3.org/2000/svg">
<path d="M41 63H14C12.4087 63 10.8826 62.3679 9.75736 61.2426C8.63214 60.1174 8 58.5913 8 57V15C8 13.4087 8.63214 11.8826 9.75736 10.7574C10.8826 9.63214 12.4087 9 14 9H62C63.5913 9 65.1174 9.63214 66.2426 10.7574C67.3679 11.8826 68 13.4087 68 15V36" stroke="black" stroke-width="4" stroke-linecap="round"/>
<path d="M8 21.0001H68M17 15.0301L17.03 14.9971M26 15.0301L26.03 14.9971M35 15.0301L35.03 14.9971M58.976 42.3751L66.644 44.3221C67.442 44.5261 68.003 45.2521 67.979 46.0741C67.463 63.3481 57.5 66.0001 57.5 66.0001C57.5 66.0001 47.537 63.3481 47.021 46.0741C47.0117 45.6739 47.1388 45.2825 47.3814 44.9641C47.624 44.6457 47.9677 44.4193 48.356 44.3221L56.024 42.3751C56.993 42.1291 58.007 42.1291 58.976 42.3751V42.3751Z" stroke="black" stroke-width="4" stroke-linecap="round" stroke-linejoin="round"/>
</svg>
