<svg width="70" height="70" viewBox="0 0 70 70" fill="none" xmlns="http://www.w3.org/2000/svg">
<path d="M68.4124 33.6121L55.6624 27.2371C55.515 27.1634 55.3524 27.125 55.1875 27.125C55.0227 27.125 54.8601 27.1634 54.7126 27.2371L41.9626 33.6121C41.786 33.7003 41.6374 33.836 41.5336 34.004C41.4299 34.172 41.3749 34.3655 41.375 34.563V44.8342C41.3695 47.9817 42.2986 51.0601 44.0444 53.6791C45.7903 56.2981 48.2744 58.3398 51.1819 59.5455L54.7785 61.0437C54.9081 61.0977 55.0471 61.1256 55.1875 61.1256C55.3279 61.1256 55.467 61.0977 55.5966 61.0437L59.1931 59.5455C62.1006 58.3398 64.5847 56.2981 66.3306 53.6791C68.0765 51.0601 69.0055 47.9817 69 44.8342V34.563C69.0001 34.3655 68.9452 34.172 68.8414 34.004C68.7376 33.836 68.5891 33.7003 68.4124 33.6121ZM66.875 44.8342C66.8799 47.5622 66.0747 50.2303 64.5615 52.5001C63.0482 54.77 60.8951 56.5394 58.375 57.5842L55.1875 58.9123L52 57.5842C49.4799 56.5394 47.3268 54.77 45.8136 52.5001C44.3003 50.2303 43.4951 47.5622 43.5 44.8342V35.2196L55.1875 29.3759L66.875 35.2196V44.8342Z" fill="#212121"/>
<path d="M54.7126 30.8005L45.1501 35.5818C44.9736 35.67 44.8252 35.8055 44.7214 35.9733C44.6176 36.141 44.5626 36.3344 44.5625 36.5317V44.833C44.5577 47.351 45.3009 49.8137 46.6976 51.9089C48.0944 54.004 50.0818 55.6371 52.408 56.6012L54.7785 57.5893C54.9081 57.6434 55.0471 57.6712 55.1875 57.6712C55.3279 57.6712 55.467 57.6434 55.5966 57.5893L57.967 56.6012C60.2932 55.6371 62.2807 54.004 63.6774 51.9089C65.0742 49.8137 65.8173 47.351 65.8125 44.833V36.5317C65.8124 36.3344 65.7574 36.141 65.6536 35.9733C65.5498 35.8055 65.4014 35.67 65.2249 35.5818L55.6625 30.8005C55.515 30.7268 55.3524 30.6885 55.1875 30.6885C55.0227 30.6885 54.8601 30.7268 54.7126 30.8005ZM63.6875 37.1893V44.833C63.6913 46.9314 63.0718 48.9836 61.9078 50.7295C60.7437 52.4755 59.0874 53.8364 57.1489 54.6398L55.1875 55.458L53.2261 54.6398C51.2876 53.8364 49.6313 52.4755 48.4673 50.7295C47.3032 48.9836 46.6838 46.9314 46.6875 44.833V37.1893L55.1875 32.9393L63.6875 37.1893Z" fill="#212121"/>
<path d="M52.7486 43.4015C52.6506 43.3 52.5334 43.2191 52.4037 43.1634C52.2741 43.1077 52.1347 43.0784 51.9936 43.0772C51.8525 43.076 51.7126 43.1028 51.582 43.1563C51.4515 43.2097 51.3328 43.2886 51.2331 43.3883C51.1333 43.4881 51.0544 43.6067 51.001 43.7373C50.9476 43.8679 50.9207 44.0078 50.9219 44.1489C50.9231 44.29 50.9524 44.4294 51.0081 44.559C51.0638 44.6886 51.1448 44.8059 51.2462 44.9039L53.3712 47.0289C53.5705 47.2281 53.8407 47.34 54.1224 47.34C54.4042 47.34 54.6744 47.2281 54.8736 47.0289L59.1236 42.7789C59.2251 42.6809 59.306 42.5636 59.3617 42.434C59.4174 42.3044 59.4467 42.165 59.4479 42.0239C59.4492 41.8828 59.4223 41.7429 59.3689 41.6123C59.3154 41.4817 59.2365 41.3631 59.1368 41.2634C59.037 41.1636 58.9184 41.0847 58.7878 41.0313C58.6572 40.9778 58.5173 40.951 58.3762 40.9522C58.2352 40.9534 58.0957 40.9827 57.9661 41.0384C57.8365 41.0941 57.7192 41.175 57.6212 41.2765L54.1224 44.7753L52.7486 43.4015Z" fill="#212121"/>
<path d="M40.3443 52.625H3.125V16.5H54.125V23.4381C54.125 23.7199 54.2369 23.9902 54.4362 24.1894C54.6354 24.3887 54.9057 24.5006 55.1875 24.5006C55.4692 24.5006 55.7395 24.3887 55.9388 24.1894C56.138 23.9902 56.25 23.7199 56.25 23.4381V9.0625C56.25 8.78071 56.138 8.51046 55.9388 8.3112C55.7395 8.11194 55.4692 8 55.1875 8H2.0625C1.78071 8 1.51046 8.11194 1.3112 8.3112C1.11194 8.51046 1 8.78071 1 9.0625L1 53.6875C1 53.9693 1.11194 54.2395 1.3112 54.4388C1.51046 54.638 1.78071 54.75 2.0625 54.75H40.3443C40.6261 54.75 40.8964 54.638 41.0956 54.4388C41.2949 54.2395 41.4068 53.9693 41.4068 53.6875C41.4068 53.4057 41.2949 53.1354 41.0956 52.9362C40.8964 52.7369 40.6261 52.625 40.3443 52.625ZM3.125 10.125H54.125V14.375H3.125V10.125Z" fill="#212121"/>
<path d="M50.9375 11.1875H48.8125C48.5307 11.1875 48.2605 11.2994 48.0612 11.4987C47.8619 11.698 47.75 11.9682 47.75 12.25C47.75 12.5318 47.8619 12.802 48.0612 13.0013C48.2605 13.2006 48.5307 13.3125 48.8125 13.3125H50.9375C51.2193 13.3125 51.4895 13.2006 51.6888 13.0013C51.8881 12.802 52 12.5318 52 12.25C52 11.9682 51.8881 11.698 51.6888 11.4987C51.4895 11.2994 51.2193 11.1875 50.9375 11.1875Z" fill="#212121"/>
<path d="M45.625 11.1875H31.8125C31.5307 11.1875 31.2605 11.2994 31.0612 11.4987C30.8619 11.698 30.75 11.9682 30.75 12.25C30.75 12.5318 30.8619 12.802 31.0612 13.0013C31.2605 13.2006 31.5307 13.3125 31.8125 13.3125H45.625C45.9068 13.3125 46.177 13.2006 46.3763 13.0013C46.5755 12.802 46.6875 12.5318 46.6875 12.25C46.6875 11.9682 46.5755 11.698 46.3763 11.4987C46.177 11.2994 45.9068 11.1875 45.625 11.1875Z" fill="#212121"/>
<path d="M5.25 13.3125C5.8368 13.3125 6.3125 12.8368 6.3125 12.25C6.3125 11.6632 5.8368 11.1875 5.25 11.1875C4.6632 11.1875 4.1875 11.6632 4.1875 12.25C4.1875 12.8368 4.6632 13.3125 5.25 13.3125Z" fill="#212121"/>
<path d="M8.4375 13.3125C9.0243 13.3125 9.5 12.8368 9.5 12.25C9.5 11.6632 9.0243 11.1875 8.4375 11.1875C7.8507 11.1875 7.375 11.6632 7.375 12.25C7.375 12.8368 7.8507 13.3125 8.4375 13.3125Z" fill="#212121"/>
<path d="M11.625 13.3125C12.2118 13.3125 12.6875 12.8368 12.6875 12.25C12.6875 11.6632 12.2118 11.1875 11.625 11.1875C11.0382 11.1875 10.5625 11.6632 10.5625 12.25C10.5625 12.8368 11.0382 13.3125 11.625 13.3125Z" fill="#212121"/>
<path d="M48.8125 27.6881C49.0943 27.6881 49.3645 27.5762 49.5638 27.3769C49.763 27.1777 49.875 26.9074 49.875 26.6256V21.8125C49.875 21.5307 49.763 21.2605 49.5638 21.0612C49.3645 20.8619 49.0943 20.75 48.8125 20.75H8.4375C8.15571 20.75 7.88546 20.8619 7.6862 21.0612C7.48694 21.2605 7.375 21.5307 7.375 21.8125V47.3125C7.375 47.5943 7.48694 47.8645 7.6862 48.0638C7.88546 48.263 8.15571 48.375 8.4375 48.375H38.3469C38.6286 48.375 38.8989 48.263 39.0982 48.0638C39.2974 47.8645 39.4094 47.5943 39.4094 47.3125C39.4094 47.0307 39.2974 46.7604 39.0982 46.5612C38.8989 46.3619 38.6286 46.25 38.3469 46.25H9.5V22.875H47.75V26.6256C47.75 26.9074 47.8619 27.1777 48.0612 27.3769C48.2604 27.5762 48.5307 27.6881 48.8125 27.6881Z" fill="#212121"/>
<path d="M41.9817 30.7077C42.1035 30.7797 42.2385 30.8266 42.3788 30.8456C42.519 30.8647 42.6616 30.8555 42.7983 30.8187C42.9349 30.7819 43.0628 30.7182 43.1745 30.6312C43.2862 30.5443 43.3794 30.4359 43.4486 30.3125C43.5178 30.1891 43.5617 30.053 43.5776 29.9124C43.5935 29.7718 43.5812 29.6294 43.5414 29.4936C43.5015 29.3578 43.4349 29.2314 43.3455 29.1217C43.2561 29.012 43.1457 28.9212 43.0208 28.8547C42.5235 28.577 42.1091 28.1721 41.8198 27.6814C41.5306 27.1908 41.3771 26.632 41.375 26.0625C41.375 25.7807 41.263 25.5105 41.0638 25.3112C40.8645 25.1119 40.5943 25 40.3125 25H16.9375C16.6557 25 16.3855 25.1119 16.1862 25.3112C15.9869 25.5105 15.875 25.7807 15.875 26.0625C15.875 26.9079 15.5392 27.7186 14.9414 28.3164C14.3436 28.9142 13.5329 29.25 12.6875 29.25C12.4057 29.25 12.1355 29.3619 11.9362 29.5612C11.7369 29.7605 11.625 30.0307 11.625 30.3125V38.8125C11.625 39.0943 11.7369 39.3645 11.9362 39.5638C12.1355 39.763 12.4057 39.875 12.6875 39.875C13.5329 39.875 14.3436 40.2108 14.9414 40.8086C15.5392 41.4064 15.875 42.2171 15.875 43.0625C15.875 43.3443 15.9869 43.6145 16.1862 43.8138C16.3855 44.013 16.6557 44.125 16.9375 44.125H38.1875C38.4693 44.125 38.7395 44.013 38.9388 43.8138C39.138 43.6145 39.25 43.3443 39.25 43.0625C39.25 42.7807 39.138 42.5104 38.9388 42.3112C38.7395 42.1119 38.4693 42 38.1875 42H17.8937C17.6839 40.9798 17.1795 40.0435 16.443 39.307C15.7065 38.5705 14.7702 38.0661 13.75 37.8562V31.2687C14.7702 31.0589 15.7065 30.5545 16.443 29.818C17.1795 29.0815 17.6839 28.1452 17.8937 27.125H39.3562C39.5118 27.8754 39.8267 28.5836 40.2796 29.2017C40.7326 29.8198 41.313 30.3334 41.9817 30.7077Z" fill="#212121"/>
<path d="M31.8145 33.5C32.0963 33.5 32.3665 33.3881 32.5658 33.1888C32.7651 32.9895 32.877 32.7193 32.877 32.4375V32.1644C32.8762 31.3916 32.5687 30.6506 32.0221 30.1042C31.4755 29.5578 30.7344 29.2506 29.9615 29.25H29.6895C29.6895 28.9682 29.5776 28.698 29.3783 28.4987C29.179 28.2994 28.9088 28.1875 28.627 28.1875C28.3452 28.1875 28.075 28.2994 27.8757 28.4987C27.6764 28.698 27.5645 28.9682 27.5645 29.25H27.2925C26.6 29.2493 25.9298 29.4952 25.4021 29.9436C24.8744 30.3921 24.5237 31.0138 24.4127 31.6973C24.3017 32.3809 24.4377 33.0817 24.7964 33.674C25.1552 34.2664 25.7131 34.7117 26.3703 34.9301L27.5645 35.3275V37.75H27.2925C27.083 37.75 26.8821 37.6669 26.7339 37.5188C26.5857 37.3708 26.5023 37.17 26.502 36.9606V36.6875C26.502 36.4057 26.3901 36.1354 26.1908 35.9362C25.9915 35.7369 25.7213 35.625 25.4395 35.625C25.1577 35.625 24.8875 35.7369 24.6882 35.9362C24.4889 36.1354 24.377 36.4057 24.377 36.6875V36.9606C24.3778 37.7334 24.6853 38.4744 25.2319 39.0208C25.7785 39.5672 26.5196 39.8744 27.2925 39.875H27.5645C27.5645 40.1568 27.6764 40.427 27.8757 40.6263C28.075 40.8255 28.3452 40.9375 28.627 40.9375C28.9088 40.9375 29.179 40.8255 29.3783 40.6263C29.5776 40.427 29.6895 40.1568 29.6895 39.875H29.9615C30.654 39.8757 31.3242 39.6298 31.8519 39.1814C32.3796 38.7329 32.7303 38.1112 32.8413 37.4276C32.9523 36.7441 32.8163 36.0433 32.4576 35.4509C32.0988 34.8586 31.5409 34.4133 30.8838 34.1949L29.6895 33.7975V31.375H29.9615C30.171 31.375 30.3719 31.4581 30.5201 31.6062C30.6683 31.7542 30.7517 31.955 30.752 32.1644V32.4375C30.752 32.7193 30.8639 32.9895 31.0632 33.1888C31.2625 33.3881 31.5327 33.5 31.8145 33.5ZM30.2123 36.2104C30.3897 36.2703 30.5402 36.3912 30.6369 36.5517C30.7335 36.7121 30.77 36.9017 30.7399 37.0866C30.7098 37.2714 30.615 37.4396 30.4724 37.5611C30.3299 37.6826 30.1488 37.7496 29.9615 37.75H29.6895V36.0362L30.2123 36.2104ZM27.5645 33.0888L27.0418 32.9146C26.8643 32.8547 26.7138 32.7338 26.6171 32.5733C26.5205 32.4129 26.484 32.2233 26.5141 32.0384C26.5442 31.8535 26.639 31.6854 26.7816 31.5639C26.9241 31.4424 27.1052 31.3754 27.2925 31.375H27.5645V33.0888Z" fill="#212121"/>
</svg>
