<svg width="70" height="70" viewBox="0 0 70 70" fill="none" xmlns="http://www.w3.org/2000/svg">
<path d="M35.0013 64.1663C28.2444 62.465 22.6667 58.5877 18.2684 52.5347C13.8681 46.4836 11.668 39.7636 11.668 32.3747V14.583L35.0013 5.83301L58.3346 14.583V31.1351C57.411 30.7462 56.4631 30.3933 55.4909 30.0763C54.5187 29.7613 53.5221 29.5309 52.5013 29.3851V18.6663L35.0013 12.1038L17.5013 18.6663V32.3747C17.5013 34.6594 17.8046 36.9441 18.4113 39.2288C19.0199 41.5136 19.8716 43.6894 20.9663 45.7563C22.0591 47.8213 23.3832 49.7288 24.9388 51.4788C26.4944 53.2288 28.2201 54.6872 30.1159 55.8538C30.6506 57.4094 31.3555 58.892 32.2305 60.3018C33.1055 61.7115 34.102 62.9754 35.2201 64.0934C35.1714 64.0934 35.1355 64.1061 35.1121 64.1313C35.0869 64.1547 35.0499 64.1663 35.0013 64.1663ZM49.5846 49.583C50.7999 49.583 51.8324 49.1572 52.6821 48.3055C53.5338 47.4558 53.9596 46.4233 53.9596 45.208C53.9596 43.9927 53.5338 42.9602 52.6821 42.1105C51.8324 41.2588 50.7999 40.833 49.5846 40.833C48.3694 40.833 47.3369 41.2588 46.4871 42.1105C45.6355 42.9602 45.2096 43.9927 45.2096 45.208C45.2096 46.4233 45.6355 47.4558 46.4871 48.3055C47.3369 49.1572 48.3694 49.583 49.5846 49.583ZM49.5846 58.333C51.0916 58.333 52.477 57.9801 53.7409 57.2743C55.0048 56.5704 56.0256 55.6351 56.8034 54.4684C55.7339 53.8365 54.5916 53.3504 53.3763 53.0101C52.161 52.6698 50.8971 52.4997 49.5846 52.4997C48.2721 52.4997 47.0082 52.6698 45.793 53.0101C44.5777 53.3504 43.4353 53.8365 42.3659 54.4684C43.1437 55.6351 44.1645 56.5704 45.4284 57.2743C46.6923 57.9801 48.0777 58.333 49.5846 58.333ZM49.5846 64.1663C45.5499 64.1663 42.1112 62.7449 39.2684 59.9022C36.4237 57.0574 35.0013 53.6177 35.0013 49.583C35.0013 45.5483 36.4237 42.1086 39.2684 39.2638C42.1112 36.4211 45.5499 34.9997 49.5846 34.9997C53.6194 34.9997 57.0591 36.4211 59.9038 39.2638C62.7466 42.1086 64.168 45.5483 64.168 49.583C64.168 53.6177 62.7466 57.0574 59.9038 59.9022C57.0591 62.7449 53.6194 64.1663 49.5846 64.1663Z" fill="black"/>
</svg>
