<svg width="70" height="70" viewBox="0 0 70 70" fill="none" xmlns="http://www.w3.org/2000/svg">
<path d="M13.125 35H26.25V39.375H13.125V35ZM13.125 26.25H35V30.625H13.125V26.25ZM13.125 17.5H35V21.875H13.125V17.5Z" fill="black"/>
<path d="M30.625 56.875H8.75V13.125H61.25V35H65.625V13.125C65.625 11.9647 65.1641 10.8519 64.3436 10.0314C63.5231 9.21094 62.4103 8.75 61.25 8.75H8.75C7.58968 8.75 6.47688 9.21094 5.65641 10.0314C4.83594 10.8519 4.375 11.9647 4.375 13.125V56.875C4.375 58.0353 4.83594 59.1481 5.65641 59.9686C6.47688 60.7891 7.58968 61.25 8.75 61.25H30.625V56.875Z" fill="black"/>
<path d="M48.125 55.9781L42.4594 50.3125L39.375 53.3969L48.125 62.1469L65.625 44.6469L62.5406 41.5625L48.125 55.9781Z" fill="black"/>
</svg>
