<svg width="70" height="70" viewBox="0 0 70 70" fill="none" xmlns="http://www.w3.org/2000/svg">
<path d="M65.6274 23.4933C72.2489 7.10164 63.9923 -1.31718 47.506 5.34491C21.1144 -5.06038 -5.15561 20.9934 5.38481 47.466C-1.08809 63.4388 6.60102 72.4387 23.5062 65.6145C49.9924 76.0873 76.1137 49.8444 65.6274 23.4933ZM36.8574 46.2904C36.8574 44.4195 37.4122 42.5906 38.4516 41.0351C39.491 39.4795 40.9684 38.267 42.6968 37.5511C44.4253 36.8351 46.3273 36.6478 48.1622 37.0128C49.9971 37.3778 51.6826 38.2787 53.0056 39.6016C54.3285 40.9245 55.2294 42.61 55.5944 44.445C55.9594 46.2799 55.772 48.1818 55.0561 49.9103C54.3401 51.6388 53.1277 53.1161 51.5721 54.1555C50.0165 55.195 48.1877 55.7497 46.3168 55.7497C43.808 55.7497 41.402 54.7531 39.628 52.9792C37.854 51.2052 36.8574 48.7992 36.8574 46.2904ZM54.4248 37.1959C52.1436 34.9147 49.0496 33.6331 45.8235 33.6331C42.5974 33.6331 39.5035 34.9147 37.2223 37.1959C34.9411 39.4771 33.6595 42.5711 33.6595 45.7971C33.6595 49.0232 34.9411 52.1172 37.2223 54.3984C35.0847 56.0554 32.8609 57.5981 30.5602 59.02C27.9312 55.1316 25.976 50.8282 24.7765 46.2904H30.1008C30.4591 46.2904 30.8029 46.148 31.0563 45.8946C31.3097 45.6412 31.4521 45.2974 31.4521 44.9391C31.4521 44.5807 31.3097 44.2369 31.0563 43.9835C30.8029 43.7301 30.4591 43.5877 30.1008 43.5877H24.1414C23.0739 38.2351 23.0739 32.7243 24.1414 27.3717H46.8708C47.06 28.3582 47.2357 29.3041 47.3438 30.2365C47.3868 30.5949 47.5704 30.9215 47.8543 31.1446C48.1381 31.3676 48.4989 31.4687 48.8573 31.4257C49.2157 31.3827 49.5423 31.1991 49.7653 30.9152C49.9884 30.6314 50.0895 30.2706 50.0465 29.9122C49.9519 29.0879 49.8167 28.2365 49.6546 27.3717H60.8436C58.9783 30.8177 56.8314 34.1036 54.4248 37.1959V37.1959ZM7.81722 46.2904H21.9927C23.2325 51.3029 25.3409 56.0595 28.2224 60.3443C26.6925 61.2058 25.1182 61.9862 23.5062 62.6821C19.9406 61.1175 16.7191 58.8641 14.0268 56.0511C11.3344 53.2381 9.22417 49.9211 7.81722 46.2904V46.2904ZM21.3306 27.3717C20.3371 32.7314 20.3371 38.228 21.3306 43.5877H6.91182C5.39843 38.2883 5.39843 32.6711 6.91182 27.3717H21.3306ZM29.2899 62.8172C29.9926 62.4253 29.2899 62.1956 31.7224 64.9523C30.1448 64.7532 28.5858 64.4278 27.0602 63.9794C27.8035 63.6415 28.5332 63.2632 29.344 62.8172H29.2899ZM62.695 23.4798C62.3707 24.2501 62.4923 23.9933 62.1815 24.669H49.0195C47.3073 17.7518 43.951 11.3499 39.2358 6.00706C44.3264 6.63233 49.1666 8.57226 53.2799 11.6359C57.3932 14.6996 60.638 18.7815 62.695 23.4798V23.4798ZM35.5061 5.99355C40.6492 11.1772 44.348 17.6151 46.2357 24.669H24.7765C26.6642 17.6151 30.363 11.1772 35.5061 5.99355V5.99355ZM64.0193 20.0204C61.0325 14.495 56.5012 9.95903 50.9789 6.96651C62.6274 3.20979 67.7895 8.34487 64.0193 20.0204ZM31.7764 6.02057C27.0617 11.3586 23.7054 17.756 21.9927 24.669H7.81722C9.75043 19.6841 12.9998 15.3169 17.219 12.0329C21.4383 8.74887 26.4694 6.67097 31.7764 6.02057V6.02057ZM6.9929 50.939C9.97971 56.4644 14.511 61.0004 20.0333 63.9929C8.37127 67.7631 3.22268 62.601 6.9929 50.939ZM39.2493 64.9388C40.1006 63.9659 40.9114 62.9659 41.6547 61.9524C41.8661 61.6621 41.9536 61.2997 41.8978 60.9449C41.8421 60.5901 41.6477 60.2719 41.3574 60.0605C41.0671 59.849 40.7047 59.7616 40.3499 59.8173C39.9951 59.8731 39.677 60.0675 39.4655 60.3578C38.2669 61.994 36.9432 63.5346 35.5061 64.9658C34.3097 63.7636 33.1861 62.4911 32.1413 61.1551C34.6038 59.6234 36.9812 57.9588 39.2628 56.1687C41.6044 57.8103 44.4496 58.5744 47.2986 58.3266C50.1476 58.0787 52.8181 56.8349 54.8411 54.8136C56.864 52.7922 58.11 50.1227 58.3601 47.2739C58.6102 44.4251 57.8484 41.5793 56.2086 39.2364C58.6706 36.097 60.8931 32.7769 62.8571 29.3041C64.0598 27.0879 63.7085 27.3717 64.1004 27.3717C65.6138 32.6711 65.6138 38.2883 64.1004 43.5877H62.5328C62.1744 43.5877 61.8307 43.7301 61.5773 43.9835C61.3238 44.2369 61.1815 44.5807 61.1815 44.9391C61.1815 45.2974 61.3238 45.6412 61.5773 45.8946C61.8307 46.148 62.1744 46.2904 62.5328 46.2904H63.195C61.2616 51.2727 58.014 55.6378 53.7975 58.9215C49.581 62.2052 44.5534 64.2847 39.2493 64.9388V64.9388Z" fill="#212121"/>
<path d="M51.7204 51.9122C52.7744 45.4663 52.4636 46.2906 53.0717 46.2906C53.4301 46.2906 53.7738 46.1483 54.0273 45.8948C54.2807 45.6414 54.4231 45.2977 54.4231 44.9393C54.4231 44.5809 54.2807 44.2372 54.0273 43.9838C53.7738 43.7303 53.4301 43.588 53.0717 43.588H52.1258L50.1934 40.2096C50.0142 39.8978 49.7185 39.67 49.3713 39.5762C49.0241 39.4824 48.6539 39.5304 48.3421 39.7096C48.0302 39.8888 47.8024 40.1846 47.7086 40.5317C47.6149 40.8789 47.6629 41.2492 47.8421 41.561L49.0177 43.588H43.3691L44.7205 41.6556C44.9031 41.3614 44.9658 41.0083 44.8956 40.6693C44.8255 40.3302 44.6279 40.031 44.3436 39.8334C44.0593 39.6357 43.71 39.5548 43.3677 39.6072C43.0255 39.6596 42.7164 39.8414 42.5043 40.115C39.707 44.115 40.2746 43.588 39.5584 43.588C39.2 43.588 38.8563 43.7303 38.6028 43.9838C38.3494 44.2372 38.207 44.5809 38.207 44.9393C38.207 45.2977 38.3494 45.6414 38.6028 45.8948C38.8563 46.1483 39.2 46.2906 39.5584 46.2906L40.9097 52.0203C40.9837 52.3201 41.1581 52.5856 41.404 52.7724C41.6499 52.9593 41.9523 53.0563 42.261 53.0473H50.3691C50.693 53.0515 51.0076 52.9392 51.2556 52.7308C51.5037 52.5225 51.6686 52.232 51.7204 51.9122ZM49.2204 50.3446H43.3151L42.3691 46.4663H49.8691L49.2204 50.3446Z" fill="#212121"/>
</svg>
