<svg width="64" height="64" viewBox="0 0 64 64" fill="none" xmlns="http://www.w3.org/2000/svg">
<rect width="64" height="64" rx="12" fill="#A2AAB8"/>
<path d="M14.8822 27.9101C13.1491 29.641 12.1229 31.9555 12.0038 34.402C11.8848 36.8486 12.6813 39.2517 14.2382 41.1428C15.795 43.0338 18.0005 44.2771 20.4244 44.6301C22.8482 44.9831 25.3167 44.4205 27.3482 43.0521L35.8602 51.5661C36.1351 51.8472 36.5067 52.013 36.8995 52.0298C37.2923 52.0466 37.6767 51.9131 37.9746 51.6566C38.2725 51.4 38.4614 51.0395 38.5029 50.6486C38.5445 50.2576 38.4355 49.8656 38.1982 49.5521L38.0482 49.3781L29.6142 40.9421C31.1567 38.9644 31.887 36.4729 31.6562 33.9755C31.4255 31.478 30.2512 29.1625 28.3725 27.5009C26.4938 25.8392 24.0522 24.9564 21.5453 25.0325C19.0383 25.1085 16.6547 26.1376 14.8802 27.9101H14.8822ZM32.0522 11.9961C22.5402 11.9961 14.5802 18.6341 12.5502 27.5301C13.7362 26.025 15.2703 24.8308 17.0202 24.0501C18.9208 20.4639 22.0383 17.6734 25.8122 16.1801L25.5982 16.5281C24.5222 18.3141 23.6562 20.5501 23.0482 23.0881C24.0462 23.1881 25.0302 23.4161 25.9782 23.7681C27.2422 18.5121 29.6242 14.9981 32.0522 14.9981L32.2822 15.0081C34.8142 15.2401 37.2582 19.2441 38.3942 25.0001H28.4002C29.6077 25.8021 30.6583 26.8182 31.5002 27.9981L38.8482 28.0001C39.1999 31.3307 39.1091 34.6933 38.5782 38.0001H33.2862C33.1299 38.5758 32.93 39.1387 32.6882 39.6841L32.4302 40.2281L32.1862 40.6861L32.5022 41.0001H37.9322C37.5262 42.4981 37.0322 43.8361 36.4682 44.9701L38.6802 47.1841C39.6642 45.4681 40.4622 43.3681 41.0362 41.0041L46.4822 41.0001C44.6925 43.8642 42.0936 46.1332 39.0142 47.5201L39.4642 47.9661L39.7142 48.2461C40.1542 48.8381 40.4042 49.4961 40.4702 50.1521C43.9311 48.5462 46.8606 45.984 48.913 42.7678C50.9655 39.5515 52.0554 35.8154 52.0542 32.0001C52.0542 20.9521 43.0982 11.9961 32.0522 11.9961V11.9961ZM26.6282 30.0961C27.2603 30.7229 27.7623 31.4683 28.1055 32.2896C28.4487 33.1109 28.6263 33.9918 28.6282 34.882C28.6301 35.7721 28.4561 36.6538 28.1164 37.4765C27.7766 38.2992 27.2777 39.0467 26.6483 39.6761C26.0189 40.3055 25.2713 40.8044 24.4486 41.1442C23.6259 41.484 22.7442 41.6579 21.8541 41.6561C20.964 41.6542 20.083 41.4766 19.2617 41.1334C18.4404 40.7902 17.695 40.2881 17.0682 39.6561C15.8092 38.3865 15.1045 36.6699 15.1082 34.882C15.112 33.094 15.8239 31.3803 17.0882 30.1161C18.3525 28.8518 20.0661 28.1398 21.8541 28.1361C23.642 28.1324 25.3587 28.8371 26.6282 30.0961V30.0961ZM41.8642 28.0001L48.5802 27.9981L48.5962 28.0581C48.8962 29.3241 49.0562 30.6421 49.0562 31.9981C49.0583 34.0475 48.689 36.0803 47.9662 37.9981L41.6182 38.0021C41.9042 36.1021 42.0542 34.0861 42.0542 32.0001C42.0542 30.6321 41.9902 29.2941 41.8642 28.0001V28.0001ZM38.2902 16.1781L38.3362 16.1941C42.4305 17.8286 45.7332 20.9844 47.5522 25.0001H41.4542C40.8282 21.4941 39.7342 18.4441 38.2902 16.1801V16.1781Z" fill="white"/>
</svg>
