<svg width="70" height="70" viewBox="0 0 70 70" fill="none" xmlns="http://www.w3.org/2000/svg">
<path d="M32.0833 13.125C28.3337 13.125 24.6683 14.2369 21.5507 16.3201C18.433 18.4032 16.003 21.3641 14.5681 24.8283C13.1332 28.2925 12.7578 32.1044 13.4893 35.7819C14.2208 39.4595 16.0264 42.8375 18.6778 45.4889C21.3291 48.1403 24.7072 49.9459 28.3848 50.6774C32.0623 51.4089 35.8742 51.0335 39.3384 49.5985C42.8026 48.1636 45.7635 45.7337 47.8466 42.616C49.9298 39.4983 51.0417 35.8329 51.0417 32.0833C51.0355 27.0572 49.0361 22.2386 45.4821 18.6846C41.928 15.1305 37.1095 13.1312 32.0833 13.125V13.125ZM32.0833 48.125C29.6831 48.1312 27.3121 47.5986 25.1451 46.5667C22.978 45.5347 21.0701 44.0296 19.5621 42.1623C18.054 40.2949 16.9843 38.113 16.4316 35.7773C15.8789 33.4416 15.8573 31.0116 16.3686 28.6664C16.8799 26.3213 17.9109 24.1208 19.3856 22.227C20.8604 20.3333 22.7413 18.7946 24.8897 17.7245C27.0382 16.6543 29.3994 16.0799 31.7994 16.0436C34.1993 16.0072 36.5768 16.5099 38.7567 17.5146L29.5925 26.6758C29.3187 26.9497 29.1648 27.3211 29.1648 27.7083C29.1648 28.0956 29.3187 28.467 29.5925 28.7408C29.8663 29.0147 30.2377 29.1685 30.625 29.1685C31.0123 29.1685 31.3837 29.0147 31.6575 28.7408L41.37 19.0254C42.8256 20.0669 44.0998 21.341 45.1413 22.7967L39.8008 28.1342C39.527 28.408 39.3732 28.7794 39.3732 29.1667C39.3732 29.5539 39.527 29.9253 39.8008 30.1992C40.0747 30.473 40.4461 30.6268 40.8333 30.6268C41.2206 30.6268 41.592 30.473 41.8658 30.1992L46.6667 25.41C47.7942 27.8527 48.2879 30.5403 48.102 33.2243C47.9161 35.9083 47.0567 38.5021 45.6032 40.7661C44.1497 43.0301 42.149 44.8912 39.7859 46.1774C37.4229 47.4636 34.7737 48.1334 32.0833 48.125V48.125Z" fill="black"/>
<path d="M62.2846 54.3843L53.5346 45.6343C53.3864 45.4915 53.2108 45.3804 53.0183 45.3076C56.2939 40.1347 57.5467 33.9355 56.5369 27.8965C55.527 21.8576 52.3256 16.4032 47.5452 12.5774C42.7649 8.75152 36.7416 6.82302 30.6281 7.161C24.5146 7.49898 18.7406 10.0797 14.4111 14.4092C10.0816 18.7386 7.50093 24.5127 7.16295 30.6261C6.82497 36.7396 8.75347 42.763 12.5793 47.5433C16.4051 52.3236 21.8595 55.5251 27.8985 56.5349C33.9374 57.5447 40.1367 56.292 45.3096 53.0164C45.3823 53.2088 45.4935 53.3845 45.6363 53.5326L54.3863 62.2826C55.4381 63.3081 56.8517 63.8779 58.3207 63.8685C59.7897 63.8592 61.1959 63.2715 62.2347 62.2327C63.2735 61.194 63.8612 59.7878 63.8705 58.3188C63.8798 56.8497 63.3101 55.4362 62.2846 54.3843V54.3843ZM10.2104 32.0835C10.2104 27.757 11.4934 23.5277 13.897 19.9304C16.3007 16.333 19.7171 13.5293 23.7142 11.8736C27.7114 10.2179 32.1097 9.78473 36.353 10.6288C40.5964 11.4728 44.4941 13.5562 47.5534 16.6155C50.6127 19.6748 52.696 23.5725 53.5401 27.8159C54.3842 32.0592 53.9509 36.4575 52.2953 40.4547C50.6396 44.4518 47.8358 47.8682 44.2385 50.2719C40.6412 52.6755 36.4119 53.9585 32.0854 53.9585C26.2857 53.9523 20.7253 51.6456 16.6243 47.5446C12.5233 43.4436 10.2166 37.8832 10.2104 32.0835V32.0835ZM60.2196 60.2176C59.7193 60.7163 59.0418 60.9964 58.3354 60.9964C57.6291 60.9964 56.9515 60.7163 56.4513 60.2176L47.7013 51.4676C47.6692 51.4355 47.6254 51.4268 47.5904 51.3976C48.9935 50.2687 50.2706 48.9916 51.3996 47.5885C51.4288 47.6235 51.4375 47.6672 51.4696 47.6993L60.2196 56.4493C60.4672 56.6966 60.6637 56.9903 60.7977 57.3136C60.9317 57.6369 61.0007 57.9835 61.0007 58.3335C61.0007 58.6835 60.9317 59.03 60.7977 59.3533C60.6637 59.6766 60.4672 59.9703 60.2196 60.2176Z" fill="black"/>
</svg>
