<svg width="52" height="52" viewBox="0 0 52 52" fill="none" xmlns="http://www.w3.org/2000/svg">
<path d="M35.6875 0.873047L34.4165 2.26611C31.5703 5.39905 29.224 6.79986 27.271 7.7163C25.318 8.6308 23.6769 8.90399 22.0649 10.1382C20.3464 11.4557 17.8489 13.9822 16.7969 18.4927C14.5416 18.9848 12.8909 19.8489 11.5889 20.9746C10.3024 22.0867 9.33362 23.3519 8.14013 24.7295C8.13044 24.745 8.14594 24.774 8.14013 24.7895C6.42738 26.758 4.92969 28.8777 2.02344 29.9975L0.8125 30.4819V51.188H37.7471C39.8647 51.0737 41.3334 49.607 42.2266 48.1597C43.1178 46.7143 43.6119 45.1488 43.8618 43.8623C44.5051 40.584 45.6772 31.1465 45.6772 31.1465L45.7393 30.9663V30.7842C45.6772 29.4744 45.1386 28.3623 44.4663 27.3315L46.646 20.8545L50.0986 15.6465L51.0674 14.2534L49.7944 13.1045L37.0806 2.08398L35.6875 0.873047ZM35.8096 6.20117L45.9194 14.9819L43.2554 18.915L43.0752 19.0991L43.0132 19.4014L41.2578 24.6074C40.3414 24.2296 39.3978 23.9642 38.3516 24.0029H38.2295L26 24.063H24.0625V31.5708C23.7913 33.6827 22.6171 34.5003 21.1562 35.0835C20.6719 35.2792 20.6118 35.1726 20.1875 35.2637V24.0049C19.8697 16.8225 22.4272 14.7552 24.4268 13.2265C24.9789 12.8022 26.5968 12.312 28.9062 11.229C30.836 10.3203 33.2346 8.6928 35.8096 6.20311V6.20117ZM16.4346 22.852C16.4268 23.2919 16.2893 23.6019 16.3125 24.063V39.563H18.25C18.25 39.563 20.3231 39.5397 22.5493 38.6543C24.7736 37.7689 27.4609 35.6957 27.9375 32.0552V27.938L38.3516 27.8779H38.4116C39.2621 27.8314 40.0965 28.1237 40.7319 28.6909C41.3674 29.2581 41.7523 30.054 41.8022 30.9043C41.7945 30.9353 41.7054 31.6541 41.6821 31.813H33.75V35.688H41.1978C40.9924 37.1857 40.8044 38.1254 40.5913 39.563H33.75V43.438H39.9868C39.7579 44.3754 39.3902 45.2733 38.896 46.102C38.3671 46.9642 37.9118 47.2897 37.5049 47.313H4.6875V32.8418C7.82819 31.1755 9.78119 28.7789 11.0444 27.3335C12.3542 25.8339 13.2532 24.6985 14.1328 23.9429C14.7083 23.4507 15.6092 23.1698 16.4346 22.852Z" fill="#5A5A5A"/>
</svg>
