<svg width="80" height="80" viewBox="0 0 80 80" fill="none" xmlns="http://www.w3.org/2000/svg">
<path d="M53.2567 41.157C53.9896 41.157 54.5838 40.5629 54.5838 39.83C54.5838 39.0971 53.9896 38.5029 53.2567 38.5029C52.5238 38.5029 51.9297 39.0971 51.9297 39.83C51.9297 40.5629 52.5238 41.157 53.2567 41.157Z" stroke="white" stroke-width="3" stroke-miterlimit="10" stroke-linecap="round" stroke-linejoin="round"/>
<path d="M39.9833 41.157C40.7162 41.157 41.3104 40.5629 41.3104 39.83C41.3104 39.0971 40.7162 38.5029 39.9833 38.5029C39.2504 38.5029 38.6562 39.0971 38.6562 39.83C38.6562 40.5629 39.2504 41.157 39.9833 41.157Z" stroke="white" stroke-width="3" stroke-miterlimit="10" stroke-linecap="round" stroke-linejoin="round"/>
<path d="M25.3828 4H28.8331C32.8143 4 36.2646 6.91951 36.7955 11.1661L38.6533 27.8869" stroke="white" stroke-width="3" stroke-miterlimit="10" stroke-linecap="round" stroke-linejoin="round"/>
<path d="M37.3359 11.9619H62.0191C63.0807 11.9619 63.6116 13.0236 63.3461 13.8198L59.6304 23.1091C58.3033 26.0287 55.3838 27.8865 52.1989 27.8865H39.99" stroke="white" stroke-width="3" stroke-miterlimit="10" stroke-linecap="round" stroke-linejoin="round"/>
<path d="M57.2328 35.849H39.9812C37.8579 35.849 36 33.9912 36 31.8679C36 29.7446 37.8579 27.8867 39.9812 27.8867H50.5976" stroke="white" stroke-width="3" stroke-miterlimit="10" stroke-linecap="round" stroke-linejoin="round"/>
<path d="M34.6875 46.2009C28.583 43.016 21.1515 43.8122 15.8433 48.855L15.3125 49.6513" stroke="white" stroke-width="3" stroke-miterlimit="10" stroke-linecap="round" stroke-linejoin="round"/>
<path d="M54.3273 52.3044L57.2468 51.7735L64.6783 47.7924C71.0481 44.8729 76.0909 45.9345 76.6218 51.5081L62.0242 60.2667L47.9575 64.2478C46.0996 64.7787 44.5071 65.0441 42.6492 65.0441H29.3787C27.7863 65.0441 25.9284 65.8403 24.8668 66.6365L24.3359 66.9019" stroke="white" stroke-width="3" stroke-miterlimit="10" stroke-linecap="round" stroke-linejoin="round"/>
<path d="M35.2188 54.4281H54.5937C54.5937 53.1011 54.5937 46.4658 45.3043 46.4658H35.4842" stroke="white" stroke-width="3" stroke-miterlimit="10" stroke-linecap="round" stroke-linejoin="round"/>
<path d="M1.5 61.33L9.99313 52.8369L26.9794 69.8232L18.2208 78.3163" stroke="white" stroke-width="3" stroke-miterlimit="10" stroke-linecap="round" stroke-linejoin="round"/>
<path d="M77.0212 36.6036C76.584 36.6057 76.1558 36.7278 75.7831 36.9565L73.8703 35.0374C74.3154 34.4096 74.5544 33.6589 74.5544 32.8893C74.5544 32.1197 74.3154 31.3691 73.8703 30.7412L75.7831 28.8222C76.1558 29.0509 76.584 29.1729 77.0212 29.175C77.5109 29.175 77.9897 29.0298 78.3969 28.7577C78.8041 28.4856 79.1215 28.0989 79.3089 27.6464C79.4963 27.194 79.5454 26.6961 79.4498 26.2158C79.3543 25.7354 79.1184 25.2942 78.7721 24.9479C78.4258 24.6016 77.9846 24.3658 77.5043 24.2702C77.024 24.1747 76.5261 24.2237 76.0736 24.4111C75.6211 24.5986 75.2344 24.9159 74.9623 25.3231C74.6902 25.7304 74.545 26.2091 74.545 26.6988C74.5472 27.1361 74.6692 27.5643 74.8979 27.9369L72.9788 29.8498C72.351 29.4047 71.6004 29.1656 70.8307 29.1656C70.0611 29.1656 69.3105 29.4047 68.6826 29.8498L66.7636 27.9369C66.9923 27.5643 67.1143 27.1361 67.1164 26.6988C67.1164 26.2091 66.9712 25.7304 66.6991 25.3231C66.427 24.9159 66.0403 24.5986 65.5879 24.4111C65.1354 24.2237 64.6375 24.1747 64.1572 24.2702C63.6768 24.3658 63.2356 24.6016 62.8893 24.9479C62.543 25.2942 62.3072 25.7354 62.2116 26.2158C62.1161 26.6961 62.1651 27.194 62.3526 27.6464C62.54 28.0989 62.8573 28.4856 63.2646 28.7577C63.6718 29.0298 64.1505 29.175 64.6403 29.175C65.0775 29.1729 65.5057 29.0509 65.8783 28.8222L67.7912 30.7412C67.3461 31.3691 67.107 32.1197 67.107 32.8893C67.107 33.6589 67.3461 34.4096 67.7912 35.0374L65.8783 36.9565C65.5057 36.7278 65.0775 36.6057 64.6403 36.6036C64.1505 36.6036 63.6718 36.7488 63.2646 37.0209C62.8573 37.293 62.54 37.6797 62.3526 38.1322C62.1651 38.5847 62.1161 39.0825 62.2116 39.5629C62.3072 40.0432 62.543 40.4844 62.8893 40.8307C63.2356 41.177 63.6768 41.4129 64.1572 41.5084C64.6375 41.604 65.1354 41.5549 65.5879 41.3675C66.0403 41.1801 66.427 40.8627 66.6991 40.4555C66.9712 40.0483 67.1164 39.5695 67.1164 39.0798C67.1143 38.6426 66.9923 38.2143 66.7636 37.8417L68.6826 35.9288C69.3105 36.3739 70.0611 36.613 70.8307 36.613C71.6004 36.613 72.351 36.3739 72.9788 35.9288L74.8979 37.8417C74.6692 38.2143 74.5472 38.6426 74.545 39.0798C74.545 39.5695 74.6902 40.0483 74.9623 40.4555C75.2344 40.8627 75.6211 41.1801 76.0736 41.3675C76.5261 41.5549 77.024 41.604 77.5043 41.5084C77.9846 41.4129 78.4258 41.177 78.7721 40.8307C79.1184 40.4844 79.3543 40.0432 79.4498 39.5629C79.5454 39.0825 79.4963 38.5847 79.3089 38.1322C79.1215 37.6797 78.8041 37.293 78.3969 37.0209C77.9897 36.7488 77.5109 36.6036 77.0212 36.6036ZM77.0212 25.4608C77.2661 25.4608 77.5055 25.5334 77.7091 25.6694C77.9127 25.8055 78.0713 25.9988 78.1651 26.225C78.2588 26.4513 78.2833 26.7002 78.2355 26.9404C78.1877 27.1806 78.0698 27.4012 77.8967 27.5743C77.7235 27.7475 77.5029 27.8654 77.2627 27.9132C77.0226 27.9609 76.7736 27.9364 76.5474 27.8427C76.3212 27.749 76.1278 27.5903 75.9918 27.3867C75.8557 27.1831 75.7831 26.9437 75.7831 26.6988C75.7831 26.3705 75.9136 26.0556 76.1457 25.8234C76.3779 25.5912 76.6928 25.4608 77.0212 25.4608V25.4608ZM63.4022 26.6988C63.4022 26.454 63.4748 26.2146 63.6108 26.011C63.7469 25.8074 63.9402 25.6487 64.1665 25.555C64.3927 25.4613 64.6416 25.4368 64.8818 25.4845C65.122 25.5323 65.3426 25.6502 65.5157 25.8234C65.6889 25.9965 65.8068 26.2171 65.8546 26.4573C65.9023 26.6975 65.8778 26.9464 65.7841 27.1726C65.6904 27.3989 65.5317 27.5922 65.3281 27.7283C65.1245 27.8643 64.8851 27.9369 64.6403 27.9369C64.3119 27.9369 63.997 27.8065 63.7648 27.5743C63.5326 27.3421 63.4022 27.0272 63.4022 26.6988V26.6988ZM64.6403 40.3179C64.3954 40.3179 64.156 40.2453 63.9524 40.1092C63.7488 39.9732 63.5901 39.7798 63.4964 39.5536C63.4027 39.3274 63.3782 39.0784 63.4259 38.8383C63.4737 38.5981 63.5916 38.3775 63.7648 38.2043C63.9379 38.0312 64.1585 37.9133 64.3987 37.8655C64.6389 37.8177 64.8878 37.8422 65.1141 37.9359C65.3403 38.0297 65.5336 38.1883 65.6697 38.392C65.8057 38.5956 65.8783 38.8349 65.8783 39.0798C65.8783 39.4082 65.7479 39.7231 65.5157 39.9553C65.2835 40.1875 64.9686 40.3179 64.6403 40.3179ZM70.8307 35.3655C70.341 35.3655 69.8622 35.2203 69.455 34.9482C69.0478 34.6761 68.7304 34.2894 68.543 33.8369C68.3556 33.3845 68.3066 32.8866 68.4021 32.4062C68.4977 31.9259 68.7335 31.4847 69.0798 31.1384C69.4261 30.7921 69.8673 30.5563 70.3476 30.4607C70.828 30.3652 71.3259 30.4142 71.7783 30.6016C72.2308 30.789 72.6175 31.1064 72.8896 31.5136C73.1617 31.9208 73.3069 32.3996 73.3069 32.8893C73.3069 33.5461 73.046 34.1759 72.5817 34.6403C72.1173 35.1046 71.4875 35.3655 70.8307 35.3655ZM77.0212 40.3179C76.7763 40.3179 76.537 40.2453 76.3334 40.1092C76.1298 39.9732 75.9711 39.7798 75.8774 39.5536C75.7836 39.3274 75.7591 39.0784 75.8069 38.8383C75.8547 38.5981 75.9726 38.3775 76.1457 38.2043C76.3189 38.0312 76.5395 37.9133 76.7797 37.8655C77.0198 37.8177 77.2688 37.8422 77.495 37.9359C77.7212 38.0297 77.9146 38.1883 78.0506 38.392C78.1867 38.5956 78.2593 38.8349 78.2593 39.0798C78.2593 39.4082 78.1289 39.7231 77.8967 39.9553C77.6645 40.1875 77.3496 40.3179 77.0212 40.3179Z" fill="white" stroke="white"/>
</svg>
