<svg width="80" height="80" viewBox="0 0 80 80" fill="none" xmlns="http://www.w3.org/2000/svg">
<g clip-path="url(#clip0_7942_30899)">
<path d="M71.4297 48.7246V78.3108" stroke="white" stroke-width="3" stroke-miterlimit="10" stroke-linecap="round" stroke-linejoin="round"/>
<path d="M6.88281 78.3108V48.7246" stroke="white" stroke-width="3" stroke-miterlimit="10" stroke-linecap="round" stroke-linejoin="round"/>
<path d="M76.8133 32.5859V37.9652C76.8133 40.9239 74.3926 43.3446 71.434 43.3446C68.4754 43.3446 66.0547 40.9239 66.0547 37.9652V32.5859" stroke="white" stroke-width="3" stroke-miterlimit="10" stroke-linecap="round" stroke-linejoin="round"/>
<path d="M55.2969 32.5856V37.9649C55.2969 40.9235 57.7176 43.3442 60.6762 43.3442C63.6348 43.3442 66.0555 40.9235 66.0555 37.9649V32.5856L61.2141 19.4062" stroke="white" stroke-width="3" stroke-miterlimit="10" stroke-linecap="round" stroke-linejoin="round"/>
<path d="M44.5312 32.5856V37.9649C44.5312 40.9235 46.9519 43.3442 49.9106 43.3442C52.8692 43.3442 55.2899 40.9235 55.2899 37.9649V32.5856L52.3312 19.4062" stroke="white" stroke-width="3" stroke-miterlimit="10" stroke-linecap="round" stroke-linejoin="round"/>
<path d="M33.7734 32.5856V37.9649C33.7734 40.9235 36.1941 43.3442 39.1527 43.3442C42.1114 43.3442 44.5321 40.9235 44.5321 37.9649V32.5856L43.4562 19.4062" stroke="white" stroke-width="3" stroke-miterlimit="10" stroke-linecap="round" stroke-linejoin="round"/>
<path d="M23.0156 32.5856V37.9649C23.0156 40.9235 25.4363 43.3442 28.3949 43.3442C31.3536 43.3442 33.7742 40.9235 33.7742 37.9649V32.5856L34.8501 19.4062" stroke="white" stroke-width="3" stroke-miterlimit="10" stroke-linecap="round" stroke-linejoin="round"/>
<path d="M12.2578 32.5856V37.9649C12.2578 40.9235 14.6785 43.3442 17.6371 43.3442C20.5957 43.3442 23.0164 40.9235 23.0164 37.9649V32.5856L25.9751 19.4062" stroke="white" stroke-width="3" stroke-miterlimit="10" stroke-linecap="round" stroke-linejoin="round"/>
<path d="M1.5 32.5856V37.9649C1.5 40.9235 3.92069 43.3442 6.87931 43.3442C9.83793 43.3442 12.2586 40.9235 12.2586 37.9649V32.5856L17.1 19.4062" stroke="white" stroke-width="3" stroke-miterlimit="10" stroke-linecap="round" stroke-linejoin="round"/>
<path d="M76.8148 32.5864L67.67 16.4484C66.5941 14.8347 64.9803 13.7588 63.0976 13.7588H15.4907C13.6079 13.7588 11.7252 14.8347 10.9183 16.4484L1.77344 32.5864" stroke="white" stroke-width="3" stroke-miterlimit="10" stroke-linecap="round" stroke-linejoin="round"/>
<path d="M31.0832 51.4141H14.9453V78.3106H31.0832V51.4141Z" stroke="white" stroke-width="3" stroke-miterlimit="10" stroke-linecap="round" stroke-linejoin="round"/>
<path d="M63.3631 70.2412H39.1562" stroke="white" stroke-width="3" stroke-miterlimit="10" stroke-linecap="round" stroke-linejoin="round"/>
<path d="M39.1562 70.2416V51.4141H63.3631V70.2416" stroke="white" stroke-width="3" stroke-miterlimit="10" stroke-linecap="round" stroke-linejoin="round"/>
<path d="M20.3281 9.72414V8.37931C20.3281 5.42069 22.7488 3 25.7074 3H52.604C55.5626 3 57.9833 5.42069 57.9833 8.37931V9.72414" stroke="white" stroke-width="3" stroke-miterlimit="10" stroke-linecap="round" stroke-linejoin="round"/>
<path d="M79.2266 78.3105H79.4955" stroke="white" stroke-width="3" stroke-miterlimit="10" stroke-linecap="round" stroke-linejoin="round"/>
<path d="M4.1875 78.3105H74.1185" stroke="white" stroke-width="3" stroke-miterlimit="10" stroke-linecap="round" stroke-linejoin="round"/>
<path d="M27.0547 64.8623H31.0892" stroke="white" stroke-width="3" stroke-miterlimit="10" stroke-linecap="round" stroke-linejoin="round"/>
</g>
<defs>
<clipPath id="clip0_7942_30899">
<rect width="80" height="80" fill="white"/>
</clipPath>
</defs>
</svg>
