<svg width="80" height="80" viewBox="0 0 80 80" fill="none" xmlns="http://www.w3.org/2000/svg">
<g clip-path="url(#clip0_7942_30933)">
<path d="M25.2069 55.2931H3.68966C2.34483 55.2931 1 53.9483 1 52.6034V4.18966C1 2.84483 2.34483 1.5 3.68966 1.5H76.3103C77.6552 1.5 79 2.84483 79 4.18966V41.8448" stroke="white" stroke-width="3" stroke-miterlimit="10" stroke-linecap="round" stroke-linejoin="round"/>
<path d="M73.6172 25.707V31.0863" stroke="white" stroke-width="3" stroke-miterlimit="10" stroke-linecap="round" stroke-linejoin="round"/>
<path d="M9.07031 6.87891H16.0634C19.56 6.87891 21.9807 9.83753 21.4427 13.3341L18.4841 28.3961" stroke="white" stroke-width="3" stroke-miterlimit="10" stroke-linecap="round" stroke-linejoin="round"/>
<path d="M22.5189 12.2588H44.843C45.9189 12.2588 46.4568 13.3347 46.1878 14.1415L42.4223 23.5553C41.0775 26.514 38.1189 28.3967 34.8913 28.3967H18.4844" stroke="white" stroke-width="3" stroke-miterlimit="10" stroke-linecap="round" stroke-linejoin="round"/>
<path d="M31.9308 41.8449C32.6735 41.8449 33.2756 41.2428 33.2756 40.5001C33.2756 39.7574 32.6735 39.1553 31.9308 39.1553C31.188 39.1553 30.5859 39.7574 30.5859 40.5001C30.5859 41.2428 31.188 41.8449 31.9308 41.8449Z" stroke="white" stroke-width="3" stroke-miterlimit="10" stroke-linecap="round" stroke-linejoin="round"/>
<path d="M35.9626 36.4655H18.4798C16.3281 36.4655 14.4453 34.5827 14.4453 32.431C14.4453 30.2792 16.3281 28.3965 18.4798 28.3965H33.2729" stroke="white" stroke-width="3" stroke-miterlimit="10" stroke-linecap="round" stroke-linejoin="round"/>
<path d="M18.4855 41.8449C19.2282 41.8449 19.8303 41.2428 19.8303 40.5001C19.8303 39.7574 19.2282 39.1553 18.4855 39.1553C17.7427 39.1553 17.1406 39.7574 17.1406 40.5001C17.1406 41.2428 17.7427 41.8449 18.4855 41.8449Z" stroke="white" stroke-width="3" stroke-miterlimit="10" stroke-linecap="round" stroke-linejoin="round"/>
<path d="M7.72656 20.3271H11.761" stroke="white" stroke-width="3" stroke-miterlimit="10" stroke-linecap="round" stroke-linejoin="round"/>
<path d="M11.7578 14.9482H15.7923" stroke="white" stroke-width="3" stroke-miterlimit="10" stroke-linecap="round" stroke-linejoin="round"/>
<path d="M46.7135 79.5002L41.3342 74.6589C39.4515 73.0451 38.1066 70.8933 37.0308 68.4727L31.6514 53.6795C31.1135 52.3347 31.6514 50.9899 32.9963 50.452C33.5342 50.183 34.3411 49.914 34.879 49.914C36.4928 49.914 38.1066 50.9899 38.9135 52.6037L43.7549 62.5554C45.3687 61.2106 46.4446 59.3278 46.4446 57.1761V28.3968C46.4446 26.2451 48.3273 24.3623 50.479 24.3623C52.6308 24.3623 54.5135 26.2451 54.5135 28.3968V47.2244C54.5135 45.0727 56.3963 43.1899 58.548 43.1899C60.6997 43.1899 62.5825 45.0727 62.5825 47.2244V48.5692C62.5825 46.4175 64.4652 44.5347 66.617 44.5347C68.7687 44.5347 70.6515 46.4175 70.6515 48.5692V51.2589C70.6515 49.1071 72.5342 47.2244 74.6859 47.2244C76.8377 47.2244 78.7204 49.1071 78.7204 51.2589V74.1209C78.7204 77.0795 76.2997 79.5002 73.3411 79.5002H66.8859" stroke="white" stroke-width="3" stroke-miterlimit="10" stroke-linecap="round" stroke-linejoin="round"/>
</g>
<defs>
<clipPath id="clip0_7942_30933">
<rect width="80" height="80" fill="white"/>
</clipPath>
</defs>
</svg>
