<svg width="64" height="64" viewBox="0 0 64 64" fill="none" xmlns="http://www.w3.org/2000/svg">
<rect width="64" height="64" rx="12" fill="#A2AAB8"/>
<path d="M11 18.5C11 16.5109 11.7902 14.6032 13.1967 13.1967C14.6032 11.7902 16.5109 11 18.5 11H30.5C32.4891 11 34.3968 11.7902 35.8033 13.1967C37.2098 14.6032 38 16.5109 38 18.5V20H35V18.5C35 17.3065 34.5259 16.1619 33.682 15.318C32.8381 14.4741 31.6935 14 30.5 14H18.5C17.3065 14 16.1619 14.4741 15.318 15.318C14.4741 16.1619 14 17.3065 14 18.5V30.5C14 31.6935 14.4741 32.8381 15.318 33.682C16.1619 34.5259 17.3065 35 18.5 35H35.255C35.6088 33.9992 36.3051 33.1557 37.2207 32.6186C38.1363 32.0814 39.2124 31.8853 40.2586 32.0648C41.3048 32.2443 42.2539 32.7879 42.9382 33.5995C43.6224 34.4111 43.9976 35.4385 43.9976 36.5C43.9976 37.5615 43.6224 38.5889 42.9382 39.4005C42.2539 40.2121 41.3048 40.7557 40.2586 40.9352C39.2124 41.1147 38.1363 40.9186 37.2207 40.3814C36.3051 39.8443 35.6088 39.0008 35.255 38H18.5C16.5109 38 14.6032 37.2098 13.1967 35.8033C11.7902 34.3968 11 32.4891 11 30.5V18.5ZM38 36.5C38 36.8978 38.158 37.2794 38.4393 37.5607C38.7206 37.842 39.1022 38 39.5 38C39.8978 38 40.2794 37.842 40.5607 37.5607C40.842 37.2794 41 36.8978 41 36.5C41 36.1022 40.842 35.7206 40.5607 35.4393C40.2794 35.158 39.8978 35 39.5 35C39.1022 35 38.7206 35.158 38.4393 35.4393C38.158 35.7206 38 36.1022 38 36.5ZM26 41V42.5C26 44.4891 26.7902 46.3968 28.1967 47.8033C29.6032 49.2098 31.5109 50 33.5 50H45.5C47.4891 50 49.3968 49.2098 50.8033 47.8033C52.2098 46.3968 53 44.4891 53 42.5V30.5C53 28.5109 52.2098 26.6032 50.8033 25.1967C49.3968 23.7902 47.4891 23 45.5 23H28.745C28.3912 21.9992 27.6949 21.1557 26.7793 20.6186C25.8637 20.0814 24.7876 19.8853 23.7414 20.0648C22.6952 20.2443 21.7461 20.7879 21.0618 21.5995C20.3776 22.4111 20.0024 23.4385 20.0024 24.5C20.0024 25.5615 20.3776 26.5889 21.0618 27.4005C21.7461 28.2121 22.6952 28.7557 23.7414 28.9352C24.7876 29.1147 25.8637 28.9186 26.7793 28.3814C27.6949 27.8443 28.3912 27.0008 28.745 26H45.5C46.6935 26 47.8381 26.4741 48.682 27.318C49.5259 28.1619 50 29.3065 50 30.5V42.5C50 43.6935 49.5259 44.8381 48.682 45.682C47.8381 46.5259 46.6935 47 45.5 47H33.5C32.3065 47 31.1619 46.5259 30.318 45.682C29.4741 44.8381 29 43.6935 29 42.5V41H26ZM24.5 23C24.8978 23 25.2794 23.158 25.5607 23.4393C25.842 23.7206 26 24.1022 26 24.5C26 24.8978 25.842 25.2794 25.5607 25.5607C25.2794 25.842 24.8978 26 24.5 26C24.1022 26 23.7206 25.842 23.4393 25.5607C23.158 25.2794 23 24.8978 23 24.5C23 24.1022 23.158 23.7206 23.4393 23.4393C23.7206 23.158 24.1022 23 24.5 23V23Z" fill="white"/>
</svg>
