<svg cache-id="75255066175241fca653b7c3c1d64d48" id="eoEdPhnbu4g1" xmlns="http://www.w3.org/2000/svg" xmlns:xlink="http://www.w3.org/1999/xlink" viewBox="0 0 1325 524" shape-rendering="geometricPrecision" text-rendering="geometricPrecision"><style><![CDATA[#eoEdPhnbu4g13 {animation: eoEdPhnbu4g13_c_o 3000ms linear infinite normal forwards}@keyframes eoEdPhnbu4g13_c_o { 0% {opacity: 1} 33.333333% {opacity: 0} 66.666667% {opacity: 1} 100% {opacity: 0}}]]></style><rect width="398.102" height="448.506" rx="20" ry="20" transform="translate(470.43 38.6396)" fill="none" stroke="#212121" stroke-width="28"/><rect width="472.195" height="516" rx="32" ry="32" transform="translate(436 4)" fill="none" stroke="#ffae00" stroke-width="8" stroke-dasharray="15,15"/><path d="M925.267,252.626h182.873m-878.21,0h182.87" fill="none" stroke="#ffae00" stroke-width="8" stroke-dasharray="16,16"/><path d="M86.0993,318.247c-2.3896-12.797-12.725-31.426-34.949-3.571m-19.2668-4.91c20.611-14.88,62.1914-49.908,63.6252-70.978c1.7923-26.337-24.6436-33.479-35.8452-15.177s-13.442,31.694-51.97555,54.014M17.0973,296.82c13.7407-9.523,45.165-35.622,60.9369-63.835m13.89,38.837c-2.8378,9.225-3.7638,29.73,15.2338,37.944m21.508-9.821c-8.215-3.72-23.748-17.677-20.163-43.747c4.48-32.587,8.065-42.854-10.754-55.8-18.6591-12.835-41.67-1.785-50.1833,10.714-8.5132,12.499-19.2668,36.158-41.22195,43.3M139.419,286.107c-5.526-5.506-16.399-19.196-15.682-29.909.896-13.392,14.786-37.497-6.721-59.817-21.5073-22.32-57.8006-24.552-77.0674-2.679-19.2668,21.874-17.0264,28.123-29.5723,34.819m0-25.444c16.4291-30.207,65.3279-74.37,129.4907-9.375m0,15.624c3.734,8.928,9.32,32.677,1.792,56.246M132.25,162.455c-20.014-15.624-70.7942-36.516-113.8085,4.91" fill="none" stroke="#212121" stroke-width="12" stroke-linecap="round" stroke-linejoin="round"/><path d="M125.977,293.249l15.682,16.963l30.916-26.337" fill="none" stroke="#f9b536" stroke-width="15" stroke-linecap="round" stroke-linejoin="round"/><path d="M148.83,345.836c27.13,0,49.17-21.919,49.17-49.015c0-27.097-22.04-49.015-49.17-49.015-27.129,0-49.1698,21.918-49.1698,49.015c0,27.096,22.0408,49.015,49.1698,49.015Z" fill="none" stroke="#f9b536" stroke-width="15"/><ellipse rx="21.5071" ry="21.4271" transform="translate(26.5071 141.028)" fill="#f9b536"/><path d="M30.3613,128.901v25.735h-3.2519v-21.674l-6.5567,2.391v-2.936l9.2989-3.516h.5097Z" fill="#fff"/><path d="M1241.66,130.313c-28.72,0-52.09,23.28-52.09,51.894v31.136h-10.41c-11.5,0-20.84,9.31-20.84,20.758v83.03c0,11.447,9.34,20.757,20.84,20.757h125.01c11.49,0,20.83-9.31,20.83-20.757v-83.03c0-11.448-9.34-20.758-20.83-20.758h-10.42v-31.136c0-28.614-23.37-51.894-52.09-51.894Zm62.51,103.788l.02,83.03h-125.03v-83.03h125.01Zm-93.76-20.758v-31.136c0-17.166,14.02-31.136,31.25-31.136s31.25,13.97,31.25,31.136v31.136h-62.5Z" fill="#212121"/><ellipse rx="21.5071" ry="21.4271" transform="translate(1213.88 141.92)" fill="#f9b536"/><path d="M1216.84,129.794v25.734h-3.25v-21.674l-6.56,2.391v-2.935l9.3-3.516h.51Z" fill="#fff"/><g id="eoEdPhnbu4g13" transform="translate(.000001 0.000001)"><path d="M563.765,129.182h10.53v-30.3301l-10.8,3.3301-1.62-4.2301l15.39-7.47h4.5v38.7001h10.17v6.12h-28.17v-6.12Z" fill="#5a5a5a"/><path d="M563.558,277.278h10.53v-30.33l-10.8,3.33-1.62-4.23l15.39-7.47h4.5v38.7h10.17v6.12h-28.17v-6.12Z" fill="#5a5a5a"/><path d="M524.441,425.053h10.53v-30.33l-10.8,3.33-1.62-4.23l15.39-7.47h4.5v38.7h10.17v6.12h-28.17v-6.12Z" fill="#5a5a5a"/><path d="M679.535,277.278h10.53v-30.33l-10.8,3.33-1.62-4.23l15.39-7.47h4.5v38.7h10.17v6.12h-28.17v-6.12Z" fill="#5a5a5a"/><path d="M797.203,277.278h10.53v-30.33l-10.8,3.33-1.62-4.23l15.39-7.47h4.5v38.7h10.17v6.12h-28.17v-6.12Z" fill="#5a5a5a"/><path d="M718.863,129.074h10.53v-30.3295l-10.8,3.3295-1.62-4.2295l15.39-7.47h4.5v38.6995h10.17v6.12h-28.17v-6.12Z" fill="#5a5a5a"/><path d="M669.324,180.328v6.938c0,3.729-.333,6.875-1,9.437-.666,2.563-1.625,4.625-2.875,6.188-1.25,1.562-2.76,2.698-4.531,3.406-1.75.687-3.729,1.031-5.938,1.031-1.75,0-3.364-.219-4.843-.656-1.479-.438-2.813-1.136-4-2.094-1.167-.979-2.167-2.25-3-3.812-.834-1.563-1.469-3.459-1.907-5.688-.437-2.229-.656-4.833-.656-7.812v-6.938c0-3.729.334-6.854,1-9.375.688-2.521,1.656-4.542,2.906-6.062c1.25-1.542,2.75-2.646,4.5-3.313c1.771-.667,3.75-1,5.938-1c1.771,0,3.396.219,4.875.656c1.5.417,2.833,1.094,4,2.032c1.167.916,2.156,2.145,2.969,3.687.833,1.521,1.468,3.386,1.906,5.594.437,2.208.656,4.802.656,7.781Zm-5.812,7.875v-8.844c0-2.041-.125-3.833-.375-5.375-.229-1.562-.573-2.895-1.032-4-.458-1.104-1.041-2-1.75-2.687-.687-.688-1.489-1.188-2.406-1.5-.896-.333-1.906-.5-3.031-.5-1.375,0-2.594.26-3.656.781-1.063.5-1.959,1.302-2.688,2.406-.708,1.105-1.25,2.552-1.625,4.344s-.562,3.969-.562,6.531v8.844c0,2.042.114,3.844.343,5.406.25,1.563.615,2.917,1.094,4.063.479,1.125,1.063,2.052,1.75,2.781.688.729,1.479,1.271,2.375,1.625.917.333,1.927.5,3.031.5c1.417,0,2.657-.271,3.719-.812c1.063-.542,1.948-1.386,2.656-2.532.73-1.166,1.271-2.656,1.625-4.468.355-1.834.532-4.021.532-6.563Z" fill="#5a5a5a"/><path d="M668.324,196.703l.968.252-.968-.252Zm-7.406,9.594l.366.931.005-.003-.371-.928Zm-14.781-1.719l-.643.766.007.006.008.006.628-.778Zm-4.563-33.625l-.965-.263-.002.007.967.256Zm2.906-6.062l.773.635.004-.006-.777-.629Zm4.5-3.313l-.352-.936-.004.002.356.934Zm10.813-.344l-.284.959.008.003.008.002.268-.964Zm4,2.032l-.626.779.008.007.618-.786Zm2.969,3.687l-.885.466.004.008.004.007.877-.481Zm1.906,5.594l-.981.194.981-.194Zm-5.531,1.437l-.99.145.001.008.002.007.987-.16Zm-2.782-6.687l-.707.707.006.005.005.005.696-.717Zm-2.406-1.5l-.349.937.013.005.014.004.322-.946Zm-6.687.281l.426.905.007-.003.007-.004-.44-.898Zm-2.688,2.406l-.834-.551-.007.011.841.54Zm-1.844,25.125l-.989.146.002.012.987-.158Zm1.094,4.063l-.922.386.002.006.92-.392Zm4.125,4.406l-.367.93.012.005.013.005.342-.94Zm9.406-2.844l-.848-.53-.002.005.85.525Zm1.625-4.468l.982.191v-.002l-.982-.189Zm5.344-14.438v6.938h2v-6.938h-2Zm0,6.938c0,3.675-.329,6.731-.968,9.185l1.936.504c.695-2.671,1.032-5.907,1.032-9.689h-2Zm-.968,9.185c-.642,2.469-1.549,4.392-2.688,5.815l1.562,1.249c1.361-1.701,2.371-3.903,3.062-6.56l-1.936-.504Zm-2.688,5.815c-1.147,1.434-2.519,2.461-4.121,3.102l.742,1.857c1.94-.775,3.589-2.019,4.941-3.71l-1.562-1.249Zm-4.116,3.1c-1.615.635-3.467.962-5.572.962v2c2.312,0,4.419-.36,6.304-1.1l-.732-1.862Zm-5.572.962c-1.666,0-3.184-.208-4.56-.615l-.567,1.918c1.583.468,3.294.697,5.127.697v-2Zm-4.56-.615c-1.355-.401-2.571-1.038-3.655-1.913l-1.256,1.556c1.29,1.042,2.741,1.801,4.344,2.275l.567-1.918Zm-3.64-1.901c-1.055-.885-1.978-2.049-2.761-3.517l-1.765.941c.884,1.657,1.961,3.034,3.24,4.108l1.286-1.532Zm-2.761-3.517c-.776-1.455-1.384-3.251-1.807-5.409l-1.963.385c.452,2.3,1.114,4.295,2.005,5.965l1.765-.941Zm-1.807-5.409c-.422-2.15-.638-4.687-.638-7.62h-2c0,3.025.222,5.696.675,8.005l1.963-.385Zm-.638-7.62v-6.938h-2v6.938h2Zm0-6.938c0-3.676.33-6.709.967-9.119l-1.934-.512c-.695,2.632-1.033,5.849-1.033,9.631h2Zm.965-9.112c.662-2.427,1.578-4.308,2.714-5.69l-1.545-1.27c-1.364,1.659-2.385,3.819-3.099,6.434l1.93.526Zm2.718-5.696c1.146-1.413,2.504-2.407,4.079-3.007l-.712-1.869c-1.924.733-3.566,1.947-4.92,3.617l1.553,1.259Zm4.076-3.006c1.642-.618,3.499-.936,5.585-.936v-2c-2.289,0-4.39.349-6.29,1.064l.705,1.872Zm5.585-.936c1.689,0,3.217.209,4.591.615l.568-1.918c-1.584-.468-3.306-.697-5.159-.697v2Zm4.607.62c1.375.382,2.585.998,3.642,1.847l1.252-1.559c-1.276-1.026-2.733-1.764-4.358-2.215l-.536,1.927Zm3.65,1.854c1.039.816,1.944,1.928,2.702,3.367l1.769-.932c-.866-1.645-1.941-2.99-3.235-4.008l-1.236,1.573Zm2.71,3.382c.772,1.409,1.379,3.171,1.802,5.307l1.962-.388c-.452-2.281-1.116-4.248-2.01-5.88l-1.754.961Zm1.802,5.307c.422,2.128.637,4.654.637,7.587h2c0-3.025-.222-5.686-.675-7.975l-1.962.388Zm-3.175,15.462v-8.844h-2v8.844h2Zm0-8.844c0-2.08-.127-3.927-.388-5.535l-1.974.32c.239,1.476.362,3.212.362,5.215h2Zm-.386-5.52c-.237-1.62-.599-3.038-1.097-4.238l-1.847.767c.418,1.008.745,2.256.965,3.761l1.979-.29Zm-1.097-4.238c-.5-1.204-1.153-2.222-1.977-3.022l-1.393,1.435c.592.575,1.106,1.349,1.523,2.354l1.847-.767Zm-1.966-3.011c-.796-.795-1.729-1.378-2.791-1.74l-.645,1.893c.771.263,1.442.681,2.021,1.261l1.415-1.414Zm-2.765-1.73c-1.025-.382-2.157-.563-3.38-.563v2c1.027,0,1.916.152,2.682.437l.698-1.874Zm-3.38-.563c-1.503,0-2.876.285-4.096.883l.88,1.796c.905-.444,1.969-.679,3.216-.679v-2Zm-4.082.876c-1.249.588-2.279,1.523-3.096,2.76l1.669,1.102c.641-.97,1.402-1.64,2.279-2.052l-.852-1.81Zm-3.103,2.771c-.795,1.239-1.372,2.812-1.763,4.679l1.958.41c.359-1.716.866-3.039,1.488-4.009l-1.683-1.08Zm-1.763,4.679c-.393,1.88-.583,4.13-.583,6.736h2c0-2.518.184-4.622.541-6.326l-1.958-.41Zm-.583,6.736v8.844h2v-8.844h-2Zm0,8.844c0,2.077.116,3.929.354,5.551l1.979-.29c-.221-1.503-.333-3.255-.333-5.261h-2Zm.356,5.564c.259,1.621.642,3.055,1.159,4.291l1.845-.772c-.442-1.056-.788-2.33-1.029-3.835l-1.975.316Zm1.161,4.297c.516,1.21,1.158,2.243,1.943,3.075l1.455-1.372c-.591-.627-1.115-1.447-1.558-2.487l-1.84.784Zm1.943,3.075c.784.832,1.697,1.459,2.735,1.869l.735-1.86c-.754-.298-1.424-.754-2.015-1.381l-1.455,1.372Zm2.76,1.879c1.04.378,2.168.56,3.373.56v-2c-1.002,0-1.895-.151-2.689-.44l-.684,1.88Zm3.373.56c1.546,0,2.946-.296,4.173-.921l-.908-1.782c-.898.457-1.976.703-3.265.703v2Zm4.173-.921c1.246-.636,2.261-1.616,3.053-2.897l-1.701-1.051c-.625,1.01-1.381,1.718-2.26,2.166l.908,1.782Zm3.05-2.893c.812-1.299,1.389-2.913,1.759-4.807l-1.963-.383c-.338,1.731-.845,3.096-1.492,4.13l1.696,1.06Zm1.759-4.809c.37-1.913.55-4.168.55-6.752h-2c0,2.499-.175,4.62-.513,6.373l1.963.379Z" fill="#5a5a5a"/><path d="M642.105,191.848l21.312-17.234" fill="none" stroke="#5a5a5a" stroke-width="7"/><path d="M825.523,180.328v6.938c0,3.729-.333,6.875-1,9.437-.666,2.563-1.625,4.625-2.875,6.188-1.25,1.562-2.76,2.698-4.531,3.406-1.75.687-3.729,1.031-5.937,1.031-1.75,0-3.365-.219-4.844-.656-1.479-.438-2.813-1.136-4-2.094-1.167-.979-2.167-2.25-3-3.812-.833-1.563-1.469-3.459-1.906-5.688-.438-2.229-.657-4.833-.657-7.812v-6.938c0-3.729.334-6.854,1-9.375.688-2.521,1.657-4.542,2.907-6.062c1.25-1.542,2.75-2.646,4.5-3.313c1.771-.667,3.75-1,5.937-1c1.771,0,3.396.219,4.875.656c1.5.417,2.834,1.094,4,2.032c1.167.916,2.156,2.145,2.969,3.687.833,1.521,1.469,3.386,1.906,5.594.438,2.208.656,4.802.656,7.781Zm-5.812,7.875v-8.844c0-2.041-.125-3.833-.375-5.375-.229-1.562-.573-2.895-1.031-4-.459-1.104-1.042-2-1.75-2.687-.688-.688-1.49-1.188-2.407-1.5-.895-.333-1.906-.5-3.031-.5-1.375,0-2.594.26-3.656.781-1.063.5-1.958,1.302-2.688,2.406-.708,1.105-1.25,2.552-1.625,4.344s-.562,3.969-.562,6.531v8.844c0,2.042.115,3.844.344,5.406.25,1.563.614,2.917,1.093,4.063.48,1.125,1.063,2.052,1.75,2.781.688.729,1.48,1.271,2.375,1.625.917.333,1.928.5,3.032.5c1.416,0,2.656-.271,3.718-.812c1.063-.542,1.948-1.386,2.657-2.532.729-1.166,1.271-2.656,1.625-4.468.354-1.834.531-4.021.531-6.563Z" fill="#5a5a5a"/><path d="M824.523,196.703l.968.252-.968-.252Zm-7.406,9.594l.366.931.006-.003-.372-.928Zm-14.781-1.719l-.643.766.007.006.008.006.628-.778Zm-4.563-33.625l-.964-.263-.002.007.966.256Zm2.907-6.062l.772.635.004-.006-.776-.629Zm4.5-3.313l-.353-.936-.003.002.356.934Zm10.812-.344l-.283.959.008.003.008.002.267-.964Zm4,2.032l-.626.779.008.007.618-.786Zm2.969,3.687l-.885.466.004.008.004.007.877-.481Zm1.906,5.594l-.981.194.981-.194Zm-5.531,1.437l-.989.145.001.008.001.007.987-.16Zm-2.781-6.687l-.707.707.005.005.005.005.697-.717Zm-2.407-1.5l-.348.937.013.005.013.004.322-.946Zm-6.687.281l.426.905.007-.003.007-.004-.44-.898Zm-2.688,2.406l-.834-.551-.007.011.841.54Zm-1.843,25.125l-.99.146.002.012.988-.158Zm1.093,4.063l-.922.386.002.006.92-.392Zm4.125,4.406l-.367.93.013.005.013.005.341-.94Zm9.407-2.844l-.848-.53-.003.005.851.525Zm1.625-4.468l.981.191.001-.002-.982-.189Zm5.343-14.438v6.938h2v-6.938h-2Zm0,6.938c0,3.675-.329,6.731-.967,9.185l1.935.504c.695-2.671,1.032-5.907,1.032-9.689h-2Zm-.967,9.185c-.643,2.469-1.55,4.392-2.688,5.815l1.561,1.249c1.362-1.701,2.371-3.903,3.062-6.56l-1.935-.504Zm-2.688,5.815c-1.148,1.434-2.52,2.461-4.122,3.102l.743,1.857c1.939-.775,3.588-2.019,4.94-3.71l-1.561-1.249Zm-4.116,3.1c-1.616.635-3.468.962-5.572.962v2c2.312,0,4.418-.36,6.303-1.1l-.731-1.862Zm-5.572.962c-1.667,0-3.185-.208-4.56-.615l-.568,1.918c1.583.468,3.294.697,5.128.697v-2Zm-4.56-.615c-1.355-.401-2.572-1.038-3.656-1.913l-1.256,1.556c1.29,1.042,2.741,1.801,4.344,2.275l.568-1.918Zm-3.641-1.901c-1.054-.885-1.978-2.049-2.761-3.517l-1.764.941c.883,1.657,1.96,3.034,3.239,4.108l1.286-1.532Zm-2.761-3.517c-.776-1.455-1.383-3.251-1.807-5.409l-1.963.385c.452,2.3,1.115,4.295,2.006,5.965l1.764-.941Zm-1.807-5.409c-.422-2.15-.638-4.687-.638-7.62h-2c0,3.025.222,5.696.675,8.005l1.963-.385Zm-.638-7.62v-6.938h-2v6.938h2Zm0-6.938c0-3.676.33-6.709.967-9.119l-1.933-.512c-.696,2.632-1.034,5.849-1.034,9.631h2Zm.965-9.112c.662-2.427,1.578-4.308,2.714-5.69l-1.545-1.27c-1.364,1.659-2.385,3.819-3.098,6.434l1.929.526Zm2.718-5.696c1.146-1.413,2.504-2.407,4.08-3.007l-.712-1.869c-1.925.733-3.567,1.947-4.921,3.617l1.553,1.259Zm4.076-3.006c1.642-.618,3.5-.936,5.585-.936v-2c-2.289,0-4.39.349-6.29,1.064l.705,1.872Zm5.585-.936c1.689,0,3.217.209,4.592.615l.567-1.918c-1.584-.468-3.306-.697-5.159-.697v2Zm4.608.62c1.374.382,2.584.998,3.641,1.847l1.253-1.559c-1.277-1.026-2.734-1.764-4.359-2.215l-.535,1.927Zm3.649,1.854c1.039.816,1.944,1.928,2.702,3.367l1.77-.932c-.867-1.645-1.941-2.99-3.236-4.008l-1.236,1.573Zm2.71,3.382c.772,1.409,1.379,3.171,1.802,5.307l1.962-.388c-.452-2.281-1.116-4.248-2.01-5.88l-1.754.961Zm1.802,5.307c.422,2.128.637,4.654.637,7.587h2c0-3.025-.221-5.686-.675-7.975l-1.962.388Zm-3.175,15.462v-8.844h-2v8.844h2Zm0-8.844c0-2.08-.127-3.927-.388-5.535l-1.974.32c.239,1.476.362,3.212.362,5.215h2Zm-.386-5.52c-.237-1.62-.598-3.038-1.097-4.238l-1.847.767c.418,1.008.745,2.256.966,3.761l1.978-.29Zm-1.097-4.238c-.499-1.204-1.153-2.222-1.977-3.022l-1.393,1.435c.593.575,1.106,1.349,1.523,2.354l1.847-.767Zm-1.966-3.011c-.795-.795-1.729-1.378-2.791-1.74l-.645,1.893c.771.263,1.442.681,2.022,1.261l1.414-1.414Zm-2.765-1.73c-1.025-.382-2.156-.563-3.38-.563v2c1.027,0,1.916.152,2.683.437l.697-1.874Zm-3.38-.563c-1.503,0-2.876.285-4.096.883l.88,1.796c.905-.444,1.969-.679,3.216-.679v-2Zm-4.082.876c-1.249.588-2.279,1.523-3.096,2.76l1.669,1.102c.641-.97,1.403-1.64,2.279-2.052l-.852-1.81Zm-3.103,2.771c-.795,1.239-1.372,2.812-1.762,4.679l1.957.41c.359-1.716.866-3.039,1.488-4.009l-1.683-1.08Zm-1.762,4.679c-.394,1.88-.584,4.13-.584,6.736h2c0-2.518.185-4.622.541-6.326l-1.957-.41Zm-.584,6.736v8.844h2v-8.844h-2Zm0,8.844c0,2.077.116,3.929.354,5.551l1.979-.29c-.22-1.503-.333-3.255-.333-5.261h-2Zm.356,5.564c.26,1.621.642,3.055,1.159,4.291l1.845-.772c-.442-1.056-.788-2.33-1.029-3.835l-1.975.316Zm1.161,4.297c.516,1.21,1.159,2.243,1.943,3.075l1.455-1.372c-.591-.627-1.115-1.447-1.558-2.487l-1.84.784Zm1.943,3.075c.784.832,1.697,1.459,2.735,1.869l.735-1.86c-.754-.298-1.424-.754-2.015-1.381l-1.455,1.372Zm2.761,1.879c1.039.378,2.167.56,3.373.56v-2c-1.003,0-1.896-.151-2.69-.44l-.683,1.88Zm3.373.56c1.545,0,2.945-.296,4.173-.921l-.909-1.782c-.897.457-1.976.703-3.264.703v2Zm4.173-.921c1.246-.636,2.26-1.616,3.052-2.897l-1.701-1.051c-.625,1.01-1.381,1.718-2.26,2.166l.909,1.782Zm3.05-2.893c.812-1.299,1.388-2.913,1.758-4.807l-1.963-.383c-.338,1.731-.845,3.096-1.491,4.13l1.696,1.06Zm1.759-4.809c.369-1.913.549-4.168.549-6.752h-2c0,2.499-.175,4.62-.513,6.373l1.964.379Z" fill="#5a5a5a"/><path d="M798.305,191.848l21.311-17.234" fill="none" stroke="#5a5a5a" stroke-width="7"/><path d="M630.102,330.316v6.938c0,3.729-.334,6.875-1,9.437-.667,2.563-1.625,4.625-2.875,6.188-1.25,1.562-2.761,2.698-4.532,3.406-1.75.688-3.729,1.031-5.937,1.031-1.75,0-3.365-.218-4.844-.656-1.479-.437-2.812-1.135-4-2.094-1.167-.979-2.167-2.25-3-3.812-.833-1.563-1.469-3.458-1.906-5.688-.438-2.229-.656-4.833-.656-7.812v-6.938c0-3.729.333-6.854,1-9.375.687-2.52,1.656-4.541,2.906-6.062c1.25-1.542,2.75-2.646,4.5-3.313c1.771-.666,3.75-1,5.937-1c1.771,0,3.396.219,4.875.657c1.5.416,2.834,1.093,4,2.031c1.167.917,2.157,2.146,2.969,3.687.833,1.521,1.469,3.386,1.906,5.594.438,2.208.657,4.802.657,7.781Zm-5.813,7.875v-8.843c0-2.042-.125-3.834-.375-5.375-.229-1.563-.573-2.896-1.031-4-.459-1.105-1.042-2-1.75-2.688-.688-.687-1.49-1.187-2.406-1.5-.896-.333-1.907-.5-3.032-.5-1.375,0-2.593.261-3.656.781-1.062.5-1.958,1.302-2.687,2.407-.709,1.104-1.25,2.552-1.625,4.343-.375,1.792-.563,3.969-.563,6.532v8.843c0,2.042.115,3.844.344,5.407.25,1.562.614,2.916,1.094,4.062.479,1.125,1.062,2.052,1.75,2.781.687.73,1.479,1.271,2.375,1.625.916.334,1.927.5,3.031.5c1.416,0,2.656-.27,3.719-.812c1.062-.542,1.947-1.386,2.656-2.531.729-1.167,1.271-2.657,1.625-4.469.354-1.833.531-4.021.531-6.563Z" fill="#5a5a5a"/><path d="M602.883,341.837l21.311-17.234" fill="none" stroke="#5a5a5a" stroke-width="7"/></g><path d="M648.21,129.074h10.53v-30.3295l-10.8,3.3295-1.62-4.2295l15.39-7.47h4.5v38.6995h10.17v6.12h-28.17v-6.12Z" fill="#fff"/><path d="M641.21,129.074h10.53v-30.3295l-10.8,3.3295-1.62-4.2295l15.39-7.47h4.5v38.6995h10.17v6.12h-28.17v-6.12Z" fill="#ffae00"/><path d="M758.187,129.182h10.53v-30.3301l-10.8,3.3301-1.62-4.2301l15.39-7.47h4.5v38.7001h10.17v6.12h-28.17v-6.12Z" fill="#ffae00"/><path d="M757.98,202.068h10.53v-30.33l-10.8,3.33-1.62-4.23l15.39-7.47h4.5v38.7h10.17v6.12h-28.17v-6.12Z" fill="#ffae00"/><path d="M718.757,202.068h10.53v-30.33l-10.8,3.33-1.62-4.23l15.39-7.47h4.5v38.7h10.17v6.12h-28.17v-6.12Z" fill="#ffae00"/><path d="M600.195,202.068h10.53v-30.33l-10.8,3.33-1.62-4.23l15.39-7.47h4.5v38.7h10.17v6.12h-28.17v-6.12Z" fill="#ffae00"/><path d="M523.441,202.068h10.53v-30.33l-10.8,3.33-1.62-4.23l15.39-7.47h4.5v38.7h10.17v6.12h-28.17v-6.12Z" fill="#ffae00"/><path d="M601.988,277.278h10.53v-30.33l-10.8,3.33-1.62-4.23l15.39-7.47h4.5v38.7h10.17v6.12h-28.17v-6.12Z" fill="#ffae00"/><path d="M523.441,350.95h10.53v-30.33l-10.8,3.33-1.62-4.23l15.39-7.47h4.5v38.7h10.17v6.12h-28.17v-6.12Z" fill="#ffae00"/><path d="M563.558,351.058h10.53v-30.33l-10.8,3.33-1.62-4.23l15.39-7.47h4.5v38.7h10.17v6.12h-28.17v-6.12Z" fill="#ffae00"/><path d="M640.519,350.95h10.53v-30.33l-10.8,3.33-1.62-4.23l15.39-7.47h4.5v38.7h10.17v6.12h-28.17v-6.12Z" fill="#ffae00"/><path d="M679.535,350.95h10.53v-30.33l-10.8,3.33-1.62-4.23l15.39-7.47h4.5v38.7h10.17v6.12h-28.17v-6.12Z" fill="#ffae00"/><path d="M562.871,425.053h10.53v-30.33l-10.8,3.33-1.62-4.23l15.39-7.47h4.5v38.7h10.17v6.12h-28.17v-6.12Z" fill="#ffae00"/><path d="M601.886,425.053h10.53v-30.33l-10.8,3.33-1.62-4.23l15.39-7.47h4.5v38.7h10.17v6.12h-28.17v-6.12Z" fill="#ffae00"/><path d="M718.863,277.278h10.53v-30.33l-10.8,3.33-1.62-4.23l15.39-7.47h4.5v38.7h10.17v6.12h-28.17v-6.12Z" fill="#ffae00"/><path d="M551.762,108.44v6.938c0,3.729-.334,6.875-1,9.437-.667,2.563-1.625,4.625-2.875,6.188-1.25,1.562-2.761,2.698-4.532,3.406-1.75.688-3.729,1.031-5.937,1.031-1.75,0-3.365-.218-4.844-.656-1.479-.437-2.812-1.135-4-2.094-1.166-.979-2.166-2.25-3-3.812-.833-1.563-1.469-3.458-1.906-5.688-.438-2.229-.656-4.833-.656-7.812v-6.938c0-3.729.333-6.854,1-9.3746.687-2.5208,1.656-4.5416,2.906-6.0625c1.25-1.5416,2.75-2.6458,4.5-3.3125c1.771-.6666,3.75-1,5.937-1c1.771,0,3.396.2188,4.875.6563c1.5.4166,2.834,1.0937,4,2.0312c1.167.9167,2.157,2.1459,2.969,3.6875.834,1.5209,1.469,3.3854,1.906,5.5936.438,2.209.657,4.802.657,7.781Zm-5.813,7.875v-8.843c0-2.042-.125-3.834-.375-5.375-.229-1.563-.573-2.8962-1.031-4.0003s-1.042-2-1.75-2.6875c-.688-.6875-1.49-1.1875-2.406-1.5-.896-.3334-1.907-.5-3.032-.5-1.375,0-2.593.2604-3.656.7812-1.062.5-1.958,1.3021-2.687,2.4063-.709,1.1041-1.25,2.5521-1.625,4.3433-.375,1.792-.563,3.969-.563,6.532v8.843c0,2.042.115,3.844.344,5.407.25,1.562.615,2.916,1.094,4.062.479,1.125,1.062,2.052,1.75,2.781.687.73,1.479,1.271,2.375,1.625.916.334,1.927.5,3.031.5c1.417,0,2.656-.27,3.719-.812c1.062-.542,1.948-1.385,2.656-2.531.729-1.167,1.271-2.657,1.625-4.469.354-1.833.531-4.021.531-6.563Z" fill="#ffae00"/><path d="M524.543,119.96l21.311-17.234" fill="none" stroke="#ffae00" stroke-width="7"/><path d="M630.102,108.44v6.938c0,3.729-.334,6.875-1,9.437-.667,2.563-1.625,4.625-2.875,6.188-1.25,1.562-2.761,2.698-4.532,3.406-1.75.688-3.729,1.031-5.937,1.031-1.75,0-3.365-.218-4.844-.656-1.479-.437-2.812-1.135-4-2.094-1.167-.979-2.167-2.25-3-3.812-.833-1.563-1.469-3.458-1.906-5.688-.438-2.229-.656-4.833-.656-7.812v-6.938c0-3.729.333-6.854,1-9.3746.687-2.5208,1.656-4.5416,2.906-6.0625c1.25-1.5416,2.75-2.6458,4.5-3.3125c1.771-.6666,3.75-1,5.937-1c1.771,0,3.396.2188,4.875.6563c1.5.4166,2.834,1.0937,4,2.0312c1.167.9167,2.157,2.1459,2.969,3.6875.833,1.5209,1.469,3.3854,1.906,5.5936.438,2.209.657,4.802.657,7.781Zm-5.813,7.875v-8.843c0-2.042-.125-3.834-.375-5.375-.229-1.563-.573-2.8962-1.031-4.0003-.459-1.1042-1.042-2-1.75-2.6875-.688-.6875-1.49-1.1875-2.406-1.5-.896-.3334-1.907-.5-3.032-.5-1.375,0-2.593.2604-3.656.7812-1.062.5-1.958,1.3021-2.687,2.4063-.709,1.1041-1.25,2.5521-1.625,4.3433-.375,1.792-.563,3.969-.563,6.532v8.843c0,2.042.115,3.844.344,5.407.25,1.562.614,2.916,1.094,4.062.479,1.125,1.062,2.052,1.75,2.781.687.73,1.479,1.271,2.375,1.625.916.334,1.927.5,3.031.5c1.416,0,2.656-.27,3.719-.812c1.062-.542,1.947-1.385,2.656-2.531.729-1.167,1.271-2.657,1.625-4.469.354-1.833.531-4.021.531-6.563Z" fill="#ffae00"/><path d="M602.883,119.96l21.311-17.234" fill="none" stroke="#ffae00" stroke-width="7"/><path d="M707.441,108.44v6.938c0,3.729-.333,6.875-1,9.437-.666,2.563-1.625,4.625-2.875,6.188-1.25,1.562-2.76,2.698-4.531,3.406-1.75.688-3.729,1.031-5.937,1.031-1.75,0-3.365-.218-4.844-.656-1.479-.437-2.813-1.135-4-2.094-1.167-.979-2.167-2.25-3-3.812-.833-1.563-1.469-3.458-1.906-5.688-.438-2.229-.657-4.833-.657-7.812v-6.938c0-3.729.334-6.854,1-9.3746.688-2.5208,1.657-4.5416,2.907-6.0625c1.25-1.5416,2.75-2.6458,4.5-3.3125c1.77-.6666,3.75-1,5.937-1c1.771,0,3.396.2188,4.875.6563c1.5.4166,2.833,1.0937,4,2.0312c1.167.9167,2.156,2.1459,2.969,3.6875.833,1.5209,1.469,3.3854,1.906,5.5936.438,2.209.656,4.802.656,7.781Zm-5.812,7.875v-8.843c0-2.042-.125-3.834-.375-5.375-.229-1.563-.573-2.8962-1.031-4.0003-.459-1.1042-1.042-2-1.75-2.6875-.688-.6875-1.49-1.1875-2.407-1.5-.895-.3334-1.906-.5-3.031-.5-1.375,0-2.594.2604-3.656.7812-1.063.5-1.958,1.3021-2.688,2.4063-.708,1.1041-1.25,2.5521-1.625,4.3433-.375,1.792-.562,3.969-.562,6.532v8.843c0,2.042.114,3.844.344,5.407.25,1.562.614,2.916,1.093,4.062.48,1.125,1.063,2.052,1.75,2.781.688.73,1.48,1.271,2.375,1.625.917.334,1.927.5,3.032.5c1.416,0,2.656-.27,3.718-.812c1.063-.542,1.948-1.385,2.657-2.531.729-1.167,1.27-2.657,1.625-4.469.354-1.833.531-4.021.531-6.563Z" fill="#ffae00"/><path d="M680.223,119.96l21.311-17.234" fill="none" stroke="#ffae00" stroke-width="7"/><path d="M824.523,108.44v6.938c0,3.729-.333,6.875-1,9.437-.666,2.563-1.625,4.625-2.875,6.188-1.25,1.562-2.76,2.698-4.531,3.406-1.75.688-3.729,1.031-5.937,1.031-1.75,0-3.365-.218-4.844-.656-1.479-.437-2.813-1.135-4-2.094-1.167-.979-2.167-2.25-3-3.812-.833-1.563-1.469-3.458-1.906-5.688-.438-2.229-.657-4.833-.657-7.812v-6.938c0-3.729.334-6.854,1-9.3746.688-2.5208,1.657-4.5416,2.907-6.0625c1.25-1.5416,2.75-2.6458,4.5-3.3125c1.771-.6666,3.75-1,5.937-1c1.771,0,3.396.2188,4.875.6563c1.5.4166,2.834,1.0937,4,2.0312c1.167.9167,2.156,2.1459,2.969,3.6875.833,1.5209,1.469,3.3854,1.906,5.5936.438,2.209.656,4.802.656,7.781Zm-5.812,7.875v-8.843c0-2.042-.125-3.834-.375-5.375-.229-1.563-.573-2.8962-1.031-4.0003-.459-1.1042-1.042-2-1.75-2.6875-.688-.6875-1.49-1.1875-2.407-1.5-.895-.3334-1.906-.5-3.031-.5-1.375,0-2.594.2604-3.656.7812-1.063.5-1.958,1.3021-2.688,2.4063-.708,1.1041-1.25,2.5521-1.625,4.3433-.375,1.792-.562,3.969-.562,6.532v8.843c0,2.042.115,3.844.344,5.407.25,1.562.614,2.916,1.093,4.062.48,1.125,1.063,2.052,1.75,2.781.688.73,1.48,1.271,2.375,1.625.917.334,1.928.5,3.032.5c1.416,0,2.656-.27,3.718-.812c1.063-.542,1.948-1.385,2.657-2.531.729-1.167,1.271-2.657,1.625-4.469.354-1.833.531-4.021.531-6.563Z" fill="#ffae00"/><path d="M797.305,119.96l21.311-17.234" fill="none" stroke="#ffae00" stroke-width="7"/><path d="M590.879,181.328v6.938c0,3.729-.333,6.875-1,9.437-.667,2.563-1.625,4.625-2.875,6.188-1.25,1.562-2.761,2.698-4.531,3.406-1.75.687-3.73,1.031-5.938,1.031-1.75,0-3.364-.219-4.844-.656-1.479-.438-2.812-1.136-4-2.094-1.166-.979-2.166-2.25-3-3.812-.833-1.563-1.468-3.459-1.906-5.688-.437-2.229-.656-4.833-.656-7.812v-6.938c0-3.729.333-6.854,1-9.375.687-2.521,1.656-4.542,2.906-6.062c1.25-1.542,2.75-2.646,4.5-3.313c1.771-.667,3.75-1,5.938-1c1.77,0,3.395.219,4.875.656c1.5.417,2.833,1.094,4,2.032c1.166.916,2.156,2.145,2.968,3.687.834,1.521,1.469,3.386,1.907,5.594.437,2.208.656,4.802.656,7.781Zm-5.813,7.875v-8.844c0-2.041-.125-3.833-.375-5.375-.229-1.562-.573-2.895-1.031-4-.458-1.104-1.042-2-1.75-2.687-.687-.688-1.489-1.188-2.406-1.5-.896-.333-1.906-.5-3.031-.5-1.375,0-2.594.26-3.657.781-1.062.5-1.958,1.302-2.687,2.406-.708,1.105-1.25,2.552-1.625,4.344s-.563,3.969-.563,6.531v8.844c0,2.042.115,3.844.344,5.406.25,1.563.615,2.917,1.094,4.063.479,1.125,1.062,2.052,1.75,2.781.687.729,1.479,1.271,2.375,1.625.917.333,1.927.5,3.031.5c1.417,0,2.656-.271,3.719-.812c1.062-.542,1.948-1.386,2.656-2.532.729-1.166,1.271-2.656,1.625-4.468.354-1.834.531-4.021.531-6.563Z" fill="#ffae00"/><path d="M563.66,192.848l21.311-17.234" fill="none" stroke="#ffae00" stroke-width="7"/><path d="M707.648,181.328v6.938c0,3.729-.333,6.875-1,9.437-.666,2.563-1.625,4.625-2.875,6.188-1.25,1.562-2.76,2.698-4.531,3.406-1.75.687-3.729,1.031-5.937,1.031-1.75,0-3.365-.219-4.844-.656-1.479-.438-2.813-1.136-4-2.094-1.167-.979-2.167-2.25-3-3.812-.833-1.563-1.469-3.459-1.906-5.688-.438-2.229-.657-4.833-.657-7.812v-6.938c0-3.729.334-6.854,1-9.375.688-2.521,1.657-4.542,2.907-6.062c1.25-1.542,2.75-2.646,4.5-3.313c1.771-.667,3.75-1,5.937-1c1.771,0,3.396.219,4.875.656c1.5.417,2.834,1.094,4,2.032c1.167.916,2.156,2.145,2.969,3.687.833,1.521,1.469,3.386,1.906,5.594.438,2.208.656,4.802.656,7.781Zm-5.812,7.875v-8.844c0-2.041-.125-3.833-.375-5.375-.229-1.562-.573-2.895-1.031-4-.459-1.104-1.042-2-1.75-2.687-.688-.688-1.49-1.188-2.407-1.5-.895-.333-1.906-.5-3.031-.5-1.375,0-2.594.26-3.656.781-1.063.5-1.958,1.302-2.688,2.406-.708,1.105-1.25,2.552-1.625,4.344s-.562,3.969-.562,6.531v8.844c0,2.042.115,3.844.344,5.406.25,1.563.614,2.917,1.093,4.063.48,1.125,1.063,2.052,1.75,2.781.688.729,1.48,1.271,2.375,1.625.917.333,1.928.5,3.032.5c1.416,0,2.656-.271,3.718-.812c1.063-.542,1.948-1.386,2.657-2.532.729-1.166,1.271-2.656,1.625-4.468.354-1.834.531-4.021.531-6.563Z" fill="#ffae00"/><path d="M680.43,192.848l21.311-17.234" fill="none" stroke="#ffae00" stroke-width="7"/><path d="M551.762,256.106v6.938c0,3.729-.334,6.875-1,9.437-.667,2.563-1.625,4.625-2.875,6.188-1.25,1.562-2.761,2.698-4.532,3.406-1.75.688-3.729,1.031-5.937,1.031-1.75,0-3.365-.218-4.844-.656-1.479-.437-2.812-1.135-4-2.094-1.166-.979-2.166-2.25-3-3.812-.833-1.563-1.469-3.458-1.906-5.688-.438-2.229-.656-4.833-.656-7.812v-6.938c0-3.729.333-6.854,1-9.375.687-2.52,1.656-4.541,2.906-6.062c1.25-1.542,2.75-2.646,4.5-3.313c1.771-.666,3.75-1,5.937-1c1.771,0,3.396.219,4.875.657c1.5.416,2.834,1.093,4,2.031c1.167.917,2.157,2.146,2.969,3.687.834,1.521,1.469,3.386,1.906,5.594.438,2.209.657,4.802.657,7.781Zm-5.813,7.875v-8.843c0-2.042-.125-3.834-.375-5.375-.229-1.563-.573-2.896-1.031-4s-1.042-2-1.75-2.688c-.688-.687-1.49-1.187-2.406-1.5-.896-.333-1.907-.5-3.032-.5-1.375,0-2.593.261-3.656.781-1.062.5-1.958,1.303-2.687,2.407-.709,1.104-1.25,2.552-1.625,4.343-.375,1.792-.563,3.969-.563,6.532v8.843c0,2.042.115,3.844.344,5.407.25,1.562.615,2.916,1.094,4.062.479,1.125,1.062,2.052,1.75,2.781.687.73,1.479,1.271,2.375,1.625.916.334,1.927.5,3.031.5c1.417,0,2.656-.27,3.719-.812c1.062-.542,1.948-1.385,2.656-2.531.729-1.167,1.271-2.657,1.625-4.469.354-1.833.531-4.021.531-6.563Z" fill="#ffae00"/><path d="M524.543,267.626l21.311-17.234" fill="none" stroke="#ffae00" stroke-width="7"/><path d="M668.738,256.106v6.938c0,3.729-.333,6.875-1,9.437-.666,2.563-1.625,4.625-2.875,6.188-1.25,1.562-2.76,2.698-4.531,3.406-1.75.688-3.729,1.031-5.937,1.031-1.75,0-3.365-.218-4.844-.656-1.479-.437-2.813-1.135-4-2.094-1.167-.979-2.167-2.25-3-3.812-.834-1.563-1.469-3.458-1.906-5.688-.438-2.229-.657-4.833-.657-7.812v-6.938c0-3.729.334-6.854,1-9.375.688-2.52,1.657-4.541,2.907-6.062c1.25-1.542,2.75-2.646,4.5-3.313c1.77-.666,3.75-1,5.937-1c1.771,0,3.396.219,4.875.657c1.5.416,2.833,1.093,4,2.031c1.167.917,2.156,2.146,2.969,3.687.833,1.521,1.469,3.386,1.906,5.594.438,2.209.656,4.802.656,7.781Zm-5.812,7.875v-8.843c0-2.042-.125-3.834-.375-5.375-.229-1.563-.573-2.896-1.031-4-.459-1.104-1.042-2-1.75-2.688-.688-.687-1.49-1.187-2.407-1.5-.896-.333-1.906-.5-3.031-.5-1.375,0-2.594.261-3.656.781-1.063.5-1.959,1.303-2.688,2.407-.708,1.104-1.25,2.552-1.625,4.343-.375,1.792-.562,3.969-.562,6.532v8.843c0,2.042.114,3.844.344,5.407.25,1.562.614,2.916,1.093,4.062.479,1.125,1.063,2.052,1.75,2.781.688.73,1.479,1.271,2.375,1.625.917.334,1.927.5,3.032.5c1.416,0,2.656-.27,3.718-.812c1.063-.542,1.948-1.385,2.657-2.531.729-1.167,1.27-2.657,1.625-4.469.354-1.833.531-4.021.531-6.563Z" fill="#ffae00"/><path d="M641.52,267.626l21.311-17.234" fill="none" stroke="#ffae00" stroke-width="7"/><path d="M786.195,256.106v6.938c0,3.729-.333,6.875-1,9.437-.666,2.563-1.625,4.625-2.875,6.188-1.25,1.562-2.76,2.698-4.531,3.406-1.75.688-3.729,1.031-5.937,1.031-1.75,0-3.365-.218-4.844-.656-1.479-.437-2.813-1.135-4-2.094-1.167-.979-2.167-2.25-3-3.812-.834-1.563-1.469-3.458-1.906-5.688-.438-2.229-.657-4.833-.657-7.812v-6.938c0-3.729.334-6.854,1-9.375.688-2.52,1.657-4.541,2.907-6.062c1.25-1.542,2.75-2.646,4.5-3.313c1.77-.666,3.75-1,5.937-1c1.771,0,3.396.219,4.875.657c1.5.416,2.833,1.093,4,2.031c1.167.917,2.156,2.146,2.969,3.687.833,1.521,1.469,3.386,1.906,5.594.438,2.209.656,4.802.656,7.781Zm-5.812,7.875v-8.843c0-2.042-.125-3.834-.375-5.375-.229-1.563-.573-2.896-1.031-4-.459-1.104-1.042-2-1.75-2.688-.688-.687-1.49-1.187-2.407-1.5-.896-.333-1.906-.5-3.031-.5-1.375,0-2.594.261-3.656.781-1.063.5-1.959,1.303-2.688,2.407-.708,1.104-1.25,2.552-1.625,4.343-.375,1.792-.562,3.969-.562,6.532v8.843c0,2.042.114,3.844.344,5.407.25,1.562.614,2.916,1.093,4.062.479,1.125,1.063,2.052,1.75,2.781.688.73,1.479,1.271,2.375,1.625.917.334,1.927.5,3.032.5c1.416,0,2.656-.27,3.718-.812c1.063-.542,1.948-1.385,2.657-2.531.729-1.167,1.27-2.657,1.625-4.469.354-1.833.531-4.021.531-6.563Z" fill="#ffae00"/><path d="M758.977,267.626l21.311-17.234" fill="none" stroke="#ffae00" stroke-width="7"/><path d="M669.43,404.205v6.938c0,3.729-.334,6.875-1,9.437-.667,2.563-1.625,4.625-2.875,6.188-1.25,1.562-2.761,2.697-4.532,3.406-1.75.687-3.729,1.031-5.937,1.031-1.75,0-3.365-.219-4.844-.656-1.479-.438-2.812-1.136-4-2.094-1.166-.979-2.166-2.25-3-3.812-.833-1.563-1.469-3.459-1.906-5.688-.438-2.229-.656-4.833-.656-7.812v-6.938c0-3.729.333-6.854,1-9.375.687-2.521,1.656-4.542,2.906-6.062c1.25-1.542,2.75-2.646,4.5-3.313c1.771-.667,3.75-1,5.937-1c1.771,0,3.396.219,4.875.656c1.5.417,2.834,1.094,4,2.032c1.167.916,2.157,2.145,2.969,3.687.834,1.521,1.469,3.385,1.906,5.594.438,2.208.657,4.802.657,7.781Zm-5.813,7.875v-8.844c0-2.041-.125-3.833-.375-5.375-.229-1.562-.573-2.896-1.031-4s-1.042-2-1.75-2.687c-.688-.688-1.49-1.188-2.406-1.5-.896-.334-1.907-.5-3.032-.5-1.375,0-2.593.26-3.656.781-1.062.5-1.958,1.302-2.687,2.406-.709,1.104-1.25,2.552-1.625,4.344s-.563,3.969-.563,6.531v8.844c0,2.042.115,3.844.344,5.406.25,1.563.615,2.917,1.094,4.063.479,1.125,1.062,2.052,1.75,2.781.687.729,1.479,1.271,2.375,1.625.916.333,1.927.5,3.031.5c1.417,0,2.656-.271,3.719-.812c1.062-.542,1.948-1.386,2.656-2.532.729-1.166,1.271-2.656,1.625-4.468.354-1.834.531-4.021.531-6.563Z" fill="#ffae00"/><path d="M642.211,415.725l21.311-17.234" fill="none" stroke="#ffae00" stroke-width="7"/><path d="M707.648,404.205v6.938c0,3.729-.333,6.875-1,9.437-.666,2.563-1.625,4.625-2.875,6.188-1.25,1.562-2.76,2.697-4.531,3.406-1.75.687-3.729,1.031-5.937,1.031-1.75,0-3.365-.219-4.844-.656-1.479-.438-2.813-1.136-4-2.094-1.167-.979-2.167-2.25-3-3.812-.833-1.563-1.469-3.459-1.906-5.688-.438-2.229-.657-4.833-.657-7.812v-6.938c0-3.729.334-6.854,1-9.375.688-2.521,1.657-4.542,2.907-6.062c1.25-1.542,2.75-2.646,4.5-3.313c1.771-.667,3.75-1,5.937-1c1.771,0,3.396.219,4.875.656c1.5.417,2.834,1.094,4,2.032c1.167.916,2.156,2.145,2.969,3.687.833,1.521,1.469,3.385,1.906,5.594.438,2.208.656,4.802.656,7.781Zm-5.812,7.875v-8.844c0-2.041-.125-3.833-.375-5.375-.229-1.562-.573-2.896-1.031-4-.459-1.104-1.042-2-1.75-2.687-.688-.688-1.49-1.188-2.407-1.5-.895-.334-1.906-.5-3.031-.5-1.375,0-2.594.26-3.656.781-1.063.5-1.958,1.302-2.688,2.406-.708,1.104-1.25,2.552-1.625,4.344s-.562,3.969-.562,6.531v8.844c0,2.042.115,3.844.344,5.406.25,1.563.614,2.917,1.093,4.063.48,1.125,1.063,2.052,1.75,2.781.688.729,1.48,1.271,2.375,1.625.917.333,1.928.5,3.032.5c1.416,0,2.656-.271,3.718-.812c1.063-.542,1.948-1.386,2.657-2.532.729-1.166,1.271-2.656,1.625-4.468.354-1.834.531-4.021.531-6.563Z" fill="#ffae00"/><path d="M680.43,415.725l21.311-17.234" fill="none" stroke="#ffae00" stroke-width="7"/><path d="M757.134,389.848c-2.19-2.198-1.048-1.578-6.331-2.997-2.397-.644-4.504-1.883-6.409-3.367l-11.435,28.125c-1.106,2.723.96,5.681,3.889,5.57l13.28-.508l9.133,9.679c2.017,2.134,5.555,1.469,6.662-1.254l13.118-32.268c-2.732,1.528-5.764,2.423-8.899,2.423-4.915,0-9.532-1.919-13.008-5.403Zm72.001,21.761l-11.434-28.125c-1.906,1.486-4.013,2.723-6.41,3.367-5.31,1.426-4.146.804-6.331,2.997-3.475,3.484-8.095,5.403-13.01,5.403-3.135,0-6.167-.898-8.899-2.423l13.118,32.268c1.107,2.723,4.648,3.388,6.662,1.254l9.136-9.679l13.279.508c2.929.111,4.996-2.849,3.889-5.57Zm-30.193-27.483c3.851-3.932,4.292-3.593,9.776-5.092c3.501-.959,6.238-3.752,7.176-7.328c1.885-7.18,1.396-6.313,6.54-11.567c2.563-2.617,3.564-6.432,2.626-10.007-1.883-7.176-1.885-6.174,0-13.357.938-3.576-.063-7.391-2.626-10.008-5.144-5.254-4.655-4.389-6.54-11.567-.938-3.575-3.675-6.369-7.176-7.327-7.027-1.924-6.18-1.421-11.329-6.678-2.563-2.617-6.301-3.641-9.801-2.682-7.025,1.921-6.044,1.924-13.081,0-3.501-.959-7.238.063-9.802,2.682-5.144,5.254-4.297,4.754-11.326,6.678-3.501.958-6.238,3.752-7.175,7.327-1.883,7.178-1.397,6.313-6.541,11.567-2.563,2.617-3.566,6.432-2.626,10.008c1.883,7.17,1.885,6.169,0,13.354-.937,3.575.063,7.391,2.626,10.01c5.144,5.254,4.655,4.387,6.541,11.567.937,3.576,3.674,6.369,7.175,7.328c5.641,1.542,6.061,1.299,9.774,5.092c3.334,3.406,8.529,4.015,12.536,1.471c1.603-1.02,3.461-1.562,5.36-1.562c1.898,0,3.757.542,5.359,1.562c4.005,2.544,9.199,1.935,12.534-1.471ZM757.27,342.65c0-13.408,10.646-24.277,23.777-24.277s23.777,10.869,23.777,24.277-10.646,24.278-23.777,24.278-23.777-10.87-23.777-24.278Z" fill="#212121"/></svg>