<svg width="55" height="65" viewBox="0 0 55 65" fill="none" xmlns="http://www.w3.org/2000/svg">
<path d="M53.5268 11.4722C49.0756 10.2962 44.7271 8.76818 40.5232 6.90278C36.3873 5.12675 32.3947 3.04011 28.5804 0.661111L27.5 0L26.4393 0.680556C22.625 3.05955 18.6324 5.1462 14.4964 6.92222C10.2856 8.78197 5.93047 10.3035 1.47321 11.4722L0 11.8417V28.0583C0 54.0944 26.5768 63.8361 26.8321 63.9333L27.5 64.1667L28.1679 63.9333C28.4429 63.9333 55 54.1139 55 28.0583V11.8417L53.5268 11.4722Z" fill="#A2AAB8"/>
<path d="M39.3312 18L24.6687 37.3312L16 28.6687L12 32.6688L25.3313 46L44 22L39.3312 18Z" fill="white"/>
</svg>
