<svg width="68" height="68" viewBox="0 0 68 68" fill="none" xmlns="http://www.w3.org/2000/svg">
<path d="M50.9987 22.666C53.253 22.666 55.415 23.5615 57.0091 25.1556C58.6032 26.7497 59.4987 28.9117 59.4987 31.166C59.4987 33.4204 58.6032 35.5824 57.0091 37.1764C55.415 38.7705 53.253 39.666 50.9987 39.666M28.332 22.666V53.8327C28.332 54.5841 28.0335 55.3048 27.5022 55.8362C26.9708 56.3675 26.2501 56.666 25.4987 56.666H22.6654C21.9139 56.666 21.1932 56.3675 20.6619 55.8362C20.1305 55.3048 19.832 54.5841 19.832 53.8327V39.666" stroke="#5A5A5A" stroke-width="3.5" stroke-linecap="round" stroke-linejoin="round"/>
<path d="M34 22.6668L46.818 11.9852C47.1905 11.675 47.6436 11.4773 48.1244 11.4154C48.6051 11.3535 49.0936 11.4299 49.5325 11.6357C49.9714 11.8415 50.3425 12.168 50.6024 12.5772C50.8623 12.9864 51.0002 13.4611 51 13.9458V48.3878C51.0002 48.8726 50.8623 49.3473 50.6024 49.7565C50.3425 50.1656 49.9714 50.4922 49.5325 50.698C49.0936 50.9038 48.6051 50.9802 48.1244 50.9183C47.6436 50.8564 47.1905 50.6587 46.818 50.3485L34 39.6668H11.3333C10.5819 39.6668 9.86122 39.3683 9.32986 38.837C8.79851 38.3056 8.5 37.585 8.5 36.8335V25.5002C8.5 24.7487 8.79851 24.0281 9.32986 23.4967C9.86122 22.9654 10.5819 22.6668 11.3333 22.6668H34Z" stroke="#5A5A5A" stroke-width="3.5" stroke-linecap="round" stroke-linejoin="round"/>
</svg>
