<svg width="70" height="70" viewBox="0 0 70 70" fill="none" xmlns="http://www.w3.org/2000/svg">
<path d="M26.25 43.75L35 35L43.75 43.75H26.25ZM43.75 29.1667L52.5 20.4167L61.25 29.1667H43.75ZM8.75 17.5L17.5 8.75L26.25 17.5H8.75ZM17.5 61.25V8.75V61.25Z" fill="black"/>
<path d="M52.5 61.25V20.4167M52.5 20.4167L43.75 29.1667H61.25L52.5 20.4167ZM35 35L26.25 43.75H43.75L35 35ZM35 35V61.25M8.75 61.25H61.25M17.5 8.75L8.75 17.5H26.25L17.5 8.75ZM17.5 8.75V61.25" stroke="black" stroke-width="3" stroke-linecap="round" stroke-linejoin="round"/>
</svg>
