<svg width="70" height="70" viewBox="0 0 70 70" fill="none" xmlns="http://www.w3.org/2000/svg">
<path d="M35 8.75H13.125C11.9647 8.75 10.8519 9.21094 10.0314 10.0314C9.21094 10.8519 8.75 11.9647 8.75 13.125V45.2083C8.75 46.3687 9.21094 47.4815 10.0314 48.3019C10.8519 49.1224 11.9647 49.5833 13.125 49.5833H56.875C58.0353 49.5833 59.1481 49.1224 59.9686 48.3019C60.7891 47.4815 61.25 46.3687 61.25 45.2083V37.9167M35 49.5833V61.25M20.4167 61.25H49.5833" stroke="black" stroke-width="4" stroke-linecap="round" stroke-linejoin="round"/>
<path d="M53.957 23.333C56.3733 23.333 58.332 21.3743 58.332 18.958C58.332 16.5418 56.3733 14.583 53.957 14.583C51.5408 14.583 49.582 16.5418 49.582 18.958C49.582 21.3743 51.5408 23.333 53.957 23.333Z" stroke="black" stroke-width="4"/>
<path d="M57.7464 21.1458L62.798 24.0625M53.9576 29.1667V23.3333V29.1667ZM53.9576 14.5833V8.75V14.5833ZM45.1172 24.0625L50.1689 21.1458L45.1172 24.0625ZM57.7464 16.7708L62.798 13.8542L57.7464 16.7708ZM45.1172 13.8542L50.1689 16.7708L45.1172 13.8542Z" stroke="black" stroke-width="4" stroke-linecap="round" stroke-linejoin="round"/>
</svg>
