<svg width="60" height="60" viewBox="0 0 60 60" fill="none" xmlns="http://www.w3.org/2000/svg">
<path d="M52.5 50H50V12.5C50 11.837 49.7366 11.2011 49.2678 10.7322C48.7989 10.2634 48.163 10 47.5 10C46.837 10 46.2011 10.2634 45.7322 10.7322C45.2634 11.2011 45 11.837 45 12.5V50H40V22.5C40 21.837 39.7366 21.2011 39.2678 20.7322C38.7989 20.2634 38.163 20 37.5 20C36.837 20 36.2011 20.2634 35.7322 20.7322C35.2634 21.2011 35 21.837 35 22.5V50H30V32.5C30 31.837 29.7366 31.2011 29.2678 30.7322C28.7989 30.2634 28.163 30 27.5 30C26.837 30 26.2011 30.2634 25.7322 30.7322C25.2634 31.2011 25 31.837 25 32.5V50H20V42.5C20 41.837 19.7366 41.2011 19.2678 40.7322C18.7989 40.2634 18.163 40 17.5 40C16.837 40 16.2011 40.2634 15.7322 40.7322C15.2634 41.2011 15 41.837 15 42.5V50H10V7.5C10 6.83696 9.73661 6.20107 9.26777 5.73223C8.79893 5.26339 8.16304 5 7.5 5C6.83696 5 6.20107 5.26339 5.73223 5.73223C5.26339 6.20107 5 6.83696 5 7.5V52.5C5 53.163 5.26339 53.7989 5.73223 54.2678C6.20107 54.7366 6.83696 55 7.5 55H52.5C53.163 55 53.7989 54.7366 54.2678 54.2678C54.7366 53.7989 55 53.163 55 52.5C55 51.837 54.7366 51.2011 54.2678 50.7322C53.7989 50.2634 53.163 50 52.5 50Z" fill="black"/>
<path d="M42.884 0.877909C42.7369 0.531915 42.4555 0.256965 42.1013 0.113278C41.927 0.0407222 41.7398 0.00223723 41.5504 0H34.3025C33.9181 0 33.5494 0.149184 33.2775 0.414732C33.0057 0.68028 32.8529 1.04044 32.8529 1.41598C32.8529 1.79152 33.0057 2.15168 33.2775 2.41723C33.5494 2.68278 33.9181 2.83196 34.3025 2.83196H38.0569L29.9538 10.7473L25.1847 6.07456C25.0499 5.94185 24.8896 5.83651 24.7129 5.76462C24.5363 5.69273 24.3468 5.65572 24.1555 5.65572C23.9641 5.65572 23.7746 5.69273 23.598 5.76462C23.4213 5.83651 23.261 5.94185 23.1263 6.07456L14.4288 14.5705C14.2929 14.7021 14.1851 14.8587 14.1115 15.0313C14.0379 15.2038 14 15.3889 14 15.5758C14 15.7627 14.0379 15.9478 14.1115 16.1204C14.1851 16.2929 14.2929 16.4495 14.4288 16.5812C14.5635 16.7139 14.7239 16.8192 14.9005 16.8911C15.0772 16.963 15.2666 17 15.458 17C15.6493 17 15.8388 16.963 16.0155 16.8911C16.1921 16.8192 16.3524 16.7139 16.4872 16.5812L24.1555 9.07645L28.9246 13.7492C29.0593 13.8819 29.2197 13.9872 29.3963 14.0591C29.573 14.131 29.7624 14.168 29.9538 14.168C30.1451 14.168 30.3346 14.131 30.5113 14.0591C30.6879 13.9872 30.8482 13.8819 30.983 13.7492L40.1008 4.8285V8.4959C40.1008 8.87144 40.2536 9.2316 40.5254 9.49715C40.7973 9.76269 41.166 9.91188 41.5504 9.91188C41.9349 9.91188 42.3036 9.76269 42.5754 9.49715C42.8473 9.2316 43 8.87144 43 8.4959V1.41598C42.9977 1.23095 42.9583 1.04814 42.884 0.877909Z" fill="black"/>
</svg>
