<svg width="63" height="63" viewBox="0 0 63 63" fill="none" xmlns="http://www.w3.org/2000/svg">
<path d="M7.78597 24.856C7.45397 24.859 7.12708 24.7741 6.83851 24.6099C6.62685 24.4909 6.44104 24.3309 6.29196 24.1392C6.14287 23.9476 6.03351 23.7281 5.97026 23.4937C5.90702 23.2593 5.89116 23.0146 5.92362 22.774C5.95607 22.5334 6.03619 22.3016 6.15929 22.0923C8.53164 18.1327 15.7496 8.89062 31.4996 8.89062C38.325 8.89062 44.3112 10.6834 49.2835 14.2173C53.3761 17.1175 55.6697 20.4004 56.7623 21.9816C56.9009 22.1809 56.9982 22.4059 57.0485 22.6434C57.0988 22.8808 57.1011 23.126 57.0553 23.3644C57.0094 23.6027 56.9163 23.8295 56.7815 24.0314C56.6466 24.2332 56.4728 24.4061 56.2701 24.5397C55.856 24.8135 55.3515 24.9152 54.8636 24.8233C54.3757 24.7315 53.9428 24.4532 53.6566 24.0475C51.6793 21.2039 45.65 12.5513 31.4996 12.5513C17.6876 12.5513 11.4429 20.5136 9.40896 23.9282C9.24553 24.2133 9.00894 24.4496 8.72362 24.6128C8.4383 24.7759 8.1146 24.8598 7.78597 24.856Z" fill="black"/>
<path d="M39.4353 61.0314C39.2782 61.0333 39.1216 61.0155 38.9689 60.9785C27.544 58.1484 23.278 46.7272 23.1045 46.2522L23.0774 46.1476C22.9839 45.8179 20.6916 37.9859 24.2107 33.3987C25.8238 31.307 28.2774 30.234 31.5172 30.234C34.5294 30.234 36.7024 31.1704 38.1962 33.1084C39.4267 34.6907 39.9189 36.6423 40.3951 38.5224C41.3954 42.4378 42.1177 44.4939 46.2755 44.7055C48.1015 44.7978 49.3012 43.7298 49.9816 42.8204C51.8212 40.3411 52.1411 36.299 50.7544 32.7306C48.9726 28.125 42.6493 19.4415 31.5 19.4415C26.7405 19.4415 22.3675 20.971 18.8606 23.8454C15.9579 26.2263 13.6582 29.588 12.5508 33.0431C10.4971 39.476 13.1906 49.588 13.2165 49.6803C13.2793 49.9157 13.2945 50.1612 13.261 50.4025C13.2274 50.6438 13.146 50.8759 13.0213 51.0852C12.8966 51.2945 12.7313 51.4767 12.5351 51.6211C12.3389 51.7655 12.1158 51.8691 11.8789 51.9259C11.4004 52.0532 10.891 51.9879 10.4599 51.7441C10.0289 51.5003 9.71053 51.0974 9.57304 50.6216C9.44999 50.1602 6.57315 39.3751 8.9455 31.9406C11.5295 23.8848 19.5042 15.7637 31.5037 15.7637C37.0494 15.7637 42.2887 17.6487 46.6618 21.2085C50.0481 23.9771 52.8142 27.6955 54.2612 31.4128C56.1008 36.1587 55.6073 41.4854 53.0074 44.9652C51.2749 47.2858 48.8078 48.4991 46.0749 48.3674C38.9554 48.0106 37.6757 43.0407 36.743 39.4157C35.7832 35.6973 35.1692 33.9045 31.5037 33.9045C29.4906 33.9045 28.0768 34.4582 27.197 35.605C25.9973 37.1738 25.9038 39.6262 26.0367 41.4054C26.1239 42.645 26.3342 43.8729 26.6642 45.071C26.9571 45.8093 30.7703 55.1608 39.9029 57.4237C40.1389 57.4796 40.3615 57.5818 40.5577 57.7245C40.7539 57.8672 40.9197 58.0474 41.0457 58.2548C41.1716 58.4621 41.2551 58.6924 41.2912 58.9323C41.3274 59.1721 41.3156 59.4168 41.2564 59.652C41.1449 60.0492 40.9066 60.3989 40.5778 60.648C40.249 60.897 39.8478 61.0317 39.4353 61.0314V61.0314Z" fill="black"/>
<path d="M24.7705 60.1871C24.5145 60.1876 24.2609 60.1366 24.025 60.037C23.7891 59.9375 23.5756 59.7914 23.3973 59.6076C18.8249 54.8087 16.2385 49.4427 15.2652 42.7329V42.6972C14.7188 38.2552 15.5186 31.9663 19.4377 27.6424C22.3305 24.4518 26.3972 22.8301 31.5037 22.8301C37.5428 22.8301 42.2887 25.638 45.248 30.9376C47.3952 34.7878 47.8209 38.6244 47.832 38.7819C47.8545 39.0247 47.8289 39.2696 47.7566 39.5025C47.6843 39.7355 47.5668 39.9518 47.4108 40.1393C47.2548 40.3267 47.0633 40.4816 46.8474 40.5949C46.6315 40.7083 46.3953 40.7779 46.1524 40.7998C45.6623 40.853 45.171 40.7114 44.7844 40.4054C44.3979 40.0994 44.1472 39.6538 44.0864 39.1646C43.7623 36.8625 43.0174 34.6398 41.8888 32.6074C39.5952 28.5604 36.1056 26.503 31.4901 26.503C27.5034 26.503 24.3842 27.7027 22.2382 30.0714C19.1448 33.4859 18.5468 38.7462 18.9713 42.226C19.8241 48.1593 22.1041 52.8794 26.1302 57.0974C26.2982 57.2722 26.4294 57.479 26.5159 57.7055C26.6024 57.9321 26.6425 58.1737 26.6338 58.416C26.6251 58.6583 26.5677 58.8964 26.4651 59.1161C26.3626 59.3358 26.2169 59.5327 26.0367 59.6949C25.6897 60.0094 25.2388 60.1847 24.7705 60.1871V60.1871Z" fill="black"/>
<path d="M45.8351 54.9011C41.8361 54.9011 38.4363 53.7936 35.7158 51.5923C30.25 47.1885 29.6372 40.0161 29.6102 39.7134C29.5717 39.2165 29.7321 38.7247 30.0562 38.3462C30.3803 37.9676 30.8415 37.7333 31.3384 37.6948C31.8352 37.6563 32.327 37.8167 32.7056 38.1408C33.0841 38.4649 33.3184 38.9261 33.357 39.423C33.3705 39.5288 33.9168 45.3957 38.1299 48.7746C40.6229 50.7655 43.955 51.5554 48.0611 51.094C48.5518 51.0345 49.0461 51.1716 49.436 51.4755C49.8259 51.7794 50.0797 52.2253 50.1418 52.7157C50.1686 52.958 50.147 53.2032 50.0781 53.437C50.0092 53.6708 49.8945 53.8886 49.7405 54.0776C49.5866 54.2666 49.3965 54.423 49.1815 54.5378C48.9665 54.6525 48.7307 54.7233 48.488 54.746C47.6075 54.8488 46.7217 54.9005 45.8351 54.9011V54.9011ZM48.995 6.00346C47.4347 4.98832 41.9026 1.96875 31.5002 1.96875C20.581 1.96875 15.0353 5.30455 13.8085 6.15234C13.7275 6.20208 13.6516 6.25978 13.5821 6.32461C13.5748 6.33171 13.5652 6.33605 13.555 6.33691C13.3591 6.50796 13.2019 6.71879 13.0939 6.95537C12.9859 7.19195 12.9296 7.44883 12.9287 7.70889C12.9321 7.95267 12.9835 8.19338 13.0801 8.41725C13.1766 8.64111 13.3164 8.84372 13.4914 9.01347C13.6664 9.18321 13.8732 9.31675 14.0999 9.40644C14.3266 9.49613 14.5688 9.5402 14.8126 9.53613C15.2033 9.53587 15.5846 9.41607 15.9052 9.19283C15.9581 9.15346 20.7311 5.64662 31.5039 5.64662C42.2766 5.64662 47.0754 9.14115 47.1271 9.16699C47.4547 9.40993 47.8526 9.53951 48.2604 9.53613C48.5044 9.53987 48.7467 9.4954 48.9734 9.40525C49.2001 9.31511 49.4069 9.18108 49.5817 9.01085C49.7565 8.84061 49.8959 8.63753 49.992 8.41326C50.0882 8.18899 50.1391 7.94795 50.1418 7.70396C50.1419 7.3385 50.0328 6.98134 49.8284 6.67834C49.6241 6.37534 49.3338 6.14032 48.995 6.00346V6.00346Z" fill="black"/>
</svg>
