<svg width="72" height="72" viewBox="0 0 72 72" fill="none" xmlns="http://www.w3.org/2000/svg">
<path d="M36 54C48 54 51 42 51 42H21C21 42 24 54 36 54Z" fill="black"/>
<path d="M36 6C19.458 6 6 19.458 6 36C6 52.542 19.458 66 36 66C52.542 66 66 52.542 66 36C66 19.458 52.542 6 36 6ZM36 60C22.767 60 12 49.233 12 36C12 22.767 22.767 12 36 12C49.233 12 60 22.767 60 36C60 49.233 49.233 60 36 60Z" fill="black"/>
<path d="M39 36L45 36.036C45.036 34.65 45.582 33 48 33C50.418 33 50.964 34.65 51 36H57C57 32.382 54.603 27 48 27C41.397 27 39 32.382 39 36ZM24 33C26.418 33 26.964 34.65 27 36H33C33 32.382 30.603 27 24 27C17.397 27 15 32.382 15 36L21 36.036C21.036 34.65 21.582 33 24 33Z" fill="black"/>
</svg>
