<svg width="70" height="70" viewBox="0 0 70 70" fill="none" xmlns="http://www.w3.org/2000/svg">
<path fill-rule="evenodd" clip-rule="evenodd" d="M13.5085 8.75C12.9573 8.75 12.4658 9.13208 12.2763 9.70667L8.91042 19.931C8.80414 20.2544 8.74999 20.5926 8.75 20.9329V25.0002C8.75 27.3 10.4285 29.1667 12.4994 29.1667C14.5702 29.1667 16.2502 27.3 16.2502 25.0002C16.2502 27.3015 17.9288 29.1667 19.9996 29.1667C22.0704 29.1667 23.7504 27.3 23.7504 25.0002C23.7504 27.3015 25.429 29.1667 27.4998 29.1667C29.5706 29.1667 31.2477 27.3029 31.2506 25.0031C31.2506 27.3029 32.9292 29.1667 35 29.1667C37.0708 29.1667 38.7494 27.3 38.7494 25.0002C38.7494 27.3015 40.4294 29.1667 42.5002 29.1667C44.571 29.1667 46.2481 27.3029 46.2496 25.0031C46.251 27.3029 47.9296 29.1667 50.0004 29.1667C52.0713 29.1667 53.7498 27.3 53.7498 25.0002C53.7498 27.3015 55.4283 29.1667 57.5006 29.1667C59.5715 29.1667 61.25 27.3 61.25 25.0002V20.9329C61.25 20.5926 61.1959 20.2544 61.0896 19.931L57.7238 9.70813C57.5342 9.13208 57.0427 8.75 56.4915 8.75H13.5085Z" fill="black"/>
<path fill-rule="evenodd" clip-rule="evenodd" d="M14.582 30.9601V42.2913H10.9362C10.7428 42.2913 10.5573 42.3682 10.4206 42.5049C10.2839 42.6417 10.207 42.8271 10.207 43.0205V44.4788C10.207 44.6722 10.2839 44.8577 10.4206 44.9944C10.5573 45.1312 10.7428 45.208 10.9362 45.208H59.0612C59.2546 45.208 59.44 45.1312 59.5768 44.9944C59.7135 44.8577 59.7904 44.6722 59.7904 44.4788V43.0205C59.7904 42.8271 59.7135 42.6417 59.5768 42.5049C59.44 42.3682 59.2546 42.2913 59.0612 42.2913H55.4154V30.9601C54.8049 30.7168 54.241 30.37 53.7485 29.9349C53.3704 30.2683 52.9502 30.5507 52.4987 30.7749V42.2913H17.4987V30.7749C17.0472 30.5507 16.627 30.2683 16.2489 29.9349C15.7589 30.3651 15.1989 30.7151 14.582 30.9601ZM52.4987 28.1061C52.6227 27.9822 52.7393 27.8495 52.8487 27.708H52.4987V28.1061ZM54.6483 27.708C54.8688 27.9937 55.1268 28.2482 55.4154 28.4649V27.708H54.6483ZM14.582 28.4649C14.8721 28.2499 15.1303 27.9951 15.3491 27.708H14.582V28.4649ZM17.1487 27.708H17.4987V28.1061C17.3734 27.9812 17.2565 27.8482 17.1487 27.708ZM12.3945 48.1247C12.2011 48.1247 12.0157 48.2015 11.8789 48.3382C11.7422 48.475 11.6654 48.6605 11.6654 48.8538V59.7913C11.6654 60.1781 11.819 60.549 12.0925 60.8225C12.366 61.096 12.7369 61.2497 13.1237 61.2497H56.8737C57.2605 61.2497 57.6314 61.096 57.9049 60.8225C58.1784 60.549 58.332 60.1781 58.332 59.7913V48.8538C58.332 48.6605 58.2552 48.475 58.1185 48.3382C57.9817 48.2015 57.7962 48.1247 57.6029 48.1247H12.3945Z" fill="black"/>
<path d="M25.5221 37.917H21.1471C20.7444 37.917 20.418 38.2435 20.418 38.6462V41.5628C20.418 41.9655 20.7444 42.292 21.1471 42.292H25.5221C25.9248 42.292 26.2513 41.9655 26.2513 41.5628V38.6462C26.2513 38.2435 25.9248 37.917 25.5221 37.917Z" fill="black"/>
<path d="M28.4362 39.375H24.0612C23.6585 39.375 23.332 39.7015 23.332 40.1042V41.5625C23.332 41.9652 23.6585 42.2917 24.0612 42.2917H28.4362C28.8389 42.2917 29.1654 41.9652 29.1654 41.5625V40.1042C29.1654 39.7015 28.8389 39.375 28.4362 39.375Z" fill="black"/>
<path d="M32.8125 42.292C34.0206 42.292 35 41.3126 35 40.1045C35 38.8964 34.0206 37.917 32.8125 37.917C31.6044 37.917 30.625 38.8964 30.625 40.1045C30.625 41.3126 31.6044 42.292 32.8125 42.292Z" fill="black"/>
</svg>
