<svg width="80" height="80" viewBox="0 0 80 80" fill="none" xmlns="http://www.w3.org/2000/svg">
<g clip-path="url(#clip0_2517_19131)">
<path d="M74.6667 47.3332V36.3996L57.3333 30.6665L40 36.3996V47.3332C40 57.3332 45.3333 66.533 53.8665 71.4666L57.3333 73.4666L60.8001 71.4666C69.3333 66.533 74.6667 57.3332 74.6667 47.3332ZM59.4668 69.1997L57.3333 70.3996L55.1999 69.1997C47.4668 64.6665 42.6667 56.2668 42.6667 47.3332V38.2668L57.3333 33.3332L72 38.2668V47.3332C72 56.3996 67.1999 64.6665 59.4668 69.1997Z" fill="white"/>
<path d="M66.6654 44.9334C66.6654 54.2668 62.7988 61.0662 55.332 65.4666L56.6654 67.7329C65.0651 62.9334 69.332 55.1997 69.332 44.9334V42.6665H66.6654V44.9334Z" fill="white"/>
<path d="M4 61.3332H40V58.6665H4C3.19987 58.6665 2.66667 58.1333 2.66667 57.3332V55.9998H38.6667V53.3332H12V14.6665H68V30.6665H70.6667V11.9998H9.33333V53.3332H6.66667V10.6665C6.66667 9.86637 7.19987 9.33317 8 9.33317H72C72.8001 9.33317 73.3333 9.86637 73.3333 10.6665V31.9998H76V10.6665C76 8.39958 74.2669 6.6665 72 6.6665H8C5.73307 6.6665 4 8.39958 4 10.6665V53.3332H0V57.3332C0 59.6001 1.73307 61.3332 4 61.3332Z" fill="white"/>
<path d="M38.668 31.9997H36.0013V17.333H33.3346V31.9997H30.668V20.2666H28.0013V31.9997H25.3346V23.1995H22.668V31.9997H20.0013V25.9997H17.3346V31.9997H14.668V34.6663H38.668V31.9997Z" fill="white"/>
<path d="M14.668 37.333H25.3346V39.9997H14.668V37.333Z" fill="white"/>
<path d="M14.668 42.6665H32.0013V45.3332H14.668V42.6665Z" fill="white"/>
<path d="M14.668 48H32.0013V50.6667H14.668V48Z" fill="white"/>
<path d="M34.668 42.6665H37.3346V45.3332H34.668V42.6665Z" fill="white"/>
<path d="M34.668 48H37.3346V50.6667H34.668V48Z" fill="white"/>
<path d="M62.6654 29.333H65.332C65.332 22.6663 59.9987 17.333 53.332 17.333C46.6654 17.333 41.332 22.6663 41.332 29.333H43.9987C43.9987 24.1331 48.1322 19.9997 53.332 19.9997C58.5319 19.9997 62.6654 24.1331 62.6654 29.333Z" fill="white"/>
<path d="M52.4102 27.0368L56.3698 23.0771L58.2552 24.9626L54.2956 28.9229L52.4102 27.0368Z" fill="white"/>
<path d="M76.0013 55.9997H77.3346V57.333C77.3346 58.1331 76.8014 58.6663 76.0013 58.6663H74.668V61.333H76.0013C78.2682 61.333 80.0013 59.5999 80.0013 57.333V53.333H76.0013V55.9997Z" fill="white"/>
</g>
<defs>
<clipPath id="clip0_2517_19131">
<rect width="80" height="80" fill="white"/>
</clipPath>
</defs>
</svg>
