<svg width="80" height="80" viewBox="0 0 80 80" fill="none" xmlns="http://www.w3.org/2000/svg">
<g clip-path="url(#clip0_2517_19092)">
<path d="M70.7393 64.0002H9.40869C6.46741 64.0002 4.07422 61.6064 4.07422 58.6652V52.0001C4.07422 51.2628 4.67114 50.6665 5.40723 50.6665H74.7407C75.4768 50.6665 76.0737 51.2628 76.0737 52.0001V58.6652C76.0737 61.6064 73.6805 64.0002 70.7393 64.0002ZM6.74084 53.3331V58.6652C6.74084 60.1373 7.93774 61.3336 9.40869 61.3336H70.7393C72.2102 61.3336 73.4071 60.1373 73.4071 58.6652V53.3331H6.74084Z" fill="white"/>
<path d="M44.0718 58.6666H36.0713C35.3358 58.6666 34.7383 58.0709 34.7383 57.3336C34.7383 56.5963 35.3358 56 36.0713 56H44.0718C44.8073 56 45.4048 56.5963 45.4048 57.3336C45.4048 58.0709 44.8073 58.6666 44.0718 58.6666Z" fill="white"/>
<path d="M57.4053 79.9999H22.7385C20.5333 79.9999 18.7383 78.2054 18.7383 75.9996C18.7383 73.7944 20.5333 72 22.7385 72H57.4053C59.6105 72 61.4055 73.7944 61.4055 75.9996C61.4055 78.2054 59.6105 79.9999 57.4053 79.9999ZM22.7385 74.6666C22.0024 74.6666 21.4055 75.2642 21.4055 75.9996C21.4055 76.7357 22.0024 77.3333 22.7385 77.3333H57.4053C58.1414 77.3333 58.7383 76.7357 58.7383 75.9996C58.7383 75.2642 58.1414 74.6666 57.4053 74.6666H22.7385Z" fill="white"/>
<path d="M54.7407 74.6666H25.4072C24.6711 74.6666 24.0742 74.0703 24.0742 73.333C24.0742 72.5957 24.6711 72 25.4072 72C29.8311 72 32.0741 68.8597 32.0741 62.6665C32.0741 61.9292 32.671 61.3335 33.4071 61.3335H46.7408C47.4769 61.3335 48.0739 61.9292 48.0739 62.6665C48.0739 68.8597 50.3169 72 54.7407 72C55.4768 72 56.0737 72.5957 56.0737 73.333C56.0737 74.0703 55.4768 74.6666 54.7407 74.6666ZM31.902 72H48.2472C46.6047 70.1824 45.6379 67.473 45.4445 64.0001H34.7047C34.51 67.473 33.5432 70.1824 31.902 72Z" fill="white"/>
<path d="M8.07251 21.3337C4.39636 21.3337 1.40625 18.343 1.40625 14.6669V9.33362C1.40625 8.59631 2.00317 8 2.73926 8H13.4058C14.1418 8 14.7394 8.59631 14.7394 9.33362V14.6669C14.7394 18.343 11.7487 21.3337 8.07251 21.3337ZM4.07288 10.6666V14.6669C4.07288 16.8721 5.86731 18.6665 8.07251 18.6665C10.2777 18.6665 12.0728 16.8721 12.0728 14.6669V10.6666H4.07288Z" fill="white"/>
<path d="M18.7405 21.3337C15.0649 21.3337 12.0742 18.343 12.0742 14.6669V9.33362C12.0742 8.59631 12.6711 8 13.4072 8H24.0743C24.8098 8 25.4073 8.59631 25.4073 9.33362V14.6669C25.4073 18.343 22.4166 21.3337 18.7405 21.3337ZM14.7408 10.6666V14.6669C14.7408 16.8721 16.5353 18.6665 18.7405 18.6665C20.9463 18.6665 22.7407 16.8721 22.7407 14.6669V10.6666H14.7408Z" fill="white"/>
<path d="M29.4052 21.3337C25.729 21.3337 22.7383 18.343 22.7383 14.6669V9.33362C22.7383 8.59631 23.3358 8 24.0719 8H34.7384C35.4745 8 36.0714 8.59631 36.0714 9.33362V14.6669C36.0714 18.343 33.0807 21.3337 29.4052 21.3337ZM25.4049 10.6666V14.6669C25.4049 16.8721 27.1993 18.6665 29.4052 18.6665C31.6104 18.6665 33.4048 16.8721 33.4048 14.6669V10.6666H25.4049Z" fill="white"/>
<path d="M61.4052 21.3337C57.729 21.3337 54.7383 18.343 54.7383 14.6669V9.33362C54.7383 8.59631 55.3358 8 56.0713 8H66.7384C67.4745 8 68.0714 8.59631 68.0714 9.33362V14.6669C68.0714 18.343 65.0807 21.3337 61.4052 21.3337ZM57.4049 10.6666V14.6669C57.4049 16.8721 59.1993 18.6665 61.4052 18.6665C63.6104 18.6665 65.4048 16.8721 65.4048 14.6669V10.6666H57.4049Z" fill="white"/>
<path d="M72.0731 21.3337C68.397 21.3337 65.4062 18.343 65.4062 14.6669V9.33362C65.4062 8.59631 66.0038 8 66.7399 8H77.4064C78.1425 8 78.7394 8.59631 78.7394 9.33362V14.6669C78.7394 18.343 75.7493 21.3337 72.0731 21.3337ZM68.0729 10.6666V14.6669C68.0729 16.8721 69.8679 18.6665 72.0731 18.6665C74.2783 18.6665 76.0728 16.8721 76.0728 14.6669V10.6666H68.0729Z" fill="white"/>
<path d="M13.4063 10.6665H2.73979C2.16667 10.6665 1.65703 10.3003 1.47453 9.75464C1.29326 9.21082 1.48125 8.61084 1.93962 8.2666L12.6067 0.266724C12.8374 0.0933838 13.1182 0 13.4063 0H20.5169C21.0424 0 21.5185 0.308228 21.7333 0.787964C21.9476 1.26526 21.8627 1.82678 21.513 2.21863L14.4024 10.2185C14.1503 10.5042 13.7878 10.6665 13.4063 10.6665ZM6.74003 7.99988H12.8075L17.5475 2.66663H13.8506L6.74003 7.99988Z" fill="white"/>
<path d="M24.0742 10.6665H13.4071C12.8822 10.6665 12.4061 10.3589 12.1912 9.87854C11.9764 9.40125 12.0618 8.83972 12.411 8.44788L19.5222 0.447998C19.7755 0.162964 20.138 0 20.5177 0H27.6289C28.0805 0 28.5004 0.228272 28.7458 0.606689C28.9924 0.985107 29.0296 1.4624 28.8459 1.87439L25.29 9.87488C25.0782 10.3571 24.6003 10.6665 24.0742 10.6665ZM16.3764 7.99988H23.2075L25.5781 2.66663H21.1164L16.3764 7.99988Z" fill="white"/>
<path d="M34.7418 10.6665H24.0753C23.623 10.6665 23.2031 10.4388 22.9577 10.0598C22.7111 9.6814 22.6739 9.2041 22.8576 8.79211L26.4135 0.792236C26.6259 0.309448 27.1044 0 27.6312 0H34.7418C35.4778 0 36.0748 0.595703 36.0748 1.33362V9.3335C36.0748 10.0708 35.4778 10.6665 34.7418 10.6665ZM26.1273 7.99988H33.4081V2.66663H28.4979L26.1273 7.99988Z" fill="white"/>
<path d="M50.7405 21.3337C47.0643 21.3337 44.0742 18.343 44.0742 14.6669V9.33362C44.0742 8.59631 44.6711 8 45.4072 8H56.0737C56.8098 8 57.4073 8.59631 57.4073 9.33362V14.6669C57.4073 18.343 54.4166 21.3337 50.7405 21.3337ZM46.7408 10.6666V14.6669C46.7408 16.8721 48.5353 18.6665 50.7405 18.6665C52.9457 18.6665 54.7407 16.8721 54.7407 14.6669V10.6666H46.7408Z" fill="white"/>
<path d="M40.0731 21.3337C36.397 21.3337 33.4062 18.343 33.4062 14.6669V9.33362C33.4062 8.59631 34.0038 8 34.7399 8H45.4064C46.1425 8 46.74 8.59631 46.74 9.33362V14.6669C46.74 18.343 43.7493 21.3337 40.0731 21.3337ZM36.0729 10.6666V14.6669C36.0729 16.8721 37.8679 18.6665 40.0731 18.6665C42.2783 18.6665 44.0734 16.8721 44.0734 14.6669V10.6666H36.0729Z" fill="white"/>
<path d="M56.0737 10.6665H45.4072C44.6711 10.6665 44.0742 10.0708 44.0742 9.3335V1.33362C44.0742 0.595703 44.6711 0 45.4072 0H52.5178C53.0446 0 53.5219 0.309448 53.7367 0.792236L57.2926 8.79211C57.4751 9.20532 57.4379 9.6814 57.1925 10.0598C56.9459 10.4388 56.526 10.6665 56.0737 10.6665ZM46.7408 7.99988H54.0217L51.6511 2.66663H46.7408V7.99988Z" fill="white"/>
<path d="M66.7399 10.6665H56.0728C55.546 10.6665 55.0688 10.3571 54.8545 9.87488L51.2986 1.87439C51.1155 1.46118 51.1527 0.985107 51.3981 0.606689C51.6453 0.228272 52.0664 0 52.5169 0H59.6275C60.0089 0 60.3715 0.162964 60.6236 0.447998L67.7342 8.44788C68.0839 8.83972 68.1687 9.40125 67.9545 9.87854C67.7409 10.3589 67.2648 10.6665 66.7399 10.6665ZM56.9395 7.99988H63.7705L59.0305 2.66663H54.5689L56.9395 7.99988Z" fill="white"/>
<path d="M77.4071 10.6665H66.7406C66.3591 10.6665 65.9966 10.5042 65.7445 10.2185L58.6339 2.21863C58.2842 1.82678 58.1994 1.26526 58.4136 0.787964C58.6284 0.308228 59.1045 0 59.63 0H66.7406C67.0281 0 67.3095 0.0933838 67.5402 0.266724L78.2073 8.2666C78.6657 8.61084 78.8537 9.21082 78.6724 9.75464C78.4911 10.3003 77.9802 10.6665 77.4071 10.6665ZM67.3388 7.99988H73.4069L66.2963 2.66663H62.5988L67.3388 7.99988Z" fill="white"/>
<path d="M45.4064 10.6665H34.7399C34.0038 10.6665 33.4062 10.0708 33.4062 9.3335V1.33362C33.4062 0.595703 34.0038 0 34.7399 0H45.4064C46.1425 0 46.74 0.595703 46.74 1.33362V9.3335C46.74 10.0708 46.1425 10.6665 45.4064 10.6665ZM36.0729 7.99988H44.0734V2.66663H36.0729V7.99988Z" fill="white"/>
<path d="M32.0743 42.6669H21.4078C20.6718 42.6669 20.0742 42.0712 20.0742 41.3339V36C20.0742 35.2627 20.6718 34.667 21.4078 34.667H32.0743C32.8104 34.667 33.4073 35.2627 33.4073 36V41.3339C33.4073 42.0712 32.8104 42.6669 32.0743 42.6669ZM22.7408 40.0002H30.7407V37.3336H22.7408V40.0002Z" fill="white"/>
<path d="M29.4052 37.3334H24.0719C23.3358 37.3334 22.7383 36.7371 22.7383 35.9998V30.6665C22.7383 29.9292 23.3358 29.3335 24.0719 29.3335H29.4052C30.1412 29.3335 30.7382 29.9292 30.7382 30.6665V35.9998C30.7382 36.7371 30.1412 37.3334 29.4052 37.3334ZM25.4049 34.6667H28.0715V32.0001H25.4049V34.6667Z" fill="white"/>
<path d="M37.4049 47.9996H16.0713C15.3358 47.9996 14.7383 47.4039 14.7383 46.6666V25.333C14.7383 24.5957 15.3358 24 16.0713 24H37.4049C38.141 24 38.7379 24.5957 38.7379 25.333V46.6666C38.7379 47.4039 38.141 47.9996 37.4049 47.9996ZM17.4049 45.333H36.0713V26.6666H17.4049V45.333Z" fill="white"/>
<path d="M58.7378 42.6669H48.0713C47.3352 42.6669 46.7383 42.0712 46.7383 41.3339V36C46.7383 35.2627 47.3352 34.667 48.0713 34.667H58.7378C59.4739 34.667 60.0714 35.2627 60.0714 36V41.3339C60.0714 42.0712 59.4739 42.6669 58.7378 42.6669ZM49.4049 40.0002H57.4048V37.3336H49.4049V40.0002Z" fill="white"/>
<path d="M56.0725 37.3334H50.7393C50.0032 37.3334 49.4062 36.7371 49.4062 35.9998V30.6665C49.4062 29.9292 50.0032 29.3335 50.7393 29.3335H56.0725C56.8086 29.3335 57.4061 29.9292 57.4061 30.6665V35.9998C57.4061 36.7371 56.8086 37.3334 56.0725 37.3334ZM52.0729 34.6667H54.7395V32.0001H52.0729V34.6667Z" fill="white"/>
<path d="M64.0729 47.9996H42.7393C42.0032 47.9996 41.4062 47.4039 41.4062 46.6666V25.333C41.4062 24.5957 42.0032 24 42.7393 24H64.0729C64.8083 24 65.4059 24.5957 65.4059 25.333V46.6666C65.4059 47.4039 64.8083 47.9996 64.0729 47.9996ZM44.0729 45.333H62.7393V26.6666H44.0729V45.333Z" fill="white"/>
<path d="M74.7407 53.3334H5.40723C4.67114 53.3334 4.07422 52.7377 4.07422 52.0004V19.2605C4.07422 18.7832 4.32874 18.3431 4.74316 18.1045C5.1582 17.8658 5.66602 17.8671 6.078 18.1082C6.71521 18.4786 7.38599 18.6666 8.07385 18.6666C9.88599 18.6666 11.4698 17.4325 11.9288 15.6655C12.0808 15.079 12.6112 14.667 13.2191 14.667H13.5969C14.2048 14.667 14.7352 15.079 14.8872 15.6655C15.3444 17.4325 16.9288 18.6666 18.7404 18.6666C20.5525 18.6666 22.1364 17.4325 22.5953 15.6655C22.7473 15.079 23.2777 14.667 23.8862 14.667H24.2634C24.8713 14.667 25.4017 15.079 25.5537 15.6655C26.0115 17.4325 27.5953 18.6666 29.4075 18.6666C31.219 18.6666 32.8035 17.4325 33.2618 15.6655C33.4138 15.079 33.9448 14.667 34.5527 14.667H34.9299C35.5378 14.667 36.0688 15.079 36.2208 15.6655C36.678 17.4325 38.2618 18.6666 40.074 18.6666C41.8861 18.6666 43.47 17.4325 43.9283 15.6655C44.0803 15.079 44.6113 14.667 45.2192 14.667H45.5964C46.2043 14.667 46.7354 15.079 46.8873 15.6655C47.3445 17.4325 48.9283 18.6666 50.7405 18.6666C52.5526 18.6666 54.1365 17.4325 54.5955 15.6655C54.7474 15.079 55.2778 14.667 55.8857 14.667H56.2635C56.8715 14.667 57.4019 15.079 57.5538 15.6655C58.0116 17.4325 59.5955 18.6666 61.4076 18.6666C63.2191 18.6666 64.8036 17.4325 65.262 15.6655C65.4139 15.079 65.9443 14.667 66.5529 14.667H66.9301C67.538 14.667 68.0684 15.079 68.2203 15.6655C68.6781 17.4325 70.262 18.6666 72.0741 18.6666C72.762 18.6666 73.434 18.4786 74.0699 18.1082C74.4819 17.8671 74.9916 17.8658 75.4048 18.1045C75.818 18.3431 76.0737 18.7832 76.0737 19.2605V52.0004C76.0737 52.7377 75.4768 53.3334 74.7407 53.3334ZM6.74084 50.6667H73.4071V21.1947C72.9701 21.2869 72.5258 21.3339 72.0741 21.3339C69.9244 21.3339 67.967 20.2975 66.7408 18.6428C65.514 20.2975 63.5566 21.3339 61.4076 21.3339C59.2579 21.3339 57.3005 20.2975 56.0737 18.6428C54.8475 20.2975 52.8901 21.3339 50.7405 21.3339C48.5914 21.3339 46.634 20.2975 45.4072 18.6428C44.1804 20.2975 42.223 21.3339 40.074 21.3339C37.9249 21.3339 35.9675 20.2975 34.7407 18.6428C33.5139 20.2975 31.5565 21.3339 29.4075 21.3339C27.2578 21.3339 25.3004 20.2975 24.0742 18.6428C22.8474 20.2975 20.89 21.3339 18.7404 21.3339C16.5913 21.3339 14.6339 20.2975 13.4071 18.6428C12.1809 20.2975 10.2235 21.3339 8.07385 21.3339C7.62219 21.3339 7.17786 21.2869 6.74084 21.1947V50.6667Z" fill="white"/>
<path d="M69.4062 53.333H10.7393C10.0032 53.333 9.40625 52.7373 9.40625 52V19.2601C9.40625 18.7865 9.65833 18.3464 10.0685 18.1078C11.3234 17.3772 12.0729 16.0906 12.0729 14.6666C12.0729 13.9293 12.6698 13.333 13.4059 13.333C14.142 13.333 14.7395 13.9293 14.7395 14.6666C14.7395 16.8718 16.5339 18.6663 18.7391 18.6663C20.9449 18.6663 22.7394 16.8718 22.7394 14.6666C22.7394 13.9293 23.3369 13.333 24.073 13.333C24.8085 13.333 25.406 13.9293 25.406 14.6666C25.406 16.8718 27.2004 18.6663 29.4062 18.6663C31.6115 18.6663 33.4059 16.8718 33.4059 14.6666C33.4059 13.9293 34.0034 13.333 34.7395 13.333C35.4756 13.333 36.0725 13.9293 36.0725 14.6666C36.0725 16.8718 37.8676 18.6663 40.0728 18.6663C42.278 18.6663 44.073 16.8718 44.073 14.6666C44.073 13.9293 44.6699 13.333 45.406 13.333C46.1421 13.333 46.7396 13.9293 46.7396 14.6666C46.7396 16.8718 48.5341 18.6663 50.7393 18.6663C52.9445 18.6663 54.7395 16.8718 54.7395 14.6666C54.7395 13.9293 55.337 13.333 56.0725 13.333C56.8086 13.333 57.4061 13.9293 57.4061 14.6666C57.4061 16.8718 59.2006 18.6663 61.4064 18.6663C63.6116 18.6663 65.406 16.8718 65.406 14.6666C65.406 13.9293 66.0035 13.333 66.7396 13.333C67.4757 13.333 68.0726 13.9293 68.0726 14.6666C68.0726 16.0906 68.8221 17.3772 70.077 18.1078C70.4872 18.3477 70.7393 18.7865 70.7393 19.2601V52C70.7393 52.7373 70.1423 53.333 69.4062 53.333ZM12.0729 50.6664H68.0726V19.9718C67.5673 19.5903 67.1235 19.1442 66.75 18.6479C65.533 20.277 63.5902 21.3335 61.4064 21.3335C59.2274 21.3335 57.2902 20.2825 56.0725 18.6626C54.8555 20.2825 52.9182 21.3335 50.7393 21.3335C48.5609 21.3335 46.6237 20.2825 45.406 18.6626C44.189 20.2825 42.2517 21.3335 40.0728 21.3335C37.8938 21.3335 35.9565 20.2825 34.7395 18.6626C33.5219 20.2825 31.5846 21.3335 29.4062 21.3335C27.2273 21.3335 25.29 20.2825 24.073 18.6626C22.8553 20.2825 20.9181 21.3335 18.7391 21.3335C16.5553 21.3335 14.6125 20.277 13.3955 18.6479C13.022 19.1442 12.5782 19.5922 12.0729 19.9718V50.6664Z" fill="white"/>
</g>
<defs>
<clipPath id="clip0_2517_19092">
<rect width="80" height="80" fill="white"/>
</clipPath>
</defs>
</svg>
