<?xml version="1.0" encoding="UTF-8"?>
<svg id="_圖層_1" data-name="圖層_1" xmlns="http://www.w3.org/2000/svg" xmlns:xlink="http://www.w3.org/1999/xlink" version="1.1" viewBox="0 0 80 80">
  <!-- Generator: Adobe Illustrator 29.8.2, SVG Export Plug-In . SVG Version: 2.1.1 Build 3)  -->
  <defs>
    <style>
      .st0 {
        fill: url(#_未命名漸層_32);
      }

      .st1 {
        fill: url(#_未命名漸層_33);
      }

      .st2 {
        fill: url(#_未命名漸層_34);
      }

      .st3 {
        fill: url(#_未命名漸層_35);
      }

      .st4 {
        fill: url(#_未命名漸層_31);
      }

      .st5 {
        fill: url(#_未命名漸層_3);
      }
    </style>
    <linearGradient id="_未命名漸層_3" data-name="未命名漸層 3" x1="40.07" y1="56" x2="40.07" y2="58.67" gradientUnits="userSpaceOnUse">
      <stop offset="0" stop-color="#fecd00"/>
      <stop offset="1" stop-color="#df9f14"/>
    </linearGradient>
    <linearGradient id="_未命名漸層_31" data-name="未命名漸層 3" x1="40.07" y1="0" x2="40.07" y2="80" xlink:href="#_未命名漸層_3"/>
    <linearGradient id="_未命名漸層_32" data-name="未命名漸層 3" x1="26.74" y1="29.33" x2="26.74" y2="42.67" xlink:href="#_未命名漸層_3"/>
    <linearGradient id="_未命名漸層_33" data-name="未命名漸層 3" x1="26.74" y1="24" x2="26.74" y2="48" xlink:href="#_未命名漸層_3"/>
    <linearGradient id="_未命名漸層_34" data-name="未命名漸層 3" x1="53.4" y1="29.33" x2="53.4" y2="42.67" xlink:href="#_未命名漸層_3"/>
    <linearGradient id="_未命名漸層_35" data-name="未命名漸層 3" x1="53.41" y1="24" x2="53.41" y2="48" xlink:href="#_未命名漸層_3"/>
  </defs>
  <path class="st5" d="M44.07,56h-8c-.74,0-1.33.6-1.33,1.33s.6,1.33,1.33,1.33h8c.74,0,1.33-.6,1.33-1.33s-.6-1.33-1.33-1.33Z"/>
  <path class="st4" d="M78.64,8.86s-.04-.09-.06-.13c-.05-.1-.11-.19-.18-.27-.04-.04-.07-.08-.11-.12-.03-.03-.05-.06-.08-.08L67.54.27c-.23-.17-.51-.27-.8-.27h-7.11s0,0,0,0c0,0,0,0,0,0h-14.22s0,0,0,0,0,0,0,0h-17.78s0,0,0,0c0,0,0,0,0,0h-7.11s0,0,0,0c0,0,0,0,0,0h-7.11c-.29,0-.57.09-.8.27L1.94,8.27s-.05.05-.08.08c-.04.04-.08.08-.12.12-.07.08-.13.17-.17.26-.02.05-.05.09-.07.14-.05.14-.09.29-.09.44,0,0,0,.01,0,.02v5.33c0,2.18,1.05,4.1,2.67,5.32v32.01h0v6.67c0,2.94,2.39,5.34,5.33,5.34h22.62c-.31,5.3-2.53,8-6.61,8h-2.68c-2.21,0-4,1.79-4,4s1.8,4,4,4h34.67c2.21,0,4-1.79,4-4s-1.8-4-4-4h-2.68c-4.09,0-6.3-2.7-6.61-8h22.62c2.94,0,5.33-2.39,5.33-5.34v-6.66h0V19.99c1.62-1.22,2.67-3.15,2.67-5.32v-5.32c0-.17-.04-.33-.09-.48ZM58.74,76c0,.74-.6,1.33-1.33,1.33H22.74c-.74,0-1.33-.6-1.33-1.33s.6-1.33,1.33-1.33h2.67s0,0,0,0h29.33s0,0,0,0h2.66c.74,0,1.33.6,1.33,1.33ZM31.9,72c1.64-1.82,2.61-4.53,2.8-8h10.74c.19,3.47,1.16,6.18,2.8,8h-16.34ZM76.07,14.67c0,1.46-.8,2.73-1.97,3.43,0,0-.02,0-.03.01-.26.15-.53.26-.8.35-.09.03-.17.06-.26.08-.09.02-.18.04-.27.06-.22.04-.44.07-.67.07-.25,0-.5-.03-.74-.07-.09-.02-.18-.05-.27-.07-.14-.04-.28-.08-.41-.13-.11-.04-.22-.09-.32-.14-.08-.04-.16-.08-.24-.13,0,0-.01-.01-.02-.01-.27-.16-.51-.34-.73-.54-.05-.04-.1-.08-.14-.13-.04-.04-.08-.09-.12-.14-.12-.13-.23-.27-.33-.41,0,0,0,0,0,0-.24-.36-.43-.77-.54-1.21,0-.02-.01-.03-.02-.04,0-.02-.02-.05-.02-.07-.01-.06-.02-.11-.03-.17-.04-.23-.07-.47-.07-.72v-4h8v4ZM12.07,50.67v-30.68c.5-.38.95-.83,1.33-1.33.03.04.06.07.09.11.09.11.18.22.28.33.06.07.12.14.19.21.11.12.23.23.35.33.05.05.11.1.16.15.18.15.37.29.56.42.04.03.09.05.13.08.16.1.32.2.48.28.07.04.15.07.23.11.14.07.28.13.43.19.09.03.17.06.26.09.14.05.29.1.44.14.09.02.18.05.26.07.16.04.33.07.49.09.06,0,.12.03.19.03.02,0,.04,0,.05,0,.24.03.48.04.72.04,0,0,.02,0,.03,0s.02,0,.03,0c.24,0,.48-.02.72-.04.02,0,.04,0,.05,0,.06,0,.11-.02.17-.03.17-.03.35-.05.51-.09.08-.02.16-.04.24-.06.16-.04.31-.09.47-.14.08-.03.16-.05.23-.09.16-.06.31-.13.46-.2.06-.03.13-.06.19-.09.19-.1.37-.2.55-.32.02-.01.05-.03.07-.04.2-.14.4-.28.58-.44.03-.02.06-.05.09-.08.15-.13.29-.26.43-.41.05-.05.1-.1.14-.16.11-.12.22-.25.32-.38.02-.03.05-.06.07-.09.02.03.05.06.07.08.1.13.21.26.33.39.05.05.09.1.14.15.14.14.28.28.43.41.03.03.06.05.09.08.19.16.38.3.58.44.02.02.05.03.07.04.17.11.35.22.54.32.06.03.13.06.19.09.15.07.3.14.46.2.08.03.16.06.24.09.15.05.31.1.46.14.08.02.16.04.25.06.17.04.34.07.51.09.06,0,.12.02.17.03.02,0,.03,0,.05,0,.24.03.49.04.74.04,0,0,0,0,.01,0,.01,0,.03,0,.04,0,.24,0,.47-.02.7-.04.02,0,.04,0,.06,0,.06,0,.12-.02.18-.03.17-.02.33-.05.49-.09.09-.02.18-.04.26-.07.15-.04.3-.09.44-.14.09-.03.17-.06.26-.09.14-.06.29-.12.43-.19.08-.04.15-.07.23-.11.16-.08.32-.18.47-.28.05-.03.1-.06.14-.09.19-.13.38-.27.56-.42.06-.05.11-.1.16-.15.12-.11.24-.22.35-.33.07-.07.13-.14.19-.21.09-.1.18-.21.27-.32.03-.04.07-.07.1-.11.03.03.06.07.08.1.09.12.19.24.3.35.06.06.11.12.17.18.12.13.25.25.39.37.04.04.08.08.13.12.18.15.37.29.57.43.04.03.08.05.12.07.16.1.32.2.49.29.07.04.14.07.22.1.14.07.29.13.44.19.08.03.17.06.25.09.15.05.3.1.45.14.09.02.17.05.26.07.16.04.33.07.5.09.06,0,.12.02.18.03.02,0,.03,0,.05,0,.24.03.48.04.73.04,0,0,.01,0,.02,0,.01,0,.02,0,.03,0,.24,0,.48-.02.71-.04.02,0,.04,0,.05,0,.06,0,.12-.02.17-.03.17-.03.34-.05.51-.09.09-.02.17-.04.25-.07.15-.04.3-.09.45-.14.08-.03.16-.06.24-.09.15-.06.3-.13.45-.2.07-.03.14-.06.21-.1.18-.09.35-.2.52-.3.03-.02.06-.04.09-.06.2-.13.39-.28.58-.43.04-.03.07-.07.11-.1.14-.12.28-.25.41-.39.05-.05.1-.11.15-.17.11-.12.21-.24.31-.37.02-.03.05-.06.08-.09.03.04.06.07.09.11.09.11.18.22.27.32.06.07.12.14.19.21.11.12.24.23.36.34.05.05.1.1.16.14.18.15.37.29.56.42.04.03.09.05.14.08.15.1.31.19.48.28.07.04.15.07.23.11.14.07.28.13.43.19.08.03.17.06.26.09.14.05.29.1.44.14.09.02.17.05.26.07.16.04.33.07.49.09.06,0,.12.03.18.03.02,0,.03,0,.05,0,.24.03.48.04.72.04,0,0,.02,0,.03,0s.02,0,.03,0c.24,0,.48-.02.72-.04.02,0,.04,0,.05,0,.06,0,.11-.02.17-.03.17-.03.34-.05.51-.09.08-.02.16-.04.25-.06.16-.04.31-.09.46-.14.08-.03.16-.06.23-.09.16-.06.31-.13.46-.2.06-.03.13-.06.19-.09.19-.1.37-.2.54-.32.02-.01.05-.03.07-.04.2-.14.4-.28.58-.44.03-.02.05-.05.08-.07.15-.13.3-.27.44-.41.05-.05.09-.1.14-.15.11-.13.23-.26.33-.39.02-.03.05-.05.07-.08.02.03.05.06.08.09.1.13.21.26.32.38.05.05.1.11.15.16.14.14.28.27.43.4.03.03.06.06.09.08.19.16.38.3.58.44.02.02.05.03.07.04.17.11.36.22.54.32.06.03.13.06.19.09.15.07.3.14.46.2.08.03.16.06.23.09.15.05.31.1.46.14.08.02.16.04.25.06.17.04.34.07.51.09.06,0,.11.02.17.03.02,0,.03,0,.05,0,.24.03.49.04.74.04,0,0,0,0,.01,0,.01,0,.03,0,.04,0,.24,0,.47-.02.7-.04.02,0,.04,0,.06,0,.06,0,.12-.02.18-.03.17-.02.33-.05.49-.09.03,0,.06,0,.09-.02.06-.01.11-.04.17-.05.15-.04.3-.09.44-.14.09-.03.17-.06.26-.09.15-.06.29-.12.43-.19.08-.04.15-.07.23-.11.17-.09.33-.19.49-.29.04-.03.08-.05.12-.08.19-.13.38-.27.56-.42.06-.05.11-.1.16-.15.12-.11.24-.22.35-.34.06-.07.12-.13.18-.2.1-.11.19-.22.28-.33.03-.04.06-.07.09-.11.38.5.83.95,1.33,1.33v30.68H12.07ZM65.4,14.67c0,.34-.06.67-.14.99,0,0,0,0,0,0-.16.64-.48,1.2-.89,1.66-.02.02-.04.05-.06.07-.1.11-.21.2-.32.29-.07.06-.15.13-.22.18-.1.07-.2.14-.31.2-.11.06-.21.12-.32.18-.1.05-.2.09-.3.13-.14.05-.29.1-.43.14-.08.02-.17.05-.25.06-.24.05-.49.07-.74.07s-.5-.03-.74-.07c-.09-.02-.18-.05-.27-.07-.14-.04-.28-.08-.41-.13-.11-.04-.22-.09-.32-.14-.1-.05-.19-.1-.29-.16-.12-.07-.23-.14-.34-.23-.06-.04-.11-.09-.17-.14-.62-.52-1.09-1.23-1.31-2.06,0-.02-.01-.03-.02-.04-.08-.31-.13-.62-.13-.95,0,0,0,0,0,0v-4h8v4ZM54.74,14.67c0,.34-.06.66-.14.97,0,0,0,.01,0,.02-.17.65-.49,1.22-.91,1.69-.01.01-.02.03-.04.04-.1.11-.22.21-.33.31-.07.06-.14.12-.21.17-.1.08-.21.14-.32.21-.1.06-.21.12-.32.17-.1.05-.2.09-.3.13-.14.05-.28.1-.43.13-.08.02-.17.05-.25.07-.24.05-.49.07-.74.07s-.5-.03-.74-.07c-.09-.02-.18-.05-.27-.07-.14-.04-.28-.08-.42-.13-.11-.04-.21-.09-.31-.14-.1-.05-.2-.11-.3-.16-.11-.07-.23-.14-.33-.22-.07-.05-.13-.1-.19-.16-.61-.52-1.08-1.22-1.3-2.05,0-.01-.01-.02-.02-.04-.08-.31-.13-.63-.13-.96v-4h8v4s0,0,0,0ZM44.07,14.66s0,0,0,0c0,.34-.06.66-.14.98,0,0,0,.01,0,.02-.17.65-.49,1.22-.92,1.69-.01.01-.02.03-.03.04-.1.11-.22.21-.33.31-.07.06-.14.12-.21.17-.1.08-.21.14-.32.21-.1.06-.21.12-.32.17-.1.05-.2.09-.3.13-.14.05-.28.1-.43.13-.08.02-.17.05-.25.07-.24.05-.49.07-.74.07s-.5-.03-.74-.07c-.09-.02-.18-.05-.27-.07-.14-.04-.28-.08-.41-.13-.11-.04-.22-.09-.32-.14-.1-.05-.2-.1-.29-.16-.12-.07-.23-.14-.34-.22-.06-.05-.12-.1-.18-.14-.62-.52-1.09-1.23-1.31-2.06,0-.02-.02-.03-.02-.05-.08-.31-.13-.62-.13-.95v-4h8v4ZM33.4,14.67c0,.34-.06.67-.14.99,0,0,0,0,0,0-.17.64-.48,1.2-.9,1.67-.02.02-.04.05-.06.07-.1.11-.21.2-.32.3-.07.06-.14.13-.22.18-.1.07-.2.14-.31.2-.1.06-.21.12-.32.18-.1.05-.2.09-.3.13-.14.05-.29.1-.43.13-.08.02-.17.05-.25.07-.24.05-.49.07-.74.07s-.5-.03-.74-.07c-.09-.02-.18-.05-.27-.07-.14-.04-.28-.08-.41-.13-.11-.04-.22-.09-.32-.14-.1-.05-.19-.1-.29-.16-.12-.07-.23-.14-.34-.23-.06-.04-.11-.09-.17-.14-.62-.52-1.09-1.23-1.31-2.06,0-.02-.01-.03-.02-.04-.08-.3-.13-.62-.13-.95,0,0,0,0,0,0v-4h8v4ZM22.74,14.67c0,.34-.06.66-.14.97,0,0,0,.01,0,.02-.17.65-.49,1.22-.92,1.69-.01.01-.02.03-.03.04-.1.11-.22.21-.34.31-.07.06-.14.12-.21.17-.1.08-.21.14-.32.21-.1.06-.21.12-.32.17-.1.05-.2.09-.3.13-.14.05-.28.1-.43.13-.08.02-.17.05-.25.07-.24.05-.49.07-.74.07s-.5-.03-.74-.07c-.09-.02-.18-.05-.27-.07-.14-.04-.28-.08-.42-.13-.11-.04-.21-.09-.32-.14-.1-.05-.2-.1-.3-.16-.11-.07-.23-.14-.33-.22-.07-.05-.13-.1-.19-.16-.62-.52-1.08-1.22-1.3-2.05,0-.01-.01-.02-.02-.04-.08-.31-.13-.63-.13-.96v-4h8v4s0,0,0,0ZM59.03,2.67l4.74,5.33h-6.83l-2.37-5.33h4.46ZM33.41,8h-7.28l2.37-5.33h4.91v5.33ZM66.3,2.67l7.11,5.33h-6.07l-4.74-5.33h3.7ZM46.74,2.67h4.91l2.37,5.33h-7.28V2.67ZM44.07,8h-8V2.67h8v5.33ZM23.21,8h-6.83l4.74-5.33h4.46l-2.37,5.33ZM13.85,2.67h3.7l-4.74,5.33h-6.07l7.11-5.33ZM4.07,10.67h8v4c0,.24-.03.48-.07.71-.01.06-.02.12-.03.17,0,.03-.02.06-.03.09,0,0,0,.01,0,.02-.11.43-.29.83-.53,1.19-.01.02-.02.04-.04.05-.09.13-.18.24-.28.36-.05.06-.1.12-.16.18-.02.02-.05.04-.07.07-.23.22-.49.42-.78.59,0,0-.01.01-.02.02-.08.05-.16.09-.25.13-.1.05-.2.09-.3.13-.14.05-.28.1-.43.13-.09.02-.17.05-.26.07-.24.05-.49.07-.74.07-.23,0-.45-.03-.67-.07-.09-.02-.19-.03-.28-.06-.08-.02-.15-.05-.23-.07-.28-.09-.55-.21-.82-.36-.01,0-.03,0-.04-.02-1.17-.7-1.97-1.97-1.97-3.43v-4ZM7.95,21.33s.08,0,.12,0c.01,0,.02,0,.03,0,.24,0,.48-.02.71-.04.07,0,.15-.02.22-.03.12-.02.25-.03.37-.06v29.47h-2.67v-29.47c.39.08.8.12,1.21.13ZM70.74,61.33H9.41c-1.47,0-2.67-1.2-2.67-2.67v-5.33h66.67v5.33c0,1.47-1.2,2.67-2.67,2.67ZM73.41,50.67h-2.67v-29.47c.13.03.25.04.38.06.07,0,.14.02.2.03.24.03.48.04.73.04,0,0,.01,0,.02,0,.07,0,.13,0,.2-.01.39-.01.77-.05,1.13-.12v29.47Z"/>
  <path class="st0" d="M21.41,42.67h10.67c.74,0,1.33-.6,1.33-1.33v-5.33c0-.74-.6-1.33-1.33-1.33h-1.34v-4c0-.74-.6-1.33-1.33-1.33h-5.33c-.74,0-1.33.6-1.33,1.33v4h-1.33c-.74,0-1.33.6-1.33,1.33v5.33c0,.74.6,1.33,1.33,1.33ZM30.74,40h-8v-2.67h1.33s0,0,0,0h5.33s0,0,0,0h1.33v2.67ZM25.4,32h2.67v2.67h-2.67v-2.67Z"/>
  <path class="st1" d="M37.4,24h-21.33c-.74,0-1.33.6-1.33,1.33v21.33c0,.74.6,1.33,1.33,1.33h21.33c.74,0,1.33-.6,1.33-1.33v-21.33c0-.74-.6-1.33-1.33-1.33ZM36.07,45.33h-18.67v-18.67h18.67v18.67Z"/>
  <path class="st2" d="M48.07,42.67h10.67c.74,0,1.33-.6,1.33-1.33v-5.33c0-.74-.6-1.33-1.33-1.33h-1.33v-4c0-.74-.6-1.33-1.33-1.33h-5.33c-.74,0-1.33.6-1.33,1.33v4h-1.33c-.74,0-1.33.6-1.33,1.33v5.33c0,.74.6,1.33,1.33,1.33ZM52.07,32h2.67v2.67h-2.67v-2.67ZM49.4,37.33h1.33s0,0,0,0h5.33s0,0,0,0h1.33v2.67h-8v-2.67Z"/>
  <path class="st3" d="M64.07,24h-21.33c-.74,0-1.33.6-1.33,1.33v21.33c0,.74.6,1.33,1.33,1.33h21.33c.74,0,1.33-.6,1.33-1.33v-21.33c0-.74-.6-1.33-1.33-1.33ZM62.74,45.33h-18.67v-18.67h18.67v18.67Z"/>
</svg>