<svg width="81" height="80" viewBox="0 0 81 80" fill="none" xmlns="http://www.w3.org/2000/svg">
<g clip-path="url(#clip0_2517_19012)">
<path d="M27.5529 43.0229C27.5529 42.3754 27.0286 41.8511 26.381 41.8511H9.72266C9.07568 41.8511 8.55078 42.3754 8.55078 43.0229C8.55078 43.6699 9.07568 44.1948 9.72266 44.1948H26.381C27.0286 44.1942 27.5529 43.6699 27.5529 43.0229Z" fill="white"/>
<path d="M63.2937 44.1943C63.9407 44.1943 64.4656 43.67 64.4656 43.0225C64.4656 42.3755 63.9407 41.8506 63.2937 41.8506H52.1719C51.5249 41.8506 51 42.3755 51 43.0225C51 43.67 51.5249 44.1943 52.1719 44.1943H63.2937Z" fill="white"/>
<path d="M40.9425 44.1943C41.5901 44.1943 42.1144 43.67 42.1144 43.0225C42.1144 42.3755 41.5901 41.8506 40.9425 41.8506H32.1797C31.5327 41.8506 31.0078 42.3755 31.0078 43.0225C31.0078 43.67 31.5327 44.1943 32.1797 44.1943H40.9425Z" fill="white"/>
<path d="M57.631 51.3813C57.631 50.7338 57.1067 50.2095 56.4591 50.2095H39.8008C39.1538 50.2095 38.6289 50.7338 38.6289 51.3813C38.6289 52.0283 39.1538 52.5532 39.8008 52.5532H56.4591C57.1067 52.5532 57.631 52.0283 57.631 51.3813Z" fill="white"/>
<path d="M35.2823 51.3813C35.2823 50.7338 34.7574 50.2095 34.1105 50.2095H25.3477C24.7001 50.2095 24.1758 50.7338 24.1758 51.3813C24.1758 52.0283 24.7001 52.5532 25.3477 52.5532H34.1105C34.7574 52.5532 35.2823 52.0283 35.2823 51.3813Z" fill="white"/>
<path d="M29.0664 61.1709H45.7247C46.3717 61.1709 46.8966 60.646 46.8966 59.999C46.8966 59.3514 46.3717 58.8271 45.7247 58.8271H29.0664C28.4194 58.8271 27.8945 59.3514 27.8945 59.999C27.8945 60.646 28.4194 61.1709 29.0664 61.1709Z" fill="white"/>
<path d="M9.70703 61.1709H18.4698C19.1174 61.1709 19.6417 60.646 19.6417 59.999C19.6417 59.3514 19.1174 58.8271 18.4698 58.8271H9.70703C9.06006 58.8271 8.53516 59.3514 8.53516 59.999C8.53516 60.646 9.06006 61.1709 9.70703 61.1709Z" fill="white"/>
<path d="M79.3276 58.8271H76.3125C75.6655 58.8271 75.1406 59.3514 75.1406 59.999C75.1406 60.646 75.6655 61.1709 76.3125 61.1709H79.3276C79.9746 61.1709 80.4995 60.646 80.4995 59.999C80.4995 59.3514 79.9746 58.8271 79.3276 58.8271Z" fill="white"/>
<path d="M70.868 58.8269H68.3662V55.8276H77.0009C78.8771 55.8276 80.4042 54.3011 80.4042 52.4249V12.6221C80.4042 10.7452 78.8771 9.21875 77.0009 9.21875H15.9407C14.0638 9.21875 12.5374 10.7452 12.5374 12.6221V24.2725H3.85938C2.00696 24.2725 0.5 25.7794 0.5 27.6318V67.522C0.5 69.3744 2.00696 70.8813 3.85938 70.8813H65.0068C66.8593 70.8813 68.3662 69.3738 68.3662 67.522V65.4907C68.3662 64.8431 67.8413 64.3188 67.1943 64.3188C66.5474 64.3188 66.0225 64.8431 66.0225 65.4907V67.522C66.0225 68.0817 65.5671 68.5376 65.0068 68.5376H3.85938C3.29907 68.5376 2.84375 68.0817 2.84375 67.522V37.1198H66.0225V58.8269H57.7778C57.1302 58.8269 56.606 59.3512 56.606 59.9988C56.606 60.6458 57.1302 61.1707 57.7778 61.1707H70.868C71.515 61.1707 72.0399 60.6458 72.0399 59.9988C72.0399 59.3512 71.515 58.8269 70.868 58.8269ZM14.8811 12.6221C14.8811 12.0374 15.356 11.5625 15.9407 11.5625H77.0009C77.585 11.5625 78.0604 12.0374 78.0604 12.6221V19.7223H19.261C18.614 19.7223 18.0891 20.2472 18.0891 20.8942C18.0891 21.5417 18.614 22.066 19.261 22.066H78.0604V52.4249C78.0604 53.009 77.585 53.4839 77.0009 53.4839H68.3662V27.6318C68.3662 25.7794 66.8593 24.2725 65.0074 24.2725H14.8811V12.6221ZM2.84375 34.776V27.6318C2.84375 27.0715 3.29907 26.6162 3.85938 26.6162H65.0074C65.5671 26.6162 66.0231 27.0715 66.0231 27.6318V34.776H2.84375Z" fill="white"/>
<path d="M23.0697 15.6078C23.0697 13.7126 21.5273 12.1709 19.6322 12.1709C17.7371 12.1709 16.1953 13.7126 16.1953 15.6078C16.1953 17.5029 17.7371 19.0453 19.6322 19.0453C21.5273 19.0453 23.0697 17.5029 23.0697 15.6078ZM18.5391 15.6078C18.5391 15.0054 19.0298 14.5146 19.6322 14.5146C20.2352 14.5146 20.726 15.0054 20.726 15.6078C20.726 16.2108 20.2352 16.7015 19.6322 16.7015C19.0298 16.7015 18.5391 16.2108 18.5391 15.6078Z" fill="white"/>
<path d="M27.8822 19.0453C29.7773 19.0453 31.3197 17.5029 31.3197 15.6078C31.3197 13.7126 29.7773 12.1709 27.8822 12.1709C25.9871 12.1709 24.4453 13.7126 24.4453 15.6078C24.4453 17.5029 25.9871 19.0453 27.8822 19.0453ZM27.8822 14.5146C28.4852 14.5146 28.976 15.0048 28.976 15.6078C28.976 16.2108 28.4852 16.7009 27.8822 16.7009C27.2798 16.7009 26.7891 16.2108 26.7891 15.6078C26.7891 15.0048 27.2798 14.5146 27.8822 14.5146Z" fill="white"/>
<path d="M36.1283 19.0453C38.0234 19.0453 39.5658 17.5029 39.5658 15.6078C39.5658 13.7126 38.0234 12.1709 36.1283 12.1709C34.2332 12.1709 32.6914 13.7126 32.6914 15.6078C32.6914 17.5029 34.2332 19.0453 36.1283 19.0453ZM36.1283 14.5146C36.7313 14.5146 37.222 15.0048 37.222 15.6078C37.222 16.2108 36.7313 16.7009 36.1283 16.7009C35.5259 16.7009 35.0352 16.2108 35.0352 15.6078C35.0352 15.0048 35.5259 14.5146 36.1283 14.5146Z" fill="white"/>
<path d="M7.59314 27.2246C5.698 27.2246 4.15625 28.7664 4.15625 30.6615C4.15625 32.5566 5.698 34.0984 7.59314 34.0984C9.48828 34.0984 11.0306 32.5566 11.0306 30.6615C11.0306 28.7664 9.48828 27.2246 7.59314 27.2246ZM7.59314 31.7546C6.99011 31.7546 6.5 31.2645 6.5 30.6615C6.5 30.0591 6.99011 29.5684 7.59314 29.5684C8.19617 29.5684 8.68689 30.0591 8.68689 30.6615C8.68689 31.2645 8.19617 31.7546 7.59314 31.7546Z" fill="white"/>
<path d="M15.8431 27.2246C13.948 27.2246 12.4062 28.7664 12.4062 30.6615C12.4062 32.5566 13.948 34.0984 15.8431 34.0984C17.7383 34.0984 19.2806 32.5566 19.2806 30.6615C19.2806 28.7664 17.7383 27.2246 15.8431 27.2246ZM15.8431 31.7546C15.2407 31.7546 14.75 31.2645 14.75 30.6615C14.75 30.0591 15.2407 29.5684 15.8431 29.5684C16.4462 29.5684 16.9369 30.0591 16.9369 30.6615C16.9369 31.2645 16.4462 31.7546 15.8431 31.7546Z" fill="white"/>
<path d="M24.0931 27.2246C22.198 27.2246 20.6562 28.7664 20.6562 30.6615C20.6562 32.5566 22.198 34.0984 24.0931 34.0984C25.9889 34.0984 27.5306 32.5566 27.5306 30.6615C27.5306 28.7664 25.9883 27.2246 24.0931 27.2246ZM24.0931 31.7546C23.4907 31.7546 23 31.2645 23 30.6615C23 30.0591 23.4907 29.5684 24.0931 29.5684C24.6962 29.5684 25.1869 30.0591 25.1869 30.6615C25.1869 31.2645 24.6962 31.7546 24.0931 31.7546Z" fill="white"/>
<path d="M12.7968 47.8887C12.3391 47.431 11.5969 47.431 11.1397 47.8887L8.47614 50.5523C8.01837 51.0101 8.01837 51.7523 8.47614 52.2094L11.1397 54.873C11.3686 55.1019 11.6683 55.2166 11.968 55.2166C12.2682 55.2166 12.5679 55.1019 12.7968 54.873C13.2546 54.4158 13.2546 53.6736 12.7968 53.2159L10.9615 51.3812L12.7968 49.5458C13.2546 49.0881 13.2546 48.3465 12.7968 47.8887Z" fill="white"/>
<path d="M20.246 50.5523L17.5825 47.8887C17.1253 47.431 16.3831 47.431 15.9254 47.8887C15.4676 48.3465 15.4676 49.0881 15.9254 49.5458L17.7601 51.3812L15.9254 53.2159C15.4676 53.6736 15.4676 54.4158 15.9254 54.873C16.1542 55.1019 16.4539 55.2166 16.7542 55.2166C17.0539 55.2166 17.3536 55.1019 17.5825 54.873L20.246 52.2094C20.7038 51.7523 20.7038 51.0101 20.246 50.5523Z" fill="white"/>
<path d="M26.3554 56.5064C25.8976 56.0486 25.1561 56.0486 24.6983 56.5064L22.0347 59.17C21.577 59.6277 21.577 60.3699 22.0347 60.8271L24.6983 63.4907C24.9272 63.7195 25.2269 63.8343 25.5272 63.8343C25.8268 63.8343 26.1265 63.7195 26.3554 63.4907C26.8132 63.0329 26.8132 62.2913 26.3554 61.8336L24.5207 59.9988L26.3554 58.1635C26.8132 57.7057 26.8132 56.9642 26.3554 56.5064Z" fill="white"/>
<path d="M48.6793 63.4907C48.9081 63.7195 49.2078 63.8343 49.5075 63.8343C49.8078 63.8343 50.1075 63.7195 50.3364 63.4907L52.9999 60.8271C53.4577 60.3693 53.4577 59.6277 52.9999 59.17L50.3364 56.5064C49.8786 56.0486 49.1364 56.0486 48.6793 56.5064C48.2215 56.9642 48.2215 57.7064 48.6793 58.1635L50.514 59.9988L48.6793 61.8336C48.2215 62.2913 48.2215 63.0329 48.6793 63.4907Z" fill="white"/>
<path d="M45.4145 45.9301L48.9942 42.351C49.452 41.8932 49.452 41.1511 48.9942 40.6939C48.5364 40.2361 47.7943 40.2361 47.3371 40.6939L43.7574 44.273C43.2996 44.7308 43.2996 45.473 43.7574 45.9301C43.9863 46.159 44.2859 46.2737 44.5862 46.2737C44.8859 46.2737 45.1856 46.159 45.4145 45.9301Z" fill="white"/>
</g>
<defs>
<clipPath id="clip0_2517_19012">
<rect width="80" height="80" fill="white" transform="translate(0.5)"/>
</clipPath>
</defs>
</svg>
