<svg width="81" height="80" viewBox="0 0 81 80" fill="none" xmlns="http://www.w3.org/2000/svg">
<path d="M70.3502 17.8704H70.2598C70.6311 16.7688 70.8358 15.5919 70.8358 14.3665C70.8358 14.356 70.8339 14.3451 70.8339 14.3351C70.8335 14.3122 70.832 14.2899 70.8306 14.267C70.8296 14.2542 70.8282 14.2408 70.8263 14.228C70.8073 14.0523 70.7501 13.8809 70.6506 13.7281L63.7214 3.07593C63.2834 2.40228 62.5421 2 61.7385 2H18.3896C17.5869 2 16.8457 2.40228 16.4077 3.07545L9.47843 13.7281C9.37893 13.8809 9.3218 14.0523 9.30276 14.2275C9.30085 14.2408 9.29895 14.2542 9.298 14.268C9.29657 14.2899 9.29514 14.3118 9.29514 14.3346C9.29419 14.3451 9.29324 14.356 9.29324 14.3665C9.29324 15.5919 9.49795 16.7688 9.86929 17.8704H9.85691C7.22231 17.8704 5.07855 20.0132 5.07855 22.6473V30.0522C5.05951 30.037 5.02523 48.7481 5.00905 58.1458C5.00381 58.1906 5 58.2348 5 58.2815V60.2972C5.0019 60.2953 5.00381 60.2948 5.00571 60.2929C5.0019 62.2162 5 63.4007 5 63.4007C5 66.0353 7.14376 68.1791 9.77836 68.1791H28.9808V71.8577H25.8316C23.6378 71.8577 21.853 73.642 21.853 75.8353V78.1433C21.853 79.1674 22.6857 80 23.7097 80H56.3375C57.361 80 58.1937 79.1674 58.1937 78.1433V75.8353C58.1937 73.642 56.4098 71.8577 54.2161 71.8577H51.0668V68.1791H70.2688C72.9029 68.1791 75.0467 66.0353 75.0467 63.4007L75.1276 22.6473C75.1276 20.0132 72.9848 17.8704 70.3502 17.8704ZM18.3253 4.32372C18.3406 4.30182 18.3644 4.28849 18.3896 4.28849H61.7385C61.7647 4.28849 61.7885 4.30182 61.8028 4.32372L67.5814 13.2073H12.5472L18.3253 4.32372ZM48.6908 15.511C48.1285 19.7699 44.4746 23.0672 40.0643 23.0672C35.6539 23.0672 32.0001 19.7699 31.4383 15.511H48.6908ZM28.9094 15.511C28.3476 19.7699 24.6928 23.0672 20.2834 23.0672C15.8731 23.0672 12.2187 19.7699 11.6569 15.511H28.9094ZM7.36799 22.6473C7.36799 21.2758 8.48439 20.1594 9.85691 20.1594H10.9495C11.2747 20.6812 11.6436 21.1739 12.0492 21.6328V30.2645H7.36799V22.6473ZM7.28944 32.553H12.0492V57.1365H7.28944V32.553ZM55.9052 75.8353V77.711H24.142V75.8353C24.142 74.9041 24.8994 74.1467 25.8306 74.1467H54.2156C55.1473 74.1467 55.9052 74.9041 55.9052 75.8353ZM48.7774 71.8572H31.2693V68.1791H48.7784V71.8572H48.7774ZM72.7577 61.297V63.4007C72.7577 64.7732 71.6413 65.8896 70.2688 65.8896H9.77836C8.40584 65.8896 7.28944 64.7732 7.28944 63.4007V59.426H72.7577V61.297ZM72.7577 57.1365H68.0798V45.4775C68.0798 44.8453 67.5676 44.333 66.9354 44.333C66.3036 44.333 65.7913 44.8453 65.7913 45.4775V57.1246H14.3377V23.6038C16.053 24.7116 18.0935 25.3567 20.2834 25.3567C24.6276 25.3567 28.391 22.8221 30.1739 19.1539C31.9563 22.8221 35.7196 25.3567 40.0643 25.3567C44.4061 25.3567 48.1676 22.8254 49.9519 19.1606C50.2899 19.8547 50.7026 20.5174 51.1902 21.1391C51.5801 21.6366 52.2994 21.7242 52.7969 21.3343C53.2944 20.9449 53.382 20.2251 52.9921 19.7276C52.0209 18.4884 51.4182 17.0482 51.2182 15.511H68.4716C67.9099 19.7699 64.256 23.0672 59.8457 23.0672C58.8126 23.0672 57.8023 22.8887 56.8421 22.5359C56.2494 22.3184 55.5915 22.6221 55.3734 23.2148C55.1554 23.8085 55.4591 24.4664 56.0528 24.6845C57.2658 25.1305 58.5417 25.3567 59.8452 25.3567C62.0351 25.3567 64.0756 24.7121 65.7904 23.6038V40.0845C65.7904 40.7167 66.3031 41.229 66.9349 41.229C67.5671 41.229 68.0794 40.7167 68.0794 40.0845V32.553H72.7573V57.1365H72.7577ZM72.8387 30.2645H68.0798V21.6328C68.485 21.1734 68.8539 20.6812 69.1791 20.1594H70.3502C71.7223 20.1594 72.8387 21.2758 72.8387 22.6473V30.2645Z" fill="white"/>
<path d="M50.4451 44.9542C51.383 44.9256 52.1728 44.2015 52.2818 43.2694L53.3863 33.8426C53.4468 33.3251 53.2897 32.7981 52.9559 32.3982C52.6222 31.9979 52.1323 31.7498 51.6115 31.717L30.1929 30.3654L26.4319 27.1419C25.9521 26.7306 25.2294 26.7867 24.818 27.2662C24.4072 27.7465 24.4629 28.4692 24.9428 28.88L28.7514 32.1445L30.7376 44.0487C30.1525 44.8323 29.1384 46.5338 29.2379 48.8237C29.2641 49.4355 29.7683 49.9178 30.381 49.9178H32.4367C32.4281 50.0125 32.4233 50.1072 32.4233 50.2025C32.4233 52.0468 33.9239 53.5464 35.7678 53.5464C37.6116 53.5464 39.1117 52.0468 39.1117 50.2025C39.1117 50.1077 39.1074 50.013 39.0998 49.9178H42.9722C42.9636 50.0125 42.9598 50.1072 42.9598 50.2025C42.9598 52.0468 44.4594 53.5464 46.3033 53.5464C48.1471 53.5464 49.6472 52.0468 49.6472 50.2025C49.6472 50.1077 49.6429 50.013 49.6353 49.9178H51.7062C52.3385 49.9178 52.8507 49.4055 52.8507 48.7738C52.8507 48.1415 52.3385 47.6293 51.7062 47.6293H31.6012C31.7825 46.6471 32.2243 45.9021 32.5114 45.4998L50.4451 44.9542ZM47.3264 49.9178C47.3459 50.0096 47.3578 50.1058 47.3578 50.2025C47.3578 50.7842 46.885 51.2574 46.3028 51.2574C45.7215 51.2574 45.2483 50.7842 45.2483 50.2025C45.2483 50.0977 45.2626 50.003 45.2864 49.9178H47.3264ZM36.7908 49.9178C36.8113 50.0096 36.8223 50.1058 36.8223 50.2025C36.8223 50.7842 36.3495 51.2574 35.7673 51.2574C35.186 51.2574 34.7128 50.7842 34.7128 50.2025C34.7128 50.0977 34.7271 50.003 34.7509 49.9178H36.7908ZM51.0659 33.9759L50.0466 42.6762L32.9156 43.1975L31.1679 32.7205L51.0659 33.9759Z" fill="white"/>
</svg>
