<svg width="81" height="80" viewBox="0 0 81 80" fill="none" xmlns="http://www.w3.org/2000/svg">
<path d="M9.80078 6.2V19.2H12.4008V6.2C12.4008 4.76383 13.5646 3.6 15.0008 3.6H67.0008C68.437 3.6 69.6008 4.76383 69.6008 6.2H72.2008C72.2008 3.3283 69.8725 1 67.0008 1H15.0008C12.1291 1 9.80078 3.3283 9.80078 6.2Z" fill="white"/>
<path d="M7.2 79H67C69.8717 79 72.2 76.6717 72.2 73.8V68.6H69.6V73.8C69.6 75.2362 68.4362 76.4 67 76.4C65.5638 76.4 64.4 75.2362 64.4 73.8V69.9C64.4 69.1818 63.8183 68.6 63.1 68.6H12.4V42.6H9.8V68.6H3.3C2.58175 68.6 2 69.1818 2 69.9V73.8C2 76.6717 4.3283 79 7.2 79ZM4.6 71.2H61.8V73.8C61.7994 74.7136 62.0392 75.6103 62.4984 76.4H7.2C5.76383 76.4 4.6 75.2362 4.6 73.8V71.2Z" fill="white"/>
<path d="M3.3 40H29.3C30.0182 40 30.6 39.4182 30.6 38.7V23.1C30.6 22.3817 30.0182 21.8 29.3 21.8H3.3C2.58175 21.8 2 22.3817 2 23.1V38.7C2 39.4182 2.58175 40 3.3 40ZM4.6 24.4H28V37.4H4.6V24.4Z" fill="white"/>
<path d="M10.1797 27.3809L7.57971 29.9809C7.07239 30.4889 7.07239 31.3111 7.57971 31.8191L10.1797 34.4191L12.0179 32.5809L10.337 30.9L12.0179 29.2191L10.1797 27.3809Z" fill="white"/>
<path d="M22.4202 27.3809L20.582 29.2191L22.2629 30.9L20.582 32.5809L22.4202 34.4191L25.0202 31.8191C25.5276 31.3111 25.5276 30.4889 25.0202 29.9809L22.4202 27.3809Z" fill="white"/>
<path d="M13.7656 34.3889L16.3669 26.5879L18.8343 27.4108L16.2317 35.2111L13.7656 34.3889Z" fill="white"/>
<path d="M78.6992 8.79999H34.4992C33.781 8.79999 33.1992 9.38174 33.1992 10.1V36.1C33.1992 36.8182 33.781 37.4 34.4992 37.4H78.6992C79.4175 37.4 79.9992 36.8182 79.9992 36.1V10.1C79.9992 9.38174 79.4175 8.79999 78.6992 8.79999ZM77.3992 34.8H35.7992V31.6358L47.4732 24.6314L58.8544 31.992C59.2454 32.2439 59.7416 32.2682 60.1544 32.0544L69.5661 27.1794L77.3992 31.654V34.8ZM77.3992 28.6601L70.2492 24.5716C69.8664 24.3519 69.398 24.3431 69.0061 24.5456L59.6373 29.3988L48.2103 22.008C47.7937 21.7389 47.26 21.7301 46.8346 21.9859L35.7992 28.6042V11.4H77.3992V28.6601Z" fill="white"/>
<path d="M63.7492 23.1C66.2621 23.1 68.2992 21.0629 68.2992 18.55C68.2992 16.0371 66.2621 14 63.7492 14C61.2363 14 59.1992 16.0371 59.1992 18.55C59.1992 21.0629 61.2363 23.1 63.7492 23.1ZM63.7492 16.6C64.8263 16.6 65.6992 17.473 65.6992 18.55C65.6992 19.627 64.8263 20.5 63.7492 20.5C62.6722 20.5 61.7992 19.627 61.7992 18.55C61.7992 17.473 62.6722 16.6 63.7492 16.6Z" fill="white"/>
<path d="M15 43.9V59.5C15 60.2183 15.5818 60.8 16.3 60.8H48.8C49.5183 60.8 50.1 60.2183 50.1 59.5V43.9C50.1 43.1818 49.5183 42.6 48.8 42.6H16.3C15.5818 42.6 15 43.1818 15 43.9ZM17.6 45.2H47.5V58.2H17.6V45.2Z" fill="white"/>
<path d="M20.1992 47.8H25.3992V50.4H20.1992V47.8Z" fill="white"/>
<path d="M28 47.8H39.7V50.4H28V47.8Z" fill="white"/>
<path d="M42.3008 47.8H44.9008V50.4H42.3008V47.8Z" fill="white"/>
<path d="M20.1992 53H35.7992V55.6H20.1992V53Z" fill="white"/>
<path d="M38.3984 53H44.8984V55.6H38.3984V53Z" fill="white"/>
<path d="M15 6.19998H17.6V8.79998H15V6.19998Z" fill="white"/>
<path d="M20.1992 6.19998H22.7992V8.79998H20.1992V6.19998Z" fill="white"/>
<path d="M25.3984 6.19998H27.9984V8.79998H25.3984V6.19998Z" fill="white"/>
<path d="M15 11.4H30.6V14H15V11.4Z" fill="white"/>
<path d="M78.6992 47.8H53.9992C53.281 47.8 52.6992 48.3817 52.6992 49.1V64.7C52.6992 65.4182 53.281 66 53.9992 66H78.6992C79.4175 66 79.9992 65.4182 79.9992 64.7V49.1C79.9992 48.3817 79.4175 47.8 78.6992 47.8ZM77.3992 63.4H55.2992V50.4H77.3992V63.4Z" fill="white"/>
<path d="M57.8984 53H60.4984V55.6H57.8984V53Z" fill="white"/>
<path d="M57.8984 58.2H60.4984V60.8H57.8984V58.2Z" fill="white"/>
<path d="M63.1016 53H74.8016V55.6H63.1016V53Z" fill="white"/>
<path d="M63.1016 58.2H74.8016V60.8H63.1016V58.2Z" fill="white"/>
<path d="M69.6016 40H72.2016V45.2H69.6016V40Z" fill="white"/>
</svg>
